<svg width="48" height="48" viewBox="0 0 48 48" fill="none" xmlns="http://www.w3.org/2000/svg">
<g clip-path="url(#clip0_88_1584)">
<path d="M36.8418 9.02295L34.1707 11.6809C34.1156 11.7337 33.9414 11.8057 33.8654 11.807H27.9375V13.2133H33.8654C34.3123 13.2133 34.8456 12.9932 35.1623 12.678L37.9512 9.90279C37.4954 9.73198 37.1079 9.42111 36.8418 9.02295Z" fill="#EF0E0E"/>
<path d="M34.9044 41.7439L33.0863 39.9347C32.7695 39.6195 32.2362 39.3994 31.7893 39.3994H27.9375V40.8057H31.789C31.8653 40.807 32.0395 40.8789 32.0944 40.9316L33.8387 42.6674C34.0873 42.259 34.4601 41.9339 34.9044 41.7439Z" fill="#EF0E0E"/>
<path d="M34.1619 34.938C34.1619 34.6928 34.2011 34.4566 34.273 34.2349H27.9375V35.6411H34.2729C34.201 35.4194 34.1619 35.1831 34.1619 34.938Z" fill="#EF0E0E"/>
<path d="M35.3639 28.8218C35.3639 28.5766 35.4031 28.3404 35.475 28.1187H27.9375V29.5249H35.4749C35.4031 29.3031 35.3639 29.0669 35.3639 28.8218Z" fill="#EF0E0E"/>
<path d="M30 22.2979C30 22.0526 30.0392 21.8164 30.1111 21.5947H27.9375V23.001H30.1111C30.0392 22.7792 30 22.5431 30 22.2979Z" fill="#EF0E0E"/>
<path d="M42.6238 22.2424L37.02 16.6662C36.7032 16.351 36.17 16.1309 35.7231 16.1309H27.9375V17.5371H35.7228C35.799 17.5384 35.9733 17.6103 36.0281 17.663L41.6283 23.2356C41.8481 22.8103 42.1972 22.462 42.6238 22.2424Z" fill="#EF0E0E"/>
<path d="M29.6818 6.44971C29.6818 6.20446 29.7211 5.9683 29.7929 5.74658H27.9375V7.15283H29.7929C29.721 6.93111 29.6818 6.69496 29.6818 6.44971Z" fill="#EF0E0E"/>
<path d="M31.9849 8.83807C30.6633 8.83807 29.5881 7.7666 29.5881 6.4495C29.5881 5.1325 30.6634 4.06104 31.9849 4.06104C33.3065 4.06104 34.3817 5.1325 34.3817 6.4495C34.3817 7.76669 33.3065 8.83807 31.9849 8.83807Z" fill="#EF0E0E"/>
<path d="M17.7158 4.00556C17.432 3.95841 17.1409 3.93272 16.8437 3.93272C13.9331 3.93272 11.5736 6.28059 11.5736 9.17681C11.5736 9.43181 11.5928 9.68222 11.6282 9.92747C11.1222 9.76678 10.5832 9.67912 10.0237 9.67912C7.11309 9.67912 4.75369 12.027 4.75369 14.9232C4.75369 15.7837 4.96331 16.5951 5.3325 17.3115C2.86781 18.5156 1.17065 21.0368 1.17065 23.9532C1.17065 26.8809 2.88075 29.4111 5.361 30.6094C4.97372 31.3393 4.75359 32.1705 4.75359 33.0532C4.75359 35.9495 7.113 38.2972 10.0236 38.2972C10.5809 38.2972 11.1176 38.2104 11.6217 38.051C11.5911 38.2806 11.5735 38.5143 11.5735 38.7521C11.5735 41.6484 13.933 43.9963 16.8436 43.9963C17.1433 43.9963 17.4369 43.9701 17.723 43.9222C18.3938 45.8585 20.2398 47.25 22.4135 47.25C25.1537 47.25 27.375 45.0397 27.375 42.3129V5.59331C27.375 2.86659 25.1537 0.65625 22.4135 0.65625C20.2318 0.65625 18.3804 2.05809 17.7158 4.00556Z" fill="#282828"/>
<g opacity="0.1">
<path d="M2.57686 25.6406C2.57686 22.9786 4.07086 20.595 6.47564 19.4201C6.58898 19.3648 6.67514 19.2662 6.71489 19.1466C6.75455 19.0269 6.74433 18.8963 6.68658 18.7843C6.33708 18.106 6.15989 17.3747 6.15989 16.6107C6.15989 13.9776 8.3137 11.8354 10.9611 11.8354C11.4585 11.8354 11.9507 11.9116 12.4238 12.0618C12.4703 12.0765 12.5182 12.0837 12.5657 12.0837C12.6752 12.0837 12.783 12.0454 12.8688 11.9725C12.9919 11.8683 13.0527 11.7079 13.0297 11.5482C12.9967 11.319 12.9799 11.0889 12.9799 10.8644C12.9799 8.23125 15.1338 6.08897 17.7812 6.08897C18.0431 6.08897 18.3107 6.11137 18.5765 6.15553C18.6024 6.15984 18.6282 6.16191 18.6536 6.16191C18.8511 6.16191 19.0313 6.03666 19.097 5.84447C19.7158 4.03097 21.4253 2.8125 23.3509 2.8125C25.0848 2.8125 26.5915 3.795 27.3402 5.22919C27.1301 2.69503 24.998 0.703125 22.397 0.703125C20.2154 0.703125 18.3639 2.10497 17.6994 4.05244C17.4155 4.00528 17.1244 3.97959 16.8272 3.97959C13.9167 3.97959 11.5572 6.32747 11.5572 9.22369C11.5572 9.47869 11.5764 9.72909 11.6117 9.97434C11.1058 9.81366 10.5668 9.726 10.0072 9.726C7.09664 9.726 4.73723 12.0739 4.73723 14.9701C4.73723 15.8306 4.94686 16.6419 5.31605 17.3584C2.85136 18.5624 1.1543 21.0836 1.1543 24C1.1543 26.3348 2.24264 28.4159 3.9412 29.7712C3.06858 28.6036 2.57686 27.1692 2.57686 25.6406Z" fill="#282828"/>
</g>
<path d="M11.207 26.4563C11.5954 26.4563 11.9101 26.1416 11.9101 25.7532C11.9101 25.3648 11.5954 25.0501 11.207 25.0501H9.19022C7.9035 25.0501 6.85669 24.0099 6.85669 22.7314C6.85669 22.343 6.54197 22.0283 6.15356 22.0283C5.76516 22.0283 5.45044 22.343 5.45044 22.7314C5.45044 24.7853 7.1281 26.4563 9.19022 26.4563H11.207Z" fill="white"/>
<path d="M8.20923 33.8376C8.20923 34.226 8.52395 34.5407 8.91235 34.5407C9.30076 34.5407 9.61548 34.226 9.61548 33.8376C9.61548 32.6369 10.5986 31.6602 11.8073 31.6602H17.814C18.2024 31.6602 18.5171 31.3454 18.5171 30.957C18.5171 30.5686 18.2024 30.2539 17.814 30.2539H11.8073C9.82332 30.2539 8.20923 31.8614 8.20923 33.8376Z" fill="white"/>
<path d="M20.6266 31.6602H23.5431C23.9315 31.6602 24.2462 31.3454 24.2462 30.957C24.2462 30.5686 23.9314 30.2539 23.5431 30.2539H20.6266C20.2382 30.2539 19.9235 30.5686 19.9235 30.957C19.9235 31.3454 20.2382 31.6602 20.6266 31.6602Z" fill="white"/>
<path d="M14.2284 20.9411C13.84 20.9411 13.5253 21.2559 13.5253 21.6443C13.5253 22.0327 13.84 22.3474 14.2284 22.3474C17.0262 22.3474 19.3023 20.0809 19.3023 17.2949C19.3023 16.9066 18.9876 16.5918 18.5992 16.5918C18.2108 16.5918 17.8961 16.9066 17.8961 17.2949C17.8961 19.3055 16.2508 20.9411 14.2284 20.9411Z" fill="white"/>
<path d="M17.3031 5.96243C15.6235 5.85461 14.1672 7.12802 14.0583 8.80202C14.0331 9.18958 14.3268 9.52408 14.7142 9.54939C14.7298 9.55043 14.7453 9.55089 14.7606 9.55089C15.1281 9.55089 15.4373 9.26533 15.4616 8.89343C15.5201 7.99268 16.3057 7.30858 17.2128 7.36577C17.6007 7.39164 17.9346 7.09689 17.9597 6.70933C17.9846 6.32177 17.6907 5.98736 17.3031 5.96243Z" fill="white"/>
<path d="M14.9385 33.3848C14.5501 33.3848 14.2354 33.6995 14.2354 34.0879C14.2354 34.4763 14.5501 34.791 14.9385 34.791C16.0996 34.791 17.0442 35.7294 17.0442 36.8827C17.0442 38.0362 16.0996 38.9746 14.9385 38.9746C14.5501 38.9746 14.2354 39.2893 14.2354 39.6777C14.2354 40.0661 14.5501 40.3809 14.9385 40.3809C16.875 40.3809 18.4504 38.8117 18.4504 36.8827C18.4504 34.954 16.875 33.3848 14.9385 33.3848Z" fill="white"/>
<path d="M22.1343 21.5935C21.7459 21.5935 21.4312 21.9082 21.4312 22.2966C21.4312 22.685 21.7459 22.9998 22.1343 22.9998C23.8425 22.9998 25.2322 21.6153 25.2322 19.9136C25.2322 18.212 23.8425 16.8276 22.1343 16.8276C21.7459 16.8276 21.4312 17.1424 21.4312 17.5308C21.4312 17.9192 21.7459 18.2339 22.1343 18.2339C23.067 18.2339 23.8259 18.9874 23.8259 19.9136C23.8259 20.84 23.067 21.5935 22.1343 21.5935Z" fill="white"/>
<path d="M9.74817 20.9461C12.126 20.9461 14.0607 19.0196 14.0607 16.6514C14.0607 14.2834 12.126 12.3569 9.74817 12.3569C9.35976 12.3569 9.04504 12.6717 9.04504 13.0601C9.04504 13.4485 9.35976 13.7632 9.74817 13.7632C11.3507 13.7632 12.6544 15.0588 12.6544 16.6514C12.6544 18.2441 11.3507 19.5399 9.74817 19.5399C9.35976 19.5399 9.04504 19.8546 9.04504 20.243C9.04504 20.6313 9.35986 20.9461 9.74817 20.9461Z" fill="white"/>
<path d="M22.397 0C20.1641 0 18.161 1.30144 17.247 3.29147C17.1064 3.28144 16.9663 3.27638 16.8272 3.27638C13.5809 3.27638 10.931 5.86819 10.8557 9.08288C10.5754 9.04294 10.2919 9.02278 10.0072 9.02278C6.71358 9.02278 4.03411 11.6907 4.03411 14.97C4.03411 15.6898 4.16039 16.3863 4.41014 17.0488C1.95164 18.5076 0.451172 21.1134 0.451172 24C0.451172 26.8522 1.99364 29.5154 4.43302 30.9637C4.1708 31.6428 4.0342 32.3699 4.0342 33.1C4.0342 36.3793 6.71367 39.0472 10.0073 39.0472C10.2926 39.0472 10.5765 39.027 10.857 38.987C10.957 42.1797 13.5968 44.7462 16.8273 44.7462C16.9696 44.7462 17.1132 44.7409 17.2572 44.7304C18.1761 46.7073 20.1751 48 22.397 48C25.5205 48 28.0617 45.4699 28.0617 42.3598V5.64019C28.0617 2.53012 25.5206 0 22.397 0ZM26.6554 5.71828H25.3031C24.9147 5.71828 24.6 6.033 24.6 6.42141C24.6 6.80981 24.9147 7.12453 25.3031 7.12453H26.6554V11.8073H20.9685C19.6818 11.8073 18.635 10.7672 18.635 9.48881C18.635 9.10041 18.3203 8.78569 17.9319 8.78569C17.5435 8.78569 17.2288 9.10041 17.2288 9.48881C17.2288 11.5426 18.9064 13.2135 20.9685 13.2135H26.6554V25.05H15.25C14.8616 25.05 14.5469 25.3647 14.5469 25.7531C14.5469 26.1415 14.8616 26.4563 15.25 26.4563H26.6554V36.1102H24.4827C22.4987 36.1102 20.8847 37.7178 20.8847 39.6938C20.8847 40.0822 21.1995 40.397 21.5879 40.397C21.9763 40.397 22.291 40.0822 22.291 39.6938C22.291 38.4933 23.2741 37.5165 24.4827 37.5165H26.6554V42.3598C26.6554 42.4703 26.6498 42.5794 26.6415 42.6877H25.3031C24.9147 42.6877 24.6 43.0024 24.6 43.3908C24.6 43.7792 24.9147 44.0939 25.3031 44.0939H26.2803C25.6127 45.566 24.1238 46.5938 22.397 46.5938C20.846 46.5938 19.4402 45.7569 18.6941 44.4494C19.5434 44.172 20.325 43.7057 20.9835 43.0704C21.2629 42.8008 21.2709 42.3557 21.0013 42.0763C20.7316 41.7967 20.2865 41.7888 20.0071 42.0584C19.3443 42.6979 18.5179 43.1139 17.625 43.2699V43.2727C17.6134 43.274 17.078 43.3401 16.8272 43.3401C14.309 43.3401 12.2603 41.303 12.2603 38.799C12.2603 38.735 12.2641 38.6685 12.2672 38.6027C12.8348 38.3717 13.368 38.0556 13.8435 37.6586C14.1416 37.4098 14.1814 36.9664 13.9325 36.6683C13.6836 36.3701 13.2401 36.3302 12.9421 36.5792C12.3706 37.0563 11.691 37.3836 10.9686 37.5383V37.5387C10.6535 37.6061 10.3317 37.6409 10.0071 37.6409C7.48898 37.6409 5.44027 35.6038 5.44027 33.1C5.44027 32.3541 5.61708 31.6427 5.96564 30.9856C5.97398 30.9698 5.99152 30.9374 5.99152 30.9374C6.40505 30.1781 7.03495 29.5375 7.82639 29.1089C8.16792 28.9239 8.29476 28.4973 8.1098 28.1558C7.92492 27.8142 7.49808 27.6872 7.15673 27.8724C6.31683 28.3274 5.6167 28.9655 5.09302 29.7206C3.08264 28.5112 1.85742 26.3726 1.85742 24C1.85742 21.9334 2.79014 20.0409 4.36214 18.788C4.49986 18.6819 4.63964 18.5799 4.7813 18.483C5.8643 17.7418 7.1753 17.3076 8.58642 17.3076C8.97483 17.3076 9.28955 16.9928 9.28955 16.6044C9.28955 16.216 8.97483 15.9013 8.58642 15.9013C7.56492 15.9013 6.58711 16.0902 5.68561 16.434C5.52398 15.9653 5.44055 15.4754 5.44055 14.9701C5.44055 12.4661 7.48917 10.4291 10.0074 10.4291C10.4807 10.4291 10.949 10.5016 11.3992 10.6446C11.6299 10.7178 11.882 10.6672 12.0666 10.5107C12.2513 10.3541 12.3423 10.1137 12.3078 9.87412C12.2764 9.65588 12.2605 9.43706 12.2605 9.22369C12.2605 6.71981 14.3092 4.68272 16.8274 4.68272C17.0747 4.68272 17.3275 4.70391 17.579 4.74525C19.7407 5.10281 21.3943 6.97434 21.3943 9.22369C21.3943 9.61209 21.709 9.92681 22.0974 9.92681C22.4858 9.92681 22.8005 9.61209 22.8005 9.22369C22.8005 6.58913 21.0704 4.35066 18.6822 3.57197C19.4246 2.25178 20.8355 1.40625 22.397 1.40625C24.7451 1.40625 26.6554 3.30562 26.6554 5.64019V5.71828Z" fill="white"/>
<path d="M42.8028 17.1022C41.4811 17.1022 40.406 16.0308 40.406 14.7137C40.406 13.3967 41.4812 12.3252 42.8028 12.3252C44.1244 12.3252 45.1996 13.3967 45.1996 14.7137C45.1996 16.0308 44.1244 17.1022 42.8028 17.1022Z" fill="#EF0E0E"/>
<path d="M45.1521 35.0978C43.8304 35.0978 42.7552 34.0264 42.7552 32.7094C42.7552 31.3924 43.8305 30.3208 45.1521 30.3208C46.4737 30.3208 47.5488 31.3923 47.5488 32.7094C47.5488 34.0265 46.4737 35.0978 45.1521 35.0978Z" fill="#EF0E0E"/>
<path d="M32.3031 24.6862C30.9814 24.6862 29.9062 23.6147 29.9062 22.2977C29.9062 20.9806 30.9815 19.9092 32.3031 19.9092C33.6248 19.9092 34.6999 20.9806 34.6999 22.2977C34.7 23.6148 33.6248 24.6862 32.3031 24.6862Z" fill="#EF0E0E"/>
<path d="M36.465 37.3264C35.1434 37.3264 34.0682 36.255 34.0682 34.9379C34.0682 33.6208 35.1435 32.5493 36.465 32.5493C37.7867 32.5493 38.8619 33.6208 38.8619 34.9379C38.8619 36.2551 37.7867 37.3264 36.465 37.3264Z" fill="#EF0E0E"/>
<path d="M38.7596 10.1431C37.438 10.1431 36.3629 9.07168 36.3629 7.75459C36.3629 6.43759 37.4381 5.36621 38.7596 5.36621C40.0813 5.36621 41.1564 6.43768 41.1564 7.75459C41.1565 9.07177 40.0813 10.1431 38.7596 10.1431Z" fill="#EF0E0E"/>
<path d="M43.677 26.6706C42.3553 26.6706 41.2802 25.5991 41.2802 24.282C41.2802 22.965 42.3554 21.8936 43.677 21.8936C44.9986 21.8936 46.0738 22.965 46.0738 24.282C46.0738 25.5992 44.9986 26.6706 43.677 26.6706Z" fill="#EF0E0E"/>
<path d="M42.0925 42.4368C40.7708 42.4368 39.6957 41.3653 39.6957 40.0482C39.6957 38.7311 40.7709 37.6597 42.0925 37.6597C43.4142 37.6597 44.4893 38.7311 44.4893 40.0482C44.4893 41.3653 43.4142 42.4368 42.0925 42.4368Z" fill="#EF0E0E"/>
<path d="M37.667 31.2102C36.3453 31.2102 35.2701 30.1388 35.2701 28.8217C35.2701 27.5046 36.3454 26.4331 37.667 26.4331C38.9886 26.4331 40.0638 27.5046 40.0638 28.8217C40.0639 30.1388 38.9886 31.2102 37.667 31.2102Z" fill="#EF0E0E"/>
<path d="M35.8094 46.2425C34.4877 46.2425 33.4126 45.171 33.4126 43.8539C33.4126 42.5368 34.4878 41.4653 35.8094 41.4653C37.1311 41.4653 38.2062 42.5368 38.2062 43.8539C38.2062 45.171 37.1311 46.2425 35.8094 46.2425Z" fill="#EF0E0E"/>
</g>
<defs>
<clipPath id="clip0_88_1584">
<rect width="48" height="48" fill="white"/>
</clipPath>
</defs>
</svg>
