<svg width="68" height="68" viewBox="0 0 68 68" fill="none" xmlns="http://www.w3.org/2000/svg">
<path d="M34 35.0625C39.865 35.0625 44.625 30.3025 44.625 24.4375C44.625 18.5725 39.865 13.8125 34 13.8125C28.135 13.8125 23.375 18.5725 23.375 24.4375C23.375 30.3025 28.135 35.0625 34 35.0625ZM28.5812 20.5912C29.8669 19.3481 31.9388 19.3481 33.2244 20.5912L34 21.335L34.7756 20.5912C36.0612 19.3587 38.1331 19.3587 39.4187 20.5912C40.6937 21.8237 40.6937 23.8319 39.4187 25.0644L38.6431 25.8081L34 30.2812L29.3675 25.8081L28.5919 25.0644C27.3169 23.8319 27.3169 21.8237 28.5919 20.5912H28.5812Z" fill="#EF0E0E"/>
<path d="M35.0625 7.4375V4.25C35.0625 3.66562 34.5844 3.1875 34 3.1875C33.4156 3.1875 32.9375 3.66562 32.9375 4.25V7.4375C32.9375 8.02187 33.4156 8.5 34 8.5C34.5844 8.5 35.0625 8.02187 35.0625 7.4375Z" fill="#EF0E0E"/>
<path d="M26.5627 11.1563C26.7221 11.1563 26.8815 11.1245 27.0408 11.0395C27.5615 10.7738 27.774 10.1363 27.519 9.61571L25.9252 6.42821C25.6596 5.90759 25.0221 5.69509 24.5015 5.95009C23.9808 6.21571 23.7683 6.85321 24.0233 7.37384L25.6171 10.5613C25.8083 10.9332 26.1802 11.1457 26.5733 11.1457L26.5627 11.1563Z" fill="#EF0E0E"/>
<path d="M41.4374 11.1562C41.8305 11.1562 42.2024 10.9437 42.3937 10.5718L43.9874 7.3843C44.253 6.86367 44.0405 6.22617 43.5093 5.96055C42.9887 5.69492 42.3512 5.90742 42.0855 6.43867L40.4918 9.62617C40.2262 10.1468 40.4387 10.7843 40.9699 11.0499C41.1187 11.1243 41.2887 11.1668 41.448 11.1668L41.4374 11.1562Z" fill="#EF0E0E"/>
<path d="M19.55 32.2894H19.5925L20.6444 18.2219C20.6656 18.1157 20.6763 18.0094 20.6763 17.9032C20.6763 17.255 20.3575 16.6388 19.805 16.2669C18.7956 15.5975 17.4356 15.9907 16.9363 17.0957L11.5388 32.2894L11.5175 32.3425C10.7631 34.0107 10.3913 35.8169 10.3913 37.6444V43.8069L8.19189 46.0063L15.98 53.0719L19.6138 48.9707C21.0056 47.3982 21.7813 45.3688 21.7813 43.265V35.5725C21.7813 34.9775 21.5475 34.425 21.1331 34C20.7081 33.5857 20.1556 33.3519 19.5606 33.3519C18.4981 33.3519 17.6163 34.0638 17.3825 35.0944L15.8738 41.8838L14.8325 41.65L16.3519 34.8607C16.6813 33.3519 17.9988 32.2894 19.55 32.2894Z" fill="#282828"/>
<path d="M12.5058 61.6887L16.7133 56.5143C17.0746 56.0787 17.0215 55.4305 16.6071 55.0587L6.20521 45.6449C5.75896 45.2412 5.07896 45.2837 4.68584 45.7405L1.65771 49.2574C1.31771 49.6505 1.31771 50.2349 1.64709 50.628L10.8696 61.6993C11.2946 62.2093 12.0915 62.2093 12.5058 61.6993V61.6887Z" fill="#080808"/>
<path d="M50.6175 35.0944C50.3837 34.0638 49.5019 33.3519 48.4394 33.3519C47.8444 33.3519 47.2919 33.5857 46.8669 34C46.4525 34.425 46.2188 34.9775 46.2188 35.5725V43.265C46.2188 45.3688 46.9944 47.3982 48.3863 48.9707L52.02 53.0719L59.8081 46.0063L57.6088 43.8069V37.6444C57.6088 35.8169 57.2369 34.0107 56.4825 32.3425L56.4612 32.2894L51.0638 17.0957C50.5644 15.9907 49.2044 15.5975 48.195 16.2669C47.6425 16.6388 47.3238 17.255 47.3238 17.9032C47.3238 18.0094 47.3344 18.1157 47.3556 18.2219L48.4075 32.2894H48.45C50.0012 32.2894 51.3188 33.3519 51.6481 34.8607L53.1675 41.65L52.1263 41.8838L50.6175 35.0944Z" fill="#282828"/>
<path d="M63.3249 45.73C62.9318 45.2732 62.2518 45.2307 61.8056 45.6344L51.4037 55.0482C50.9893 55.4307 50.9362 56.0682 51.2974 56.5038L55.5049 61.6782C55.9299 62.1988 56.7162 62.1988 57.1412 61.6782L66.3637 50.6069C66.6931 50.2032 66.6931 49.6294 66.3531 49.2363L63.3249 45.7194V45.73Z" fill="#080808"/>
</svg>
