<svg width="68" height="68" viewBox="0 0 68 68" fill="none" xmlns="http://www.w3.org/2000/svg">
<path d="M11.6875 3.1875H41.4375C42.6112 3.1875 43.5625 4.13884 43.5625 5.3125V62.6875C43.5625 63.8612 42.6112 64.8125 41.4375 64.8125H11.6875C10.5138 64.8125 9.5625 63.8612 9.5625 62.6875V5.3125C9.5625 4.13884 10.5138 3.1875 11.6875 3.1875Z" fill="#3A3535"/>
<path d="M9.5625 11.6875H43.5625V54.1875H9.5625V11.6875Z" fill="#EF0E0E"/>
<path d="M31.875 8.5H25.5C24.9132 8.5 24.4375 8.02427 24.4375 7.4375C24.4375 6.85073 24.9132 6.375 25.5 6.375H31.875C32.4618 6.375 32.9375 6.85073 32.9375 7.4375C32.9375 8.02427 32.4618 8.5 31.875 8.5Z" fill="#DADCDE"/>
<path d="M21.25 8.5C21.8368 8.5 22.3125 8.0243 22.3125 7.4375C22.3125 6.8507 21.8368 6.375 21.25 6.375C20.6632 6.375 20.1875 6.8507 20.1875 7.4375C20.1875 8.0243 20.6632 8.5 21.25 8.5Z" fill="#DADCDE"/>
<path d="M26.5625 30.8125C30.6701 30.8125 34 27.4826 34 23.375C34 19.2674 30.6701 15.9375 26.5625 15.9375C22.4549 15.9375 19.125 19.2674 19.125 23.375C19.125 27.4826 22.4549 30.8125 26.5625 30.8125Z" fill="#3A3535"/>
<path d="M26.5625 26.5625C28.3229 26.5625 29.75 25.1354 29.75 23.375C29.75 21.6146 28.3229 20.1875 26.5625 20.1875C24.8021 20.1875 23.375 21.6146 23.375 23.375C23.375 25.1354 24.8021 26.5625 26.5625 26.5625Z" fill="#7E8589"/>
<path d="M30.635 29.5986C28.1606 31.2172 24.9627 31.2172 22.4883 29.5986C23.1579 27.3489 25.5245 26.0681 27.7742 26.7379C29.1496 27.1473 30.2255 28.2232 30.635 29.5986Z" fill="#7E8589"/>
<path d="M54.7626 47.8125C54.5569 47.156 54.2872 46.5212 53.9577 45.9173L56.3125 43.5625L52.0625 39.3125L49.7077 41.6673C49.1038 41.3378 48.469 41.0682 47.8125 40.8624V37.1875H41.4375V40.8624C40.781 41.0682 40.1462 41.3378 39.5423 41.6673L37.1875 39.3125L32.9375 43.5625L35.2923 45.9173C34.9628 46.5212 34.6932 47.156 34.4874 47.8125H30.8125V54.1875H34.4874C34.6932 54.844 34.9628 55.4788 35.2923 56.0827L32.9375 58.4375L37.1875 62.6875L39.5423 60.3327C40.1462 60.6622 40.781 60.9319 41.4375 61.1376V64.8125H47.8125V61.1376C48.469 60.9319 49.1038 60.6622 49.7077 60.3327L52.0625 62.6875L56.3125 58.4375L53.9577 56.0827C54.2872 55.4788 54.5569 54.844 54.7626 54.1875H58.4375V47.8125H54.7626Z" fill="#181433"/>
<path d="M44.625 58.4375C48.7326 58.4375 52.0625 55.1076 52.0625 51C52.0625 46.8924 48.7326 43.5625 44.625 43.5625C40.5174 43.5625 37.1875 46.8924 37.1875 51C37.1875 55.1076 40.5174 58.4375 44.625 58.4375Z" fill="#3A3535"/>
<path d="M44.625 54.1875C46.3854 54.1875 47.8125 52.7604 47.8125 51C47.8125 49.2396 46.3854 47.8125 44.625 47.8125C42.8646 47.8125 41.4375 49.2396 41.4375 51C41.4375 52.7604 42.8646 54.1875 44.625 54.1875Z" fill="white"/>
<path d="M18.0625 35.0625H24.4375V41.4375H18.0625V35.0625Z" fill="#181433"/>
<path d="M28.6875 35.0625H35.0625V41.4375H28.6875V35.0625Z" fill="#181433"/>
<path d="M24.4375 46.75H18.0625C17.4757 46.75 17 46.2743 17 45.6875C17 45.1007 17.4757 44.625 18.0625 44.625H24.4375C25.0243 44.625 25.5 45.1007 25.5 45.6875C25.5 46.2743 25.0243 46.75 24.4375 46.75Z" fill="#181433"/>
<path d="M24.4375 51H18.0625C17.4757 51 17 50.5243 17 49.9375C17 49.3507 17.4757 48.875 18.0625 48.875H24.4375C25.0243 48.875 25.5 49.3507 25.5 49.9375C25.5 50.5243 25.0243 51 24.4375 51Z" fill="#181433"/>
</svg>
