<svg width="68" height="68" viewBox="0 0 68 68" fill="none" xmlns="http://www.w3.org/2000/svg">
<path d="M53.7694 21.1988C53.6521 21.1988 53.5347 21.2004 53.4179 21.2037C51.4241 16.2444 46.5864 12.953 41.1949 12.953C39.2573 12.953 37.3405 13.3812 35.6024 14.1973C33.3436 9.87708 28.8481 7.12866 23.9255 7.12866C16.6645 7.12866 10.7573 13.0289 10.7573 20.2812C10.7573 20.73 10.7813 21.1854 10.8286 21.6419C5.12723 23.1619 1.0625 28.3922 1.0625 34.3514C1.0625 41.6037 6.96987 47.5039 14.2307 47.5039H19.0606C19.6128 57.8325 29.9253 63.9285 34 65.0183C38.0747 63.9285 48.3872 57.8325 48.9394 47.5039H53.7693C61.0303 47.5039 66.9374 41.6037 66.9374 34.3514C66.9374 27.099 61.0303 21.1988 53.7694 21.1988Z" fill="#282828"/>
<path d="M48.3187 8.98972C46.8606 8.28847 45.2144 8.18156 43.6834 8.68811C43.2656 8.8265 43.039 9.27726 43.1773 9.69509C43.3155 10.1129 43.7667 10.3396 44.1843 10.2012C45.321 9.82498 46.5441 9.90493 47.627 10.4256C48.4683 10.8317 49.1573 11.4732 49.6199 12.2809C49.767 12.5381 50.0357 12.682 50.3122 12.682C50.4465 12.682 50.5825 12.648 50.7075 12.5766C51.0895 12.3578 51.2217 11.871 51.0031 11.4891C50.38 10.4007 49.452 9.53664 48.3187 8.98972Z" fill="#EF0E0E"/>
<path d="M55.6871 8.80712C54.5198 6.77337 52.7837 5.15797 50.6656 4.13544C47.9424 2.82432 44.863 2.62377 41.9947 3.57033C41.5767 3.70832 41.3497 4.15882 41.4876 4.57678C41.6255 4.99461 42.076 5.22158 42.494 5.08372C44.9687 4.26719 47.6251 4.44038 49.9735 5.57101C51.8002 6.45302 53.2979 7.84636 54.3047 9.60041C54.452 9.85714 54.7205 10.0007 54.9966 10.0007C55.1312 10.0007 55.2674 9.96658 55.3924 9.89486C55.7742 9.67585 55.9061 9.18883 55.6871 8.80712Z" fill="#EF0E0E"/>
<path d="M19.0352 35.3822V46.6377C19.0352 57.4921 29.8118 63.8983 33.9991 65.0181C38.1866 63.8981 48.9631 57.4919 48.9631 46.6377V35.3822C46.5215 35.3822 41.7575 34.6872 40.6201 30.8586H33.9991H27.378C26.2408 34.6872 21.4768 35.3822 19.0352 35.3822Z" fill="#EF0E0E"/>
<path d="M40.6218 30.8586H38.1426C38.9776 35.4206 43.7677 36.9318 46.2023 36.9318V48.1872C46.2023 55.7354 40.9912 61.1315 36.4082 64.0956C41.3221 61.7646 48.9647 55.7786 48.9647 46.6377V35.3822C46.5232 35.3822 41.7592 34.6872 40.6218 30.8586Z" fill="#EF0E0E"/>
<path d="M60.9342 23.3213C62.5688 25.5126 63.5375 28.2272 63.5375 31.1637C63.5375 38.4161 57.6303 44.3163 50.3694 44.3163H48.964V46.6376C48.964 46.9298 48.9547 47.218 48.9395 47.5038H53.7693C61.0303 47.5038 66.9374 41.6036 66.9374 34.3512C66.9375 29.7363 64.5449 25.6693 60.9342 23.3213Z" fill="#080808"/>
<path d="M19.0361 46.6378V44.3165H10.8309C8.19054 44.3165 5.72952 43.5357 3.66602 42.1938C6.06859 45.4143 9.90993 47.504 14.2309 47.504H19.0607C19.0454 47.2183 19.0361 46.9299 19.0361 46.6378Z" fill="#080808"/>
<path d="M27.6336 49.2827C26.9019 48.5718 26.886 47.4042 27.5979 46.6734C28.3057 45.9426 29.4787 45.9267 30.2105 46.6376L32.3261 48.6909L37.7781 43.2935C38.5018 42.5746 39.6709 42.5786 40.3908 43.3015C41.1105 44.0204 41.1065 45.192 40.3828 45.9109L33.6424 52.5831C32.9267 53.2901 31.7733 53.302 31.0497 52.599L27.6336 49.2827Z" fill="white"/>
</svg>
