<svg width="58" height="58" viewBox="0 0 58 58" fill="none" xmlns="http://www.w3.org/2000/svg">
<path d="M55.647 23.5954C55.4593 23.6177 55.3295 23.7833 55.351 23.9644L55.5202 25.3897L41.6271 9.17689C41.56 9.09807 41.4566 9.05694 41.3516 9.06306C41.2469 9.06848 41.1515 9.1202 41.0905 9.20756L38.941 12.2834L30.2517 5.52686C30.1058 5.414 29.8944 5.4391 29.7792 5.58295C29.6641 5.7268 29.6884 5.93422 29.8347 6.05037L38.8046 13.0236C38.8794 13.0815 38.9712 13.1107 39.0639 13.0897C39.1577 13.0785 39.2397 13.0254 39.2919 12.9491L41.3947 9.93853L55.1344 25.9762L53.5897 26.1596C53.402 26.1819 53.2717 26.3439 53.2936 26.5286C53.3151 26.7096 53.4802 26.8402 53.6678 26.818L55.9967 26.5415C56.181 26.5196 56.3142 26.3536 56.2927 26.1725L56.0212 23.8848C55.9997 23.7038 55.8313 23.5735 55.647 23.5954Z" fill="#EF0E0E"/>
<path d="M11.5304 19.0674H26.1571C26.5423 19.0674 26.8438 18.8424 26.8438 18.5674C26.8438 18.2919 26.5423 18.0674 26.1571 18.0674H11.5304C11.1528 18.0674 10.8438 18.2919 10.8438 18.5674C10.8438 18.8424 11.1528 19.0674 11.5304 19.0674Z" fill="#080808"/>
<path d="M20.5449 5.87123C19.2046 5.33533 17.8716 5.06738 16.5386 5.06738C14.3486 5.06738 12.708 5.80072 11.8438 6.30841C15.0591 9.41097 15.3521 14.2058 15.3301 16.0674H22.6836C23.2695 13.7687 25.7158 11.3642 26.8437 10.3495C25.2405 8.6995 23.6218 7.43732 22.0032 6.56296C21.9585 8.4386 21.5857 11.0405 20.0842 13.029C19.9377 13.2123 19.718 13.3181 19.4902 13.3181C19.3364 13.3181 19.1899 13.2687 19.0581 13.1771C18.7285 12.9514 18.6553 12.5072 18.897 12.1969C20.3545 10.2642 20.5742 7.55649 20.5449 5.87123Z" fill="#080808"/>
<path d="M33.8438 34.6305C30.8701 28.5146 25.7294 23.1373 24.6699 22.0674H22.3593L24.6835 26.5687C24.8613 26.907 24.7307 27.328 24.3964 27.5006C24.2939 27.5558 24.1838 27.5834 24.082 27.5834C23.8359 27.5834 23.5966 27.4454 23.4729 27.2107L20.8137 22.0681H17.1291L14.3947 27.2176C14.271 27.453 14.0324 27.5834 13.7856 27.5834C13.6762 27.5834 13.5675 27.5558 13.4643 27.5006C13.1362 27.3211 13.0063 26.9001 13.184 26.5625L15.5766 22.0681H13.6831C12.0301 23.8069 0.477329 36.3839 3.28008 45.3023C4.36769 48.7261 7.41653 51.4251 11.8668 52.9023C18.3268 55.0491 26.4001 54.1586 31.2399 50.8115C31.2399 50.7769 31.2331 50.7417 31.2331 50.7079V37.8404C31.2324 36.584 32.2168 35.4658 33.8438 34.6305ZM25.2646 47.3594C23.4941 48.6088 21.5253 49.2369 19.413 49.2369C13.8007 49.2369 9.22738 44.6258 9.22738 38.9586C9.22738 36.963 9.78793 35.0647 10.8475 33.464C11.0526 33.1464 11.4764 33.056 11.7977 33.2707C12.1053 33.4847 12.1942 33.9126 11.983 34.2302C11.0806 35.6038 10.5953 37.2398 10.5953 38.9593C10.5953 43.8665 14.5533 47.857 19.4137 47.857C21.2389 47.857 22.9479 47.3117 24.4791 46.228C24.7936 46.0078 25.2174 46.083 25.4355 46.4006C25.6474 46.7105 25.5722 47.1385 25.2646 47.3594ZM20.9237 33.5606C22.2021 34.1542 22.913 35.59 22.6122 37.0258C22.537 37.3986 22.1747 37.6409 21.8056 37.558C21.4364 37.4821 21.1965 37.1162 21.2724 36.7435C21.4433 35.9359 21.0468 35.1351 20.3085 34.79C20.0214 34.6312 19.7138 34.5477 19.4198 34.5346H19.3925C18.8941 34.5139 18.4286 34.6927 18.0731 35.0523C17.4306 35.7005 17.2932 36.5633 17.717 37.3578C18.1005 38.1379 18.5715 38.2138 19.4465 38.2966C20.1916 38.3657 21.1213 38.4485 21.8322 39.3176C22.9944 40.5877 22.9534 42.5895 21.7085 43.8465C21.258 44.3014 20.6906 44.5989 20.0959 44.737V45.1166C20.0959 45.4963 19.7883 45.8069 19.4123 45.8069C19.0288 45.8069 18.7287 45.4963 18.7287 45.1166V44.757C18.4279 44.6949 18.1408 44.5844 17.8811 44.4326C16.6232 43.8527 15.8986 42.3548 16.2062 40.8914C16.2883 40.5187 16.6506 40.2771 17.0197 40.3592C17.3889 40.442 17.6213 40.8079 17.5461 41.1806C17.3684 42.0021 17.786 42.8718 18.51 43.2101C19.2209 43.6242 20.1574 43.4648 20.746 42.8649C21.457 42.147 21.4836 40.9666 20.8075 40.228C20.4452 39.7939 20.0282 39.7386 19.3173 39.6696C18.443 39.5875 17.2392 39.477 16.5016 37.9922C15.8104 36.6876 16.0429 35.1482 17.1031 34.0783C17.5611 33.6158 18.1285 33.3328 18.7301 33.2155V32.8841C18.7301 32.5045 19.0302 32.1938 19.4137 32.1938C19.7897 32.1938 20.0973 32.5045 20.0973 32.8841V33.25C20.3769 33.3121 20.6571 33.4156 20.9237 33.5606ZM27.9716 44.5361C27.8418 44.7363 27.623 44.8467 27.4043 44.8467C27.2751 44.8467 27.1377 44.8053 27.0214 44.7294C26.707 44.5154 26.625 44.0874 26.8362 43.7699C27.7324 42.4169 28.2239 40.705 28.2239 38.9586C28.2239 34.099 24.2727 30.1368 19.4123 30.1368C17.5871 30.1368 15.7817 30.6959 14.3325 31.6968C14.0256 31.9177 13.6017 31.8349 13.3823 31.5174C13.1704 31.2067 13.2531 30.7788 13.56 30.5579C15.2348 29.3975 17.313 28.7562 19.4123 28.7562C25.0247 28.7562 29.5911 33.3328 29.5911 38.9586C29.5918 40.9811 29.0175 42.9623 27.9716 44.5361Z" fill="#080808"/>
<path d="M41.3713 34.3542C38.9576 34.3542 36.843 34.7855 35.3197 35.4046C35.3127 35.4115 35.3127 35.4192 35.3058 35.4192C35.2849 35.4262 35.271 35.4262 35.2571 35.4331C33.7268 36.0661 32.8086 36.9008 32.8086 37.6868C32.8086 39.2999 36.3283 41.0945 41.3713 41.0945C46.2752 41.0945 49.941 39.2999 49.941 37.6868C49.941 36.1141 46.2752 34.3542 41.3713 34.3542Z" fill="#EF0E0E"/>
<path d="M32.8086 40.1973V44.2115C32.8086 45.8183 36.2518 47.5434 41.3713 47.5434C46.4213 47.5434 49.941 45.7835 49.941 44.2115V40.1555C48.2229 41.5606 45.0649 42.4857 41.3713 42.4857C37.636 42.4857 34.5128 41.5884 32.8086 40.1973Z" fill="#EF0E0E"/>
<path d="M32.8086 46.6802V50.652C32.8086 52.2658 36.3283 54.0674 41.3713 54.0674C46.2752 54.0674 49.941 52.2658 49.941 50.652V46.6802C48.2368 48.0505 45.1136 48.9339 41.3713 48.9339C37.636 48.9339 34.5128 48.0505 32.8086 46.6802Z" fill="#EF0E0E"/>
</svg>
