<svg width="58" height="58" viewBox="0 0 58 58" fill="none" xmlns="http://www.w3.org/2000/svg">
<g clip-path="url(#clip0_490_1345)">
<path d="M36.746 30.9205L36.2712 30.6586C36.1344 30.5876 36.0226 30.4766 35.9505 30.3404C35.8785 30.2043 35.8496 30.0494 35.8679 29.8964C35.9537 29.302 35.9537 28.6983 35.8679 28.1038C35.8496 27.9509 35.8785 27.796 35.9505 27.6598C36.0226 27.5236 36.1344 27.4127 36.2712 27.3417L36.746 27.0798C36.838 27.0312 36.9192 26.9645 36.9845 26.8836C37.0499 26.8027 37.098 26.7093 37.1261 26.6091C37.1542 26.509 37.1616 26.4042 37.1478 26.3011C37.134 26.198 37.0994 26.0988 37.046 26.0095L35.732 23.8345C35.6174 23.6527 35.4376 23.5217 35.2294 23.4684C35.0212 23.4151 34.8005 23.4437 34.6127 23.5481L34.1324 23.8127C33.9859 23.8903 33.8203 23.9244 33.655 23.9109C33.4898 23.8974 33.3319 23.8369 33.1999 23.7366C32.7267 23.3895 32.2115 23.1036 31.6665 22.8857C31.5142 22.831 31.3818 22.7317 31.2866 22.6008C31.1914 22.4699 31.1378 22.3134 31.1327 22.1516V21.6269C31.1277 21.4151 31.0392 21.2139 30.8864 21.0672C30.7335 20.9205 30.5289 20.8402 30.3171 20.8439H27.689C27.4772 20.8402 27.2725 20.9205 27.1197 21.0672C26.9669 21.2139 26.8784 21.4151 26.8734 21.6269V22.1516C26.8683 22.3134 26.8147 22.4699 26.7195 22.6008C26.6243 22.7317 26.4919 22.831 26.3396 22.8857C25.7946 23.1036 25.2794 23.3895 24.8062 23.7366C24.6742 23.8369 24.5163 23.8974 24.3511 23.9109C24.1858 23.9244 24.0202 23.8903 23.8737 23.8127L23.3934 23.5481C23.2056 23.4437 22.9849 23.4151 22.7767 23.4684C22.5685 23.5217 22.3887 23.6527 22.2741 23.8345L20.9601 26.0095C20.9067 26.0988 20.8721 26.198 20.8583 26.3011C20.8445 26.4042 20.8519 26.509 20.88 26.6091C20.908 26.7093 20.9562 26.8027 21.0216 26.8836C21.0869 26.9645 21.1681 27.0312 21.26 27.0798L21.7349 27.3417C21.8717 27.4127 21.9835 27.5236 22.0556 27.6598C22.1276 27.796 22.1564 27.9509 22.1382 28.1038C22.0524 28.6983 22.0524 29.302 22.1382 29.8964C22.1564 30.0494 22.1276 30.2043 22.0556 30.3404C21.9835 30.4766 21.8717 30.5876 21.7349 30.6586L21.26 30.9205C21.1681 30.969 21.0869 31.0358 21.0216 31.1167C20.9562 31.1976 20.908 31.291 20.88 31.3911C20.8519 31.4913 20.8445 31.5961 20.8583 31.6992C20.8721 31.8023 20.9067 31.9015 20.9601 31.9907L22.2741 34.1657C22.3887 34.3476 22.5685 34.4786 22.7767 34.5319C22.9849 34.5851 23.2056 34.5566 23.3934 34.4521L23.8737 34.1875C24.0202 34.1099 24.1858 34.0759 24.3511 34.0894C24.5163 34.1028 24.6742 34.1633 24.8062 34.2636C25.2794 34.6107 25.7946 34.8967 26.3396 35.1146C26.4919 35.1693 26.6243 35.2685 26.7195 35.3994C26.8147 35.5303 26.8683 35.6869 26.8734 35.8486V36.3734C26.8784 36.5851 26.9669 36.7863 27.1197 36.933C27.2725 37.0797 27.4772 37.16 27.689 37.1564H30.3171C30.5289 37.16 30.7335 37.0797 30.8864 36.933C31.0392 36.7863 31.1277 36.5851 31.1327 36.3734V35.8486C31.1378 35.6869 31.1914 35.5303 31.2866 35.3994C31.3818 35.2685 31.5142 35.1693 31.6665 35.1146C32.2115 34.8967 32.7267 34.6107 33.1999 34.2636C33.3319 34.1633 33.4898 34.1028 33.655 34.0894C33.8203 34.0759 33.9859 34.1099 34.1324 34.1875L34.6127 34.4521C34.8005 34.5566 35.0212 34.5851 35.2294 34.5319C35.4376 34.4786 35.6174 34.3476 35.732 34.1657L37.046 31.9907C37.0994 31.9015 37.134 31.8023 37.1478 31.6992C37.1616 31.5961 37.1542 31.4913 37.1261 31.3911C37.098 31.291 37.0499 31.1976 36.9845 31.1167C36.9192 31.0358 36.838 30.969 36.746 30.9205ZM28.9994 32.0587C28.3945 32.0587 27.8031 31.8793 27.3002 31.5432C26.7972 31.2072 26.4051 30.7295 26.1736 30.1706C25.9422 29.6117 25.8816 28.9967 25.9996 28.4034C26.1176 27.8101 26.4089 27.2651 26.8367 26.8374C27.2644 26.4096 27.8094 26.1183 28.4027 26.0003C28.996 25.8823 29.611 25.9428 30.1699 26.1743C30.7288 26.4058 31.2065 26.7979 31.5425 27.3009C31.8786 27.8038 32.058 28.3952 32.058 29.0001C32.058 29.8113 31.7358 30.5893 31.1622 31.1629C30.5886 31.7365 29.8106 32.0587 28.9994 32.0587Z" fill="#3A3535"/>
<path d="M29 15.4062C33.0041 15.4062 36.25 12.1603 36.25 8.15625C36.25 4.15219 33.0041 0.90625 29 0.90625C24.9959 0.90625 21.75 4.15219 21.75 8.15625C21.75 12.1603 24.9959 15.4062 29 15.4062Z" fill="#282828"/>
<path d="M49.8438 36.25C53.8478 36.25 57.0938 33.0041 57.0938 29C57.0938 24.9959 53.8478 21.75 49.8438 21.75C45.8397 21.75 42.5938 24.9959 42.5938 29C42.5938 33.0041 45.8397 36.25 49.8438 36.25Z" fill="#EF0E0E"/>
<path d="M8.15625 36.25C12.1603 36.25 15.4062 33.0041 15.4062 29C15.4062 24.9959 12.1603 21.75 8.15625 21.75C4.15219 21.75 0.90625 24.9959 0.90625 29C0.90625 33.0041 4.15219 36.25 8.15625 36.25Z" fill="#EF0E0E"/>
<path d="M29 57.0938C33.0041 57.0938 36.25 53.8478 36.25 49.8438C36.25 45.8397 33.0041 42.5938 29 42.5938C24.9959 42.5938 21.75 45.8397 21.75 49.8438C21.75 53.8478 24.9959 57.0938 29 57.0938Z" fill="#282828"/>
<path d="M30.3594 8.15625C30.3594 7.40549 29.7508 6.79688 29 6.79688C28.2492 6.79688 27.6406 7.40549 27.6406 8.15625C27.6406 8.90701 28.2492 9.51562 29 9.51562C29.7508 9.51562 30.3594 8.90701 30.3594 8.15625Z" fill="#F2F2F2"/>
<path d="M48.9375 29C48.9375 28.2492 48.3289 27.6406 47.5781 27.6406C46.8274 27.6406 46.2188 28.2492 46.2188 29C46.2188 29.7508 46.8274 30.3594 47.5781 30.3594C48.3289 30.3594 48.9375 29.7508 48.9375 29Z" fill="#F2F2F2"/>
<path d="M53.4688 29C53.4688 28.2492 52.8601 27.6406 52.1094 27.6406C51.3586 27.6406 50.75 28.2492 50.75 29C50.75 29.7508 51.3586 30.3594 52.1094 30.3594C52.8601 30.3594 53.4688 29.7508 53.4688 29Z" fill="#F2F2F2"/>
<path d="M28.0938 51.6562C28.0938 50.9055 27.4851 50.2969 26.7344 50.2969C25.9836 50.2969 25.375 50.9055 25.375 51.6562C25.375 52.407 25.9836 53.0156 26.7344 53.0156C27.4851 53.0156 28.0938 52.407 28.0938 51.6562Z" fill="#F2F2F2"/>
<path d="M32.625 51.6562C32.625 50.9055 32.0164 50.2969 31.2656 50.2969C30.5149 50.2969 29.9062 50.9055 29.9062 51.6562C29.9062 52.407 30.5149 53.0156 31.2656 53.0156C32.0164 53.0156 32.625 52.407 32.625 51.6562Z" fill="#F2F2F2"/>
<path d="M30.3594 47.125C30.3594 46.3742 29.7508 45.7656 29 45.7656C28.2492 45.7656 27.6406 46.3742 27.6406 47.125C27.6406 47.8758 28.2492 48.4844 29 48.4844C29.7508 48.4844 30.3594 47.8758 30.3594 47.125Z" fill="#F2F2F2"/>
<path d="M7.25 31.2656C7.25 30.5149 6.64139 29.9062 5.89062 29.9062C5.13986 29.9062 4.53125 30.5149 4.53125 31.2656C4.53125 32.0164 5.13986 32.625 5.89062 32.625C6.64139 32.625 7.25 32.0164 7.25 31.2656Z" fill="#F2F2F2"/>
<path d="M11.7812 31.2656C11.7812 30.5149 11.1726 29.9062 10.4219 29.9062C9.67111 29.9062 9.0625 30.5149 9.0625 31.2656C9.0625 32.0164 9.67111 32.625 10.4219 32.625C11.1726 32.625 11.7812 32.0164 11.7812 31.2656Z" fill="#F2F2F2"/>
<path d="M7.25 26.7344C7.25 25.9836 6.64139 25.375 5.89062 25.375C5.13986 25.375 4.53125 25.9836 4.53125 26.7344C4.53125 27.4851 5.13986 28.0938 5.89062 28.0938C6.64139 28.0938 7.25 27.4851 7.25 26.7344Z" fill="#F2F2F2"/>
<path d="M11.7812 26.7344C11.7812 25.9836 11.1726 25.375 10.4219 25.375C9.67111 25.375 9.0625 25.9836 9.0625 26.7344C9.0625 27.4851 9.67111 28.0938 10.4219 28.0938C11.1726 28.0938 11.7812 27.4851 11.7812 26.7344Z" fill="#F2F2F2"/>
<path d="M7.25 12.6875C7.25144 11.4862 7.7293 10.3345 8.57876 9.48501C9.42822 8.63555 10.5799 8.15769 11.7812 8.15625H14.0469V10.875L18.8799 7.25L14.0469 3.625V6.34375H11.7812C10.0994 6.34567 8.48693 7.01464 7.29766 8.20391C6.10839 9.39318 5.43942 11.0056 5.4375 12.6875V19.0312H7.25V12.6875Z" fill="#080808"/>
<path d="M7.25 45.3125V43.9531H9.96875L6.34375 39.1201L2.71875 43.9531H5.4375V45.3125C5.43942 46.9944 6.10839 48.6068 7.29766 49.7961C8.48693 50.9854 10.0994 51.6544 11.7812 51.6563H19.0312V49.8438H11.7812C10.5799 49.8423 9.42822 49.3645 8.57876 48.515C7.7293 47.6655 7.25144 46.5138 7.25 45.3125Z" fill="#080808"/>
<path d="M50.749 45.3125C50.7476 46.5138 50.2697 47.6655 49.4203 48.515C48.5708 49.3644 47.4191 49.8423 46.2178 49.8438H43.9522V47.125L39.1191 50.75L43.9522 54.375V51.6562H46.2178C47.8997 51.6543 49.5121 50.9854 50.7014 49.7961C51.8907 48.6068 52.5596 46.9944 52.5615 45.3125V38.9688H50.749V45.3125Z" fill="#080808"/>
<path d="M50.75 12.6875V14.0469H48.0312L51.6562 18.8799L55.2812 14.0469H52.5625V12.6875C52.5606 11.0056 51.8916 9.39318 50.7023 8.20391C49.5131 7.01464 47.9006 6.34567 46.2188 6.34375H38.9688V8.15625H46.2188C47.4201 8.15769 48.5718 8.63555 49.4212 9.48501C50.2707 10.3345 50.7486 11.4862 50.75 12.6875Z" fill="#080808"/>
</g>
<defs>
<clipPath id="clip0_490_1345">
<rect width="58" height="58" fill="white"/>
</clipPath>
</defs>
</svg>
