<svg width="48" height="48" viewBox="0 0 48 48" fill="none" xmlns="http://www.w3.org/2000/svg">
<g clip-path="url(#clip0_88_1869)">
<path fill-rule="evenodd" clip-rule="evenodd" d="M24.7272 47.2726C24.7272 47.6742 24.4016 47.9999 24 47.9999C23.5984 47.9999 23.2727 47.6742 23.2727 47.2726V44.9347C12.4553 44.5599 3.7546 35.8593 3.37977 25.0417H1.04172C0.640111 25.0417 0.314453 24.7161 0.314453 24.3145C0.314453 23.9129 0.640111 23.5872 1.04172 23.5872H3.37966C3.7545 12.7698 12.4552 4.06911 23.2726 3.69428V0.726774C23.2726 0.325169 23.5983 -0.000488281 23.9999 -0.000488281C24.4015 -0.000488281 24.7271 0.325169 24.7271 0.726774V3.69417C35.5447 4.069 44.2452 12.7697 44.6201 23.5871H46.958C47.3596 23.5871 47.6853 23.9128 47.6853 24.3144C47.6853 24.716 47.3596 25.0416 46.958 25.0416H44.6201C44.2452 35.8591 35.5445 44.5597 24.7271 44.9346V47.2726H24.7272ZM24.7272 5.14944V7.04355C24.7272 7.44515 24.4016 7.77081 24 7.77081C23.5984 7.77081 23.2727 7.44515 23.2727 7.04355V5.14944C13.2587 5.52289 5.20849 13.5731 4.83504 23.5871H7.14643C7.54804 23.5871 7.87369 23.9128 7.87369 24.3144C7.87369 24.716 7.54804 25.0416 7.14643 25.0416H4.83504C5.20849 35.0556 13.2587 43.1059 23.2727 43.4793V41.1679C23.2727 40.7663 23.5984 40.4407 24 40.4407C24.4016 40.4407 24.7272 40.7663 24.7272 41.1679V43.4793C34.7412 43.1059 42.7915 35.0556 43.1649 25.0416H40.8535C40.4519 25.0416 40.1263 24.716 40.1263 24.3144C40.1263 23.9128 40.4519 23.5871 40.8535 23.5871H43.1649C42.7916 13.5731 34.7413 5.52289 24.7272 5.14944Z" fill="#282828"/>
<path fill-rule="evenodd" clip-rule="evenodd" d="M15.9288 28.8279C15.1395 28.9297 14.2814 28.791 13.4831 28.3798C11.5915 27.4056 10.7507 25.2708 11.6051 23.6117C12.169 22.5169 13.33 21.9029 14.5982 21.8916L15.9288 28.8279Z" fill="#F0B16E"/>
<path fill-rule="evenodd" clip-rule="evenodd" d="M15.929 28.8279C15.2212 28.9191 14.4583 28.817 13.7327 28.4986C13.2691 26.4733 13.0965 24.3152 13.2328 22.1561C13.655 21.9862 14.119 21.8959 14.5983 21.8916L15.929 28.8279Z" fill="#CF8C48"/>
<path fill-rule="evenodd" clip-rule="evenodd" d="M32.0713 29.12C32.8606 29.2218 33.7186 29.0831 34.517 28.6719C36.4086 27.6977 37.2494 25.5629 36.395 23.9037C35.8311 22.8089 34.67 22.1949 33.4019 22.1836L32.0713 29.12Z" fill="#F0B16E"/>
<path fill-rule="evenodd" clip-rule="evenodd" d="M32.0713 29.1199C32.7539 29.2079 33.4878 29.1161 34.1903 28.8237C34.6869 26.8055 34.8933 24.6413 34.7844 22.4551C34.3576 22.2808 33.8877 22.188 33.402 22.1836L32.0713 29.1199Z" fill="#CF8C48"/>
<path fill-rule="evenodd" clip-rule="evenodd" d="M32.9773 18.1748C33.5321 19.9542 33.8411 21.9281 33.8411 24.0064C33.8411 31.8569 29.4351 38.2209 24.0003 38.2209C18.5653 38.2209 14.1594 31.8569 14.1594 24.0064C14.1594 21.9282 14.4683 19.9542 15.0232 18.1748H32.9773Z" fill="#F0B16E"/>
<path fill-rule="evenodd" clip-rule="evenodd" d="M32.9772 18.1748C33.1778 18.8183 33.3463 19.4872 33.4797 20.1774H14.5205C14.6538 19.4872 14.8223 18.8183 15.023 18.1748H32.9772Z" fill="#CF8C48"/>
<path fill-rule="evenodd" clip-rule="evenodd" d="M33.8156 25.0196C33.7239 26.8987 33.3794 28.6768 32.8309 30.2838C32.2998 30.8294 31.5576 31.1606 30.7395 31.1606H27.4146C26.2961 31.1606 25.3339 30.665 24.6845 29.7544L23.9999 28.7946L23.3153 29.7545C22.6659 30.6651 21.7038 31.1607 20.5853 31.1607H17.2604C16.4424 31.1607 15.7002 30.8295 15.1691 30.2839C14.6205 28.6768 14.2762 26.8987 14.1843 25.0195C14.2972 24.3665 14.8672 23.8711 15.5493 23.8711H32.4508C33.1327 23.8711 33.7029 24.3666 33.8156 25.0196Z" fill="#CF8C48"/>
<path fill-rule="evenodd" clip-rule="evenodd" d="M33.8357 23.5377C33.8618 24.7086 33.7896 25.865 33.6245 26.9831C33.4118 28.4237 32.1959 29.4732 30.7397 29.4732H27.4148C26.2963 29.4732 25.3341 28.9776 24.6847 28.067L24.0001 27.1071L23.3155 28.067C22.6662 28.9776 21.704 29.4732 20.5855 29.4732H17.2606C15.8044 29.4732 14.5886 28.4237 14.3758 26.9831C14.2108 25.8653 14.1386 24.7085 14.1646 23.5377C14.1815 22.7858 14.7975 22.1836 15.5495 22.1836H32.451C33.2029 22.1836 33.8189 22.7859 33.8357 23.5377Z" fill="#282828"/>
<path fill-rule="evenodd" clip-rule="evenodd" d="M24.0003 9.7915C28.3649 9.7915 32.0652 13.0016 33.3536 17.4455H14.647C15.9353 13.0016 19.6356 9.7915 24.0003 9.7915Z" fill="#EF0E0E"/>
<path fill-rule="evenodd" clip-rule="evenodd" d="M32.3211 14.9727C32.7502 15.7389 33.0992 16.5682 33.3537 17.4459H14.647C14.9015 16.5682 15.2503 15.7389 15.6795 14.9727H32.3211Z" fill="#EF0E0E"/>
<path fill-rule="evenodd" clip-rule="evenodd" d="M13.6125 16.3525H34.3877C35.1895 16.3525 35.8456 17.0085 35.8456 17.8105C35.8456 18.6124 35.1896 19.2684 34.3877 19.2684H13.6125C12.8107 19.2684 12.1545 18.6124 12.1545 17.8105C12.1546 17.0085 12.8107 16.3525 13.6125 16.3525Z" fill="#E33F65"/>
<path fill-rule="evenodd" clip-rule="evenodd" d="M21.5799 26.3237C20.5252 27.9585 17.9358 27.9599 17.239 26.2842C16.9361 25.5555 17.1155 24.7333 17.6342 24.1079L21.5799 26.3237Z" fill="#EF0E0E"/>
<path fill-rule="evenodd" clip-rule="evenodd" d="M26.4202 26.3237C27.475 27.9586 30.0643 27.9598 30.7609 26.2842C31.0639 25.5555 30.8844 24.7333 30.3658 24.1079L26.4202 26.3237Z" fill="#EF0E0E"/>
</g>
<defs>
<clipPath id="clip0_88_1869">
<rect width="48" height="48" fill="white"/>
</clipPath>
</defs>
</svg>
