<svg width="48" height="48" viewBox="0 0 48 48" fill="none" xmlns="http://www.w3.org/2000/svg">
<path fill-rule="evenodd" clip-rule="evenodd" d="M10.4963 31.4569C6.09027 31.089 2.62366 27.39 2.62366 22.8856C2.62366 18.1638 6.43225 14.3271 11.1391 14.2845C11.1802 7.22031 16.9229 1.49854 23.9895 1.49854C31.0817 1.49854 36.8414 7.26292 36.8414 14.3626C36.8414 14.8157 36.8173 15.2632 36.7719 15.7035H37.47C41.8207 15.7035 45.3554 19.2406 45.3554 23.5958C45.3554 27.9468 41.8292 31.4796 37.4828 31.4881V25.4894C37.4828 21.3486 34.1269 17.9934 29.9862 17.9934H17.9928C13.8522 17.9934 10.4963 21.3486 10.4963 25.4894V31.4569Z" fill="#282828"/>
<path fill-rule="evenodd" clip-rule="evenodd" d="M30 21.105C32.4855 21.105 34.5 23.1198 34.5 25.6055V40.6108C34.5 43.0965 32.4855 45.1113 30 45.1113H18C15.5145 45.1113 13.5 43.0965 13.5 40.6108V25.6055C13.5 23.1198 15.5145 21.105 18 21.105H30ZM21 39.1106H27C27.828 39.1106 28.5 38.4367 28.5 37.6087C28.5 36.7807 27.828 36.1085 27 36.1085H21C20.172 36.1085 19.5 36.7807 19.5 37.6087C19.5 38.4367 20.172 39.1106 21 39.1106ZM21 30.1078H24C24.828 30.1078 25.5 29.4356 25.5 28.6076C25.5 27.7796 24.828 27.1057 24 27.1057H21C20.172 27.1057 19.5 27.7796 19.5 28.6076C19.5 29.4356 20.172 30.1078 21 30.1078ZM21 34.6083H27C27.828 34.6083 28.5 33.9361 28.5 33.1081C28.5 32.2802 27.828 31.608 27 31.608H21C20.172 31.608 19.5 32.2802 19.5 33.1081C19.5 33.9361 20.172 34.6083 21 34.6083Z" fill="#EF0E0E"/>
</svg>
