<svg width="48" height="48" viewBox="0 0 48 48" fill="none" xmlns="http://www.w3.org/2000/svg">
<g clip-path="url(#clip0_88_1898)">
<mask id="mask0_88_1898" style="mask-type:luminance" maskUnits="userSpaceOnUse" x="0" y="0" width="48" height="48">
<path d="M48 48H0V0H48V48Z" fill="white"/>
</mask>
<g mask="url(#mask0_88_1898)">
<path d="M24.0908 27.9475L43.5562 16.8581C43.7336 16.6807 43.8332 16.4402 43.8332 16.1893C43.8332 15.9385 43.7336 15.6979 43.5562 15.5205L24.0906 4.10448C23.9132 3.9271 23.6726 3.82745 23.4218 3.82745C23.1709 3.82745 22.9303 3.92711 22.7529 4.10449L3.76364 15.5205C3.58626 15.6979 3.48661 15.9385 3.48661 16.1893C3.48661 16.4402 3.58626 16.6807 3.76364 16.8581L22.7534 27.9472C22.9307 28.1245 23.1712 28.2242 23.422 28.2242C23.6728 28.2243 23.9133 28.1248 24.0908 27.9475Z" fill="black"/>
<path d="M24.0908 35.5149L43.5562 24.4255C43.7336 24.2481 43.8332 24.0075 43.8332 23.7567C43.8332 23.5058 43.7336 23.2653 43.5562 23.0879L24.0906 11.6719C23.9132 11.4945 23.6726 11.3948 23.4218 11.3948C23.1709 11.3948 22.9303 11.4945 22.7529 11.6719L3.76364 23.0879C3.58626 23.2653 3.48661 23.5058 3.48661 23.7567C3.48661 24.0075 3.58626 24.2481 3.76364 24.4255L22.7534 35.5146C22.9307 35.6919 23.1712 35.7916 23.422 35.7916C23.6728 35.7917 23.9133 35.6921 24.0908 35.5149Z" fill="#EF0E0E"/>
<path d="M24.0908 44.1931L43.5562 33.1037C43.7336 32.9263 43.8332 32.6858 43.8332 32.4349C43.8332 32.1841 43.7336 31.9435 43.5562 31.7661L24.0906 20.3501C23.9132 20.1727 23.6726 20.0731 23.4218 20.0731C23.1709 20.0731 22.9303 20.1727 22.7529 20.3501L3.76364 31.7661C3.58626 31.9435 3.48661 32.1841 3.48661 32.4349C3.48661 32.6858 3.58626 32.9263 3.76364 33.1037L22.7534 44.1928C22.9307 44.3702 23.1712 44.4698 23.422 44.4699C23.6728 44.4699 23.9133 44.3704 24.0908 44.1931Z" fill="#282828"/>
</g>
</g>
<defs>
<clipPath id="clip0_88_1898">
<rect width="48" height="48" fill="white" transform="matrix(1 0 0 -1 0 48)"/>
</clipPath>
</defs>
</svg>
