<svg width="48" height="49" viewBox="0 0 48 49" fill="none" xmlns="http://www.w3.org/2000/svg">
<g clip-path="url(#clip0_88_1956)">
<mask id="mask0_88_1956" style="mask-type:luminance" maskUnits="userSpaceOnUse" x="0" y="0" width="48" height="49">
<path fill-rule="evenodd" clip-rule="evenodd" d="M0 0.0703125H48V48.0703H0V0.0703125Z" fill="white"/>
</mask>
<g mask="url(#mask0_88_1956)">
<path fill-rule="evenodd" clip-rule="evenodd" d="M26.5237 23.1099L25.9741 25.9641L24 24.0535L25.5463 22.7417L26.5237 23.1099Z" fill="#282828"/>
<path fill-rule="evenodd" clip-rule="evenodd" d="M24 24.0535L22.0259 25.9641L21.4763 23.1099H21.4765L22.4539 22.7417L23.9999 24.0534L24 24.0535Z" fill="#282828"/>
<path fill-rule="evenodd" clip-rule="evenodd" d="M21.4763 23.1099L22.0259 25.964L23.9999 24.0534L25.974 25.964L26.5236 23.1099H26.6255C28.7544 23.1099 30.9245 24.7981 31.4482 26.8615L33.5264 35.0508C30.8576 37.0097 27.5642 38.1673 24 38.1673C20.4359 38.1673 17.1424 37.0096 14.4736 35.0508L16.5516 26.8615C17.0754 24.7981 19.2458 23.1099 21.3747 23.1099H21.4763Z" fill="#282828"/>
<path fill-rule="evenodd" clip-rule="evenodd" d="M23.9999 5.26779C16.7116 5.26779 10.3799 9.43676 7.26502 15.5167C6.95489 16.1348 6.26171 16.4601 5.58802 16.3036C5.54161 16.2928 5.49474 16.2819 5.44918 16.2642C5.00518 16.161 4.63271 15.8603 4.43836 15.4479C4.24402 15.0355 4.24908 14.5569 4.45214 14.1487C8.07905 7.03123 15.4789 2.1447 23.9999 2.1447V0.0698242L30.2981 3.7062L23.9999 7.34248V5.26779Z" fill="#EF0E0E"/>
<path fill-rule="evenodd" clip-rule="evenodd" d="M20.3842 17.3547C20.3714 17.3553 20.3585 17.3555 20.3453 17.3555C18.9904 17.3555 18.9324 13.2481 20.4533 12.5908C20.6297 13.5076 21.3113 14.4062 22.6172 14.7778C20.7779 14.9881 21.596 17.3065 20.3842 17.3547Z" fill="#282828"/>
<path fill-rule="evenodd" clip-rule="evenodd" d="M20.4533 12.591C20.2884 11.7339 20.5655 10.8609 21.1873 10.3877C21.2334 11.0214 23.2307 11.4489 25.2257 11.2114C30.0029 10.6427 29.3924 17.4657 27.6158 17.3568C27.6109 17.3565 27.6059 17.3561 27.6009 17.3557C26.9199 17.2992 27.8117 14.9565 23.9998 14.9565C23.4778 14.9565 23.0181 14.8921 22.6171 14.778C21.3113 14.4064 20.6296 13.5078 20.4533 12.591Z" fill="#282828"/>
<path fill-rule="evenodd" clip-rule="evenodd" d="M27.616 17.3566C27.6293 17.5383 27.6361 17.7183 27.6361 17.8957C27.6361 20.6384 26.0082 21.6881 24.0001 21.6881C21.9921 21.6881 20.364 20.6384 20.364 17.8957C20.364 17.7177 20.3709 17.5371 20.3843 17.3547C21.5961 17.3066 20.778 14.9881 22.6173 14.7778C23.0183 14.8919 23.478 14.9563 24 14.9563C27.8119 14.9563 26.9201 17.2991 27.6011 17.3555C27.6061 17.356 27.6111 17.3563 27.616 17.3566Z" fill="#FFCEBF"/>
<path fill-rule="evenodd" clip-rule="evenodd" d="M42.8023 24.0699C42.8023 16.7819 38.6334 10.45 32.5532 7.3353C31.935 7.02508 31.6097 6.3318 31.7663 5.65811C31.7771 5.61161 31.788 5.56474 31.8057 5.51908C31.9089 5.07508 32.2097 4.7027 32.6221 4.50836C33.0344 4.31411 33.513 4.31917 33.9212 4.52214C41.0388 8.14895 45.9254 15.549 45.9254 24.0699H48.0001L44.3639 30.3683L40.7274 24.0699H42.8023Z" fill="#EF0E0E"/>
<path fill-rule="evenodd" clip-rule="evenodd" d="M24.0001 42.8721C31.2883 42.8721 37.6201 38.7031 40.735 32.6232C41.0452 32.0051 41.7384 31.6799 42.412 31.8363C42.4584 31.8471 42.5052 31.858 42.5507 31.8757C42.9947 31.9788 43.3672 32.2796 43.5615 32.692C43.7559 33.1043 43.7508 33.583 43.5478 33.9912C39.921 41.1089 32.5211 45.9954 24.0001 45.9954V48.0701L17.7019 44.4337L24.0001 40.7974V42.8721Z" fill="#EF0E0E"/>
<path fill-rule="evenodd" clip-rule="evenodd" d="M5.19778 24.0704C5.19778 31.3584 9.36666 37.6904 15.4468 40.8051C16.065 41.1153 16.3902 41.8086 16.2337 42.4822C16.2229 42.5286 16.212 42.5755 16.1943 42.6211C16.0911 43.0651 15.7903 43.4374 15.378 43.6318C14.9656 43.8261 14.487 43.8211 14.0788 43.618C6.96141 39.9912 2.07469 32.5911 2.07469 24.0704H0L3.63638 17.772L7.27266 24.0704H5.19778Z" fill="#EF0E0E"/>
<path fill-rule="evenodd" clip-rule="evenodd" d="M21.1505 11.0209C21.3806 12.275 22.9611 13.8644 26.327 13.6313C27.5619 13.5457 28.2224 14.2171 28.5086 15.2215C28.4865 15.4552 28.4477 15.6794 28.3945 15.8866C28.3047 16.2359 28.1745 16.537 28.0043 16.7434C27.9165 16.8499 27.8221 16.9321 27.7127 16.9529C27.6962 16.9122 27.6746 16.8562 27.6608 16.8116C27.6185 16.6745 27.5746 16.5153 27.5119 16.347C27.3895 16.0187 27.1998 15.6624 26.8447 15.3507C26.3519 14.9184 25.5163 14.5565 23.9999 14.5565C21.6624 14.5565 20.7042 13.1364 20.8152 11.911C20.8454 11.578 20.9539 11.2629 21.1362 11.0093C21.1409 11.0131 21.1457 11.0171 21.1505 11.0209Z" fill="black"/>
<path fill-rule="evenodd" clip-rule="evenodd" d="M20.2424 13.2637C20.4309 13.7178 20.739 14.1455 21.1804 14.4969C21.3027 14.5943 21.4355 14.6859 21.5791 14.7703C21.1956 15.0882 21.0152 15.5519 20.881 16.016C20.8145 16.2462 20.7612 16.474 20.6829 16.6652C20.6208 16.8171 20.5493 16.9479 20.3681 16.9551C20.3606 16.9554 20.3529 16.9555 20.3451 16.9555C20.2082 16.9555 20.1141 16.849 20.0308 16.7135C19.8907 16.4859 19.8027 16.1682 19.7565 15.8156C19.6672 15.1345 19.741 14.325 19.9966 13.7091C20.0655 13.543 20.1461 13.3905 20.2424 13.2637Z" fill="black"/>
<path fill-rule="evenodd" clip-rule="evenodd" d="M22.7663 15.2284C21.5413 16.2956 21.4772 19.9238 22.9528 21.1711C22.4755 21.0545 22.0476 20.8463 21.6997 20.5263C21.1095 19.9834 20.7639 19.126 20.7639 17.896C20.7639 17.8258 20.765 17.7553 20.7673 17.6844C21.1881 17.5256 21.3979 17.1169 21.5481 16.5992C21.6067 16.3974 21.6599 16.1791 21.7352 15.9695C21.8647 15.6085 22.0699 15.2714 22.5904 15.1855C22.648 15.2007 22.7066 15.2151 22.7663 15.2284Z" fill="#E29E8A"/>
<path fill-rule="evenodd" clip-rule="evenodd" d="M21.4055 24.8585C18.273 25.1508 16.7525 29.1831 15.6137 35.3449C15.381 35.1977 15.1525 35.0446 14.9282 34.8859L16.9393 26.9602C17.4023 25.1362 19.2646 23.6309 21.1472 23.5171L21.4055 24.8585Z" fill="#3A3535"/>
<path fill-rule="evenodd" clip-rule="evenodd" d="M19.9425 30.3389C19.8146 32.3587 19.7791 36.1126 20.8075 37.443C20.164 37.3101 19.5348 37.1378 18.9226 36.9289L19.9425 30.3389Z" fill="#3A3535"/>
<path fill-rule="evenodd" clip-rule="evenodd" d="M17.2644 36.2548C18.0343 34.8923 18.862 31.4441 19.1796 30.0371L18.1569 36.6454C17.8547 36.5241 17.557 36.3939 17.2644 36.2548Z" fill="#3A3535"/>
<path fill-rule="evenodd" clip-rule="evenodd" d="M26.8655 37.507C28.1266 36.225 28.4032 33.63 28.1978 31.2461L29.0773 36.9291C28.3619 37.1733 27.6232 37.3673 26.8655 37.507Z" fill="#3A3535"/>
<path fill-rule="evenodd" clip-rule="evenodd" d="M28.9287 30.7388C29.3819 32.6678 30.2401 35.3897 31.0643 36.0938C30.6666 36.2943 30.2591 36.4784 29.843 36.6453L28.9287 30.7388Z" fill="#3A3535"/>
<path fill-rule="evenodd" clip-rule="evenodd" d="M5.38257 15.8256C8.41538 9.79011 14.5047 3.44624 25.681 3.90102C25.12 5.07908 24.706 6.02858 24.4579 6.61649L24.3999 6.64996V5.26808C24.3999 5.04721 24.2209 4.86814 23.9999 4.86814C16.5567 4.86814 10.0901 9.12533 6.9091 15.3347C6.90863 15.3356 6.90807 15.3366 6.9076 15.3376C6.68026 15.7906 6.17232 16.029 5.67863 15.9142C5.6506 15.9078 5.62182 15.9024 5.59426 15.8917C5.57654 15.8848 5.55835 15.8792 5.53979 15.8749C5.48579 15.8623 5.43329 15.8458 5.38257 15.8256Z" fill="#EF0E0E"/>
<path fill-rule="evenodd" clip-rule="evenodd" d="M32.3141 5.30957C36.6852 7.90907 44.3477 12.844 44.3477 26.0648C43.3293 25.4575 42.136 24.828 41.4416 24.4699H42.8022C43.0231 24.4699 43.2021 24.2908 43.2021 24.0699C43.2021 16.627 38.9449 10.1602 32.7354 6.97926C32.7344 6.97879 32.7334 6.97832 32.7324 6.97776C32.2794 6.75041 32.0411 6.24238 32.1558 5.7486C32.1623 5.72057 32.1677 5.69179 32.1784 5.66413C32.1853 5.64641 32.1909 5.62823 32.1952 5.60966C32.2201 5.50307 32.2604 5.4021 32.3141 5.30957Z" fill="#EF0E0E"/>
<path fill-rule="evenodd" clip-rule="evenodd" d="M0.696289 23.6701L3.54629 22.3008C3.54629 22.3008 2.50079 36.7741 15.7043 42.7972C15.5949 43.0018 15.4218 43.1687 15.2074 43.2697C14.9068 43.4113 14.5581 43.4082 14.2602 43.2612C7.27163 39.6992 2.47463 32.4348 2.47463 24.0701C2.47463 23.8492 2.29548 23.6701 2.0746 23.6701H0.696289Z" fill="#EF0E0E"/>
<path fill-rule="evenodd" clip-rule="evenodd" d="M23.6001 41.5299C23.1275 42.1685 22.3424 43.2273 21.4859 44.3753C33.7884 44.3753 38.9011 39.6913 42.6263 32.3184C42.8769 32.4208 43.0825 32.614 43.1996 32.8627C43.3413 33.1632 43.3382 33.512 43.1912 33.8098C39.6293 40.7986 32.365 45.5955 24.0001 45.5955C23.7792 45.5955 23.6001 45.7747 23.6001 45.9955V47.3774L18.502 44.4339L23.6001 41.4904V41.5299Z" fill="#EF0E0E"/>
</g>
</g>
<defs>
<clipPath id="clip0_88_1956">
<rect width="48" height="48.0938" fill="white"/>
</clipPath>
</defs>
</svg>
