<svg width="48" height="48" viewBox="0 0 48 48" fill="none" xmlns="http://www.w3.org/2000/svg">
<g clip-path="url(#clip0_88_1816)">
<path fill-rule="evenodd" clip-rule="evenodd" d="M4.4994 21.7083C3.71205 21.7083 2.92471 21.5114 2.24984 21.1178C0.112755 19.8805 -0.646472 17.1248 0.590787 14.9596C1.40625 13.5817 2.89659 12.7381 4.4994 12.7381C5.28675 12.7381 6.04597 12.935 6.74896 13.3286C8.88604 14.5659 9.61715 17.3216 8.37989 19.4587C7.59254 20.8366 6.10221 21.7083 4.4994 21.7083ZM17.35 22.8612C16.5627 22.8612 15.8034 22.6362 15.1005 22.2425C12.9634 21.0053 12.2323 18.2496 13.4695 16.1125C14.2569 14.7346 15.7472 13.8629 17.35 13.8629C18.1374 13.8629 18.9247 14.0879 19.5996 14.4815C20.64 15.0721 21.3711 16.0281 21.6804 17.2091C22.0179 18.362 21.8491 19.5712 21.2586 20.6116C20.4432 21.9895 18.9528 22.8612 17.35 22.8612ZM16.3096 8.99824C15.5222 8.99824 14.7349 8.77329 14.06 8.37961C11.8948 7.14236 11.1637 4.38664 12.401 2.24956C13.2164 0.871705 14.7068 0 16.3096 0C17.0969 0 17.8562 0.196837 18.5592 0.59051C20.6962 1.82777 21.4273 4.58348 20.1901 6.74868C19.4027 8.12654 17.9124 8.99824 16.3096 8.99824ZM33.6031 10.2917C32.8157 10.2917 32.0565 10.0668 31.3535 9.67311C30.3131 9.0826 29.582 8.09842 29.2727 6.94552C28.9634 5.79262 29.1321 4.58348 29.7226 3.54306C30.5099 2.1652 32.0003 1.2935 33.6031 1.2935C34.3904 1.2935 35.1778 1.51845 35.8527 1.91213C36.8931 2.50264 37.6523 3.4587 37.9616 4.63972C38.2709 5.79262 38.1022 7.00176 37.5117 8.04218C36.6962 9.42004 35.2059 10.2917 33.6031 10.2917Z" fill="#282828"/>
<path fill-rule="evenodd" clip-rule="evenodd" d="M20.2461 16.956C19.993 16.956 19.74 16.8436 19.5713 16.6467C19.2901 16.2812 19.3744 15.7469 19.74 15.4657L30.2004 7.36729C30.566 7.08609 31.1003 7.14233 31.3814 7.50789C31.6626 7.87344 31.6064 8.40771 31.2408 8.68891L20.7523 16.7873C20.6117 16.8998 20.4148 16.956 20.2461 16.956ZM17.0686 15.5501C16.6468 15.5501 16.2813 15.2126 16.2531 14.7908L15.747 8.21087C15.7189 7.73284 16.0563 7.33917 16.5062 7.31105C16.9843 7.25481 17.3779 7.62036 17.406 8.07028L17.9122 14.6502C17.9403 15.1283 17.6029 15.5219 17.153 15.5501C17.1249 15.5501 17.0967 15.5501 17.0686 15.5501Z" fill="#282828"/>
<path fill-rule="evenodd" clip-rule="evenodd" d="M12.2601 44.0353C11.9789 44.0353 11.6977 43.8947 11.529 43.6135C11.3041 43.2199 11.4447 42.7137 11.8665 42.4888L18.7839 38.5802C19.1775 38.3552 19.7118 38.4958 19.9368 38.9176C20.1617 39.3113 20.0211 39.8174 19.5993 40.0424L12.6819 43.951C12.5413 44.0072 12.4007 44.0353 12.2601 44.0353ZM32.3937 40.5204C31.9719 40.5204 31.5782 40.1548 31.5782 39.7049L30.7909 25.5046C30.7628 25.0547 31.1283 24.661 31.5782 24.6329C32.0563 24.6048 32.4499 24.9703 32.4781 25.4202L33.2373 39.6206C33.2654 40.0986 32.8999 40.4923 32.4499 40.4923C32.4218 40.4923 32.4218 40.5204 32.3937 40.5204ZM22.102 36.3025C21.9614 36.3025 21.7927 36.2462 21.6521 36.1338C21.2584 35.8807 21.174 35.3464 21.4271 34.9809L28.6538 24.3517C28.9069 23.9861 29.4412 23.8736 29.8348 24.1267C30.2004 24.4079 30.3129 24.9141 30.0317 25.3077L22.805 35.9088C22.6362 36.1619 22.3832 36.3025 22.102 36.3025Z" fill="#282828"/>
<path fill-rule="evenodd" clip-rule="evenodd" d="M8.12666 32.0843C7.78922 32.0843 7.47991 31.8875 7.33931 31.5782C7.17059 31.1283 7.36743 30.6502 7.78922 30.4815L27.6978 22.3831C28.1196 22.2144 28.5977 22.4112 28.7945 22.8611C28.9632 23.2829 28.7664 23.761 28.3165 23.9297L8.43597 32.0281C8.32349 32.0562 8.21101 32.0843 8.12666 32.0843Z" fill="#282828"/>
<path fill-rule="evenodd" clip-rule="evenodd" d="M42.0668 31.3812C41.87 31.3812 41.6732 31.2968 41.5326 31.1843L33.7434 24.7731C33.406 24.4919 33.3498 23.9576 33.631 23.5921C33.9403 23.2265 34.4746 23.1703 34.812 23.4796L42.6011 29.8908C42.9385 30.172 42.9948 30.7063 42.7136 31.0719C42.5449 31.2687 42.2918 31.3812 42.0668 31.3812Z" fill="#282828"/>
<path fill-rule="evenodd" clip-rule="evenodd" d="M24.0423 38.1302C23.6767 38.1302 23.3393 37.9052 23.2268 37.5397C23.1143 37.0898 23.3674 36.6117 23.8173 36.4993L41.7294 31.4377C42.1793 31.3253 42.6293 31.5783 42.7699 32.0282C42.8823 32.4782 42.6293 32.9281 42.1793 33.0687L24.2672 38.1021C24.211 38.1302 24.1266 38.1302 24.0423 38.1302Z" fill="#282828"/>
<path fill-rule="evenodd" clip-rule="evenodd" d="M12.5976 45.188C12.1477 45.188 11.7822 44.8506 11.754 44.4006C11.7259 43.9507 12.0915 43.5289 12.5695 43.5289L30.1442 42.5166C30.6222 42.4604 31.0159 42.8259 31.044 43.304C31.0722 43.7539 30.7066 44.1476 30.2567 44.1757L12.6539 45.188C12.6258 45.188 12.6258 45.188 12.5976 45.188ZM8.85774 42.9384C8.54842 42.9384 8.23911 42.7416 8.09851 42.4323L5.45528 36.6397C5.28656 36.2179 5.45528 35.7398 5.87707 35.543C6.29886 35.3462 6.80501 35.543 7.00185 35.9648L9.61697 41.7574C9.8138 42.1792 9.64508 42.6572 9.22329 42.8541C9.11081 42.9103 8.97022 42.9384 8.85774 42.9384Z" fill="#282828"/>
<path fill-rule="evenodd" clip-rule="evenodd" d="M13.7224 18.8683C13.6943 18.8683 13.6662 18.8683 13.638 18.8683L8.07038 18.3903C7.59235 18.3341 7.25491 17.9404 7.28303 17.4624C7.33927 17.0125 7.73295 16.675 8.21098 16.7031L13.7786 17.2093C14.2567 17.2374 14.5941 17.6592 14.5379 18.1091C14.5097 18.559 14.1442 18.8683 13.7224 18.8683ZM6.97372 15.3815C6.77688 15.3815 6.58005 15.2972 6.41133 15.1566C6.0739 14.8472 6.04578 14.313 6.35509 13.9755L13.1881 6.60823C13.5256 6.2708 14.0598 6.24268 14.3973 6.55199C14.7347 6.86131 14.7347 7.39558 14.4254 7.73301L7.59235 15.1003C7.42363 15.2972 7.19868 15.3815 6.97372 15.3815ZM29.9755 6.35516C29.9474 6.35516 29.9192 6.35516 29.8911 6.35516L19.8806 5.59593C19.4307 5.56781 19.0932 5.20226 19.0932 4.78047C19.0932 4.75235 19.0932 4.72423 19.0932 4.69611C19.1495 4.2462 19.5431 3.88064 19.9931 3.93688L30.0317 4.66799C30.4816 4.72423 30.7909 5.08978 30.7909 5.51157V5.56781C30.7628 6.01772 30.3973 6.35516 29.9755 6.35516Z" fill="#282828"/>
<path fill-rule="evenodd" clip-rule="evenodd" d="M44.5133 12.9067C42.573 12.9067 41.0265 11.3321 41.0265 9.41992C41.0265 7.5078 42.573 5.93311 44.5133 5.93311C46.4254 5.93311 48.0001 7.5078 48.0001 9.41992C48.0001 11.3321 46.4254 12.9067 44.5133 12.9067ZM41.2233 23.0298C39.5924 23.0298 38.2708 21.7082 38.2708 20.0772C38.2708 18.4182 39.5924 17.0966 41.2233 17.0966C42.8824 17.0966 44.204 18.4182 44.204 20.0772C44.204 21.7082 42.8824 23.0298 41.2233 23.0298Z" fill="#282828"/>
<path fill-rule="evenodd" clip-rule="evenodd" d="M33.9965 47.7751C31.4377 47.7751 29.3568 45.6942 29.3568 43.1353C29.3568 40.5483 31.4377 38.4675 33.9965 38.4675C36.5835 38.4675 38.6644 40.5483 38.6644 43.1353C38.6644 45.6942 36.5835 47.7751 33.9965 47.7751ZM21.5115 41.5044C19.5712 41.5044 18.0246 39.9578 18.0246 38.0176C18.0246 36.1055 19.5712 34.5308 21.5115 34.5308C23.4236 34.5308 24.9983 36.1055 24.9983 38.0176C24.9983 39.9578 23.4236 41.5044 21.5115 41.5044ZM9.95435 48C8.04222 48 6.46753 46.4253 6.46753 44.5132C6.46753 42.5729 8.04222 41.0264 9.95435 41.0264C11.8946 41.0264 13.4412 42.5729 13.4412 44.5132C13.4412 46.4253 11.8946 48 9.95435 48Z" fill="#EF0E0E"/>
<path fill-rule="evenodd" clip-rule="evenodd" d="M4.63972 37.4834C2.08084 37.4834 0 35.4025 0 32.8436C0 30.2566 2.08084 28.1758 4.63972 28.1758C7.22671 28.1758 9.30756 30.2566 9.30756 32.8436C9.30756 35.4025 7.22671 37.4834 4.63972 37.4834ZM31.4376 26.3199C28.935 26.3199 26.8822 24.2672 26.8822 21.7645C26.8822 19.2619 28.935 17.2373 31.4376 17.2373C33.9402 17.2373 35.9649 19.2619 35.9649 21.7645C35.9649 24.2672 33.9402 26.3199 31.4376 26.3199ZM44.5132 35.0088C42.5729 35.0088 41.0264 33.4623 41.0264 31.522C41.0264 29.6099 42.5729 28.0352 44.5132 28.0352C46.4253 28.0352 48 29.6099 48 31.522C48 33.4623 46.4253 35.0088 44.5132 35.0088Z" fill="#EF0E0E"/>
</g>
<defs>
<clipPath id="clip0_88_1816">
<rect width="48" height="48" fill="white"/>
</clipPath>
</defs>
</svg>
