<svg width="38" height="38" viewBox="0 0 38 38" fill="none" xmlns="http://www.w3.org/2000/svg">
<path d="M10.918 17.3351H15.132V21.3526H10.918V17.3351Z" fill="black"/>
<path d="M10.918 8.92224H15.132V12.9399H10.918V8.92224Z" fill="black"/>
<path d="M19.1895 8.92224H23.4034V12.9399H19.1895V8.92224Z" fill="black"/>
<path d="M10.918 25.7477H15.132V29.7653H10.918V25.7477Z" fill="black"/>
<path d="M26.9466 21.9826C26.8719 21.9079 26.8147 21.8174 26.7793 21.7179C26.7438 21.6183 26.7309 21.5121 26.7416 21.407C26.7522 21.3018 26.7862 21.2004 26.8409 21.1099C26.8956 21.0195 26.9697 20.9424 27.0579 20.8842L28.576 19.8811L20.6836 17.469L23.0957 25.3614L24.0988 23.8433C24.1569 23.7551 24.234 23.6809 24.3244 23.6262C24.4149 23.5716 24.5164 23.5378 24.6216 23.5273C24.6456 23.5249 24.6698 23.5237 24.694 23.5237C24.7875 23.5236 24.8802 23.5421 24.9665 23.5779C25.0529 23.6138 25.1314 23.6663 25.1974 23.7326L29.5911 28.1264L31.3406 26.3769L26.9466 21.9826Z" fill="#EF0E0E"/>
<path d="M23.5297 26.8621C23.4552 26.975 23.3502 27.0645 23.2267 27.1199C23.1033 27.1754 22.9667 27.1945 22.8328 27.1751C22.6989 27.1557 22.5732 27.0986 22.4706 27.0105C22.3679 26.9223 22.2925 26.8068 22.2531 26.6773L19.2833 16.959C19.2454 16.8353 19.2419 16.7037 19.2731 16.5781C19.3044 16.4526 19.3692 16.338 19.4606 16.2465C19.5521 16.155 19.6667 16.0902 19.7922 16.0589C19.9177 16.0276 20.0494 16.0311 20.1731 16.069L27.6603 18.357V3.4433C27.6593 2.53044 27.2962 1.65524 26.6507 1.00973C26.0052 0.36421 25.1301 0.00108042 24.2172 0L10.1035 0C9.19055 0.0010215 8.31533 0.364125 7.6698 1.00965C7.02428 1.65517 6.66118 2.5304 6.66016 3.4433V34.5567C6.66118 35.4696 7.02428 36.3448 7.6698 36.9903C8.31533 37.6359 9.19055 37.999 10.1035 38H24.2172C25.1302 37.9991 26.0055 37.636 26.6511 36.9905C27.2968 36.345 27.6599 35.4697 27.6609 34.5567V27.8783L24.7692 24.9866L23.5297 26.8621ZM24.5927 8.72909V13.1332C24.5924 13.3974 24.4874 13.6507 24.3005 13.8375C24.1137 14.0243 23.8604 14.1294 23.5962 14.1297H18.9957C18.7315 14.1294 18.4782 14.0243 18.2914 13.8375C18.1045 13.6507 17.9994 13.3974 17.9991 13.1332V8.72909C17.9994 8.46487 18.1045 8.21155 18.2913 8.02471C18.4782 7.83787 18.7315 7.73278 18.9957 7.73248H23.5962C23.8604 7.73278 24.1137 7.83787 24.3006 8.02471C24.4874 8.21155 24.5925 8.46487 24.5927 8.72909ZM13.5028 2.82202H20.8179C20.8966 2.82114 20.9747 2.83588 21.0476 2.86538C21.1206 2.89488 21.1869 2.93856 21.2429 2.99389C21.2988 3.04922 21.3432 3.1151 21.3736 3.18771C21.4039 3.26033 21.4195 3.33823 21.4195 3.41692C21.4195 3.49561 21.4039 3.57351 21.3736 3.64613C21.3432 3.71874 21.2988 3.78462 21.2429 3.83995C21.1869 3.89528 21.1206 3.93896 21.0476 3.96846C20.9747 3.99796 20.8966 4.0127 20.8179 4.01182H13.5028C13.3461 4.01007 13.1965 3.94662 13.0864 3.83525C12.9762 3.72387 12.9145 3.57356 12.9145 3.41692C12.9145 3.26028 12.9762 3.10997 13.0864 2.99859C13.1965 2.88722 13.3461 2.82377 13.5028 2.82202ZM9.72791 8.72909C9.72821 8.46488 9.83329 8.21157 10.0201 8.02473C10.2069 7.8379 10.4602 7.73279 10.7244 7.73248H15.325C15.5892 7.73277 15.8425 7.83787 16.0294 8.02471C16.2162 8.21154 16.3213 8.46486 16.3216 8.72909V13.1332C16.3213 13.3974 16.2162 13.6507 16.0293 13.8375C15.8425 14.0243 15.5892 14.1294 15.325 14.1297H10.7244C10.4602 14.1294 10.2069 14.0243 10.0201 13.8375C9.83329 13.6507 9.72821 13.3974 9.72791 13.1332V8.72909ZM9.72791 17.1417C9.72823 16.8775 9.83332 16.6242 10.0201 16.4374C10.207 16.2506 10.4602 16.1455 10.7244 16.1452H15.325C15.5892 16.1455 15.8425 16.2506 16.0293 16.4374C16.2162 16.6242 16.3213 16.8775 16.3216 17.1417V21.5457C16.3213 21.8099 16.2162 22.0632 16.0293 22.25C15.8425 22.4369 15.5892 22.5419 15.325 22.5422H10.7244C10.4602 22.5419 10.207 22.4368 10.0201 22.25C9.83332 22.0632 9.72823 21.8099 9.72791 21.5457V17.1417ZM10.7244 30.9551C10.4602 30.9548 10.2069 30.8497 10.0201 30.6629C9.83329 30.4761 9.72821 30.2228 9.72791 29.9585V25.5545C9.72821 25.2903 9.83329 25.037 10.0201 24.8501C10.2069 24.6633 10.4602 24.5582 10.7244 24.5579H15.325C15.5892 24.5582 15.8425 24.6633 16.0294 24.8501C16.2162 25.0369 16.3213 25.2903 16.3216 25.5545V29.9585C16.3213 30.2228 16.2162 30.4761 16.0293 30.6629C15.8425 30.8497 15.5892 30.9548 15.325 30.9551H10.7244ZM18.0484 35.4973H16.2723C16.1157 35.4955 15.9661 35.4321 15.8559 35.3207C15.7458 35.2093 15.684 35.059 15.684 34.9024C15.684 34.7457 15.7458 34.5954 15.8559 34.484C15.9661 34.3727 16.1157 34.3092 16.2723 34.3075H18.0484C18.127 34.3066 18.2051 34.3213 18.2781 34.3508C18.351 34.3803 18.4174 34.424 18.4733 34.4793C18.5293 34.5347 18.5737 34.6005 18.604 34.6732C18.6343 34.7458 18.6499 34.8237 18.6499 34.9024C18.6499 34.9811 18.6343 35.059 18.604 35.1316C18.5737 35.2042 18.5293 35.2701 18.4733 35.3254C18.4174 35.3807 18.351 35.4244 18.2781 35.4539C18.2051 35.4834 18.127 35.4981 18.0484 35.4973ZM24.5927 29.9494C24.5925 30.2161 24.4865 30.4717 24.298 30.6603C24.1095 30.8488 23.8538 30.9549 23.5872 30.9551H19.0041C18.7376 30.9548 18.4821 30.8488 18.2936 30.6603C18.1052 30.4718 17.9991 30.2163 17.9989 29.9498V25.5635C17.9991 25.2969 18.1051 25.0414 18.2936 24.8529C18.4821 24.6644 18.7376 24.5584 19.0041 24.5581H20.1269C20.2835 24.5598 20.4331 24.6233 20.5432 24.7347C20.6534 24.846 20.7151 24.9964 20.7151 25.153C20.7151 25.3096 20.6534 25.4599 20.5432 25.5713C20.4331 25.6827 20.2835 25.7461 20.1269 25.7479H19.1889V29.7655H23.4029V28.9212C23.4021 28.8425 23.4168 28.7644 23.4463 28.6915C23.4758 28.6185 23.5195 28.5522 23.5748 28.4962C23.6301 28.4403 23.696 28.3958 23.7686 28.3655C23.8412 28.3352 23.9192 28.3196 23.9978 28.3196C24.0765 28.3196 24.1544 28.3352 24.227 28.3655C24.2997 28.3958 24.3655 28.4403 24.4209 28.4962C24.4762 28.5522 24.5199 28.6185 24.5494 28.6915C24.5789 28.7644 24.5936 28.8425 24.5927 28.9212V29.9494Z" fill="#080808"/>
</svg>
