<svg width="38" height="38" viewBox="0 0 38 38" fill="none" xmlns="http://www.w3.org/2000/svg">
<g clip-path="url(#clip0_565_303)">
<path d="M5.54437 12.6726C4.233 12.6726 3.16992 13.7357 3.16992 15.0471V26.1278C3.16992 27.4391 4.233 28.5022 5.54437 28.5022C6.85573 28.5022 7.91881 27.4391 7.91881 26.1278V15.0471C7.91881 13.7357 6.85573 12.6726 5.54437 12.6726Z" fill="#282828"/>
<path d="M32.4545 12.6726C31.1432 12.6726 30.0801 13.7357 30.0801 15.0471V26.1278C30.0801 27.4391 31.1432 28.5022 32.4545 28.5022C33.7659 28.5022 34.829 27.4391 34.829 26.1278V15.0471C34.829 13.7357 33.766 12.6726 32.4545 12.6726Z" fill="#282828"/>
<path d="M27.706 12.6726H10.2935C9.85634 12.6726 9.50195 13.027 9.50195 13.4641V26.1278C9.50158 28.0086 10.825 29.6298 12.6679 30.006V35.6255C12.6679 36.9369 13.731 38 15.0423 38C16.3537 38 17.4168 36.9369 17.4168 35.6255V30.0851H20.5827V35.6255C20.5827 36.9369 21.6458 38 22.9572 38C24.2685 38 25.3316 36.9369 25.3316 35.6255V30.006C27.1745 29.6298 28.4979 28.0086 28.4976 26.1278V13.4641C28.4975 13.027 28.1431 12.6726 27.706 12.6726Z" fill="#080808"/>
<path d="M24.7539 3.28883L26.6835 1.36078C26.9979 1.05707 27.0066 0.556064 26.703 0.241599C26.3993 -0.0727922 25.8983 -0.0814737 25.5838 0.222158C25.5772 0.22854 25.5707 0.234995 25.5644 0.241599L23.3166 2.48945C20.5636 1.29355 17.4377 1.29355 14.6847 2.48945L12.4369 0.240041C12.1225 -0.0636654 11.6214 -0.0549096 11.3177 0.259482C11.0215 0.56623 11.0215 1.05247 11.3177 1.35915L13.2457 3.28875C10.8953 4.84401 9.48752 7.47972 9.50206 10.2981C9.50206 10.7352 9.85645 11.0896 10.2936 11.0896H27.7062C28.1433 11.0896 28.4977 10.7352 28.4977 10.2981C28.5122 7.47979 27.1044 4.84409 24.7539 3.28883Z" fill="#EF0E0E"/>
<path d="M15.0435 7.92371C15.4806 7.92371 15.835 7.56934 15.835 7.1322C15.835 6.69507 15.4806 6.3407 15.0435 6.3407C14.6063 6.3407 14.252 6.69507 14.252 7.1322C14.252 7.56934 14.6063 7.92371 15.0435 7.92371Z" fill="#FAFAFA"/>
<path d="M22.9575 7.92371C23.3947 7.92371 23.749 7.56934 23.749 7.1322C23.749 6.69507 23.3947 6.3407 22.9575 6.3407C22.5204 6.3407 22.166 6.69507 22.166 7.1322C22.166 7.56934 22.5204 7.92371 22.9575 7.92371Z" fill="#FAFAFA"/>
</g>
<defs>
<clipPath id="clip0_565_303">
<rect width="38" height="38" fill="white"/>
</clipPath>
</defs>
</svg>
