<svg width="38" height="38" viewBox="0 0 38 38" fill="none" xmlns="http://www.w3.org/2000/svg">
<path d="M35.736 0H18.5472C18.0476 0 17.6426 0.405034 17.6426 0.904669V23.5214C17.6426 24.021 18.0476 24.4261 18.5472 24.4261H35.736C36.2356 24.4261 36.6406 24.021 36.6406 23.5214V0.904669C36.6406 0.405034 36.2356 0 35.736 0Z" fill="#080808"/>
<path d="M17.6426 1.10474V27.1439H19.4519C19.6918 27.1439 19.922 27.0486 20.0916 26.879C20.2613 26.7093 20.3566 26.4792 20.3566 26.2393V3.76609C20.3566 1.93188 17.6426 2.12095 17.6426 1.10474Z" fill="#080808"/>
<path d="M1.35938 2.7179H19.4528C19.6927 2.7179 19.9228 2.81321 20.0925 2.98287C20.2621 3.15253 20.3574 3.38263 20.3574 3.62256V26.2393C20.3574 26.4792 20.2621 26.7093 20.0925 26.879C19.9228 27.0487 19.6927 27.144 19.4528 27.144H1.35938V2.7179Z" fill="#3A3535"/>
<path d="M3.16871 0.00366211H2.26404C1.76441 0.00366211 1.35938 0.408696 1.35938 0.908331V37.0951C1.35938 37.5947 1.76441 37.9998 2.26404 37.9998H3.16871C3.66835 37.9998 4.07338 37.5947 4.07338 37.0951V0.908331C4.07338 0.408696 3.66835 0.00366211 3.16871 0.00366211Z" fill="#EF0E0E"/>
</svg>
