<svg width="38" height="38" viewBox="0 0 38 38" fill="none" xmlns="http://www.w3.org/2000/svg">
<g clip-path="url(#clip0_565_354)">
<path fill-rule="evenodd" clip-rule="evenodd" d="M13.5794 32.5683C11.9766 32.5683 10.6854 31.2772 10.6854 29.6743C10.6854 28.962 10.9303 28.2941 11.3978 27.7599V27.092H6.50029C5.67663 27.092 5.00879 26.4242 5.00879 25.6005V21.1928H4.80844C4.29643 21.638 3.60633 21.9052 2.91623 21.9052C1.31342 21.9052 0 20.5917 0 18.9889C0 17.3861 1.31342 16.095 2.91623 16.095C3.60633 16.095 4.29643 16.3398 4.80844 16.8073H5.00879V12.3996C5.00879 11.5759 5.67663 10.8858 6.50029 10.8858H11.3978V10.2402C10.9303 9.70597 10.6854 9.01587 10.6854 8.32577C10.6854 6.72296 11.9766 5.40955 13.5794 5.40955C15.1822 5.40955 16.4956 6.72296 16.4956 8.32577C16.4956 9.01587 16.2285 9.70597 15.7832 10.2402V10.8858H20.6585C21.4821 10.8858 22.1722 11.5759 22.1722 12.3996V17.4752C22.1722 17.8313 21.8606 18.143 21.5044 18.143H20.3691C20.191 18.143 20.0129 18.054 19.8793 17.9204C19.5899 17.6087 19.1892 17.4306 18.744 17.4306C17.8758 17.4306 17.1634 18.1207 17.1634 18.9889C17.1634 19.8571 17.8758 20.5695 18.744 20.5695C19.1892 20.5695 19.5899 20.3914 19.8793 20.0575C20.0129 19.9239 20.191 19.8571 20.3691 19.8571H21.5044C21.8606 19.8571 22.1722 20.1465 22.1722 20.525V25.6005C22.1722 26.4242 21.4821 27.092 20.6585 27.092H15.7832V27.7599C16.2285 28.2941 16.4956 28.962 16.4956 29.6743C16.4956 31.2772 15.1822 32.5683 13.5794 32.5683Z" fill="#EF0E0E"/>
<path fill-rule="evenodd" clip-rule="evenodd" d="M29.4075 32.5683C27.8047 32.5683 26.4913 31.2772 26.4913 29.6743C26.4913 28.962 26.7584 28.2941 27.2259 27.7599V27.092H22.3284C21.5048 27.092 20.8369 26.4242 20.8369 25.6005V21.1928H20.6366C20.1246 21.638 19.4345 21.9052 18.7444 21.9052C17.1415 21.9052 15.8281 20.5917 15.8281 18.9889C15.8281 17.3861 17.1415 16.095 18.7444 16.095C19.4345 16.095 20.1246 16.3398 20.6366 16.8073H20.8369V12.3996C20.8369 11.5759 21.5048 10.8858 22.3284 10.8858H27.2259V10.2402C26.7584 9.70597 26.4913 9.01587 26.4913 8.32577C26.4913 6.72296 27.8047 5.40955 29.4075 5.40955C31.0103 5.40955 32.3237 6.72296 32.3237 8.32577C32.3237 9.01587 32.0566 9.70597 31.6114 10.2402V10.8858H36.4866C37.3103 10.8858 38.0004 11.5759 38.0004 12.3996V25.6005C38.0004 26.4242 37.3103 27.092 36.4866 27.092H31.6114V27.7599C32.0566 28.2941 32.3237 28.962 32.3237 29.6743C32.3237 31.2772 31.0103 32.5683 29.4075 32.5683Z" fill="#080808"/>
</g>
<defs>
<clipPath id="clip0_565_354">
<rect width="38" height="38" fill="white"/>
</clipPath>
</defs>
</svg>
