<svg width="38" height="38" viewBox="0 0 38 38" fill="none" xmlns="http://www.w3.org/2000/svg">
<path d="M17.8125 5.9375C17.8125 3.31415 15.6859 1.1875 13.0625 1.1875H5.9375C3.31415 1.1875 1.1875 3.31415 1.1875 5.9375V17.8125C1.1875 20.4359 3.31415 22.5625 5.9375 22.5625H13.0625C15.6859 22.5625 17.8125 20.4359 17.8125 17.8125V5.9375Z" fill="#EF0E0E"/>
<path d="M20.1875 8.3125C20.1875 10.9359 22.3141 13.0625 24.9375 13.0625H32.0625C34.6859 13.0625 36.8125 10.9359 36.8125 8.3125V5.9375C36.8125 3.31415 34.6859 1.1875 32.0625 1.1875H24.9375C22.3141 1.1875 20.1875 3.31415 20.1875 5.9375V8.3125Z" fill="#080808"/>
<path d="M20.1875 32.0625C20.1875 34.6859 22.3141 36.8125 24.9375 36.8125H32.0625C34.6859 36.8125 36.8125 34.6859 36.8125 32.0625V20.1875C36.8125 17.5641 34.6859 15.4375 32.0625 15.4375H24.9375C22.3141 15.4375 20.1875 17.5641 20.1875 20.1875V32.0625Z" fill="#080808"/>
<path d="M17.8125 29.6875C17.8125 27.0641 15.6859 24.9375 13.0625 24.9375H5.9375C3.31415 24.9375 1.1875 27.0641 1.1875 29.6875V32.0625C1.1875 34.6859 3.31415 36.8125 5.9375 36.8125H13.0625C15.6859 36.8125 17.8125 34.6859 17.8125 32.0625V29.6875Z" fill="#080808"/>
</svg>
