<svg width="38" height="38" viewBox="0 0 38 38" fill="none" xmlns="http://www.w3.org/2000/svg">
<path fill-rule="evenodd" clip-rule="evenodd" d="M12.9821 4.20888H17.9874C18.1677 4.20888 18.3147 4.11536 18.3911 3.95282L19.2417 2.13892H11.7285L12.5791 3.95282C12.6548 4.11536 12.8025 4.20888 12.9821 4.20888Z" fill="#EF0E0E"/>
<path fill-rule="evenodd" clip-rule="evenodd" d="M17.9875 5.0995H12.9821C12.4582 5.0995 11.995 4.80485 11.7724 4.3306L10.7445 2.13892H7.68887C6.76188 2.13892 6.00781 2.89298 6.00781 3.81997V31.3766H19.7991L19.3227 30.9002C19.1074 30.6849 19.1022 30.342 19.3108 30.1209L20.0203 29.3675C19.8229 29.0024 19.6633 28.6179 19.5446 28.2209L18.5114 28.1897C18.2064 28.1808 17.9682 27.9351 17.9682 27.6308V25.2981C17.9682 24.9938 18.2064 24.7482 18.5107 24.7385L19.5446 24.7074C19.6633 24.3095 19.8229 23.9258 20.0203 23.5607L19.3108 22.8074C19.1022 22.5862 19.1074 22.2433 19.3227 22.0281L20.9718 20.3789C21.187 20.1637 21.5299 20.1585 21.7511 20.367L22.5044 21.0758C22.8696 20.8792 23.2525 20.7196 23.6496 20.6008L23.6815 19.5662C23.6912 19.2619 23.9376 19.0237 24.2411 19.0237H24.9625V3.81997C24.9625 2.89298 24.2085 2.13892 23.2815 2.13892H20.2252L19.1972 4.3306C18.9753 4.80485 18.5114 5.0995 17.9875 5.0995ZM14.491 20.3359L16.5113 10.6444C16.561 10.4039 16.797 10.2488 17.0382 10.2993C17.2787 10.349 17.433 10.585 17.3833 10.8262L15.3631 20.5177C15.3193 20.7277 15.1338 20.8717 14.9274 20.8717C14.897 20.8717 14.8666 20.8688 14.8361 20.8621C14.5957 20.8124 14.4405 20.5771 14.491 20.3359ZM9.03 15.2623L11.7924 12.5659C11.9683 12.3937 12.2504 12.3974 12.4225 12.5733C12.594 12.7492 12.591 13.0313 12.4151 13.2027L9.97852 15.5807L12.4151 17.9586C12.591 18.1308 12.594 18.4129 12.4225 18.588C12.335 18.6771 12.2192 18.7224 12.1034 18.7224C11.9913 18.7224 11.8793 18.68 11.7924 18.5962L9.03 15.8991C8.94465 15.8152 8.89566 15.7002 8.89566 15.5799C8.89566 15.4612 8.94465 15.3461 9.03 15.2623ZM18.5552 17.9594L20.9911 15.5814L18.5552 13.2034C18.3793 13.032 18.3756 12.75 18.5478 12.5741C18.7193 12.3974 19.0013 12.3945 19.1772 12.5667L21.9396 15.263C22.0257 15.3469 22.0739 15.4612 22.0739 15.5814C22.0739 15.7016 22.0257 15.8167 21.9396 15.9006L19.1772 18.5977C19.0904 18.6823 18.9783 18.7238 18.8662 18.7238C18.7504 18.7238 18.6346 18.6793 18.5478 18.5895C18.3756 18.4129 18.3793 18.1308 18.5552 17.9594Z" fill="#080808"/>
<path fill-rule="evenodd" clip-rule="evenodd" d="M24.5631 19.915L24.5334 20.8725C24.5252 21.1241 24.356 21.3356 24.1118 21.3972C23.6309 21.5197 23.1693 21.7111 22.7418 21.9657C22.5243 22.0949 22.2549 22.0652 22.0716 21.8915L21.3754 21.2354L20.1797 22.4303L20.8366 23.1272C21.0095 23.3106 21.0384 23.58 20.91 23.7967C20.6555 24.2249 20.464 24.6866 20.3415 25.1683C20.2792 25.4124 20.0684 25.5817 19.8161 25.5898L18.8594 25.6188V27.3095L19.8161 27.3377C20.0677 27.3451 20.2792 27.5143 20.3415 27.7592C20.464 28.2409 20.6555 28.7025 20.91 29.1308C21.0392 29.3475 21.0095 29.6162 20.8366 29.8002L20.1797 30.4972L21.3754 31.6928L22.0723 31.036C22.2556 30.8631 22.525 30.8341 22.7418 30.9625C23.17 31.2171 23.6316 31.4086 24.1133 31.531C24.3575 31.5934 24.5267 31.8049 24.5341 32.0565L24.5631 33.0132H26.2538L26.282 32.0565C26.2894 31.8049 26.4586 31.5941 26.7028 31.531C27.1845 31.4086 27.6461 31.2178 28.0736 30.9633C28.2911 30.8349 28.5598 30.8645 28.7431 31.0367L29.4407 31.6928L30.6371 30.4972L29.9811 29.7988C29.8081 29.6154 29.7784 29.3468 29.9068 29.13C30.1614 28.7025 30.3521 28.2417 30.4746 27.7607C30.537 27.5158 30.7485 27.3466 31.0001 27.3391L31.9568 27.3095V25.618L31.0001 25.5883C30.7485 25.5802 30.537 25.4117 30.4746 25.1675C30.3521 24.6866 30.1614 24.2257 29.9076 23.7982C29.7784 23.5815 29.8081 23.3128 29.9803 23.1287L30.6371 22.4303L29.4407 21.2347L28.7431 21.8908C28.559 22.0629 28.2904 22.0926 28.0736 21.9642C27.6469 21.7104 27.186 21.5197 26.7043 21.3965C26.4609 21.3341 26.2916 21.1233 26.2835 20.8717L26.2538 19.9143H24.5631V19.915ZM21.8986 25.5238C22.4174 23.5889 24.4139 22.4363 26.3488 22.9543C28.2837 23.4731 29.4363 25.4696 28.9182 27.4045C28.6666 28.3418 28.0655 29.1256 27.2253 29.611C26.665 29.9346 26.0438 30.0993 25.4144 30.0993C25.0989 30.0993 24.7813 30.0578 24.4681 29.9739C22.5325 29.4551 21.3798 27.4586 21.8986 25.5238Z" fill="#EF0E0E"/>
<path fill-rule="evenodd" clip-rule="evenodd" d="M20.6898 32.2664H6.00781V34.4492C6.00781 35.3762 6.76188 36.1303 7.68887 36.1303H23.2815C24.2085 36.1303 24.9625 35.3762 24.9625 34.4492V33.903H24.2411C23.9368 33.903 23.6912 33.6647 23.6823 33.3604L23.6511 32.3266C23.2533 32.2078 22.8696 32.0482 22.5044 31.8516L21.7511 32.5604C21.5299 32.7689 21.1878 32.7645 20.9718 32.5492L20.6898 32.2664ZM12.9525 34.3557C12.9525 34.1093 13.1521 33.9104 13.3978 33.9104H17.5718C17.8175 33.9104 18.0171 34.1093 18.0171 34.3557C18.0171 34.6014 17.8175 34.801 17.5718 34.801H13.3978C13.1521 34.801 12.9525 34.6014 12.9525 34.3557Z" fill="#EF0E0E"/>
</svg>
