<svg width="48" height="48" viewBox="0 0 48 48" fill="none" xmlns="http://www.w3.org/2000/svg">
<path fill-rule="evenodd" clip-rule="evenodd" d="M14.7759 27.9448C14.8267 28.3557 15.2014 28.6477 15.6123 28.597C16.0233 28.5459 16.3153 28.1717 16.2645 27.7603C16.2251 27.4417 16.2053 27.1163 16.2053 26.793C16.2053 22.4948 19.7018 18.9982 23.9995 18.9982C28.2973 18.9982 31.794 22.4948 31.794 26.793C31.794 27.1166 31.7739 27.4417 31.7345 27.7603C31.6837 28.1716 31.9757 28.5459 32.3867 28.597C32.4179 28.6006 32.449 28.6025 32.4797 28.6025C32.8527 28.6025 33.1761 28.3245 33.223 27.9448C33.27 27.5656 33.2938 27.1778 33.2938 26.7931C33.2938 21.6683 29.1244 17.4985 23.9995 17.4985C18.8745 17.4985 14.7051 21.6683 14.7051 26.7931C14.7051 27.1773 14.729 27.5651 14.7759 27.9448Z" fill="#EF0E0E"/>
<path fill-rule="evenodd" clip-rule="evenodd" d="M8.61425 27.2121C10.1982 27.2121 11.4869 28.5008 11.4869 30.0846C11.4869 31.6684 10.1982 32.9576 8.61425 32.9576C7.03034 32.9576 5.74137 31.6689 5.74137 30.0846C5.74137 28.5003 7.03016 27.2121 8.61425 27.2121ZM8.61416 34.4817C10.2717 34.4817 11.8716 35.081 13.1188 36.1694C13.431 36.4416 13.9047 36.4094 14.177 36.0972C14.4494 35.7853 14.4171 35.3116 14.105 35.039C13.3031 34.3394 12.3807 33.8073 11.3923 33.4593C12.3655 32.6565 12.9869 31.442 12.9869 30.0846C12.9869 27.6736 11.0253 25.7119 8.61425 25.7119C6.20319 25.7119 4.24147 27.6736 4.24147 30.0846C4.24147 31.4411 4.86228 32.6551 5.83456 33.4579C4.78034 33.8299 3.80253 34.4112 2.96206 35.1837C1.42681 36.5944 0.478438 38.5109 0.292063 40.5802C0.290094 40.6028 0.289062 40.6254 0.289062 40.6475V41.9064C0.289062 42.3204 0.624875 42.6562 1.03916 42.6562H12.253C12.6673 42.6562 13.0031 42.3204 13.0031 41.9064C13.0031 41.4924 12.6674 41.1565 12.253 41.1565H1.78897V40.6819C2.12413 37.145 5.05259 34.4818 8.61406 34.4818L8.61416 34.4817Z" fill="#080808"/>
<path fill-rule="evenodd" clip-rule="evenodd" d="M39.3863 27.2121C40.9703 27.2121 42.259 28.5008 42.259 30.0846C42.259 31.6684 40.9702 32.9576 39.3863 32.9576C37.8024 32.9576 36.5136 31.6689 36.5136 30.0846C36.5136 28.5003 37.8024 27.2121 39.3863 27.2121ZM47.7085 40.5802C47.5219 38.5109 46.5736 36.5944 45.0383 35.1837C44.1981 34.4112 43.2202 33.8299 42.1658 33.4579C43.1384 32.6551 43.7591 31.4411 43.7591 30.0846C43.7591 27.6736 41.7975 25.7119 39.3863 25.7119C36.9752 25.7119 35.0137 27.6736 35.0137 30.0846C35.0137 31.4415 35.635 32.6561 36.6082 33.4593C35.6198 33.8073 34.6976 34.3394 33.8957 35.039C33.5835 35.3115 33.5512 35.7853 33.8235 36.0972C34.0957 36.4095 34.5696 36.4416 34.8816 36.1694C36.1289 35.081 37.7287 34.4817 39.3863 34.4817C42.948 34.4817 45.8761 37.1449 46.2115 40.6818V41.1564H35.7475C35.3333 41.1564 34.9974 41.4917 34.9974 41.9063C34.9974 42.3209 35.3332 42.6561 35.7475 42.6561H46.9614C47.3759 42.6561 47.7117 42.3203 47.7117 41.9063V40.6474C47.7117 40.6253 47.7104 40.6027 47.7085 40.5801V40.5802Z" fill="#080808"/>
<path fill-rule="evenodd" clip-rule="evenodd" d="M31.8115 41.1567H15.0662V40.3318C15.5006 35.6969 19.3358 32.2061 24.0008 32.2061C28.6658 32.2061 32.501 35.697 32.9353 40.3318V41.1567H31.8115ZM20.1193 26.7932C20.1193 24.6526 21.8605 22.9114 24.0008 22.9114C26.1411 22.9114 27.8824 24.6526 27.8824 26.7932C27.8824 28.9339 26.1412 30.6746 24.0008 30.6746C21.8604 30.6746 20.1193 28.9335 20.1193 26.7932ZM31.0855 33.4653C29.9343 32.4077 28.5784 31.6324 27.1154 31.1777C28.486 30.201 29.3824 28.6005 29.3824 26.7932C29.3824 23.8258 26.9682 21.4116 24.0009 21.4116C21.0335 21.4116 18.6193 23.8258 18.6193 26.7932C18.6193 28.6004 19.5158 30.201 20.8864 31.1777C19.4233 31.6324 18.0673 32.4077 16.9162 33.4653C14.9918 35.234 13.8029 37.6365 13.5694 40.2301C13.5674 40.2522 13.5664 40.2748 13.5664 40.2974V41.9065C13.5664 42.3205 13.902 42.6563 14.3162 42.6563H33.6854C34.0996 42.6563 34.4353 42.3205 34.4353 41.9065V40.2974C34.4353 40.2748 34.4344 40.2522 34.4323 40.2301C34.1987 37.6365 33.0102 35.234 31.0856 33.4653H31.0855Z" fill="#080808"/>
<path fill-rule="evenodd" clip-rule="evenodd" d="M23.4131 14.2835C23.5555 14.4629 23.7715 14.5669 24.0002 14.5669C24.2289 14.5669 24.445 14.4629 24.5873 14.2839L26.2223 12.2273C26.4801 11.9033 26.4264 11.4313 26.1022 11.1737C25.7776 10.9156 25.3059 10.9698 25.0483 11.294L24.7503 11.6687V6.09412C24.7503 5.67966 24.4145 5.34375 24.0003 5.34375C23.5861 5.34375 23.2504 5.67956 23.2504 6.09412V11.6687L22.9524 11.294C22.6944 10.9699 22.2228 10.9156 21.8986 11.1737C21.5742 11.4313 21.5204 11.9033 21.7782 12.2273L23.4132 14.2835H23.4131Z" fill="#EF0E0E"/>
<path fill-rule="evenodd" clip-rule="evenodd" d="M33.1755 18.3675C33.2039 18.3675 33.2324 18.3661 33.2608 18.363L35.871 18.0647C36.2826 18.0181 36.5781 17.6466 36.5312 17.2348C36.4842 16.8235 36.1129 16.527 35.7009 16.5749L35.2251 16.6292L39.167 12.6873C39.4599 12.3944 39.4599 11.9194 39.167 11.6264C38.8743 11.3335 38.3992 11.3335 38.1064 11.6264L34.1646 15.5684L34.2187 15.0929C34.2658 14.6811 33.9701 14.3096 33.5587 14.2626C33.1468 14.216 32.7756 14.5111 32.7285 14.9225L32.4306 17.5328C32.4047 17.7598 32.4836 17.9867 32.6453 18.148C32.7868 18.2895 32.978 18.3677 33.1755 18.3677V18.3675Z" fill="#EF0E0E"/>
<path fill-rule="evenodd" clip-rule="evenodd" d="M12.7748 16.6289L12.2992 16.5746C11.888 16.5276 11.516 16.8228 11.4691 17.2345C11.4221 17.6458 11.7175 18.0174 12.129 18.0644L14.7394 18.3627C14.7678 18.3659 14.7963 18.3672 14.8245 18.3672C15.0222 18.3672 15.2133 18.289 15.3547 18.1475C15.5165 17.9862 15.5955 17.7593 15.5695 17.5323L15.2717 14.922C15.2246 14.5107 14.8531 14.215 14.4414 14.2621C14.0299 14.3087 13.7344 14.6807 13.7812 15.0924L13.8356 15.5679L9.89362 11.6259C9.60094 11.333 9.12591 11.333 8.83294 11.6259C8.54006 11.9188 8.54006 12.3939 8.83294 12.6868L12.7748 16.6287L12.7748 16.6289Z" fill="#EF0E0E"/>
</svg>
