<svg width="48" height="48" viewBox="0 0 48 48" fill="none" xmlns="http://www.w3.org/2000/svg">
<path d="M18.362 36.5433C17.2113 36.5433 16.1696 36.0756 15.4175 35.3235C14.801 34.707 14.3758 33.8964 14.2429 32.9903C13.3367 32.8574 12.5289 32.4322 11.9097 31.8157C11.1576 31.0636 10.6899 30.0219 10.6899 28.8738C10.6899 28.5576 10.7271 28.244 10.7962 27.9411C10.8148 27.8613 10.836 27.7816 10.86 27.7045C10.2806 27.4069 9.78098 26.9764 9.3983 26.4555C8.89336 25.7646 8.5957 24.9168 8.5957 24C8.5957 23.0832 8.89598 22.2301 9.40355 21.5392C9.78623 21.0183 10.2885 20.5878 10.8678 20.2928C10.8439 20.2104 10.82 20.128 10.8014 20.0429C10.7296 19.7347 10.6897 19.4184 10.6897 19.0915C10.6897 17.9435 11.1574 16.9018 11.9095 16.1498C12.5287 15.5305 13.3419 15.1054 14.2507 14.9724C14.3915 14.0769 14.8168 13.2744 15.4333 12.6657C16.1853 11.919 17.2217 11.4565 18.3618 11.4565C19.5099 11.4565 20.5515 11.9243 21.3037 12.6763C22.0584 13.431 22.5235 14.4701 22.5235 15.6208V32.3789C22.5235 33.5296 22.0584 34.5687 21.3037 35.3234C20.5516 36.0755 19.5099 36.5432 18.3618 36.5432L18.362 36.5433ZM16.345 34.396C16.8605 34.9116 17.5727 35.2305 18.362 35.2305C19.1513 35.2305 19.8608 34.9117 20.3764 34.396C20.892 33.8805 21.2109 33.1656 21.2109 32.379V15.621C21.2109 14.8344 20.892 14.1222 20.3764 13.604C19.8609 13.0884 19.1487 12.7695 18.362 12.7695C17.5754 12.7695 16.8685 13.0831 16.3556 13.5933C15.8506 14.0929 15.5291 14.7812 15.5078 15.5412C15.5104 15.5545 15.5104 15.5705 15.5104 15.5864C15.5104 15.9478 15.2181 16.2429 14.854 16.2429C14.0673 16.2429 13.3552 16.5617 12.837 17.0773C12.3214 17.5929 12.0025 18.3051 12.0025 19.0917C12.0025 19.3203 12.029 19.5382 12.0769 19.7454C12.1275 19.9554 12.1965 20.152 12.2868 20.338C12.3081 20.3753 12.324 20.4151 12.3374 20.4577C12.4463 20.8031 12.2523 21.1699 11.9069 21.2788C11.3195 21.4622 10.8147 21.8289 10.4585 22.3126C10.113 22.7829 9.90839 23.3676 9.90839 24.0001C9.90839 24.6326 10.1103 25.2119 10.4532 25.6823C10.8092 26.1633 11.3115 26.5327 11.8935 26.7187C11.9228 26.7294 11.952 26.74 11.9812 26.7533C12.3081 26.91 12.4436 27.3034 12.2868 27.6276C12.1938 27.8189 12.1221 28.0209 12.0742 28.2335C12.0264 28.4355 12.0025 28.648 12.0025 28.874C12.0025 29.6606 12.3214 30.3729 12.837 30.8884C13.3552 31.4039 14.0673 31.7229 14.854 31.7229C15.2154 31.7229 15.5104 32.0178 15.5104 32.3792C15.5104 33.1659 15.8294 33.8807 16.3449 34.3962L16.345 34.396Z" fill="#EF0E0E"/>
<path d="M16.6075 31.252C16.9689 31.252 17.2639 31.547 17.2639 31.9085C17.2639 32.1769 17.1045 32.4054 16.8733 32.509C15.8926 33.0538 14.7845 33.1628 13.7773 32.8917C12.7488 32.618 11.824 31.9483 11.2501 30.9544C11.2421 30.9411 11.2341 30.9279 11.2288 30.9118C10.6734 29.9259 10.5617 28.8098 10.8328 27.7946C11.1091 26.7662 11.7762 25.8441 12.7727 25.27C13.0837 25.0867 13.485 25.193 13.6656 25.5066C13.849 25.8202 13.7401 26.2214 13.4291 26.4022C12.7461 26.7954 12.289 27.428 12.1004 28.1349C11.9144 28.8232 11.9861 29.5832 12.3555 30.2529C12.374 30.2768 12.39 30.306 12.4033 30.3353C12.7993 30.9969 13.4237 31.4408 14.1147 31.6268C14.8056 31.8101 15.563 31.741 16.2327 31.3689C16.339 31.2972 16.4665 31.252 16.6074 31.252H16.6075Z" fill="#EF0E0E"/>
<path d="M16.9328 15.4907C17.2464 15.6687 17.3553 16.0699 17.1746 16.3809C16.9939 16.6945 16.5953 16.8034 16.2818 16.6227C15.6014 16.2294 14.8228 16.1497 14.1159 16.3383C13.4091 16.5271 12.7765 16.9841 12.3833 17.6644V17.6671C11.99 18.3474 11.9102 19.126 12.1015 19.833C12.2903 20.5372 12.7473 21.1724 13.4276 21.563C13.4782 21.5923 13.5233 21.6294 13.5632 21.6693L13.5658 21.6667C13.8209 21.9218 13.8209 22.3391 13.5658 22.5942C13.3346 22.8254 12.9732 22.8493 12.718 22.6633C11.7507 22.084 11.105 21.1777 10.8339 20.1706C10.5628 19.1634 10.6718 18.0526 11.2192 17.0719C11.2377 17.0321 11.259 16.9923 11.2856 16.955C11.8623 15.9903 12.7712 15.342 13.7784 15.0736C14.8042 14.7972 15.9389 14.914 16.9328 15.4907Z" fill="#EF0E0E"/>
<path d="M17.1266 28.8739C16.8715 29.1318 16.4569 29.1318 16.1991 28.8739C15.944 28.6188 15.944 28.2016 16.1991 27.9465C17.2887 26.8569 17.8335 25.4298 17.8335 24.0002C17.8335 22.5705 17.2887 21.1434 16.1991 20.0538C15.944 19.7988 15.944 19.3815 16.1991 19.1264C16.4569 18.8713 16.8715 18.8713 17.1266 19.1264C18.474 20.471 19.1463 22.2356 19.1463 24.0002C19.1463 25.7647 18.4739 27.5293 17.1266 28.8739Z" fill="#EF0E0E"/>
<path d="M21.211 32.379C21.211 32.0176 21.506 31.7227 21.8675 31.7227C22.2315 31.7227 22.5239 32.0176 22.5239 32.379C22.5239 33.1657 22.8428 33.8805 23.3584 34.396C23.8739 34.9116 24.5888 35.2305 25.3754 35.2305C26.1621 35.2305 26.8742 34.9117 27.3898 34.396C27.9053 33.8805 28.2269 33.1656 28.2269 32.379C28.2269 32.0176 28.5192 31.7227 28.8806 31.7227C29.6699 31.7227 30.3821 31.4037 30.8977 30.8882C31.4132 30.3727 31.7321 29.6604 31.7321 28.8738C31.7321 28.6479 31.7082 28.4353 31.663 28.2333C31.6125 28.0207 31.5408 27.8187 31.4478 27.6274C31.291 27.3032 31.4292 26.9098 31.7534 26.7531C31.7827 26.7398 31.8119 26.7292 31.8411 26.7185C32.4257 26.5325 32.928 26.1631 33.2814 25.6821C33.6243 25.2117 33.8288 24.6297 33.8288 23.9999C33.8288 23.3701 33.6242 22.7828 33.2761 22.3124C32.92 21.8288 32.4151 21.462 31.8278 21.2786C31.4823 21.1697 31.2909 20.8029 31.3973 20.4575C31.4106 20.415 31.4291 20.3751 31.4478 20.3379C31.5382 20.1519 31.6099 19.9552 31.6577 19.7453C31.7055 19.538 31.7321 19.3201 31.7321 19.0915C31.7321 18.3049 31.4132 17.5928 30.8977 17.0771C30.3821 16.5616 29.6699 16.2427 28.8806 16.2427C28.5192 16.2427 28.2242 15.9477 28.2242 15.5862C28.2242 15.5703 28.2268 15.5544 28.2268 15.541C28.2055 14.781 27.8867 14.0927 27.3818 13.5931C26.8662 13.0829 26.1593 12.7693 25.3753 12.7693C24.5913 12.7693 23.8738 13.0882 23.3583 13.6038C22.8428 14.122 22.5238 14.8342 22.5238 15.6208C22.5238 15.9822 22.2315 16.2772 21.8674 16.2772C21.506 16.2772 21.2109 15.9822 21.2109 15.6208C21.2109 14.4701 21.6787 13.4311 22.4307 12.6763C23.1854 11.9243 24.2245 11.4565 25.3752 11.4565C26.5153 11.4565 27.549 11.9189 28.3038 12.6657C28.9177 13.2743 29.3455 14.0769 29.4837 14.9724C30.3925 15.1053 31.2057 15.5305 31.8249 16.1498C32.5796 16.9018 33.0447 17.9436 33.0447 19.0915C33.0447 19.4184 33.0075 19.7347 32.9358 20.0429C32.9145 20.1279 32.8932 20.2104 32.8693 20.2928C33.4487 20.5877 33.9509 21.0183 34.3336 21.5392C34.8412 22.2301 35.1388 23.0805 35.1388 24C35.1388 24.9195 34.8412 25.7646 34.3362 26.4555C33.9562 26.9764 33.4566 27.4069 32.8773 27.7045C32.8986 27.7816 32.9198 27.8613 32.9384 27.9411C33.0075 28.244 33.0447 28.5576 33.0447 28.8738C33.0447 30.0219 32.5796 31.0635 31.8249 31.8157C31.2084 32.4322 30.3979 32.8574 29.4943 32.9903C29.3588 33.8964 28.9362 34.707 28.3197 35.3235C27.565 36.0756 26.5233 36.5433 25.3752 36.5433C24.2272 36.5433 23.1855 36.0756 22.4307 35.3235C21.6787 34.5688 21.2109 33.5297 21.2109 32.379H21.211Z" fill="#EF0E0E"/>
<path d="M26.8026 32.4776C26.489 32.2969 26.3827 31.8983 26.5607 31.5847C26.7415 31.2711 27.1401 31.1648 27.4536 31.3429C28.1366 31.7362 28.9126 31.816 29.6194 31.6273C30.3263 31.4386 30.9588 30.9788 31.3521 30.2985C31.3575 30.2878 31.3654 30.2773 31.3707 30.2667C31.748 29.5943 31.8225 28.829 31.6365 28.1353C31.4477 27.4285 30.988 26.796 30.3077 26.4027C29.9941 26.2219 29.8878 25.8207 30.0686 25.5071C30.2493 25.1935 30.6506 25.0872 30.9642 25.2705C31.9581 25.8446 32.6278 26.7667 32.9015 27.7951C33.1753 28.8102 33.0636 29.9264 32.5082 30.915C32.5003 30.9283 32.4923 30.9417 32.4843 30.9549C31.9103 31.9488 30.9882 32.6185 29.9597 32.8922C28.9313 33.1686 27.7992 33.0517 26.8026 32.4777V32.4776Z" fill="#EF0E0E"/>
<path d="M27.4536 16.6228C27.14 16.8035 26.7414 16.6946 26.5607 16.381C26.3827 16.07 26.489 15.6688 26.8026 15.4908C27.7992 14.9141 28.9313 14.7972 29.9597 15.0736C30.9856 15.3473 31.9103 16.017 32.4843 17.0135C33.061 18.0101 33.1779 19.1422 32.9015 20.1707C32.6278 21.1991 31.9581 22.1212 30.9616 22.6979C30.648 22.8759 30.2493 22.7696 30.0687 22.4561C29.8879 22.1425 29.997 21.7439 30.3106 21.5632C30.9909 21.1726 31.4479 20.5374 31.6366 19.8332C31.8254 19.1263 31.7456 18.3476 31.3523 17.6646C30.959 16.9843 30.3265 16.5273 29.6196 16.3385C28.9127 16.1499 28.1368 16.2296 27.4538 16.6229L27.4536 16.6228Z" fill="#EF0E0E"/>
<path d="M27.535 27.9465C27.7928 28.2016 27.7928 28.6188 27.535 28.8739C27.2799 29.1318 26.8626 29.1318 26.6075 28.8739C25.2629 27.5293 24.5879 25.7647 24.5879 24.0002C24.5879 22.2356 25.2629 20.471 26.6075 19.1264C26.8626 18.8713 27.2799 18.8713 27.535 19.1264C27.7928 19.3815 27.7928 19.7987 27.535 20.0538C26.4455 21.1434 25.9007 22.5731 25.9007 24.0002C25.9007 25.4272 26.4455 26.8569 27.535 27.9465Z" fill="#EF0E0E"/>
<path d="M22.3561 2.48779C28.2955 2.48779 33.6743 4.89548 37.5675 8.78864C41.4608 12.6819 43.8683 18.0606 43.8683 24C43.8683 24.0691 43.8657 25.2915 43.8577 26.9312V27.5105H46.4993C46.8633 27.5105 47.1557 27.8028 47.1557 28.1669C47.1557 28.3264 47.0972 28.4752 47.0016 28.5895L41.4315 36.1819C41.2163 36.4742 40.807 36.538 40.5146 36.3227C40.4561 36.2803 40.4057 36.2297 40.3658 36.1712L34.7771 28.5523C34.5619 28.2599 34.6256 27.8507 34.9179 27.6381C35.0348 27.5531 35.1704 27.5105 35.3033 27.5105H38.1813C38.1813 27.3377 38.1813 27.1384 38.1839 26.9285C38.1865 26.1313 38.1893 24.255 38.1893 23.9999C38.1893 19.6284 36.4167 15.6688 33.5519 12.8039C30.6872 9.93923 26.7275 8.1666 22.3559 8.1666C17.9843 8.1666 14.0247 9.93914 11.1599 12.8039C8.29519 15.6687 6.52256 19.6284 6.52256 23.9999C6.52256 28.3715 8.29509 32.3311 11.1599 35.1959C14.0246 38.0607 17.9843 39.8333 22.3559 39.8333H40.9025C41.2639 39.8333 41.5589 40.1256 41.5589 40.4896V44.8559C41.5589 45.2173 41.264 45.5123 40.9025 45.5123H22.3561C16.4167 45.5123 11.0378 43.1046 7.14469 39.2114C3.25144 35.3184 0.84375 29.9396 0.84375 24.0001C0.84375 18.0607 3.25144 12.6819 7.14459 8.78873C11.0378 4.89548 16.4166 2.48779 22.3561 2.48779ZM36.64 9.71611C32.9833 6.06211 27.9341 3.80057 22.3561 3.80057C16.7781 3.80057 11.7289 6.06211 8.07216 9.71611C4.41816 13.3728 2.15663 18.422 2.15663 24C2.15663 29.5781 4.41816 34.6273 8.07216 38.284C11.7289 41.9381 16.7781 44.1995 22.3561 44.1995H40.2462V41.1461H22.3561C17.6205 41.1461 13.334 39.2274 10.2326 36.1234C7.12866 33.0222 5.20997 28.7356 5.20997 24C5.20997 19.2644 7.12866 14.9805 10.2326 11.8767C13.3339 8.77532 17.6204 6.85401 22.3561 6.85401C27.0918 6.85401 31.3756 8.77532 34.4796 11.8767C37.5835 14.9805 39.5022 19.2671 39.5022 24C39.5022 24.0904 39.4969 25.3926 39.4916 26.9339C39.489 27.4919 39.4863 27.9569 39.481 28.1324C39.481 28.143 39.4837 28.1536 39.4837 28.1669C39.4837 28.5284 39.1887 28.8207 38.8272 28.8207H36.5976L40.9027 34.6884L45.2077 28.8207H43.1961C43.1881 28.8207 43.1801 28.8207 43.1748 28.818C42.8134 28.8074 42.529 28.5044 42.5423 28.143C42.5477 28.0473 42.5503 27.5477 42.5529 26.9312C42.5529 26.2323 42.5556 24.2764 42.5556 24C42.5556 18.422 40.294 13.3728 36.64 9.71611Z" fill="#080808"/>
</svg>
