<svg width="48" height="48" viewBox="0 0 48 48" fill="none" xmlns="http://www.w3.org/2000/svg">
<path d="M24.001 47.1575C21.8617 47.1575 20.1211 45.417 20.1211 43.2775C20.1211 43.0393 20.1419 42.8079 20.1829 42.59L21.4731 42.8328C21.4471 42.9709 21.4339 43.1205 21.4339 43.2775C21.4339 44.6931 22.5855 45.8447 24.001 45.8447C25.4166 45.8447 26.5655 44.6931 26.5655 43.2775C26.5655 43.1203 26.5522 42.9708 26.5264 42.833L27.8165 42.5898C27.8575 42.8076 27.8783 43.039 27.8783 43.2775C27.8783 45.4169 26.139 47.1575 24.0011 47.1575H24.001Z" fill="#EF0E0E"/>
<path d="M29.8562 43.3681H18.1446C17.7821 43.3681 17.4883 43.0742 17.4883 42.7116V38.8078C17.4883 38.4453 17.7822 38.1514 18.1446 38.1514H29.8562C30.2187 38.1514 30.5125 38.4453 30.5125 38.8078V42.7116C30.5125 43.0742 30.2186 43.3681 29.8562 43.3681ZM18.8011 42.0552H29.1998V39.4642H18.8011V42.0552Z" fill="#080808"/>
<path d="M23.9122 7.58762C23.5497 7.58762 23.2559 7.29371 23.2559 6.93118V1.49921C23.2559 1.13668 23.5498 0.842773 23.9122 0.842773C24.2746 0.842773 24.5685 1.13668 24.5685 1.49921V6.93109C24.5685 7.29362 24.2746 7.58762 23.9122 7.58762Z" fill="#080808"/>
<path d="M31.7751 9.59652C31.6637 9.59652 31.5509 9.56811 31.4475 9.50858C31.1336 9.32727 31.0259 8.92583 31.2071 8.61195L33.9205 3.91086C34.1017 3.59689 34.5031 3.48936 34.8171 3.67048C35.1311 3.8518 35.2387 4.25323 35.0575 4.56711L32.3441 9.2682C32.2226 9.47877 32.002 9.59652 31.7751 9.59652Z" fill="#080808"/>
<path d="M37.579 15.2703C37.3522 15.2703 37.1316 15.1526 37.01 14.9421C36.8286 14.6282 36.9362 14.2267 37.25 14.0454L41.9511 11.3295C42.265 11.1479 42.6665 11.2555 42.8479 11.5695C43.0293 11.8834 42.9217 12.2849 42.6079 12.4662L37.9068 15.1821C37.8034 15.2419 37.6904 15.2703 37.579 15.2703Z" fill="#080808"/>
<path d="M10.4215 15.5812C10.31 15.5812 10.1971 15.5528 10.0937 15.4931L5.39262 12.7771C5.07874 12.5957 4.97121 12.1943 5.15262 11.8804C5.33402 11.5665 5.73556 11.459 6.04934 11.6404L10.7504 14.3563C11.0643 14.5378 11.1718 14.9392 10.9904 15.2531C10.8688 15.4635 10.6482 15.5812 10.4215 15.5812Z" fill="#080808"/>
<path d="M16.0957 9.77743C15.869 9.77743 15.6483 9.65968 15.5267 9.44912L12.8107 4.7454C12.6294 4.43143 12.737 4.02999 13.0509 3.84878C13.3648 3.66756 13.7662 3.77509 13.9475 4.08896L16.6635 8.79268C16.8448 9.10665 16.7372 9.50809 16.4233 9.68931C16.3199 9.74903 16.207 9.77734 16.0956 9.77734L16.0957 9.77743Z" fill="#080808"/>
<path d="M27.1536 36.1581C25.7273 36.1581 24.5601 35.2009 24.3675 33.878C24.3293 33.6947 24.31 33.5052 24.31 33.3146V33.113C24.3073 32.9516 24.3047 32.7876 24.3047 32.6157V14.9726C24.3047 14.8006 24.3073 14.6366 24.31 14.4754V14.2737C24.31 14.083 24.3293 13.8936 24.3675 13.7102C24.5582 12.4086 25.751 11.4302 27.1536 11.4302C28.1781 11.4302 29.0778 11.9748 29.5783 12.7897C30.2033 12.1303 31.0869 11.7278 32.0566 11.7278C33.9381 11.7278 35.4687 13.2573 35.4687 15.1373C35.4687 15.7754 35.295 16.3878 34.9975 16.879C35.4305 17.1081 35.8004 17.4381 36.0824 17.8536C36.6027 18.6203 36.7583 19.5936 36.5094 20.5237C36.4761 20.6463 36.4338 20.775 36.3832 20.9037C36.609 21.0157 36.8247 21.1761 37.0323 21.3853C37.6753 22.0284 38.0305 22.8851 38.0305 23.7955C38.0305 24.7059 37.6758 25.5591 37.0315 26.2064C36.824 26.4141 36.6085 26.5732 36.3833 26.6847C36.4336 26.8125 36.4754 26.9403 36.5085 27.0616C36.7583 27.9948 36.6026 28.9681 36.0823 29.7349C35.7992 30.152 35.4273 30.4829 34.9921 30.7122C35.2909 31.2071 35.4686 31.823 35.4686 32.4511C35.4686 34.3311 33.938 35.8607 32.0565 35.8607C31.0868 35.8607 30.2033 35.4582 29.5782 34.7988C29.0777 35.6137 28.178 36.1583 27.1535 36.1583L27.1536 36.1581ZM27.1536 12.7431C26.5087 12.7431 25.7678 13.153 25.6647 13.9129C25.6624 13.9302 25.6593 13.9475 25.6556 13.9646C25.6336 14.0655 25.6228 14.1666 25.6228 14.2738V14.4811V14.492C25.6203 14.6479 25.6176 14.8064 25.6176 14.9727V32.6157C25.6176 32.7819 25.6202 32.9405 25.6228 33.0965V33.1073V33.3146C25.6228 33.4218 25.6335 33.5228 25.6555 33.6237C25.6593 33.6409 25.6624 33.6582 25.6647 33.6756C25.7676 34.4354 26.5085 34.8454 27.1535 34.8454C27.9975 34.8454 28.6842 34.1587 28.6842 33.3147V32.9135C28.6842 32.5723 28.9456 32.2881 29.2855 32.2594C29.6248 32.2309 29.9307 32.4672 29.9878 32.8036C30.1594 33.8142 31.0294 34.5477 32.0566 34.5477C33.2142 34.5477 34.156 33.6071 34.156 32.451C34.156 31.7561 33.8137 31.16 33.4827 30.985C33.2286 30.8508 33.0913 30.5667 33.1441 30.2841C33.1969 30.0016 33.4273 29.7861 33.7129 29.7527C34.253 29.6893 34.7088 29.4212 34.9962 28.9975C35.3024 28.5464 35.3918 27.9655 35.2414 27.404C35.1451 27.0508 34.992 26.8183 34.9351 26.7573C34.6769 26.5962 34.5618 26.2764 34.6627 25.9855C34.7681 25.6816 35.0782 25.4988 35.3951 25.5539C35.6671 25.6011 35.8522 25.5292 36.1022 25.2794C36.4987 24.8808 36.7178 24.3534 36.7178 23.7956C36.7178 23.2378 36.4992 22.7088 36.1022 22.3117C35.8519 22.0594 35.6672 21.9871 35.3951 22.0346C35.0785 22.0902 34.768 21.9069 34.6627 21.603C34.5618 21.312 34.6769 20.9922 34.9351 20.8312C34.992 20.7702 35.1451 20.5374 35.2421 20.1815C35.3917 19.6229 35.3023 19.042 34.9961 18.5909C34.7087 18.1672 34.2529 17.8991 33.7128 17.8357C33.4273 17.8023 33.1968 17.5868 33.144 17.3043C33.0913 17.0217 33.2285 16.7376 33.4826 16.6034C33.8136 16.4286 34.1559 15.8323 34.1559 15.1374C34.1559 13.9813 33.2141 13.0408 32.0565 13.0408C31.0293 13.0408 30.1592 13.7743 29.9877 14.7849C29.9306 15.1212 29.6249 15.359 29.2854 15.3291C28.9455 15.3005 28.6841 15.0162 28.6841 14.6751V14.2738C28.6841 13.4298 27.9974 12.7431 27.1534 12.7431L27.1536 12.7431ZM34.9702 26.7777C34.9702 26.7777 34.9705 26.7777 34.9706 26.7779C34.9706 26.7779 34.9703 26.7779 34.9702 26.7777ZM34.9706 20.8102C34.9706 20.8102 34.9703 20.8102 34.9702 20.8104C34.9702 20.8104 34.9705 20.8104 34.9706 20.8102Z" fill="#080808"/>
<path d="M27.4605 30.9149C27.1128 30.9149 26.8226 30.6418 26.8055 30.2906C26.7878 29.9285 27.0669 29.6207 27.4289 29.6029C28.3894 29.5557 29.5727 29.0693 30.946 28.157C31.2479 27.9565 31.6554 28.0386 31.8559 28.3406C32.0565 28.6426 31.9743 29.0499 31.6723 29.2505C30.0771 30.3103 28.7101 30.8543 27.4932 30.914C27.4823 30.9146 27.4714 30.9149 27.4605 30.9149Z" fill="#080808"/>
<path d="M29.7053 18.6533C29.4793 18.6533 29.2593 18.5364 29.1374 18.3271C28.5367 17.2951 28.3889 16.0212 28.6981 14.5408C28.7721 14.1861 29.1201 13.9585 29.4748 14.0325C29.8296 14.1066 30.0572 14.4544 29.9831 14.8092C29.7423 15.9623 29.8395 16.9237 30.2719 17.6666C30.4543 17.9799 30.3482 18.3818 30.0348 18.5641C29.9311 18.6247 29.8174 18.6533 29.7053 18.6533Z" fill="#080808"/>
<path d="M35.283 26.8573C35.2149 26.8573 35.1458 26.8466 35.0776 26.8241C33.6414 26.3513 32.6121 25.5862 32.0186 24.5497C31.8384 24.2351 31.9473 23.834 32.262 23.6539C32.5764 23.4736 32.9775 23.5826 33.1577 23.8972C33.5852 24.6437 34.3693 25.2088 35.4881 25.5772C35.8324 25.6905 36.0196 26.0616 35.9063 26.4059C35.8154 26.682 35.5587 26.8572 35.283 26.8572V26.8573Z" fill="#080808"/>
<path d="M27.5938 24.6218C27.2313 24.6218 26.9375 24.3279 26.9375 23.9653C26.9375 23.6028 27.2314 23.3089 27.5938 23.3089C28.7075 23.3089 29.6135 22.4029 29.6135 21.2892C29.6135 20.9267 29.9074 20.6328 30.2698 20.6328C30.6323 20.6328 30.9262 20.9267 30.9262 21.2892C30.9262 23.1268 29.4313 24.6218 27.5938 24.6218Z" fill="#080808"/>
<path d="M22.3351 36.158H20.1108C19.7483 36.158 19.4544 35.864 19.4544 35.5015V33.9009C18.6776 33.6814 17.9313 33.3728 17.2256 32.9795L16.0944 34.1107C15.8381 34.3671 15.4225 34.3671 15.1662 34.1107L12.0198 30.9643C11.7635 30.708 11.7635 30.2923 12.0198 30.036L13.151 28.9049C12.7589 28.2012 12.4498 27.4549 12.2282 26.6762H10.629C10.2665 26.6762 9.97266 26.3823 9.97266 26.0197V21.5685C9.97266 21.206 10.2666 20.9121 10.629 20.9121H12.2282C12.45 20.133 12.7589 19.3875 13.1506 18.6856L12.0198 17.5548C11.7635 17.2986 11.7635 16.8831 12.0196 16.6266L15.166 13.4775C15.2891 13.3544 15.4561 13.2851 15.6303 13.285C15.8044 13.285 15.9714 13.3541 16.0945 13.4773L17.2263 14.6091C17.9351 14.2149 18.6813 13.9062 19.4545 13.6872V12.0866C19.4545 11.7241 19.7484 11.4302 20.1109 11.4302H22.3352C22.6977 11.4302 22.9915 11.7241 22.9915 12.0866V18.2147C22.9915 18.5748 22.7015 18.8676 22.3414 18.871C21.0558 18.8834 19.848 19.3898 18.9406 20.2973C17.0402 22.1976 17.0402 25.2897 18.9406 27.1899C19.8481 28.0974 21.0559 28.6039 22.3414 28.6161C22.7015 28.6195 22.9915 28.9124 22.9915 29.2725V35.5016C22.9915 35.8641 22.6976 36.1581 22.3352 36.1581L22.3351 36.158ZM20.7671 34.8451H21.6787V29.889C20.2931 29.7317 19.01 29.1158 18.0123 28.1181C15.6001 25.706 15.6001 21.781 18.0123 19.3688C19.0099 18.3712 20.2931 17.7553 21.6787 17.598V12.7429H20.7671V14.1965C20.7671 14.5026 20.5556 14.7681 20.2572 14.8363C19.2748 15.0612 18.3363 15.4492 17.4678 15.9895C17.2087 16.1506 16.8727 16.112 16.6569 15.8963L15.6304 14.8699L13.4118 17.0903L14.4387 18.1172C14.6551 18.3336 14.6932 18.6707 14.5308 18.93C13.9952 19.7845 13.6065 20.7221 13.3756 21.7168C13.3065 22.0143 13.0416 22.2248 12.7362 22.2248H11.2852V25.3633H12.7362C13.0416 25.3633 13.3065 25.5739 13.3756 25.8713C13.6062 26.865 13.995 27.8037 14.5312 28.6615C14.6932 28.9207 14.6548 29.2574 14.4387 29.4736L13.4121 30.5002L15.6303 32.7185L16.657 31.6917C16.8731 31.4756 17.2098 31.4373 17.4691 31.5993C18.3304 32.1376 19.2684 32.5253 20.2573 32.7517C20.5557 32.8201 20.7672 33.0856 20.7672 33.3916V34.8453L20.7671 34.8451Z" fill="#EF0E0E"/>
</svg>
