<svg width="56" height="56" viewBox="0 0 56 56" fill="none" xmlns="http://www.w3.org/2000/svg">
<g clip-path="url(#clip0_565_462)" filter="url(#filter0_d_565_462)">
<path d="M46.3477 27.8953C47.2375 27.7375 48.0434 27.2713 48.6239 26.5786C49.2045 25.8859 49.5225 25.0109 49.5223 24.1071C49.5221 23.2033 49.2036 22.3284 48.6228 21.636C48.042 20.9436 47.2358 20.4778 46.3459 20.3203C45.6024 16.7406 43.8283 13.4564 41.2421 10.872C38.6559 8.28768 35.3704 6.51601 31.7902 5.77511C31.6351 4.88238 31.1698 4.07306 30.4764 3.4898C29.783 2.90654 28.9059 2.58679 27.9998 2.58691C27.0937 2.58704 26.2168 2.90702 25.5235 3.49047C24.8302 4.07392 24.3652 4.88337 24.2104 5.77614C16.9249 7.27511 11.1562 13.036 9.65512 20.3207C8.76514 20.4781 7.95901 20.9439 7.37814 21.6363C6.79727 22.3287 6.47877 23.2035 6.47852 24.1073C6.47826 25.0111 6.79626 25.8861 7.37673 26.5788C7.9572 27.2716 8.76307 27.7378 9.65296 27.8957C10.2939 31.0295 11.7334 33.9447 13.8321 36.3587C13.8674 36.4125 13.91 36.4611 13.9586 36.5033C14.2086 36.786 14.468 37.0621 14.7367 37.3315C17.3221 39.934 20.6185 41.7149 24.2123 42.4507C24.3695 43.3412 24.8354 44.1478 25.5282 44.729C26.2209 45.3101 27.0963 45.6286 28.0005 45.6286C28.9048 45.6285 29.7801 45.3099 30.4728 44.7286C31.1655 44.1473 31.6312 43.3406 31.7883 42.4501C39.0787 40.9517 44.8499 35.1818 46.3477 27.8953ZM31.7498 40.922C31.6911 40.6654 31.6059 40.4156 31.4958 40.1765C33.5427 38.304 35.2176 36.0619 36.4327 33.568C36.9324 33.7982 37.4241 34.0468 37.9046 34.318C37.9906 34.3676 38.0856 34.3997 38.184 34.4125C38.2825 34.4252 38.3825 34.4183 38.4783 34.3922C38.574 34.366 38.6637 34.3212 38.742 34.2602C38.8204 34.1992 38.8858 34.1233 38.9347 34.0369C38.9835 33.9505 39.0148 33.8552 39.0266 33.7566C39.0384 33.6581 39.0306 33.5581 39.0035 33.4626C38.9765 33.3671 38.9308 33.2778 38.8691 33.2001C38.8074 33.1223 38.7309 33.0575 38.644 33.0095C38.1213 32.7142 37.5877 32.4416 37.0431 32.1917C37.9853 29.8619 38.5136 27.3855 38.6039 24.874H41.9026C42.0513 25.5986 42.4052 26.2653 42.9221 26.7945C43.4391 27.3237 44.0972 27.6932 44.8182 27.8589C44.0994 31.0498 42.4898 33.9712 40.1765 36.2836C37.8631 38.596 34.9411 40.2044 31.7498 40.922ZM28.0008 35.5492C27.9021 35.5492 27.8044 35.5686 27.7132 35.6064C27.622 35.6441 27.5392 35.6995 27.4694 35.7693C27.3996 35.8391 27.3442 35.9219 27.3065 36.0131C27.2687 36.1043 27.2493 36.202 27.2493 36.3007V38.008C26.5557 38.1465 25.9139 38.4738 25.3945 38.9539C23.5663 37.2528 22.0635 35.2326 20.9601 32.9924C25.4999 31.2913 30.5018 31.2897 35.0427 32.9879C33.9392 35.2299 32.4357 37.2517 30.6062 38.9539C30.087 38.4738 29.4452 38.1465 28.7518 38.008V36.3007C28.7518 36.1014 28.6727 35.9103 28.5319 35.7694C28.3911 35.6285 28.2 35.5493 28.0008 35.5492ZM11.182 27.8589C11.903 27.6931 12.5612 27.3237 13.0781 26.7945C13.595 26.2653 13.9489 25.5986 14.0977 24.874H17.3962C17.4869 27.3878 18.0161 29.8664 18.9601 32.198C17.3961 32.9166 15.9224 33.8174 14.5697 34.8817C12.9159 32.8321 11.7567 30.429 11.182 27.8589ZM25.3996 9.26739C25.918 9.74479 26.5578 10.0703 27.2489 10.2084V11.9626C27.2511 12.1605 27.3313 12.3494 27.4719 12.4886C27.6126 12.6277 27.8025 12.7057 28.0004 12.7057C28.1982 12.7057 28.3881 12.6277 28.5288 12.4886C28.6695 12.3494 28.7496 12.1605 28.7518 11.9626V10.2084C29.4428 10.0703 30.0825 9.74491 30.6008 9.26767C32.4215 10.9608 33.9195 12.9706 35.0218 15.1991C32.7871 16.0277 30.423 16.4527 28.0396 16.4545C25.6316 16.4522 23.2434 16.0196 20.9876 15.1769C22.0897 12.957 23.5844 10.9549 25.3996 9.26739ZM28.0396 17.9574C30.6351 17.9553 33.2091 17.4862 35.6385 16.5726C36.5174 18.7365 37.0123 21.0371 37.101 23.371H28.7518V21.0775C28.7496 20.8797 28.6695 20.6907 28.5288 20.5516C28.3881 20.4125 28.1982 20.3344 28.0004 20.3344C27.8025 20.3344 27.6126 20.4125 27.4719 20.5516C27.3313 20.6907 27.2511 20.8797 27.2489 21.0775V23.371H18.8998C18.9881 21.0292 19.4855 18.7208 20.3695 16.5504C22.8204 17.4783 25.4189 17.955 28.0396 17.9574ZM44.817 20.358C44.0916 20.5251 43.43 20.8984 42.912 21.433C42.394 21.9677 42.0417 22.6407 41.8976 23.371H38.6054C38.5238 20.8378 37.9926 18.3391 37.0365 15.9918C38.5965 15.2793 40.0673 14.3857 41.4184 13.3293C43.0769 15.3795 44.2399 17.7848 44.817 20.358ZM18.9006 24.874H27.2489V27.1483C27.2511 27.3462 27.3313 27.5352 27.4719 27.6743C27.6126 27.8134 27.8025 27.8914 28.0004 27.8914C28.1982 27.8914 28.3881 27.8134 28.5288 27.6743C28.6695 27.5352 28.7496 27.3462 28.7518 27.1483V24.874H37.1001C37.0106 27.1866 36.5222 29.4663 35.6563 31.6126C30.7239 29.744 25.278 29.7459 20.3469 31.618C19.4795 29.4702 18.9902 27.1886 18.9006 24.874ZM48.0181 24.1082C48.0181 24.5719 47.8806 25.0252 47.623 25.4108C47.3653 25.7964 46.9991 26.0969 46.5707 26.2743C46.1423 26.4518 45.6709 26.4982 45.2161 26.4077C44.7613 26.3173 44.3435 26.094 44.0156 25.7661C43.6877 25.4382 43.4644 25.0204 43.374 24.5656C43.2835 24.1108 43.3299 23.6394 43.5074 23.211C43.6848 22.7825 43.9853 22.4164 44.3709 22.1587C44.7565 21.9011 45.2098 21.7636 45.6735 21.7636C46.2951 21.7643 46.8911 22.0115 47.3306 22.4511C47.7701 22.8906 48.0174 23.4866 48.0181 24.1082ZM40.4243 12.1998C39.1883 13.1575 37.846 13.9695 36.424 14.6198C35.2092 12.1375 33.536 9.90727 31.4928 8.04648C31.6031 7.80838 31.6885 7.55953 31.7477 7.30389C35.0588 8.0457 38.0771 9.74891 40.4239 12.1998H40.4243ZM28.0008 4.09051C28.4645 4.09053 28.9178 4.22806 29.3033 4.4857C29.6889 4.74334 29.9894 5.10953 30.1668 5.53796C30.3443 5.96638 30.3907 6.4378 30.3002 6.89261C30.2097 7.34741 29.9864 7.76517 29.6585 8.09305C29.3306 8.42094 28.9128 8.64422 28.458 8.73467C28.0032 8.82512 27.5318 8.77867 27.1034 8.60119C26.6749 8.42372 26.3088 8.12319 26.0512 7.73762C25.7936 7.35204 25.6561 6.89873 25.6561 6.43501C25.6568 5.81339 25.904 5.21744 26.3436 4.7779C26.7832 4.33837 27.3792 4.09116 28.0008 4.09051ZM24.2529 7.30379C24.3121 7.55929 24.3975 7.80801 24.5077 8.04601C22.4753 9.90447 20.8092 12.1274 19.5957 14.5996C19.2215 14.4269 18.8527 14.2425 18.4895 14.0465C18.314 13.9519 18.1082 13.9309 17.9173 13.9881C17.7264 14.0453 17.566 14.1759 17.4714 14.3514C17.3769 14.5268 17.3559 14.7326 17.413 14.9235C17.4702 15.1144 17.6009 15.2748 17.7763 15.3694C18.1722 15.5828 18.5743 15.7835 18.9828 15.9714C18.0222 18.3252 17.4849 20.8303 17.3958 23.371H14.103C13.9589 22.6407 13.6067 21.9676 13.0887 21.433C12.5707 20.8984 11.909 20.5251 11.1836 20.358C11.9036 17.1684 13.5139 14.2486 15.8274 11.9378C18.1409 9.62704 21.0625 8.02012 24.2529 7.30379ZM7.98262 24.1082C7.98262 23.6445 8.12013 23.1912 8.37775 22.8056C8.63538 22.42 9.00156 22.1195 9.42998 21.9421C9.85839 21.7646 10.3298 21.7182 10.7846 21.8087C11.2394 21.8991 11.6572 22.1224 11.9851 22.4503C12.313 22.7782 12.5363 23.196 12.6268 23.6508C12.7172 24.1056 12.6708 24.577 12.4933 25.0054C12.3159 25.4339 12.0154 25.8 11.6298 26.0577C11.2442 26.3153 10.7909 26.4528 10.3272 26.4528C9.7056 26.4521 9.10965 26.2049 8.6701 25.7653C8.23056 25.3258 7.98331 24.7298 7.98262 24.1082ZM15.5632 36.0123C16.8002 35.0472 18.1446 34.2283 19.5697 33.572C20.7847 36.0644 22.4591 38.3052 24.5049 40.1768C24.3947 40.4157 24.3096 40.6655 24.2508 40.922C20.9339 40.1785 17.9112 38.4702 15.5632 36.0123ZM28.0008 44.1259C27.537 44.1261 27.0836 43.9887 26.698 43.7312C26.3123 43.4736 26.0116 43.1075 25.834 42.6791C25.6565 42.2507 25.6099 41.7792 25.7003 41.3244C25.7907 40.8695 26.0139 40.4517 26.3418 40.1237C26.6697 39.7957 27.0874 39.5723 27.5423 39.4818C27.9971 39.3913 28.4686 39.4377 28.897 39.6151C29.3255 39.7926 29.6917 40.0931 29.9494 40.4787C30.207 40.8643 30.3445 41.3176 30.3445 41.7814C30.3438 42.4028 30.0966 42.9986 29.6573 43.4381C29.2179 43.8776 28.6222 44.1249 28.0008 44.1259Z" fill="#080808"/>
<path d="M20.6303 2.17936C20.7092 2.17932 20.7875 2.16685 20.8625 2.14242C21.355 1.98249 21.8597 1.83746 22.3625 1.71117C22.4588 1.68773 22.5496 1.64546 22.6295 1.58681C22.7094 1.52815 22.7769 1.45426 22.8281 1.3694C22.8794 1.28453 22.9133 1.19037 22.928 1.09234C22.9427 0.9943 22.9378 0.894327 22.9137 0.798175C22.8896 0.702023 22.8467 0.611593 22.7875 0.532092C22.7283 0.452591 22.6539 0.385591 22.5687 0.33495C22.4835 0.28431 22.3891 0.25103 22.2909 0.237027C22.1928 0.223025 22.0929 0.228576 21.9969 0.253362C21.461 0.3878 20.9232 0.542393 20.3984 0.712737C20.2282 0.768007 20.0833 0.882184 19.9897 1.03474C19.8962 1.18729 19.8602 1.3682 19.8881 1.54495C19.9161 1.7217 20.0062 1.88267 20.1422 1.99893C20.2782 2.11519 20.4513 2.1791 20.6302 2.17917L20.6303 2.17936Z" fill="#EF0E0E"/>
<path d="M4.78517 18.5797C4.88041 18.6056 4.97983 18.6126 5.07775 18.6C5.17567 18.5875 5.27015 18.5558 5.3558 18.5068C5.44145 18.4577 5.51657 18.3922 5.57687 18.314C5.63717 18.2359 5.68146 18.1466 5.70721 18.0513C6.5182 15.1036 7.90241 12.3447 9.78065 9.93244C11.6589 7.52019 13.9943 5.50193 16.6533 3.9931C16.8248 3.89404 16.9503 3.73125 17.0025 3.54014C17.0546 3.34903 17.0292 3.14507 16.9317 2.9726C16.8343 2.80014 16.6727 2.67313 16.482 2.6192C16.2914 2.56528 16.0872 2.58879 15.9139 2.68464C13.0781 4.28665 10.5878 6.43469 8.58701 9.00466C6.58617 11.5746 5.1144 14.5156 4.25671 17.6576C4.23086 17.7529 4.22402 17.8523 4.23659 17.9502C4.24916 18.048 4.28088 18.1425 4.32996 18.2281C4.37903 18.3137 4.44449 18.3888 4.5226 18.4492C4.6007 18.5095 4.68993 18.5538 4.78517 18.5797Z" fill="#EF0E0E"/>
<path d="M22.3606 46.5195C18.4093 45.5233 14.7915 43.5006 11.8737 40.6561C8.95578 37.8117 6.84152 34.2466 5.74503 30.3219C5.71857 30.2269 5.67363 30.1379 5.61279 30.0602C5.55195 29.9825 5.4764 29.9175 5.39046 29.869C5.30451 29.8205 5.20985 29.7894 5.11189 29.7775C5.01392 29.7656 4.91456 29.773 4.81949 29.7995C4.72441 29.826 4.63548 29.8709 4.55777 29.9318C4.48007 29.9926 4.4151 30.0681 4.36659 30.1541C4.31808 30.24 4.28697 30.3347 4.27504 30.4327C4.26311 30.5306 4.2706 30.63 4.29707 30.7251C5.465 34.9052 7.717 38.7025 10.8249 41.7322C13.9329 44.7618 17.7863 46.9162 21.9949 47.9772C22.0906 48.0012 22.1901 48.0061 22.2877 47.9917C22.3854 47.9772 22.4792 47.9437 22.5638 47.893C22.6485 47.8423 22.7223 47.7754 22.7811 47.6962C22.8399 47.6169 22.8826 47.5269 22.9066 47.4312C22.9306 47.3354 22.9355 47.2359 22.9211 47.1383C22.9066 47.0407 22.8731 46.9469 22.8224 46.8622C22.7717 46.7776 22.7048 46.7037 22.6255 46.6449C22.5463 46.5861 22.4562 46.5435 22.3605 46.5195H22.3606Z" fill="#080808"/>
<path d="M35.8195 45.8554C35.246 46.0616 34.6575 46.2472 34.0704 46.4066C33.9749 46.4323 33.8854 46.4765 33.8071 46.5367C33.7287 46.597 33.663 46.6722 33.6137 46.7579C33.5644 46.8436 33.5325 46.9382 33.5199 47.0363C33.5072 47.1343 33.514 47.2339 33.5399 47.3293C33.5658 47.4248 33.6103 47.5141 33.6708 47.5923C33.7313 47.6705 33.8067 47.736 33.8925 47.7851C33.9784 47.8341 34.0731 47.8657 34.1712 47.8781C34.2693 47.8904 34.3688 47.8833 34.4642 47.8571C35.0898 47.6871 35.7169 47.4895 36.328 47.2697C36.5156 47.2022 36.6687 47.063 36.7536 46.8827C36.8385 46.7024 36.8483 46.4957 36.7808 46.3082C36.7134 46.1206 36.5742 45.9676 36.3939 45.8827C36.2136 45.7977 36.0069 45.7879 35.8193 45.8554H35.8195Z" fill="#EF0E0E"/>
<path d="M51.2144 29.6478C51.022 29.5956 50.8168 29.622 50.6439 29.7212C50.471 29.8203 50.3446 29.9841 50.2924 30.1764C48.7023 36.04 44.7533 41.1419 39.4582 44.1733C39.2852 44.2724 39.1586 44.4362 39.1064 44.6286C39.0541 44.821 39.0804 45.0263 39.1795 45.1993C39.2786 45.3723 39.4424 45.4989 39.6348 45.5511C39.8272 45.6034 40.0325 45.5771 40.2055 45.478C45.8745 42.2333 50.024 36.8714 51.7429 30.5697C51.7688 30.4745 51.7756 30.3751 51.763 30.2772C51.7504 30.1793 51.7187 30.0849 51.6696 29.9993C51.6205 29.9136 51.5551 29.8385 51.477 29.7782C51.3988 29.7179 51.3096 29.6736 51.2144 29.6478Z" fill="#EF0E0E"/>
<path d="M32.6555 1.4876C41.1085 3.21739 48.0316 9.71886 50.2926 18.051C50.3452 18.2428 50.4718 18.4059 50.6446 18.5046C50.8173 18.6032 51.0221 18.6293 51.2141 18.5772C51.4061 18.5251 51.5696 18.399 51.6687 18.2265C51.7679 18.0541 51.7946 17.8494 51.7431 17.6572C50.5457 13.2689 48.1566 9.29773 44.8408 6.18383C41.5249 3.06993 37.4116 0.93488 32.9568 0.0152606C32.7615 -0.0246959 32.5584 0.0145448 32.3921 0.12435C32.2258 0.234156 32.1099 0.405531 32.0699 0.600776C32.03 0.796021 32.0692 0.999142 32.179 1.16545C32.2888 1.33177 32.4602 1.44765 32.6555 1.4876Z" fill="#080808"/>
</g>
<defs>
<filter id="filter0_d_565_462" x="0" y="0" width="56" height="56" filterUnits="userSpaceOnUse" color-interpolation-filters="sRGB">
<feFlood flood-opacity="0" result="BackgroundImageFix"/>
<feColorMatrix in="SourceAlpha" type="matrix" values="0 0 0 0 0 0 0 0 0 0 0 0 0 0 0 0 0 0 127 0" result="hardAlpha"/>
<feOffset dy="4"/>
<feGaussianBlur stdDeviation="2"/>
<feComposite in2="hardAlpha" operator="out"/>
<feColorMatrix type="matrix" values="0 0 0 0 0 0 0 0 0 0 0 0 0 0 0 0 0 0 0.25 0"/>
<feBlend mode="normal" in2="BackgroundImageFix" result="effect1_dropShadow_565_462"/>
<feBlend mode="normal" in="SourceGraphic" in2="effect1_dropShadow_565_462" result="shape"/>
</filter>
<clipPath id="clip0_565_462">
<rect width="48" height="48" fill="white" transform="translate(4)"/>
</clipPath>
</defs>
</svg>
