<svg width="48" height="48" viewBox="0 0 48 48" fill="none" xmlns="http://www.w3.org/2000/svg">
<g clip-path="url(#clip0_565_470)">
<path d="M45.7969 46.5469V37.1719H32.6719V29.6719H29.3906V24.0469H26.1094V18.0527C28.7937 17.3378 30.9408 15.2927 31.7987 12.6693C35.1796 12.3303 37.8281 9.46866 37.8281 6V2.85938H32.2031V0.046875H15.7969V2.85938H10.1719V6C10.1719 9.46866 12.8204 12.3303 16.2013 12.6693C17.0593 15.2927 19.2063 17.3378 21.8906 18.0527V24.0469H18.6094V29.6719H15.3281V34.3594H2.20312V46.5469H0V47.9531H48V46.5469H45.7969ZM32.2031 10.125V4.26562H36.4219V6C36.4219 8.57606 34.573 10.7274 32.1327 11.1996C32.1789 10.8478 32.2031 10.4892 32.2031 10.125ZM11.5781 6V4.26562H15.7969V10.125C15.7969 10.4892 15.8211 10.8478 15.8673 11.1996C13.427 10.7274 11.5781 8.57606 11.5781 6ZM15.3281 46.5469H3.60938V35.7656H15.3281V46.5469ZM17.2031 10.125V1.45312H30.7969V10.125C30.7969 13.8728 27.7478 16.9219 24 16.9219C20.2522 16.9219 17.2031 13.8728 17.2031 10.125ZM24.7031 18.2977V24.0469H23.2969V18.2977C23.5287 18.3174 23.7631 18.3281 24 18.3281C24.2369 18.3281 24.4713 18.3174 24.7031 18.2977ZM20.0156 25.4531H27.9844V29.6719H20.0156V25.4531ZM31.2656 46.5469H16.7344V31.0781H31.2656V46.5469ZM44.3906 46.5469H32.6719V38.5781H44.3906V46.5469Z" fill="#080808"/>
<path d="M24.7031 13.875V12.5156H24.8438C26.0586 12.5156 27.0469 11.5273 27.0469 10.3125C27.0469 9.09769 26.0586 8.10938 24.8438 8.10938H23.1562C22.7168 8.10938 22.3594 7.75191 22.3594 7.3125C22.3594 6.87309 22.7168 6.51562 23.1562 6.51562H26.3438V5.10938H24.7031V3.75H23.2969V5.10938H23.1562C21.9414 5.10938 20.9531 6.09769 20.9531 7.3125C20.9531 8.52731 21.9414 9.51562 23.1562 9.51562H24.8438C25.2832 9.51562 25.6406 9.87309 25.6406 10.3125C25.6406 10.7519 25.2832 11.1094 24.8438 11.1094H21.6562V12.5156H23.2969V13.875H24.7031Z" fill="#080808"/>
<path d="M20.1685 44.5041L23.9993 42.4901L27.8302 44.5041L27.0985 40.2383L30.1978 37.2173L25.9147 36.5948L23.9993 32.7139L22.0838 36.5948L17.8008 37.2173L20.9001 40.2383L20.1685 44.5041ZM20.8228 38.1992L23.0177 37.8803L23.9993 35.8913L24.981 37.8803L27.1759 38.1992L25.5877 39.7475L25.9626 41.9334L23.9993 40.9012L22.0362 41.9334L22.4111 39.7475L20.8228 38.1992Z" fill="#EF0E0E"/>
<path d="M10.1719 17.2969H11.5781V18.7031H10.1719V17.2969Z" fill="#EF0E0E"/>
<path d="M10.1719 21.9844H11.5781V23.3906H10.1719V21.9844Z" fill="#EF0E0E"/>
<path d="M12.5156 19.6406H13.9219V21.0469H12.5156V19.6406Z" fill="#EF0E0E"/>
<path d="M7.82812 19.6406H9.23438V21.0469H7.82812V19.6406Z" fill="#EF0E0E"/>
<path d="M36.4219 20.7656H37.8281V22.1719H36.4219V20.7656Z" fill="#EF0E0E"/>
<path d="M36.4219 25.4531H37.8281V26.8594H36.4219V25.4531Z" fill="#EF0E0E"/>
<path d="M38.7656 23.1094H40.1719V24.5156H38.7656V23.1094Z" fill="#EF0E0E"/>
<path d="M34.0781 23.1094H35.4844V24.5156H34.0781V23.1094Z" fill="#EF0E0E"/>
</g>
<defs>
<clipPath id="clip0_565_470">
<rect width="48" height="48" fill="white"/>
</clipPath>
</defs>
</svg>
