<svg width="58" height="58" viewBox="0 0 58 58" fill="none" xmlns="http://www.w3.org/2000/svg">
<path fill-rule="evenodd" clip-rule="evenodd" d="M54.5192 41.2638L50.8342 27.2929C50.7254 26.8794 50.4603 26.5327 50.0876 26.3164C49.7149 26.1 49.2811 26.0422 48.8653 26.1532L44.0475 27.4446H44.0464C43.1945 27.6735 42.6847 28.5548 42.9101 29.4101L43.2919 30.8589L40.7182 31.6927C40.3511 31.7777 40.3069 31.7641 39.5106 31.1138C34.6417 27.1365 31.5265 27.8876 28.6707 29.6763C27.4314 28.8924 25.9497 28.1753 24.17 28.2184C22.2341 28.2614 20.1599 29.2084 17.8274 31.1138C17.031 31.7641 16.9869 31.7777 16.6198 31.6927L14.6567 31.0572L15.0905 29.4101C15.316 28.5548 14.8062 27.6735 13.9543 27.4446H13.9532L9.13534 26.1532C8.7196 26.0422 8.28573 26.1 7.91303 26.3164C7.54034 26.5327 7.27526 26.8794 7.16651 27.2929L3.48147 41.2638C3.25491 42.1191 3.76581 43.0004 4.61768 43.2281L9.43667 44.5195C9.57487 44.5569 9.71421 44.575 9.85354 44.575C10.1333 44.575 10.4098 44.5014 10.659 44.3564C11.0317 44.1412 11.2956 43.7945 11.4055 43.3799L11.6207 42.5632L13.5862 43.2202C13.5714 43.2791 13.5544 43.3425 13.5397 43.3969C13.3687 44.0211 13.0673 45.129 14.1061 46.2493C13.5307 48.106 14.2896 49.3351 15.2151 49.8551C15.6184 50.0816 16.0602 50.1893 16.5032 50.1893C16.5813 50.1893 16.6583 50.1847 16.7354 50.1791C16.5723 51.0332 16.7207 51.8545 17.1817 52.524C17.7051 53.2875 18.5581 53.7418 19.4451 53.7418C19.5119 53.7418 19.5799 53.7395 19.6467 53.7338C20.1032 53.6976 20.5246 53.5424 20.8894 53.2852C21.1771 53.8618 21.6427 54.2866 22.1672 54.5234C22.5037 54.6741 22.8809 54.7556 23.266 54.7556C23.5164 54.7556 23.7701 54.7205 24.0182 54.6491C24.1938 55.603 24.8055 56.3427 25.586 56.7154C25.9463 56.8876 26.3462 56.9805 26.7494 56.9805C27.6614 56.9805 28.5914 56.5036 29.1272 55.3832L29.1555 55.3232C29.3832 55.4976 29.6223 55.6732 29.8715 55.8477C30.422 56.2317 30.9964 56.3971 31.5458 56.3971C32.5087 56.3971 33.3979 55.8907 33.9621 55.1657C34.2713 54.7692 34.4967 54.2821 34.584 53.7633C35.0246 53.9966 35.4959 54.1009 35.9637 54.1009C37.0943 54.1009 38.1999 53.4937 38.772 52.6373C39.0257 52.2578 39.2002 51.7888 39.2149 51.2802C39.2302 51.2829 39.2455 51.2848 39.2596 51.2867L39.2704 51.2881C39.3667 51.2983 39.4619 51.3028 39.5559 51.3028C40.6898 51.3028 41.7445 50.5914 42.1863 49.496C42.4967 48.7279 42.465 47.9225 42.1262 47.1635C42.2542 47.125 42.3811 47.0786 42.5057 47.0196C43.4641 46.5711 44.1426 45.5798 44.2367 44.4946C44.2752 44.0438 44.2118 43.6008 44.0566 43.1817L46.3924 42.6107L46.5952 43.3799C46.7051 43.7945 46.969 44.1412 47.3417 44.3564C47.5909 44.5014 47.8673 44.575 48.1471 44.575C48.2865 44.575 48.4258 44.5569 48.564 44.5195L53.383 43.2281C54.2349 43.0004 54.7458 42.1191 54.5192 41.2638ZM15.9923 48.473C16.4601 48.7359 17.1998 48.618 17.6258 47.9644C17.6416 47.9406 17.6586 47.918 17.6756 47.8964L19.1981 44.7076C19.6161 43.833 19.6807 43.0763 19.3748 42.6311C19.1823 42.3491 18.839 42.1973 18.4561 42.229C17.9679 42.2675 17.551 42.5756 17.312 43.0763L15.8574 46.1225C15.3296 47.2281 15.3805 48.1287 15.9923 48.473ZM19.5232 52.1524C19.8925 52.1241 20.1939 51.8862 20.3944 51.4648L22.5161 47.023C23.0508 45.9027 22.9613 45.0044 22.2805 44.6793C22.1366 44.6102 21.9735 44.5728 21.8058 44.5728C21.372 44.5728 20.903 44.8186 20.63 45.3918L18.5082 49.8336C18.1774 50.5268 18.1707 51.1635 18.489 51.6268C18.7291 51.9768 19.1347 52.183 19.5232 52.1524ZM22.8186 53.0768C23.3057 53.2966 24.0024 53.1731 24.3785 52.3846L25.833 49.3385C26.4356 48.0766 26.0176 47.3266 25.4762 47.0684C24.9958 46.8395 24.3128 46.9415 23.9469 47.7073L22.4278 50.8871L22.4251 50.8953C22.4214 50.9064 22.4176 50.9181 22.413 50.929C21.8976 52.1479 22.3088 52.848 22.8186 53.0768ZM27.6953 54.7001L29.1499 51.654C29.356 51.2246 29.5294 50.6095 29.194 50.1202C28.946 49.7588 28.4475 49.5334 27.9831 49.5685C27.7452 49.5877 27.4269 49.6818 27.2637 50.0227L25.8092 53.0677C25.2734 54.1915 25.654 54.9901 26.2691 55.2846C26.7007 55.4897 27.3328 55.4602 27.6953 54.7001ZM30.7789 54.5472C31.6251 55.1374 32.392 54.6016 32.7103 54.1915C32.8417 54.0238 33.441 53.1561 32.5755 52.3812L30.934 51.2292C30.8819 51.5656 30.7732 51.9361 30.5817 52.3371L29.8556 53.8573C30.1411 54.085 30.4492 54.3161 30.7789 54.5472ZM41.8328 45.5832C42.2803 45.3737 42.6111 44.882 42.6564 44.3587C42.7085 43.756 42.3947 43.1987 41.749 42.7489L33.1 36.7122C32.5155 36.3044 31.5979 36.8685 30.1558 37.845L30.1546 37.8458C28.5395 38.9388 26.7093 40.1773 24.6537 39.653C23.1029 39.2565 21.7571 37.9152 20.5394 35.5511C20.4351 35.3483 20.4227 35.1104 20.5065 34.8974C20.5892 34.6856 20.7603 34.5191 20.9755 34.442C23.1567 33.6546 24.8544 32.4051 26.4961 31.1967L26.5025 31.192L26.6854 31.0576C26.8679 30.9236 27.0503 30.7901 27.232 30.6584C25.1035 29.4554 22.7857 29.111 18.8311 32.3418C18.0358 32.992 17.5601 33.316 16.8917 33.316C16.6923 33.316 16.4748 33.2877 16.2279 33.2299C16.2052 33.2243 16.1848 33.2186 16.1633 33.2118L14.2511 32.5921L12.0263 41.0271L14.1877 41.7498C15.5131 42.1927 15.1914 43.372 15.069 43.8161C15.018 44.003 14.9727 44.1706 14.9557 44.3303L15.8812 42.3921C16.3638 41.3828 17.2803 40.7303 18.3326 40.6476C19.2853 40.5728 20.1644 40.9795 20.6832 41.7328C20.8713 42.0081 21.0899 42.4521 21.1409 43.0718C21.7651 42.9189 22.4164 42.9857 22.9647 43.2485C23.7441 43.6201 24.3445 44.3802 24.4362 45.4348C25.0287 45.3091 25.6416 45.3907 26.1592 45.6376C26.9828 46.0307 27.6444 46.8656 27.7112 48.0041C27.761 47.9973 27.8098 47.9916 27.8596 47.9882C28.5019 47.9372 29.1431 48.1049 29.6744 48.4368C29.7321 48.4606 29.7888 48.4889 29.8432 48.5263L33.5248 51.1102C33.5271 51.1102 33.5271 51.1114 33.5271 51.1114L35.2387 52.3121C35.9705 52.7721 37.0275 52.3937 37.4545 51.7559C37.9348 51.0366 37.3514 50.4102 36.7771 50.0125C36.7726 50.0091 36.768 50.0046 36.7635 50.0012C35.7689 49.3453 34.4424 48.4039 32.6571 47.0944C32.2141 46.7693 31.8652 46.5133 31.6545 46.366C31.2965 46.1145 31.2105 45.6195 31.4619 45.2615C31.7134 44.9024 32.2085 44.8163 32.5664 45.0689C32.7896 45.2253 33.1453 45.4858 33.5939 45.8155L33.6227 45.8366C34.9087 46.7785 38.6748 49.537 39.4494 49.7123C39.9728 49.7599 40.5052 49.4235 40.7159 48.9024C40.9957 48.2091 40.6513 47.4184 39.7723 46.7342C39.7417 46.7104 39.7145 46.6843 39.6884 46.6583L34.1263 42.775C33.7672 42.5247 33.6789 42.0307 33.9292 41.6716C34.1807 41.3125 34.6746 41.2242 35.0337 41.4745L40.7408 45.4586C41.1033 45.7113 41.4703 45.7532 41.8328 45.5832ZM42.6564 41.4485C42.8093 41.555 42.9509 41.6682 43.0835 41.7872L45.988 41.0769L43.6974 32.395L41.1747 33.2118C41.1532 33.2186 41.1316 33.2243 41.1101 33.2299C40.0317 33.4814 39.54 33.1857 38.5069 32.3418C33.3442 28.1249 30.997 29.8526 27.4441 32.4677L27.4427 32.4687C25.9916 33.538 24.3705 34.7309 22.3734 35.593C23.2309 37.0339 24.1281 37.8812 25.0457 38.1157C26.4112 38.4656 27.8615 37.4835 29.2644 36.5335L29.2666 36.5321C30.8502 35.4593 32.4883 34.3503 34.0085 35.4117L42.6564 41.4485Z" fill="black"/>
<path fill-rule="evenodd" clip-rule="evenodd" d="M29.0003 26.1487C35.9286 26.1487 41.5655 20.513 41.5655 13.5847C41.5655 6.65641 35.9286 1.01953 29.0003 1.01953C22.0721 1.01953 16.4352 6.65641 16.4352 13.5847C16.4352 20.513 22.0721 26.1487 29.0003 26.1487ZM36.9697 13.5847C36.9697 9.18937 33.3945 5.61422 29.0003 5.61422C24.6062 5.61422 21.031 9.19051 21.031 13.5847C21.031 17.9789 24.6062 21.554 29.0003 21.554C33.3945 21.554 36.9697 17.98 36.9697 13.5847Z" fill="#EF0E0E"/>
<path d="M28.2074 13.5847V7.36668C28.2074 6.92941 28.5619 6.57371 29.0003 6.57371C29.4387 6.57371 29.7933 6.92941 29.7933 7.36668V13.1463L33.7072 15.6136C34.0776 15.8469 34.1898 16.3363 33.9553 16.7067C33.8046 16.9457 33.5474 17.0771 33.2846 17.0771C33.1396 17.0771 32.9935 17.0375 32.8621 16.9548L28.5778 14.2553C28.3467 14.1103 28.2074 13.8566 28.2074 13.5847Z" fill="black"/>
</svg>
