<svg width="58" height="58" viewBox="0 0 58 58" fill="none" xmlns="http://www.w3.org/2000/svg">
<path d="M29 1.8125C14.0051 1.8125 1.8125 14.005 1.8125 29C1.8125 43.9949 14.0051 56.1875 29 56.1875C43.9949 56.1875 56.1875 43.9949 56.1875 29C56.1875 14.005 43.9949 1.8125 29 1.8125ZM49.5161 29C49.5161 30.1502 48.575 31.0913 47.4248 31.0913H44.8106C43.8695 38.2228 38.2228 43.8694 31.0914 44.8106V47.4247C31.0914 48.5959 30.1502 49.5161 29 49.5161C27.8498 49.5161 26.9086 48.5959 26.9086 47.4247V44.8106C19.7772 43.8694 14.1305 38.2228 13.1894 31.0913H10.5752C9.42502 31.0913 8.48391 30.1502 8.48391 29C8.48391 27.8497 9.42502 26.9086 10.5752 26.9086H13.1894C14.1305 19.7771 19.7772 14.1305 26.9086 13.1894V10.5752C26.9086 9.4041 27.8498 8.48391 29 8.48391C30.1502 8.48391 31.0914 9.4041 31.0914 10.5752V13.1894C38.2228 14.1305 43.8695 19.7771 44.8106 26.9086H47.4248C48.575 26.9086 49.5161 27.8497 49.5161 29Z" fill="black"/>
<path d="M38.3275 26.9087H40.586C39.7287 22.0777 35.9224 18.2714 31.0914 17.4138V19.6726C31.0914 20.8228 30.1502 21.7639 29.0001 21.7639C27.8499 21.7639 26.9087 20.8228 26.9087 19.6726V17.4138C22.0777 18.2714 18.2714 22.0777 17.4141 26.9087H19.6726C20.8229 26.9087 21.764 27.8498 21.764 29C21.764 30.1502 20.8229 31.0913 19.6726 31.0913H17.4141C18.2714 35.9224 22.0777 39.7287 26.9087 40.586V38.3274C26.9087 37.1771 27.8499 36.236 29.0001 36.236C30.1502 36.236 31.0914 37.1771 31.0914 38.3274V40.586C35.9224 39.7287 39.7287 35.9224 40.586 31.0913H38.3275C37.1772 31.0913 36.2361 30.1502 36.2361 29C36.2361 27.8498 37.1772 26.9087 38.3275 26.9087Z" fill="#EF0E0E"/>
</svg>
