<svg width="68" height="68" viewBox="0 0 68 68" fill="none" xmlns="http://www.w3.org/2000/svg">
<path fill-rule="evenodd" clip-rule="evenodd" d="M13.0414 24.2867L7.05955 30.2664C6.2308 31.0952 6.2308 32.4424 7.05955 33.2712C7.8883 34.0999 9.23555 34.0999 10.0643 33.2712L16.0441 27.2957C18.1308 28.7832 20.6829 29.6587 23.4391 29.6587C30.4749 29.6587 36.1891 23.9467 36.1891 16.9087C36.1891 9.87282 30.4749 4.15869 23.4391 4.15869C16.4011 4.15869 10.6891 9.87282 10.6891 16.9087C10.6891 19.6584 11.5603 22.2042 13.0414 24.2867Z" fill="#EF0E0E"/>
<path fill-rule="evenodd" clip-rule="evenodd" d="M50.9087 19.125C49.7357 19.125 48.7837 20.077 48.7837 21.25V59.5C48.7837 60.673 49.7357 61.625 50.9087 61.625H59.4087C60.5817 61.625 61.5337 60.673 61.5337 59.5V21.25C61.5337 20.077 60.5817 19.125 59.4087 19.125H50.9087Z" fill="#080808"/>
<path fill-rule="evenodd" clip-rule="evenodd" d="M16.9087 38.2756C15.7357 38.2756 14.7837 39.2276 14.7837 40.4006V59.5001C14.7837 60.6731 15.7357 61.6251 16.9087 61.6251H25.4087C26.5817 61.6251 27.5337 60.6731 27.5337 59.5001V40.4006C27.5337 39.2276 26.5817 38.2756 25.4087 38.2756H16.9087Z" fill="#080808"/>
<path fill-rule="evenodd" clip-rule="evenodd" d="M31.7837 57.3814L12.7607 57.3771C11.5877 57.375 10.6357 56.4251 10.6357 55.2521V40.375C10.6357 39.202 9.68374 38.25 8.51074 38.25C7.33774 38.25 6.38574 39.202 6.38574 40.375V55.2521C6.38574 58.7711 9.23962 61.625 12.7586 61.6271C23.9149 61.6292 59.5001 61.6378 59.5001 61.6378C60.6731 61.6378 61.5274 60.6858 61.5274 59.5128C61.5274 58.3419 61.5274 57.3899 61.5274 57.3899L44.5337 57.3856V31.875C44.5337 30.702 43.5817 29.75 42.4087 29.75H33.9087C32.7357 29.75 31.7837 30.702 31.7837 31.875V57.3814Z" fill="black"/>
</svg>
