<svg width="38" height="48" viewBox="0 0 38 48" fill="none" xmlns="http://www.w3.org/2000/svg">
<path d="M7.625 15.0625V11.8125C7.625 5.54024 12.7277 0.4375 19 0.4375C25.2723 0.4375 30.375 5.54024 30.375 11.8125V15.0625H24.6875V11.8125C24.6875 8.67138 22.1411 6.125 19 6.125C15.8589 6.125 13.3125 8.67138 13.3125 11.8125V15.0625H7.625ZM37.6875 20.75V43.5C37.6875 45.7399 35.8649 47.5625 33.625 47.5625H4.375C2.1351 47.5625 0.3125 45.7399 0.3125 43.5V20.75C0.3125 18.5101 2.1351 16.6875 4.375 16.6875H33.625C35.8649 16.6875 37.6875 18.5101 37.6875 20.75ZM12.5571 40.5428C13.8854 39.0944 14.7352 37.6285 15.2302 35.9297C15.3556 35.4992 15.1089 35.0481 14.678 34.9224C14.2456 34.7967 13.7957 35.0438 13.6703 35.4751C13.4046 36.3875 12.8753 37.792 11.359 39.4447C11.0559 39.7752 11.0781 40.2894 11.409 40.5925C11.5653 40.7357 11.7613 40.8063 11.9581 40.8063C12.1778 40.8063 12.3968 40.7178 12.5571 40.5428ZM15.404 42.3558C19.3833 38.3024 19.8125 33.7147 19.8125 31.9306C19.8125 31.4819 19.4491 31.1181 19 31.1181C18.5509 31.1181 18.1875 31.4819 18.1875 31.9306C18.1875 33.5151 17.8034 37.5919 14.244 41.2172C13.9298 41.5373 13.9346 42.0519 14.2552 42.3662C14.413 42.5217 14.6186 42.599 14.8241 42.599C15.0343 42.599 15.2445 42.5177 15.404 42.3558ZM23.875 32.1278C23.875 29.4395 21.6882 27.2528 19 27.2528C16.3118 27.2528 14.125 29.4395 14.125 32.1278C14.125 32.5764 14.4884 32.9403 14.9375 32.9403C15.3866 32.9403 15.75 32.5764 15.75 32.1278C15.75 30.3357 17.2075 28.8778 19 28.8778C20.7925 28.8778 22.25 30.3357 22.25 32.1278C22.25 34.3911 21.9223 37.2213 18.013 42.1816C17.7353 42.5343 17.7956 43.0449 18.1479 43.3226C18.297 43.44 18.474 43.4972 18.6501 43.4972C18.8906 43.4972 19.1286 43.3908 19.2888 43.1877C23.3196 38.0742 23.875 34.8501 23.875 32.1278ZM27.125 32.1278C27.125 27.6475 23.4799 24.0028 19 24.0028C14.5201 24.0028 10.875 27.6475 10.875 32.1278C10.875 33.5052 10.7473 34.9076 9.20872 36.9103C8.93499 37.2662 9.00243 37.7763 9.3579 38.0497C9.71499 38.3242 10.2244 38.2556 10.4973 37.9005C12.3452 35.4952 12.4999 33.6595 12.4999 32.1277C12.4999 28.5437 15.4159 25.6277 18.9999 25.6277C22.5839 25.6277 25.4999 28.5437 25.4999 32.1277C25.4999 33.9677 25.3309 36.1779 24.0804 38.6205C23.8757 39.02 24.0336 39.5096 24.4327 39.7143C24.5517 39.775 24.6779 39.8036 24.8025 39.8036C25.0976 39.8036 25.3825 39.6422 25.5261 39.3617C26.9353 36.6111 27.125 34.1614 27.125 32.1278ZM30.375 32.1278C30.375 25.8555 25.2723 20.7528 19 20.7528C12.7277 20.7528 7.625 25.8555 7.625 32.1278C7.625 32.5764 7.98843 32.9403 8.4375 32.9403C8.88657 32.9403 9.25 32.5764 9.25 32.1278C9.25 26.7517 13.6235 22.3778 19 22.3778C24.3765 22.3778 28.75 26.7517 28.75 32.1278C28.75 32.5165 28.727 32.9089 28.6809 33.2934C28.6278 33.7389 28.9467 34.1432 29.3919 34.1963C29.4244 34.1999 29.457 34.2018 29.4886 34.2018C29.8949 34.2018 30.2456 33.8984 30.2948 33.4854C30.3479 33.0374 30.375 32.5804 30.375 32.1278Z" fill="white"/>
</svg>
