<svg width="52" height="52" viewBox="0 0 52 52" fill="none" xmlns="http://www.w3.org/2000/svg">
<path d="M15.9453 40.625C13.4252 40.625 11.375 38.5748 11.375 36.0547V26.4062H1.52344C0.682094 26.4062 0 27.0883 0 27.9297V50.4766C0 51.3179 0.682094 52 1.52344 52H24.0703C24.9117 52 25.5938 51.3179 25.5938 50.4766V40.625H15.9453Z" fill="white"/>
<path d="M50.4766 0H15.9453C15.104 0 14.4219 0.682094 14.4219 1.52344V36.0547C14.4219 36.896 15.104 37.5781 15.9453 37.5781H50.4766C51.3179 37.5781 52 36.896 52 36.0547V1.52344C52 0.682094 51.3179 0 50.4766 0ZM45.9062 13.7109C45.9062 14.5523 45.2242 15.2344 44.3828 15.2344C43.5415 15.2344 42.8594 14.5523 42.8594 13.7109V11.2951L25.7169 28.4375H28.1328C28.9742 28.4375 29.6562 29.1196 29.6562 29.9609C29.6562 30.8023 28.9742 31.4844 28.1328 31.4844H22.0391C21.1977 31.4844 20.5156 30.8023 20.5156 29.9609V23.8672C20.5156 23.0258 21.1977 22.3438 22.0391 22.3438C22.8804 22.3438 23.5625 23.0258 23.5625 23.8672V26.2831L40.7049 9.14062H38.2891C37.4477 9.14062 36.7656 8.45853 36.7656 7.61719C36.7656 6.77584 37.4477 6.09375 38.2891 6.09375H44.3828C45.2242 6.09375 45.9062 6.77584 45.9062 7.61719V13.7109Z" fill="white"/>
</svg>
