<svg width="50" height="50" viewBox="0 0 50 50" fill="none" xmlns="http://www.w3.org/2000/svg">
<path d="M48.9341 0.00649153C38.7833 -0.175508 27.2068 5.13066 19.8791 13.3618C12.8765 13.494 6.05798 16.3648 1.03781 21.385C0.745309 21.6732 0.641309 22.1043 0.769143 22.4943C0.899143 22.8865 1.23714 23.1703 1.64448 23.2288L9.99481 24.4248L8.96348 25.5797C8.57998 26.0087 8.59948 26.6608 9.00681 27.0682L22.932 40.9933C23.1421 41.2035 23.4195 41.3097 23.699 41.3097C23.9568 41.3097 24.2146 41.2187 24.4205 41.0345L25.5753 40.0032L26.7713 48.3535C26.8298 48.7608 27.1505 49.0598 27.5383 49.1898C27.638 49.2223 27.742 49.2375 27.8481 49.2375C28.1558 49.2375 28.47 49.1032 28.6866 48.8887C33.6375 43.9378 36.5083 37.1193 36.6405 30.1167C44.8803 22.7738 50.2298 11.2017 49.9936 1.06382C49.9785 0.487492 49.5126 0.0216582 48.9341 0.00649153ZM38.9501 18.7092C37.895 19.7643 36.5083 20.293 35.1195 20.293C33.7306 20.293 32.344 19.7643 31.2888 18.7092C29.1785 16.5967 29.1785 13.1603 31.2888 11.0478C33.4013 8.93532 36.8376 8.93532 38.9501 11.0478C41.0626 13.1603 41.0626 16.5988 38.9501 18.7092Z" fill="white"/>
</svg>
