<svg width="52" height="52" viewBox="0 0 52 52" fill="none" xmlns="http://www.w3.org/2000/svg">
<path d="M0 27.5234V30.5703H23.3094L14.1681 45.8047H37.8319L28.6906 30.5703H52V27.5234H0Z" fill="white"/>
<path d="M9.14062 24.4766C14.1889 24.4766 18.2812 20.3842 18.2812 15.3359C18.2812 10.2877 14.1889 6.19531 9.14062 6.19531C4.0924 6.19531 0 10.2877 0 15.3359C0 20.3842 4.0924 24.4766 9.14062 24.4766Z" fill="white"/>
<path d="M42.8594 24.4766C47.9076 24.4766 52 20.3842 52 15.3359C52 10.2877 47.9076 6.19531 42.8594 6.19531C37.8111 6.19531 33.7188 10.2877 33.7188 15.3359C33.7188 20.3842 37.8111 24.4766 42.8594 24.4766Z" fill="white"/>
</svg>
