<svg width="68" height="68" viewBox="0 0 68 68" fill="none" xmlns="http://www.w3.org/2000/svg">
<path d="M31.2776 50.3493C31.1563 50.4357 31.0143 50.4795 30.8722 50.4795C30.73 50.4795 30.589 50.4368 30.4678 50.3493C19.0606 42.1788 13.446 32.3309 13.3039 20.2432C13.3009 20.0374 13.3903 19.8407 13.5474 19.7066C18.058 15.8628 23.7103 13.771 30.8274 13.3089C30.8571 13.307 30.887 13.307 30.9168 13.3089C38.0319 13.771 43.6833 15.8628 48.1928 19.7066C48.3498 19.8407 48.4392 20.0365 48.4373 20.2432C48.3915 24.2877 47.7108 28.1424 46.417 31.7168C47.5608 31.7893 48.6668 32 49.7191 32.3339C51.1958 28.046 51.8696 23.3844 51.7215 18.4574C46.4768 13.3506 39.464 10.5046 30.8722 9.99976C22.2813 10.5046 15.2676 13.3496 10.0187 18.4574C9.57653 33.2809 16.4014 45.1202 30.8722 54.6292C31.8391 53.9942 32.7791 53.3433 33.6785 52.6865C33.0992 51.7276 32.6321 50.693 32.2962 49.6019C31.9742 49.8434 31.6364 50.0909 31.2776 50.3493Z" fill="#06040A"/>
<path d="M28.1822 33.2848C27.9298 33.5034 27.5582 33.5103 27.2967 33.3036L24.243 30.878L22.9233 30.9028L27.1259 37.674L41.9335 22.3397L41.4575 21.8269L28.1822 33.2848Z" fill="#06040A"/>
<path d="M52.5785 44.2407H49.3628C48.9792 44.2407 48.6681 43.9297 48.6681 43.5471V38.9252C48.6681 38.0706 47.9715 37.376 47.1159 37.376H46.1242C45.8151 37.376 45.5647 37.6254 45.5647 37.9325V42.5404C45.5647 42.7491 45.4703 42.9478 45.3073 43.08C44.5034 43.7319 43.5901 44.1115 42.5845 44.2138V50.9732C46.3885 51.8954 46.5366 51.8943 49.9987 51.8635C50.5443 51.8596 51.1694 51.8536 51.9018 51.8516C52.6987 51.8496 53.1539 51.1302 53.2513 50.4187L53.926 45.4877C53.9707 45.1569 53.8138 44.8955 53.6736 44.7365C53.4063 44.4306 52.9869 44.2407 52.5785 44.2407Z" fill="#EF0E0E"/>
<path d="M44.9406 31.7017C46.2563 28.2425 46.9638 24.4961 47.0433 20.554C42.8199 17.0531 37.5254 15.1362 30.8723 14.698C24.2172 15.1362 18.9216 17.0531 14.6982 20.554C14.9288 31.8766 20.2234 41.166 30.8712 48.928C31.2459 48.6548 31.5977 48.3924 31.9326 48.136C31.7726 47.2933 31.6871 46.4248 31.6871 45.5374C31.6872 38.1013 37.58 32.0157 44.9406 31.7017ZM27.5066 39.2809C27.3744 39.417 27.1936 39.4926 27.0067 39.4926C26.9819 39.4926 26.958 39.4915 26.9332 39.4886C26.7195 39.4658 26.5297 39.3465 26.4164 39.1646L21.1 30.5976C20.9688 30.386 20.9608 30.1197 21.08 29.9C21.1992 29.6804 21.4269 29.5423 21.6773 29.5374L24.4657 29.4847C24.6296 29.4827 24.7847 29.5343 24.9108 29.6347L27.7102 31.8576L41.056 20.3393C41.3393 20.0949 41.7645 20.1177 42.019 20.392L43.3993 21.8756C43.6507 22.1459 43.6468 22.5663 43.3904 22.8317L27.5066 39.2809Z" fill="#06040A"/>
<path d="M45.5391 33.0771C38.6674 33.0771 33.0767 38.6669 33.0767 45.5375C33.0767 52.4092 38.6674 57.9999 45.5391 57.9999C52.4108 57.9999 58.0015 52.4092 58.0015 45.5375C58.0015 38.6669 52.4108 33.0771 45.5391 33.0771ZM54.6278 50.6076C54.4151 52.1538 53.2961 53.237 51.906 53.24C51.1776 53.243 50.5545 53.248 50.0109 53.253C49.5101 53.2569 49.0738 53.2608 48.6833 53.2608C46.356 53.2608 45.6435 53.1396 42.5053 52.3834C42.39 52.605 42.1575 52.7571 41.8901 52.7571H38.1338C37.7503 52.7571 37.4402 52.446 37.4402 52.0625V42.7511C37.4402 42.3676 37.7503 42.0565 38.1338 42.0565H41.8901C42.2737 42.0565 42.5847 42.3676 42.5847 42.7511V42.8157C43.1621 42.7363 43.6888 42.5305 44.1757 42.1937V37.9325C44.1757 36.8593 45.0501 35.9868 46.1244 35.9868H47.1161C48.7379 35.9868 50.0566 37.3045 50.0566 38.9253V42.8525H52.5786C53.3886 42.8525 54.1885 43.2152 54.7191 43.8224C55.1842 44.3541 55.3919 45.0119 55.3024 45.6747L54.6278 50.6076Z" fill="#EF0E0E"/>
<path d="M38.8281 43.4456H41.1952V51.3676H38.8281V43.4456Z" fill="#EF0E0E"/>
</svg>
