<svg width="78" height="78" viewBox="0 0 78 78" fill="none" xmlns="http://www.w3.org/2000/svg">
<path d="M49.3103 71.8818C48.3383 71.8767 47.3771 71.6778 46.4828 71.2968L39.6822 68.4206C39.3849 68.2965 39.0659 68.2327 38.7438 68.2327C38.4216 68.2327 38.1026 68.2965 37.8053 68.4206L30.9559 71.1749C29.1586 71.897 27.1482 71.8765 25.3659 71.118C23.5837 70.3594 22.1752 68.9246 21.4497 67.1287L18.6709 60.2793C18.4347 59.6791 17.9701 59.197 17.3791 58.9387L10.5784 56.0624C8.79517 55.3049 7.38543 53.8706 6.65877 52.0746C5.93212 50.2785 5.94796 48.2675 6.70281 46.4831L9.57906 39.6824C9.70309 39.3851 9.76695 39.0661 9.76695 38.744C9.76695 38.4218 9.70309 38.1029 9.57906 37.8056L6.82469 30.9562C6.10257 29.1588 6.12306 27.1484 6.88166 25.3662C7.64026 23.5839 9.07498 22.1755 10.8709 21.4499L17.7203 18.6712C18.3205 18.4349 18.8026 17.9704 19.0609 17.3793L21.9372 10.5787C22.6947 8.79541 24.129 7.38567 25.9251 6.65902C27.7211 5.93236 29.7322 5.9482 31.5166 6.70305L38.3172 9.5793C38.6145 9.70333 38.9335 9.76719 39.2556 9.76719C39.5778 9.76719 39.8967 9.70333 40.1941 9.5793L47.0434 6.82493C48.8408 6.10282 50.8512 6.12331 52.6334 6.88191C54.4157 7.6405 55.8241 9.07522 56.5497 10.8712L59.3284 17.7206C59.5647 18.3208 60.0293 18.8028 60.6203 19.0612L67.4209 21.9374C69.2042 22.695 70.614 24.1292 71.3406 25.9253C72.0673 27.7214 72.0514 29.7324 71.2966 31.5168L68.4203 38.3174C68.2963 38.6147 68.2324 38.9337 68.2324 39.2559C68.2324 39.578 68.2963 39.897 68.4203 40.1943L71.1747 47.0437C71.8968 48.841 71.8763 50.8514 71.1177 52.6337C70.3591 54.4159 68.9244 55.8244 67.1284 56.5499L60.2791 59.3287C59.6789 59.565 59.1968 60.0295 58.9384 60.6206L56.0622 67.4212C55.5008 68.7467 54.5606 69.8771 53.3595 70.6706C52.1584 71.4641 50.7498 71.8854 49.3103 71.8818ZM38.7316 63.3749C39.7118 63.3768 40.6816 63.5758 41.5834 63.9599L48.3841 66.8362C48.9789 67.0878 49.6492 67.0931 50.2479 66.8509C50.8466 66.6086 51.3247 66.1387 51.5772 65.5443L54.4534 58.7437C54.832 57.8499 55.3848 57.0404 56.0795 56.3624C56.7742 55.6845 57.5969 55.1516 58.4997 54.7949L65.3491 52.0406C65.9462 51.7971 66.4226 51.327 66.6739 50.7331C66.9252 50.1392 66.9309 49.4699 66.6897 48.8718L63.9353 42.0224C63.5665 41.1339 63.3767 40.1813 63.3767 39.2193C63.3767 38.2573 63.5665 37.3047 63.9353 36.4162L66.8116 29.6156C67.0632 29.0208 67.0685 28.3504 66.8262 27.7517C66.584 27.153 66.1141 26.6749 65.5197 26.4224L58.7191 23.5462C57.8298 23.1649 57.025 22.6109 56.3513 21.9164C55.6777 21.2218 55.1486 20.4005 54.7947 19.4999L52.0403 12.6993C51.7969 12.1021 51.3268 11.6257 50.7329 11.3745C50.1389 11.1232 49.4697 11.1175 48.8716 11.3587L42.0222 14.1131C41.1337 14.4818 40.1811 14.6717 39.2191 14.6717C38.257 14.6717 37.3045 14.4818 36.4159 14.1131L29.6153 11.1881C29.0205 10.9364 28.3502 10.9312 27.7515 11.1734C27.1528 11.4156 26.6747 11.8855 26.4222 12.4799L23.5459 19.2806C23.1647 20.1698 22.6107 20.9746 21.9161 21.6483C21.2216 22.3219 20.4002 22.851 19.4997 23.2049L12.6991 25.9593C12.3883 26.0788 12.1054 26.2608 11.8677 26.4939C11.63 26.727 11.4425 27.0063 11.3169 27.3146C11.1913 27.6229 11.1302 27.9537 11.1373 28.2866C11.1445 28.6194 11.2197 28.9473 11.3584 29.2499L14.1128 36.0993C14.4816 36.9878 14.6714 37.9404 14.6714 38.9024C14.6714 39.8645 14.4816 40.817 14.1128 41.7056L11.1878 48.3843C10.9362 48.9791 10.9309 49.6495 11.1731 50.2481C11.4153 50.8468 11.8853 51.3249 12.4797 51.5774L19.2803 54.4537C20.1696 54.8349 20.9744 55.3889 21.648 56.0835C22.3217 56.778 22.8508 57.5994 23.2047 58.4999L25.9591 65.3493C26.2025 65.9465 26.6726 66.4229 27.2665 66.6741C27.8604 66.9254 28.5297 66.9311 29.1278 66.6899L35.9772 63.9356C36.8504 63.5723 37.7858 63.3819 38.7316 63.3749Z" fill="#080808"/>
<path d="M39 58.5C35.1433 58.5 31.3731 57.3564 28.1664 55.2137C24.9596 53.071 22.4603 50.0255 20.9844 46.4623C19.5084 42.8992 19.1223 38.9784 19.8747 35.1957C20.6271 31.4131 22.4843 27.9385 25.2114 25.2114C27.9385 22.4843 31.4131 20.6271 35.1957 19.8747C38.9784 19.1223 42.8992 19.5084 46.4623 20.9844C50.0255 22.4603 53.071 24.9596 55.2137 28.1664C57.3564 31.3731 58.5 35.1433 58.5 39C58.5 44.1717 56.4456 49.1316 52.7886 52.7886C49.1316 56.4456 44.1717 58.5 39 58.5ZM39 24.375C36.1075 24.375 33.2799 25.2328 30.8748 26.8398C28.4697 28.4468 26.5952 30.7309 25.4883 33.4033C24.3813 36.0756 24.0917 39.0162 24.656 41.8532C25.2203 44.6902 26.6132 47.2961 28.6586 49.3414C30.7039 51.3868 33.3098 52.7797 36.1468 53.344C38.9838 53.9083 41.9244 53.6187 44.5968 52.5117C47.2691 51.4048 49.5532 49.5303 51.1603 47.1252C52.7673 44.7202 53.625 41.8926 53.625 39C53.625 35.1212 52.0842 31.4013 49.3414 28.6586C46.5987 25.9159 42.8788 24.375 39 24.375Z" fill="#EF0E0E"/>
<path d="M37.7815 46.3125C37.4607 46.3144 37.1427 46.2529 36.8457 46.1316C36.5487 46.0103 36.2786 45.8315 36.0508 45.6056L31.1758 40.7306C30.7168 40.2716 30.459 39.6491 30.459 39C30.459 38.3509 30.7168 37.7284 31.1758 37.2694C31.6348 36.8104 32.2573 36.5525 32.9065 36.5525C33.5556 36.5525 34.1781 36.8104 34.6371 37.2694L37.5133 40.17L43.144 32.6625C43.5318 32.1453 44.1093 31.8034 44.7492 31.712C45.0661 31.6667 45.3888 31.6843 45.6989 31.7638C46.009 31.8432 46.3004 31.9829 46.5565 32.175C46.8125 32.3671 47.0283 32.6077 47.1914 32.8831C47.3544 33.1585 47.4617 33.4634 47.507 33.7803C47.5522 34.0972 47.5346 34.4199 47.4552 34.7299C47.3758 35.04 47.236 35.3314 47.044 35.5875L39.7315 45.3375C39.5223 45.6183 39.2551 45.8507 38.948 46.0189C38.641 46.1872 38.3013 46.2873 37.9521 46.3125H37.7815Z" fill="#282828"/>
</svg>
