<svg width="78" height="78" viewBox="0 0 78 78" fill="none" xmlns="http://www.w3.org/2000/svg">
<path d="M75.0506 55.77C73.7466 53.0156 70.3341 51.6994 67.2506 52.7841L53.1741 58.3538C53.4666 57.6469 53.6372 56.8669 53.6372 56.0503C53.6372 52.6866 50.9072 49.9566 47.5434 49.9566H39.7922C38.7075 49.9566 37.635 49.6641 36.6966 49.1156L31.6022 46.1175C30.2859 45.3497 28.7869 44.9353 27.2634 44.9353H17.0503C16.965 42.9975 15.3684 41.4375 13.4062 41.4375H6.09375C4.08281 41.4375 2.4375 43.0828 2.4375 45.0938V67.0191C2.4375 69.03 4.08281 70.6753 6.09375 70.6753H13.4062C15.4172 70.6753 17.0503 69.0544 17.0625 67.0434C18.8297 67.2141 20.5359 67.7137 22.0594 68.5669L29.7863 72.9056C32.9306 74.6728 36.4772 75.5625 40.0238 75.5625C42.9853 75.5625 45.9591 74.9409 48.7256 73.6856L72.15 63.0825C73.6125 62.4244 74.7094 61.2666 75.2456 59.8406C75.7331 58.5122 75.6722 57.0619 75.0628 55.77H75.0506ZM14.625 67.0191C14.625 67.6894 14.0766 68.2378 13.4062 68.2378H6.09375C5.42344 68.2378 4.875 67.6894 4.875 67.0191V45.0938C4.875 44.4234 5.42344 43.875 6.09375 43.875H13.4062C14.0766 43.875 14.625 44.4234 14.625 45.0938V67.0191ZM72.9544 58.9997C72.6619 59.8162 72.0159 60.4744 71.1506 60.8644L47.7262 71.4675C42.4247 73.8684 36.0141 73.6003 30.9806 70.7728L23.2537 66.4341C21.3769 65.3737 19.2563 64.7766 17.0625 64.6059V47.3728H27.2513C28.3359 47.3728 29.4084 47.6653 30.3469 48.2138L35.4412 51.2119C36.7575 51.9797 38.2566 52.3941 39.78 52.3941H47.5312C49.5422 52.3941 51.1875 54.0394 51.1875 56.0503C51.1875 58.0613 49.6031 59.6456 47.6288 59.6944C47.5556 59.6944 47.4825 59.6944 47.4094 59.6944H34.125C33.4547 59.6944 32.9062 60.2428 32.9062 60.9131C32.9062 61.5834 33.4547 62.1319 34.125 62.1319H47.5312C47.5312 62.1319 47.5922 62.1319 47.6288 62.1319C49.3959 62.1075 51.1388 61.7663 52.7841 61.1203L68.0916 55.0631C69.9441 54.4172 72.0769 55.1972 72.8325 56.8059C73.1616 57.5006 73.1981 58.2806 72.93 58.9997H72.9544Z" fill="#080808" stroke="black" stroke-width="2"/>
<path d="M75.5625 17.0625C75.5625 14.3691 73.3809 12.1875 70.6875 12.1875C69.2859 12.1875 68.0428 12.7847 67.1531 13.7353L55.9041 8.50688C56.0016 8.12906 56.0625 7.72687 56.0625 7.3125C56.0625 4.61906 53.8809 2.4375 51.1875 2.4375C48.4941 2.4375 46.3125 4.61906 46.3125 7.3125C46.3125 7.72687 46.3734 8.11688 46.4709 8.50688L35.2219 13.7353C34.3322 12.7969 33.0769 12.1875 31.6875 12.1875C28.9941 12.1875 26.8125 14.3691 26.8125 17.0625C26.8125 19.7559 28.9819 21.9253 31.6631 21.9375L37.8178 45.4106C37.9641 45.9591 38.4516 46.3247 39 46.3247C39.0975 46.3247 39.2072 46.3125 39.3047 46.2881C39.9506 46.1175 40.3406 45.4472 40.17 44.8012L34.0153 21.3281C34.4662 21.0844 34.8684 20.7797 35.2219 20.4019L46.4709 25.6303C46.3734 26.0081 46.3125 26.4103 46.3125 26.8247C46.3125 29.0916 47.8725 30.9806 49.9688 31.5291V45.1059C49.9688 45.7762 50.5172 46.3247 51.1875 46.3247C51.8578 46.3247 52.4062 45.7762 52.4062 45.1059V31.5291C54.5025 30.9806 56.0625 29.0916 56.0625 26.8247C56.0625 26.4103 56.0016 26.0203 55.9041 25.6303L67.1531 20.4019C67.5187 20.7919 67.9575 21.1209 68.445 21.3647L62.205 44.7769C62.0344 45.4228 62.4122 46.0931 63.0703 46.2637C63.18 46.2881 63.2775 46.3003 63.3872 46.3003C63.9234 46.3003 64.4231 45.9469 64.5572 45.3984L70.8216 21.9131C73.4541 21.84 75.5747 19.695 75.5747 17.0503L75.5625 17.0625ZM51.1875 4.875C52.5281 4.875 53.625 5.97187 53.625 7.3125C53.625 8.65312 52.5281 9.75 51.1875 9.75C49.8469 9.75 48.75 8.65312 48.75 7.3125C48.75 5.97187 49.8469 4.875 51.1875 4.875ZM29.25 17.0625C29.25 15.7219 30.3469 14.625 31.6875 14.625C33.0281 14.625 34.125 15.7219 34.125 17.0625C34.125 18.4031 33.0281 19.5 31.6875 19.5C30.3469 19.5 29.25 18.4031 29.25 17.0625ZM51.1875 29.25C49.8469 29.25 48.75 28.1531 48.75 26.8125C48.75 25.4719 49.8469 24.375 51.1875 24.375C52.5281 24.375 53.625 25.4719 53.625 26.8125C53.625 28.1531 52.5281 29.25 51.1875 29.25ZM54.7219 23.4853C53.8322 22.5469 52.5769 21.9375 51.1875 21.9375C49.7981 21.9375 48.5428 22.5347 47.6531 23.4853L36.4041 18.2569C36.5016 17.8791 36.5625 17.4769 36.5625 17.0625C36.5625 16.6481 36.5016 16.2581 36.4041 15.8681L47.6531 10.6397C48.5428 11.5781 49.7981 12.1875 51.1875 12.1875C52.5769 12.1875 53.8322 11.5903 54.7219 10.6397L65.9709 15.8681C65.8734 16.2459 65.8125 16.6481 65.8125 17.0625C65.8125 17.4769 65.8734 17.8669 65.9709 18.2569L54.7219 23.4853ZM70.6875 19.5C69.3469 19.5 68.25 18.4031 68.25 17.0625C68.25 15.7219 69.3469 14.625 70.6875 14.625C72.0281 14.625 73.125 15.7219 73.125 17.0625C73.125 18.4031 72.0281 19.5 70.6875 19.5Z" fill="#EF0E0E" stroke="#EF0E0E" stroke-width="2"/>
</svg>
