<svg width="78" height="78" viewBox="0 0 78 78" fill="none" xmlns="http://www.w3.org/2000/svg">
<path fill-rule="evenodd" clip-rule="evenodd" d="M11.2099 71.2456C10.9747 71.2456 10.7382 71.1658 10.5442 71.0025L7.03915 68.0539C5.11647 66.4367 3.73551 64.3049 3.04557 61.889C2.35563 59.4729 2.40252 56.9334 3.1814 54.5449L6.25686 45.1103C7.03574 42.7215 8.4945 40.6424 10.4756 39.0974C12.4566 37.5522 14.8287 36.6439 17.3351 36.4704L21.7362 36.1658C22.3066 36.1265 22.8006 36.5566 22.8401 37.1269C22.8796 37.697 22.4493 38.1913 21.879 38.2308L17.4779 38.5353C13.1895 38.832 9.55744 41.6647 8.22481 45.7519L5.14935 55.1865C3.81672 59.2737 5.08162 63.7026 8.37178 66.4701L11.8768 69.4187C12.3142 69.7867 12.3706 70.4394 12.0026 70.8769C11.7978 71.1202 11.5047 71.2456 11.2099 71.2456Z" fill="#080808" stroke="#080808" stroke-width="2"/>
<path fill-rule="evenodd" clip-rule="evenodd" d="M45.5562 71.2458C45.2613 71.2458 44.9685 71.1204 44.7638 70.8771C44.3958 70.4396 44.4521 69.7868 44.8896 69.4189L48.3946 66.4703C51.6848 63.7028 52.9497 59.2737 51.6171 55.1867L48.5416 45.7519C47.209 41.6647 43.5769 38.832 39.2885 38.5353L34.8874 38.2308C34.3171 38.1913 33.887 37.6972 33.9263 37.1269C33.9659 36.5568 34.4605 36.1266 35.0302 36.1658L39.4313 36.4704C41.9377 36.6437 44.3098 37.5522 46.2908 39.0972C48.2719 40.6423 49.7307 42.7215 50.5094 45.1101L53.5848 54.5449C54.3637 56.9334 54.4106 59.4729 53.7207 61.889C53.0307 64.3048 51.6498 66.4367 49.7269 68.0539L46.2219 71.0025C46.028 71.166 45.7914 71.2458 45.5562 71.2458Z" fill="#080808" stroke="#080808" stroke-width="2"/>
<path fill-rule="evenodd" clip-rule="evenodd" d="M42.7746 75.2342H13.99C13.149 75.2342 12.3331 74.934 11.6927 74.3886C11.0524 73.8435 10.6258 73.0858 10.4916 72.2556L7.77803 55.4587C7.61202 54.4317 7.9038 53.3884 8.57829 52.5962C9.25278 51.804 10.2363 51.3496 11.2766 51.3496H45.4884C46.5287 51.3496 47.5122 51.804 48.1867 52.596C48.8612 53.3882 49.1528 54.4315 48.987 55.4585L46.2734 72.2554C46.1394 73.0857 45.7126 73.8433 45.0723 74.3885C44.4316 74.934 43.6157 75.2342 42.7746 75.2342ZM11.2764 53.4194C10.8438 53.4194 10.4347 53.6085 10.1542 53.9378C9.87373 54.2673 9.75245 54.7012 9.82145 55.1285L12.535 71.9253C12.6509 72.6431 13.2629 73.1642 13.9902 73.1642H42.7748C43.5019 73.1642 44.1139 72.6431 44.23 71.9252L46.9436 55.1283C47.0126 54.701 46.8913 54.2671 46.6108 53.9376C46.3303 53.6081 45.9212 53.4193 45.4884 53.4193L11.2764 53.4194Z" fill="#080808" stroke="#080808" stroke-width="2"/>
<path fill-rule="evenodd" clip-rule="evenodd" d="M28.8436 45.7568H27.9239C23.9811 45.7568 20.7734 42.5489 20.7734 38.606V33.4866C20.7734 32.915 21.2368 32.4517 21.8083 32.4517C22.3799 32.4517 22.8433 32.915 22.8433 33.4866V38.606C22.8433 41.4076 25.1224 43.6871 27.9239 43.6871H28.8436C31.6451 43.6871 33.9242 41.4078 33.9242 38.6062V33.6704C33.9242 33.0988 34.3876 32.6355 34.9591 32.6355C35.5307 32.6355 35.994 33.0988 35.994 33.6704V38.6062C35.9938 42.5491 32.7862 45.7568 28.8436 45.7568Z" fill="#080808" stroke="#080808" stroke-width="2"/>
<path fill-rule="evenodd" clip-rule="evenodd" d="M28.4827 37.8327C27.6339 37.8327 26.7796 37.6661 26.0122 37.351C23.4416 36.2961 21.2288 34.6686 19.6133 32.6445C17.9801 30.5991 17.0027 28.2058 16.7872 25.7242C16.7856 25.7053 16.7846 25.6863 16.7838 25.6674L16.563 18.6897C16.5492 18.2507 16.8137 17.8509 17.2231 17.6921C17.2407 17.6853 19.0006 17.002 20.7259 16.3045C22.9453 15.4072 25.4405 15.5407 27.5712 16.6705C28.3605 17.0891 29.1367 17.4271 29.878 17.6754C33.6854 18.9504 37.4169 18.2953 38.8446 17.9544C38.8821 17.9455 38.9105 17.9386 38.9366 17.9331C38.979 17.9237 39.0223 17.9167 39.0665 17.9126C39.0997 17.9093 39.1333 17.9077 39.1662 17.9077C39.7377 17.9077 40.2011 18.3711 40.2011 18.9426C40.2011 18.9685 40.2002 18.994 40.1984 19.0194L40.1822 25.6372C40.182 25.6663 40.181 25.6953 40.1783 25.7242C39.963 28.2051 38.986 30.598 37.3526 32.6445C35.7373 34.6683 33.5245 36.2958 30.9532 37.351C30.1856 37.6661 29.3314 37.8327 28.4827 37.8327ZM18.8517 25.5727C19.0366 27.6368 19.8589 29.6349 21.2309 31.353C22.6273 33.1026 24.5523 34.5145 26.7982 35.436C27.3188 35.6498 27.9011 35.7627 28.4827 35.7627C29.0643 35.7627 29.6466 35.6498 30.1667 35.436C34.6869 33.5807 37.7277 29.8096 38.1122 25.5873L38.1253 20.21C36.1011 20.5516 32.7017 20.8035 29.2208 19.638C28.3718 19.3537 27.4905 18.9705 26.6013 18.4988C25.0119 17.656 23.1532 17.5556 21.5015 18.223C20.4236 18.6588 19.3328 19.0889 18.6549 19.3544L18.8517 25.5727Z" fill="#080808" stroke="#080808" stroke-width="2"/>
<path fill-rule="evenodd" clip-rule="evenodd" d="M39.1658 19.6918C38.5943 19.6918 38.1309 19.2284 38.1309 18.6569C38.1309 14.4734 34.7274 11.0698 30.5437 11.0698H26.2194C22.0359 11.0698 18.6323 14.4734 18.6323 18.6569C18.6323 19.2284 18.169 19.6918 17.5974 19.6918C17.0259 19.6918 16.5625 19.2284 16.5625 18.6569C16.5625 16.0773 17.5669 13.6523 19.3909 11.8284C21.2149 10.0045 23.64 9 26.2194 9H30.5437C33.1233 9 35.5483 10.0045 37.3722 11.8284C39.196 13.6523 40.2006 16.0775 40.2006 18.6569C40.2007 19.2284 39.7374 19.6918 39.1658 19.6918Z" fill="#080808" stroke="#080808" stroke-width="2"/>
<path fill-rule="evenodd" clip-rule="evenodd" d="M35.3845 69.1207C35.1196 69.1207 34.8548 69.0197 34.6527 68.8176C34.2486 68.4133 34.2486 67.7583 34.6527 67.354L38.7149 63.2918L34.6527 59.2296C34.2486 58.8253 34.2486 58.1702 34.6527 57.766C35.0568 57.3619 35.7122 57.3619 36.1163 57.766L40.9101 62.56C41.3142 62.9642 41.3142 63.6193 40.9101 64.0236L36.1163 68.8176C35.9143 69.0197 35.6493 69.1207 35.3845 69.1207Z" fill="#EF0E0E" stroke="#080808" stroke-width="2"/>
<path fill-rule="evenodd" clip-rule="evenodd" d="M21.3797 69.1208C21.1148 69.1208 20.85 69.0199 20.6479 68.8177L15.8538 64.0237C15.4498 63.6195 15.4498 62.9644 15.8538 62.5601L20.6479 57.7661C21.0521 57.3618 21.7072 57.3618 22.1115 57.7661C22.5157 58.1704 22.5157 58.8254 22.1115 59.2297L18.0493 63.2919L22.1115 67.3541C22.5157 67.7584 22.5157 68.4135 22.1115 68.8177C21.9093 69.0199 21.6445 69.1208 21.3797 69.1208Z" fill="#EF0E0E" stroke="#080808" stroke-width="2"/>
<path fill-rule="evenodd" clip-rule="evenodd" d="M25.2687 71.0044C25.1223 71.0044 24.9735 70.9732 24.8321 70.9072C24.3141 70.6658 24.0901 70.0498 24.3316 69.5318L30.5588 56.1773C30.8005 55.6593 31.4162 55.4353 31.9342 55.6768C32.4522 55.9184 32.6763 56.5342 32.4348 57.0522L26.2073 70.4067C26.0318 70.7833 25.6586 71.0044 25.2687 71.0044Z" fill="#EF0E0E" stroke="#080808" stroke-width="2"/>
<path fill-rule="evenodd" clip-rule="evenodd" d="M60.7462 31.372H59.7629C59.1513 31.372 58.5653 31.0788 58.1555 30.5677C57.7869 30.1081 57.584 29.5088 57.584 28.8804V21.6584C57.584 21.5527 57.6024 21.4479 57.6382 21.3485L58.4577 19.0776C58.6289 18.6031 59.1522 18.3574 59.6267 18.5286C60.1011 18.6998 60.3468 19.2231 60.1757 19.6975L59.4105 21.8181V28.8802C59.4105 29.2929 59.6388 29.5455 59.7631 29.5455H60.7463C60.8706 29.5455 61.0989 29.2929 61.0989 28.8802V21.8124L60.3592 19.6832C60.1937 19.2068 60.4456 18.6865 60.9221 18.521C61.3985 18.3556 61.9188 18.6074 62.0844 19.084L62.8747 21.3586C62.9081 21.455 62.9252 21.5563 62.9252 21.6583V28.8802C62.9252 29.5088 62.7223 30.108 62.3537 30.5675C61.9437 31.0788 61.3578 31.372 60.7462 31.372Z" fill="#EF0E0E" stroke="#EF0E0E" stroke-width="1.2"/>
<path fill-rule="evenodd" clip-rule="evenodd" d="M60.2537 20.3601C58.0548 20.3601 55.9874 19.5038 54.4327 17.9489C52.8777 16.3941 52.0215 14.3268 52.0215 12.1279C52.0215 9.92902 52.8777 7.8617 54.4327 6.30693C55.9876 4.75201 58.0548 3.89575 60.2537 3.89575C62.4526 3.89575 64.5199 4.75201 66.0746 6.30693C67.6296 7.86186 68.4858 9.92902 68.4858 12.1279C68.4858 14.3268 67.6296 16.3941 66.0746 17.9489C64.5199 19.5037 62.4526 20.3601 60.2537 20.3601ZM60.2537 5.72209C56.7215 5.72209 53.8478 8.59573 53.8478 12.1279C53.8478 15.6601 56.7215 18.5338 60.2537 18.5338C63.7858 18.5338 66.6595 15.6601 66.6595 12.1279C66.6595 8.59573 63.7858 5.72209 60.2537 5.72209Z" fill="#EF0E0E" stroke="#EF0E0E" stroke-width="1.2"/>
<path fill-rule="evenodd" clip-rule="evenodd" d="M59.2291 15.65C58.982 15.65 58.7448 15.5498 58.5723 15.3713L56.6489 13.3801C56.2986 13.0174 56.3086 12.4392 56.6713 12.0888C57.034 11.7385 57.6122 11.7485 57.9626 12.1112L59.1784 13.37L62.4498 9.43715C62.7723 9.04937 63.3481 8.99658 63.7359 9.31904C64.1236 9.64151 64.1764 10.2173 63.854 10.6051L59.9313 15.3209C59.7655 15.5204 59.5224 15.6399 59.2631 15.6496C59.2518 15.6499 59.2404 15.65 59.2291 15.65Z" fill="#EF0E0E" stroke="#EF0E0E" stroke-width="1.2"/>
</svg>
