<svg width="78" height="78" viewBox="0 0 78 78" fill="none" xmlns="http://www.w3.org/2000/svg">
<path fill-rule="evenodd" clip-rule="evenodd" d="M36.5904 6.5C37.9366 6.5 39.0279 7.59132 39.0279 8.9375V14.1669C39.0279 15.5131 37.9366 16.6044 36.5904 16.6044C35.2443 16.6044 34.1529 15.5131 34.1529 14.1669V8.9375C34.1529 7.59132 35.2443 6.5 36.5904 6.5ZM6.51172 36.5788C6.51172 35.2326 7.603 34.1413 8.94922 34.1413H14.1786C15.5248 34.1413 16.6161 35.2326 16.6161 36.5788C16.6161 37.9249 15.5248 39.0163 14.1786 39.0163H8.94922C7.603 39.0163 6.51172 37.9249 6.51172 36.5788ZM61.1289 48.7666C62.2232 49.5508 62.4744 51.0734 61.6902 52.1677L56.6075 59.2595C55.2776 61.1149 52.5876 61.3015 51.0146 59.6473L48.0015 56.4792C47.0736 55.5035 47.1123 53.9607 48.0879 53.0329C49.0633 52.1053 50.606 52.144 51.5339 53.1193L53.5164 55.2038L57.7278 49.3279C58.512 48.2336 60.0346 47.9823 61.1289 48.7666Z" fill="#EF0E0E"/>
<path fill-rule="evenodd" clip-rule="evenodd" d="M36.584 11.375C22.6614 11.375 11.375 22.6614 11.375 36.584C11.375 50.5063 22.6614 61.7929 36.584 61.7929C37.2645 61.7929 37.9385 61.7659 38.6048 61.7133C37.5066 59.4396 36.8911 56.8893 36.8911 54.1954C36.8911 44.6384 44.6384 36.8911 54.1954 36.8911C56.8893 36.8911 59.4396 37.5066 61.7133 38.6051C61.7659 37.9385 61.7929 37.2645 61.7929 36.584C61.7929 22.6614 50.5063 11.375 36.584 11.375ZM66.2246 41.756C66.5161 40.0741 66.6679 38.3458 66.6679 36.584C66.6679 19.969 53.1989 6.5 36.584 6.5C19.969 6.5 6.5 19.969 6.5 36.584C6.5 53.1989 19.969 66.6679 36.584 66.6679C38.3458 66.6679 40.0741 66.5161 41.756 66.2246C44.902 69.4772 49.3126 71.4997 54.1954 71.4997C63.7523 71.4997 71.4997 63.7523 71.4997 54.1954C71.4997 49.3126 69.4772 44.902 66.2246 41.756ZM36.5856 22.0432C37.9317 22.0432 39.0231 23.1344 39.0231 24.4807V36.7026C39.0231 37.8242 38.5596 38.8957 37.7423 39.6633L30.7997 46.1854C29.8186 47.1071 28.276 47.059 27.3543 46.0779C26.4325 45.0967 26.4807 43.5542 27.4618 42.6325L34.1481 36.3509V24.4807C34.1481 23.1344 35.2394 22.0432 36.5856 22.0432ZM54.1954 41.7661C47.3307 41.7661 41.7661 47.3307 41.7661 54.1954C41.7661 61.0597 47.3307 66.6247 54.1954 66.6247C61.0597 66.6247 66.6247 61.0597 66.6247 54.1954C66.6247 47.3307 61.0597 41.7661 54.1954 41.7661Z" fill="#080808"/>
</svg>
