<svg width="58" height="58" viewBox="0 0 58 58" fill="none" xmlns="http://www.w3.org/2000/svg">
<g clip-path="url(#clip0_373_209)">
<path d="M47.6914 17.1055H45.9922C40.3702 17.1055 35.7969 21.6787 35.7969 27.3008V32.5195L40.317 29.9093L42.5938 33.8546V27.3008C42.5938 25.4273 44.1187 23.9023 45.9922 23.9023H47.6914V28.1504L58 20.5039L47.6914 12.8574V17.1055Z" fill="black"/>
<path d="M28.9998 0L21.355 10.3086H25.6013L25.6026 27.3008H32.3982V10.3086H36.6445L28.9998 0Z" fill="#EF0E0E"/>
<path d="M10.3086 23.9023H12.0078C13.8813 23.9023 15.4062 25.4273 15.4062 27.3008V33.8546L17.683 29.9093L22.2031 32.5195V27.3008C22.2031 21.6787 17.6298 17.1055 12.0078 17.1055H10.3086V12.8574L0 20.5039L10.3086 28.1504V23.9023Z" fill="black"/>
<path d="M29 45.9922C29.9385 45.9922 30.6992 45.2314 30.6992 44.293C30.6992 43.3545 29.9385 42.5938 29 42.5938C28.0615 42.5938 27.3008 43.3545 27.3008 44.293C27.3008 45.2314 28.0615 45.9922 29 45.9922Z" fill="#EF0E0E"/>
<path d="M39.0723 34.5524L35.5841 36.5668C34.6284 35.7537 33.5564 35.1332 32.3982 34.7216V30.6992H25.6013V34.7216C24.4414 35.1332 23.3695 35.7537 22.417 36.5668L18.9272 34.5524L15.5288 40.4399L18.9919 42.4395C18.8808 43.0435 18.8044 43.6575 18.8044 44.293C18.8044 44.9285 18.8808 45.5442 18.9919 46.1465L15.5288 48.146L18.9272 54.0336L22.4152 52.0191C23.371 52.8322 24.443 53.4528 25.6013 53.8643V58H32.3982V53.8643C33.5581 53.4528 34.6301 52.8322 35.5825 52.0191L39.0723 54.0336L42.4707 48.146L39.0076 46.1465C39.1187 45.5425 39.1951 44.9285 39.1951 44.293C39.1951 43.6575 39.1187 43.0418 39.0076 42.4395L42.4707 40.4399L39.0723 34.5524ZM28.9998 49.3906C26.1888 49.3906 23.9021 47.1039 23.9021 44.293C23.9021 41.482 26.1888 39.1953 28.9998 39.1953C31.8107 39.1953 34.0974 41.482 34.0974 44.293C34.0974 47.1039 31.8107 49.3906 28.9998 49.3906Z" fill="black"/>
</g>
<defs>
<clipPath id="clip0_373_209">
<rect width="58" height="58" fill="white"/>
</clipPath>
</defs>
</svg>
