<svg width="68" height="68" viewBox="0 0 68 68" fill="none" xmlns="http://www.w3.org/2000/svg">
<path fill-rule="evenodd" clip-rule="evenodd" d="M41.7955 35.3027C35.1388 35.3027 29.7095 29.8733 29.7095 23.2168C29.7095 16.5602 35.1389 11.1308 41.7955 11.1308C48.452 11.1308 53.8807 16.5602 53.8807 23.2168C53.8807 29.8733 48.4515 35.3027 41.7955 35.3027ZM62.0797 19.5457L59.1778 18.9733L57.0874 13.926L58.7344 11.4688C59.0033 11.0676 58.9522 10.545 58.6105 10.2038L54.8084 6.4011C54.4666 6.05924 53.9446 6.0081 53.5422 6.27718L51.0857 7.92552L46.0384 5.83438L45.466 2.9319C45.3733 2.45789 44.967 2.12427 44.4847 2.12427H39.1058C38.624 2.12427 38.2171 2.45776 38.1244 2.9319L37.552 5.83438L32.5054 7.92552L30.0482 6.27718C29.647 6.00824 29.1237 6.05937 28.7825 6.4011L24.9798 10.2038C24.6386 10.545 24.587 11.0676 24.8566 11.4688L26.5042 13.926L24.4131 18.9733L21.5106 19.5457C21.0366 19.6389 20.7031 20.0447 20.7031 20.5277V25.9059C20.7031 26.389 21.0366 26.7946 21.5106 26.888L24.4131 27.4598L26.5042 32.5071L24.8566 34.9649C24.587 35.3662 24.6388 35.8881 24.9798 36.23L28.7825 40.0327C29.1237 40.3745 29.647 40.4249 30.0482 40.1559L32.5054 38.5083L37.552 40.5994L38.1244 43.5019C38.2171 43.9752 38.624 44.3087 39.1058 44.3087H44.4847C44.967 44.3087 45.3733 43.9752 45.466 43.5019L46.0384 40.5994L51.0857 38.5083L53.5422 40.1559C53.9448 40.4249 54.4667 40.3744 54.8084 40.0327L58.6105 36.23C58.9523 35.8881 59.0035 35.3655 58.7344 34.9649L57.0874 32.5071L59.1778 27.4598L62.0797 26.888C62.5537 26.7947 62.8873 26.389 62.8873 25.9059V20.5277C62.8873 20.0447 62.5538 19.639 62.0797 19.5457Z" fill="#080808"/>
<path fill-rule="evenodd" clip-rule="evenodd" d="M41.7953 12.6672C45.1725 14.3277 47.4968 17.8014 47.4968 21.8188C47.4968 25.0062 46.0331 27.8518 43.7407 29.7206V23.7042C43.7407 23.1669 43.3051 22.7312 42.7684 22.7312C42.2317 22.7312 41.7954 23.167 41.7954 23.7042V33.5017C41.1296 33.5017 40.4786 33.4378 39.8493 33.3171V29.7208C37.557 27.852 36.0933 25.0063 36.0933 21.8189C36.0933 17.8016 38.4176 14.3279 41.7954 12.6674L41.7953 12.6672Z" fill="#EF0E0E"/>
<path fill-rule="evenodd" clip-rule="evenodd" d="M34.9843 46.9069C30.3856 46.8642 26.2512 46.4987 21.6211 46.0124C14.7345 45.5339 9.39586 51.2175 5.11279 55.9562L15.031 65.8757C20.5145 61.4208 22.9973 62.3529 27.5469 62.2826C29.6617 62.2494 32.0627 62.6602 35.7056 61.0221L55.1709 52.169C56.6985 51.4215 58.4394 50.4338 59.1646 49.851C60.2737 47.1733 57.9947 44.6318 51.3924 47.227C48.3231 48.4339 44.7025 49.6426 41.961 50.4284C41.0224 53.3207 37.3315 54.3309 33.4598 54.6171C31.0135 54.7978 28.5352 54.6905 26.7673 54.6139C26.2095 54.5903 25.7208 54.5686 25.3886 54.5616C24.7287 54.5488 24.2041 54.0032 24.2163 53.3432C24.2297 52.6825 24.7753 52.1574 25.4352 52.1702C25.8722 52.1797 26.3354 52.2002 26.8669 52.2225C28.5869 52.2973 30.9974 52.4014 33.2872 52.232C37.7403 51.9031 38.8162 50.576 38.7044 49.2964C38.5996 48.0972 37.5295 46.9306 34.9842 46.9069H34.9843Z" fill="#080808"/>
</svg>
