<svg width="58" height="58" viewBox="0 0 58 58" fill="none" xmlns="http://www.w3.org/2000/svg">
<g clip-path="url(#clip0_420_209)">
<g clip-path="url(#clip1_420_209)">
<path d="M20.0248 44.7602C18.9154 44.7602 17.8822 44.2627 17.1906 43.3953L14.7628 40.351L12.6268 39.3223L7.04983 50.5393C6.77025 51.1017 6.80174 51.7689 7.1332 52.3025C7.46387 52.8349 8.04625 53.1587 8.67281 53.1587H8.67689L13.85 53.147L16.9631 57.2785C17.3073 57.7353 17.8446 58.0003 18.4103 58.0002C18.4659 58.0002 18.5216 57.9977 18.5774 57.9925C19.203 57.9346 19.754 57.557 20.0336 56.9946L25.6917 45.6141L23.9186 44.7602H20.0248Z" fill="black"/>
<path d="M50.9501 50.539L45.3732 39.322L43.2371 40.3507L40.8093 43.3952C40.1177 44.2624 39.0847 44.76 37.9751 44.76H34.0812L32.3081 45.6139L37.9663 56.9943C38.246 57.5568 38.797 57.9344 39.4224 57.9922C39.4782 57.9973 39.534 57.9999 39.5895 57.9999C40.1551 57.9999 40.6925 57.7351 41.0368 57.2782L44.1498 53.1468L49.323 53.1584H49.327C49.9536 53.1584 50.536 52.8348 50.8666 52.3022C51.1981 51.7687 51.2297 51.1015 50.9501 50.539Z" fill="black"/>
<path d="M37.9751 42.9476C38.5267 42.9476 39.0484 42.6965 39.3922 42.2652L42.0779 38.8974L45.959 37.0284C46.4559 36.789 46.8168 36.3364 46.9396 35.7987L47.8982 31.599L50.584 28.2312C50.9279 27.7999 51.0567 27.2355 50.9339 26.6978L49.9755 22.4982L50.9339 18.2985C51.0566 17.7607 50.9279 17.1964 50.584 16.7651L47.8982 13.3973L46.9396 9.19764C46.817 8.6599 46.4559 8.20734 45.959 7.96798L42.0779 6.09895L39.3922 2.7311C39.0482 2.29984 38.5267 2.04869 37.9751 2.04869H33.6675L29.7864 0.179438C29.2893 -0.0598125 28.7105 -0.0598125 28.2135 0.179438L24.3324 2.04846H20.0248C19.4732 2.04846 18.9516 2.29961 18.6078 2.73087L15.922 6.09872L12.041 7.96775C11.544 8.20711 11.1831 8.65967 11.0603 9.19742L10.1017 13.3971L7.41593 16.7648C7.07201 17.1961 6.94321 17.7605 7.066 18.2983L8.02447 22.498L7.066 26.6976C6.94332 27.2353 7.07201 27.7997 7.41593 28.2309L10.1017 31.5988L11.0603 35.7985C11.183 36.3362 11.544 36.7888 12.041 37.0281L15.922 38.8972L18.6078 42.265C18.9517 42.6963 19.4732 42.9474 20.0248 42.9474H24.3324L28.2135 44.8164C28.462 44.9361 28.7309 44.9959 28.9999 44.9959C29.2688 44.9959 29.5378 44.9361 29.7863 44.8164L33.6673 42.9474H37.9749L37.9751 42.9476ZM29 38.3575C20.2551 38.3575 13.1406 31.243 13.1406 22.4981C13.1406 13.7533 20.2551 6.63873 29 6.63873C37.7448 6.63873 44.8593 13.7533 44.8593 22.4981C44.8593 31.243 37.7448 38.3575 29 38.3575Z" fill="black"/>
<path d="M29 8.45117C21.2545 8.45117 14.9531 14.7526 14.9531 22.498C14.9531 30.2435 21.2545 36.5449 29 36.5449C36.7455 36.5449 43.0469 30.2435 43.0469 22.498C43.0469 14.7526 36.7455 8.45117 29 8.45117ZM29.3753 26.6566C29.0234 27.0085 28.5593 27.1876 28.0933 27.1876C27.6944 27.1876 27.2941 27.0565 26.9615 26.7904L22.4303 23.1654L24.6947 20.3348L27.9592 22.9464L33.1558 17.7498L35.719 20.313L29.3753 26.6567V26.6566Z" fill="#EF0E0E"/>
</g>
</g>
<defs>
<clipPath id="clip0_420_209">
<rect width="58" height="58" fill="white"/>
</clipPath>
<clipPath id="clip1_420_209">
<rect width="58" height="58" fill="white"/>
</clipPath>
</defs>
</svg>
