<svg width="160" height="160" viewBox="0 0 160 160" fill="none" xmlns="http://www.w3.org/2000/svg">
<g opacity="0.3">
<path d="M0 0H4.3105V4.3105H0V0Z" fill="#C4C4C4"/>
<path d="M25.863 0H30.1735V4.3105H25.863V0Z" fill="#C4C4C4"/>
<path d="M51.726 0H56.0365V4.3105H51.726V0Z" fill="#C4C4C4"/>
<path d="M77.589 0H81.8996V4.3105H77.589V0Z" fill="#C4C4C4"/>
<path d="M103.452 0H107.763V4.3105H103.452V0Z" fill="#C4C4C4"/>
<path d="M129.315 0H133.626V4.3105H129.315V0Z" fill="#C4C4C4"/>
<path d="M155.178 0H159.489V4.3105H155.178V0Z" fill="#C4C4C4"/>
<path d="M0 25.863H4.3105V30.1735H0V25.863Z" fill="#C4C4C4"/>
<path d="M25.863 25.863H30.1735V30.1735H25.863V25.863Z" fill="#C4C4C4"/>
<path d="M51.726 25.863H56.0365V30.1735H51.726V25.863Z" fill="#C4C4C4"/>
<path d="M77.589 25.863H81.8996V30.1735H77.589V25.863Z" fill="#C4C4C4"/>
<path d="M103.452 25.863H107.763V30.1735H103.452V25.863Z" fill="#C4C4C4"/>
<path d="M129.315 25.863H133.626V30.1735H129.315V25.863Z" fill="#C4C4C4"/>
<path d="M155.178 25.863H159.489V30.1735H155.178V25.863Z" fill="#C4C4C4"/>
<path d="M0 51.726H4.3105V56.0365H0V51.726Z" fill="#C4C4C4"/>
<path d="M25.863 51.726H30.1735V56.0365H25.863V51.726Z" fill="#C4C4C4"/>
<path d="M51.726 51.726H56.0365V56.0365H51.726V51.726Z" fill="#C4C4C4"/>
<path d="M77.589 51.726H81.8996V56.0365H77.589V51.726Z" fill="#C4C4C4"/>
<path d="M103.452 51.726H107.763V56.0365H103.452V51.726Z" fill="#C4C4C4"/>
<path d="M129.315 51.726H133.626V56.0365H129.315V51.726Z" fill="#C4C4C4"/>
<path d="M155.178 51.726H159.489V56.0365H155.178V51.726Z" fill="#C4C4C4"/>
<path d="M0 77.589H4.3105V81.8996H0V77.589Z" fill="#C4C4C4"/>
<path d="M25.863 77.589H30.1735V81.8996H25.863V77.589Z" fill="#C4C4C4"/>
<path d="M51.726 77.589H56.0365V81.8996H51.726V77.589Z" fill="#C4C4C4"/>
<path d="M77.589 77.589H81.8996V81.8996H77.589V77.589Z" fill="#C4C4C4"/>
<path d="M103.452 77.589H107.763V81.8996H103.452V77.589Z" fill="#C4C4C4"/>
<path d="M129.315 77.589H133.626V81.8996H129.315V77.589Z" fill="#C4C4C4"/>
<path d="M155.178 77.589H159.489V81.8996H155.178V77.589Z" fill="#C4C4C4"/>
<path d="M0 103.452H4.3105V107.763H0V103.452Z" fill="#C4C4C4"/>
<path d="M25.863 103.452H30.1735V107.763H25.863V103.452Z" fill="#C4C4C4"/>
<path d="M51.726 103.452H56.0365V107.763H51.726V103.452Z" fill="#C4C4C4"/>
<path d="M77.589 103.452H81.8996V107.763H77.589V103.452Z" fill="#C4C4C4"/>
<path d="M103.452 103.452H107.763V107.763H103.452V103.452Z" fill="#C4C4C4"/>
<path d="M129.315 103.452H133.626V107.763H129.315V103.452Z" fill="#C4C4C4"/>
<path d="M155.178 103.452H159.489V107.763H155.178V103.452Z" fill="#C4C4C4"/>
<path d="M0 129.315H4.3105V133.626H0V129.315Z" fill="#C4C4C4"/>
<path d="M25.863 129.315H30.1735V133.626H25.863V129.315Z" fill="#C4C4C4"/>
<path d="M51.726 129.315H56.0365V133.626H51.726V129.315Z" fill="#C4C4C4"/>
<path d="M77.589 129.315H81.8996V133.626H77.589V129.315Z" fill="#C4C4C4"/>
<path d="M103.452 129.315H107.763V133.626H103.452V129.315Z" fill="#C4C4C4"/>
<path d="M129.315 129.315H133.626V133.626H129.315V129.315Z" fill="#C4C4C4"/>
<path d="M155.178 129.315H159.489V133.626H155.178V129.315Z" fill="#C4C4C4"/>
<path d="M0 155.178H4.3105V159.489H0V155.178Z" fill="#C4C4C4"/>
<path d="M25.863 155.178H30.1735V159.489H25.863V155.178Z" fill="#C4C4C4"/>
<path d="M51.726 155.178H56.0365V159.489H51.726V155.178Z" fill="#C4C4C4"/>
<path d="M77.589 155.178H81.8996V159.489H77.589V155.178Z" fill="#C4C4C4"/>
<path d="M103.452 155.178H107.763V159.489H103.452V155.178Z" fill="#C4C4C4"/>
<path d="M129.315 155.178H133.626V159.489H129.315V155.178Z" fill="#C4C4C4"/>
<path d="M155.178 155.178H159.489V159.489H155.178V155.178Z" fill="#C4C4C4"/>
</g>
</svg>
