<svg width="76" height="76" viewBox="0 0 76 76" fill="none" xmlns="http://www.w3.org/2000/svg">
<g clip-path="url(#clip0_88_1142)">
<path d="M49.8183 46.9022C49.2848 46.9022 48.8523 46.4697 48.8523 45.9362V33.9689C48.8523 33.4354 49.2848 33.0029 49.8183 33.0029C50.3518 33.0029 50.7843 33.4354 50.7843 33.9689V45.9362C50.7843 46.4697 50.3518 46.9022 49.8183 46.9022Z" fill="#282828"/>
<path d="M53.788 36.2412H29.0161V30.6621H53.788C55.3286 30.6621 56.5775 31.911 56.5775 33.4516C56.5776 34.9924 55.3286 36.2412 53.788 36.2412Z" fill="#282828"/>
<path d="M56.5779 33.4528C56.5779 34.2237 56.2661 34.9194 55.7605 35.4252C55.2561 35.9296 54.559 36.2413 53.7881 36.2413H29.0164V34.1564H53.788C54.5589 34.1564 55.256 33.8434 55.7604 33.3391C56.0242 33.0766 56.235 32.7597 56.376 32.4092C56.5067 32.7312 56.5779 33.0842 56.5779 33.4528Z" fill="black"/>
<path d="M67.4132 61.1443H54.3889C53.1574 61.1443 52.0967 60.2761 51.8532 59.069L49.7895 48.8375H29.3853C28.2052 48.8375 27.1747 48.0389 26.8804 46.8963L20.5948 22.501H8.58675C7.15813 22.5009 6 21.3426 6 19.9141C6 18.4855 7.15813 17.3274 8.58675 17.3274H22.5995C23.7795 17.3274 24.81 18.126 25.1044 19.2686L31.3899 43.6639H51.9066C53.1381 43.6639 54.1987 44.532 54.4422 45.7391L56.5059 55.9706H67.4132C68.8419 55.9706 70 57.1288 70 58.5574C70 59.986 68.8419 61.1443 67.4132 61.1443Z" fill="#282828"/>
<path d="M69.8285 59.487C69.456 60.4571 68.5158 61.1452 67.4138 61.1452H54.3898C53.1585 61.1452 52.0966 60.276 51.8535 59.0693L49.7906 48.8375H29.3853C28.2058 48.8375 27.1749 48.0396 26.8813 46.8962L20.5955 22.5009H8.65213C7.22588 22.5009 5.99688 21.3347 6.00001 19.9084C6.00301 18.5207 7.10001 17.3894 8.47288 17.3313C8.35788 17.6295 8.29676 17.954 8.30113 18.2934C8.31913 19.7199 9.52726 20.8467 10.9539 20.8467H21.4949C22.3199 20.8467 23.0404 21.405 23.2463 22.2039L29.1823 45.2419C29.4759 46.3853 30.5066 47.1833 31.6863 47.1833H50.5284C51.4376 47.1833 52.2208 47.8243 52.4005 48.7155L54.1545 57.4151C54.3976 58.6217 55.4583 59.4909 56.6908 59.4909H69.7149C69.7523 59.4909 69.791 59.4895 69.8285 59.487Z" fill="#282828"/>
<path d="M27.4659 69.6697C38.5174 69.6697 47.4763 60.7107 47.4763 49.6593C47.4763 38.6079 38.5174 29.6489 27.4659 29.6489C16.4145 29.6489 7.45557 38.6079 7.45557 49.6593C7.45557 60.7107 16.4145 69.6697 27.4659 69.6697Z" fill="#282828"/>
<path d="M28.6887 69.6338C28.2838 69.657 27.8764 69.67 27.4664 69.67C16.4147 69.67 7.45557 60.7109 7.45557 49.6592C7.45557 38.6087 16.4147 29.6497 27.4664 29.6497C27.8764 29.6497 28.2838 29.6625 28.6887 29.6859C18.2059 30.3183 9.90007 39.0188 9.90007 49.6592C9.90007 60.3009 18.2059 69.0014 28.6887 69.6338Z" fill="#282828"/>
<path d="M27.4659 65.3495C36.1314 65.3495 43.1561 58.3247 43.1561 49.6592C43.1561 40.9938 36.1314 33.969 27.4659 33.969C18.8004 33.969 11.7756 40.9938 11.7756 49.6592C11.7756 58.3247 18.8004 65.3495 27.4659 65.3495Z" fill="#EF0E0E"/>
<path d="M43.156 49.6594C43.156 58.3249 36.1318 65.3504 27.4663 65.3504C26.9968 65.3504 26.5311 65.3296 26.072 65.2882C34.0844 64.5834 40.3675 57.854 40.3675 49.6592C40.3675 41.4645 34.0844 34.7365 26.072 34.0316C26.5311 33.9902 26.9968 33.9695 27.4663 33.9695C36.1318 33.9697 43.156 40.9939 43.156 49.6594Z" fill="#EF0E0E"/>
<path d="M27.466 54.0524C29.8922 54.0524 31.859 52.0855 31.859 49.6594C31.859 47.2332 29.8922 45.2664 27.466 45.2664C25.0398 45.2664 23.073 47.2332 23.073 49.6594C23.073 52.0855 25.0398 54.0524 27.466 54.0524Z" fill="#282828"/>
<path d="M29.0676 53.7515C28.5722 53.9467 28.0316 54.0528 27.4665 54.0528C25.0401 54.0528 23.073 52.0856 23.073 49.6593C23.073 47.2331 25.0402 45.2671 27.4665 45.2671C28.0317 45.2671 28.5724 45.3732 29.0676 45.5672C27.4329 46.2073 26.2752 47.7982 26.2752 49.6593C26.2752 51.5205 27.4327 53.1126 29.0676 53.7515Z" fill="#282828"/>
<path d="M57.0037 69.6698C60.9721 69.6698 64.1891 66.4528 64.1891 62.4844C64.1891 58.5161 60.9721 55.2991 57.0037 55.2991C53.0354 55.2991 49.8184 58.5161 49.8184 62.4844C49.8184 66.4528 53.0354 69.6698 57.0037 69.6698Z" fill="#282828"/>
<path d="M58.5576 69.5007C58.0571 69.6119 57.5371 69.6701 57.003 69.6701C53.035 69.6701 49.8184 66.4534 49.8184 62.4842C49.8184 58.5162 53.035 55.2996 57.003 55.2996C57.5371 55.2996 58.0571 55.3577 58.5576 55.4689C55.3371 56.1777 52.9264 59.0489 52.9264 62.4841C52.9264 65.9207 55.3371 68.7919 58.5576 69.5007Z" fill="#282828"/>
<path d="M57.0037 64.7715C58.2668 64.7715 59.2908 63.7475 59.2908 62.4844C59.2908 61.2212 58.2668 60.1973 57.0037 60.1973C55.7405 60.1973 54.7166 61.2212 54.7166 62.4844C54.7166 63.7475 55.7405 64.7715 57.0037 64.7715Z" fill="#282828"/>
<path d="M15.2153 24.2553C14.6818 24.2553 14.2493 23.8228 14.2493 23.2893V16.5353C14.2493 16.0018 14.6818 15.5693 15.2153 15.5693C15.7488 15.5693 16.1813 16.0018 16.1813 16.5353V23.2895C16.1813 23.8228 15.7488 24.2553 15.2153 24.2553Z" fill="#282828"/>
<path d="M57.0983 15.5797L47.4589 25.2191L39.7962 17.5564L37.8197 15.5799C36.7619 14.5221 36.2327 13.1354 36.2327 11.7485C36.2327 10.3616 36.7619 8.97487 37.8197 7.91712C39.936 5.80074 43.367 5.80074 45.4824 7.91712L47.4589 9.89274L49.4354 7.91712C50.4933 6.85924 51.88 6.32999 53.2669 6.32999C54.6538 6.32999 56.0405 6.85924 57.0983 7.91699C57.33 8.14874 57.5357 8.39574 57.7169 8.65462C57.7178 8.65462 57.7178 8.65549 57.7178 8.65549C59.1894 10.7682 58.9829 13.6952 57.0983 15.5797Z" fill="#EF0E0E"/>
<path d="M57.7169 8.6547C55.6204 7.83683 53.1461 8.27508 51.4517 9.96845L49.4932 11.927L47.459 9.8927L49.4355 7.91708C50.4932 6.85933 51.88 6.33008 53.2669 6.33008C54.6537 6.33008 56.0405 6.85933 57.0982 7.91708C57.33 8.14883 57.5356 8.39595 57.7169 8.6547Z" fill="#EF0E0E"/>
<path d="M47.4591 25.2193L39.7964 17.5565L37.8198 15.58C36.762 14.5223 36.2336 13.1356 36.2336 11.7487C36.2336 10.3618 36.762 8.97505 37.8198 7.9173C39.515 6.22205 42.0533 5.8848 44.084 6.90642C43.2886 7.19317 42.543 7.6558 41.9055 8.2933C40.7549 9.44392 40.1625 10.9678 40.1625 12.5043C40.1625 13.6494 40.4916 14.8019 41.1661 15.8099L47.4591 25.2193Z" fill="#EF0E0E"/>
<path d="M27.4658 55.0184C24.5108 55.0184 22.1067 52.6143 22.1067 49.6593C22.1067 46.7043 24.5108 44.3003 27.4658 44.3003C30.4208 44.3003 32.8248 46.7043 32.8248 49.6593C32.8248 52.6143 30.4208 55.0184 27.4658 55.0184ZM27.4658 46.2323C25.5761 46.2323 24.0387 47.7697 24.0387 49.6593C24.0387 51.549 25.5761 53.0864 27.4658 53.0864C29.3554 53.0864 30.8928 51.549 30.8928 49.6593C30.8928 47.7697 29.3554 46.2323 27.4658 46.2323Z" fill="#282828"/>
</g>
<defs>
<clipPath id="clip0_88_1142">
<rect width="64" height="64" fill="white" transform="translate(6 6)"/>
</clipPath>
</defs>
</svg>
