<svg width="76" height="76" viewBox="0 0 76 76" fill="none" xmlns="http://www.w3.org/2000/svg">
<path d="M60.7853 28.6634V34.5712C60.7853 34.9571 60.4736 35.2688 60.0876 35.2688H58.9001V27.9657H60.0876C60.4736 27.9657 60.7853 28.2774 60.7853 28.6634Z" fill="black"/>
<path d="M57.4603 37.7626C57.4751 38.4603 57.2079 39.1282 56.7032 39.6181C56.1837 40.1376 55.5157 40.4196 54.8032 40.4196H35.2837C33.8142 40.4196 32.6118 39.2173 32.6118 37.7478V35.9962V35.9813V27.2235V25.4868C32.6118 24.0173 33.8142 22.8149 35.2837 22.8149H38.3415H51.7899H54.7884C56.2579 22.8149 57.4603 24.0173 57.4603 25.4868V27.2532V35.9962V37.7626ZM52.9923 30.6376V27.3274C52.9923 26.6595 52.4431 26.1251 51.7899 26.1251H48.4798C47.8118 26.1251 47.2774 26.6743 47.2774 27.3274V30.6376C47.2774 31.3056 47.8267 31.8548 48.4798 31.8548H51.7899C52.4431 31.8548 52.9774 31.3056 52.9923 30.6376ZM48.1087 36.8126C48.1087 36.4118 47.7821 36.0853 47.3813 36.0853H42.6907C42.2899 36.0853 41.9634 36.4118 41.9634 36.8126C41.9634 37.2134 42.2899 37.5399 42.6907 37.5399H47.3813C47.7821 37.5399 48.1087 37.2134 48.1087 36.8126ZM42.7946 30.6821C42.7946 30.6673 42.7946 30.6524 42.7946 30.6524V27.3423C42.7946 26.6743 42.2454 26.1399 41.5923 26.1399H38.2821C37.6142 26.1399 37.0798 26.6892 37.0798 27.3423V30.6524C37.0798 31.3204 37.629 31.8696 38.2821 31.8696H41.5923C42.2454 31.8548 42.7649 31.3353 42.7946 30.6821Z" fill="white"/>
<path d="M48.7173 27.5797H51.5376V30.4H48.7173V27.5797Z" fill="black"/>
<path d="M51.0625 20.5141V21.3602H39.054V20.5141C39.054 20.1875 39.336 19.9055 39.6625 19.9055H50.454C50.7805 19.9055 51.0625 20.1875 51.0625 20.5141Z" fill="black"/>
<path d="M44.2642 47.129V52.072C44.2642 53.6454 42.9876 54.9368 41.4142 54.9368H19.9798C19.5493 54.9368 19.1337 55.1149 18.822 55.4267L12.8696 61.379V56.5845C12.8696 55.6493 12.1126 54.9071 11.1923 54.9071H10.3907C8.80244 54.9071 7.52588 53.6306 7.52588 52.0423V33.5321C7.52588 31.9587 8.80244 30.6821 10.3907 30.6821H20.1431V41.8892C20.1431 44.7837 22.5032 47.1438 25.3978 47.1438H44.2642V47.129Z" fill="black"/>
<path d="M38.5344 27.5797H41.3547V30.4H38.5344V27.5797Z" fill="black"/>
<path d="M31.1571 27.9508V35.2539H29.9547C29.5688 35.2539 29.2571 34.9422 29.2571 34.5563V28.6485C29.2571 28.2625 29.5688 27.9508 29.9547 27.9508H31.1571Z" fill="black"/>
<path d="M68.4594 18.4211V41.8594C68.4594 43.9523 66.7523 45.6594 64.6594 45.6594H63.65C62.5961 45.6594 61.7352 46.5203 61.7352 47.5742V54.0906L53.868 46.2234C53.5117 45.8672 53.007 45.6594 52.5023 45.6594H44.9914H25.3977C23.3047 45.6594 21.5977 43.9523 21.5977 41.8594V30.1328C21.6125 30.0734 21.6273 30.0141 21.6273 29.9547C21.6273 29.8953 21.6273 29.8359 21.5977 29.7766V18.4211C21.6125 16.3281 23.3195 14.6211 25.3977 14.6211H64.6594C66.7523 14.6211 68.4594 16.343 68.4594 18.4211ZM62.2398 34.5562V28.6781C62.2398 27.4906 61.275 26.5258 60.0875 26.5258H58.9V25.4719C58.9 23.1859 57.0445 21.3453 54.7734 21.3453H52.5172V20.4992C52.5172 19.3711 51.5969 18.4359 50.4539 18.4359H39.6625C38.5344 18.4359 37.6141 19.3563 37.6141 20.4992V21.3453H35.2836C33.0125 21.3453 31.157 23.2008 31.157 25.4719V26.4961H29.9547C28.7672 26.4961 27.8023 27.4609 27.8023 28.6484V34.5562C27.8023 35.7437 28.7672 36.7086 29.9547 36.7086H31.157V37.7625C31.157 40.0336 33.0125 41.8891 35.2836 41.8891H54.8031C55.9016 41.8891 56.9555 41.4437 57.7422 40.657C58.5141 39.8703 58.9148 38.8461 58.9 37.7625V36.7086H60.0875C61.275 36.7086 62.2398 35.7437 62.2398 34.5562Z" fill="#EF0E0E"/>
<rect x="42" y="35" width="6" height="2" fill="black"/>
</svg>
