<svg width="82" height="82" viewBox="0 0 82 82" fill="none" xmlns="http://www.w3.org/2000/svg">
<path d="M55.4454 27.42L62.7847 29.0799V32.0314H49.4469C48.8849 24.531 42.8782 18.5227 35.3794 17.9607V4.62627H38.3309L39.9874 11.9656C40.0761 12.3633 40.3703 12.6837 40.7582 12.8087C41.8724 13.1653 42.9669 13.6189 44.0105 14.1562C44.3737 14.342 44.8076 14.3239 45.1526 14.1053L51.5207 10.0871L57.3201 15.8899L53.3004 22.2548C53.0835 22.6 53.0637 23.0338 53.251 23.3953C53.7933 24.4487 54.2485 25.5432 54.6036 26.6492C54.7288 27.0373 55.0494 27.3297 55.4454 27.42ZM41.8726 32.0314H47.1364C46.5876 25.7997 41.6082 20.8202 35.3797 20.2713V25.5352C38.7223 26.0363 41.3715 28.6872 41.8726 32.0314ZM28.7978 33.1834C28.7978 36.1761 31.2332 38.6098 34.2291 38.6098C37.2218 38.6098 39.6555 36.1759 39.6555 33.1834C39.6555 30.1875 37.2216 27.7503 34.2291 27.7503C31.2334 27.7504 28.7978 30.1875 28.7978 33.1834ZM56.6401 39.1473C57.9467 39.619 58.8817 40.8712 58.8817 42.3371C58.8817 44.209 57.3599 45.7325 55.4897 45.7325C53.618 45.7325 52.0946 44.209 52.0946 42.3371C52.0946 40.8712 53.0313 39.619 54.3395 39.1473V34.3338H49.4898V43.6732C49.4898 43.9278 49.406 44.1745 49.2515 44.3766L46.2556 48.2632C46.5958 48.7908 46.7929 49.4169 46.7929 50.089C46.7929 51.9608 45.2695 53.4843 43.396 53.4843C41.5275 53.4843 40.0056 51.9609 40.0056 50.089C40.0056 48.2189 41.5275 46.6971 43.396 46.6971C43.7576 46.6971 44.1076 46.7546 44.4346 46.8598L47.189 43.2821V34.3338H41.8726C41.3156 38.0512 38.0993 40.9106 34.2291 40.9106C29.9645 40.9106 26.4953 37.4447 26.4953 33.1834C26.4953 29.3099 29.3581 26.0922 33.0787 25.535V20.2186H24.1255L20.5478 22.973C20.653 23.3 20.7105 23.6484 20.7105 24.01C20.7105 25.8801 19.1887 27.4019 17.3186 27.4019C15.4468 27.4019 13.9232 25.8801 13.9232 24.01C13.9232 22.1381 15.4466 20.6147 17.3186 20.6147C17.9891 20.6147 18.6152 20.8102 19.1427 21.1504L23.031 18.1561C23.2331 18.0016 23.4796 17.9178 23.7328 17.9178H33.0787V12.5968H28.2619C27.7902 13.9049 26.5379 14.8433 25.0704 14.8433C23.1985 14.8433 21.6751 13.3199 21.6751 11.4464C21.6751 9.57622 23.1985 8.05602 25.0704 8.05602C26.5363 8.05602 27.7886 8.99117 28.2619 10.296H33.0787V4.62627H26.515C15.9941 4.62627 8.13215 15.5121 8.13215 25.2443V29.8145C8.13215 29.9624 8.10428 30.1087 8.04839 30.2468L1.32199 46.863C0.970283 47.7274 1.32535 48.7118 2.14695 49.1539L7.529 52.0626C7.9004 52.2631 8.13215 52.651 8.13215 53.075V64.1794C8.13215 67.5598 10.8832 70.3108 14.2636 70.3108H28.0713C31.3433 70.3108 34.0056 67.6452 34.0056 64.3716V50.508C34.0056 49.872 34.52 49.3576 35.156 49.3576C35.7919 49.3576 36.3064 49.872 36.3064 50.508V64.3716C36.3064 67.5714 34.4756 70.3486 31.8068 71.7143V81.9199H47.4683V72.9701L44.7157 69.3939C44.3886 69.4992 44.0387 69.5567 43.6771 69.5567C41.8036 69.5567 40.2802 68.0349 40.2802 66.1647C40.2802 64.2912 41.8036 62.7678 43.6771 62.7678C45.549 62.7678 47.0724 64.2912 47.0724 66.1647C47.0724 66.8353 46.8768 67.4597 46.5367 67.9873L49.5309 71.8772C49.6855 72.0793 49.7693 72.3258 49.7693 72.579V81.9199H53.6229V56.628C53.6229 56.3422 53.7298 56.0661 53.9221 55.854C59.1432 50.1252 62.1735 42.7036 62.7241 34.3338H56.6403V39.1473H56.6401ZM43.286 11.2852L50.8045 4.62627H59.6456C60.1182 5.93091 61.366 6.86734 62.8319 6.86734C64.7045 6.86734 66.2279 5.34602 66.2279 3.47603C66.2279 1.60348 64.7045 0.0800781 62.8319 0.0800781C61.3657 0.0800781 60.1176 1.01843 59.6453 2.32547H50.3658C50.0848 2.32547 49.812 2.42893 49.6016 2.61631L41.7972 9.5285L42.0898 10.8285C42.4922 10.9697 42.8915 11.1225 43.286 11.2852ZM77.4173 14.6655C75.9513 14.6655 74.7032 15.6037 74.2309 16.9106H64.9508C64.6697 16.9106 64.397 17.014 64.1865 17.2014L56.221 24.3633C56.3491 24.6804 56.4691 24.9977 56.5826 25.3181L58.1948 25.683L65.3895 19.213H74.2315C74.7045 20.517 75.9519 21.4529 77.4173 21.4529C79.2899 21.4529 80.8133 19.9316 80.8133 18.0616C80.8135 16.1891 79.2899 14.6655 77.4173 14.6655ZM63.7917 10.2679H54.9556L57.2546 12.5687H63.7908C64.2629 13.8761 65.5112 14.8146 66.9777 14.8146C68.8503 14.8146 70.3737 13.2912 70.3737 11.4187C70.3737 9.54868 68.8503 8.02735 66.9777 8.02735C65.5123 8.02735 64.2645 8.96362 63.7917 10.2679ZM73.0898 29.7868C71.6239 29.7868 70.3759 30.7247 69.9035 32.0314H65.0874V33.1834H65.0858V33.2262C65.0727 33.5976 65.053 33.9658 65.0299 34.3338H69.9039C70.3767 35.6381 71.6243 36.5742 73.0899 36.5742C74.9625 36.5742 76.4859 35.0529 76.4859 33.1829C76.4857 31.3104 74.9623 29.7868 73.0898 29.7868Z" fill="white"/>
</svg>
