<svg width="474" height="90" viewBox="0 0 474 90" fill="none" xmlns="http://www.w3.org/2000/svg">
<rect width="474" height="90" fill="#EF0E0E"/>
<path d="M50.6499 53V36.2727H61.5291V38.8129H53.68V43.354H60.9656V45.8942H53.68V50.4599H61.5945V53H50.6499ZM66.2175 40.4545L68.7495 45.0856L71.3223 40.4545H74.4504L70.6688 46.7273L74.5158 53H71.4039L68.7495 48.4833L66.1195 53H62.9831L66.8056 46.7273L63.0811 40.4545H66.2175ZM76.0474 57.7045V40.4545H78.9551V42.5291H79.1266C79.279 42.2242 79.4941 41.9002 79.7718 41.5572C80.0495 41.2087 80.4252 40.9119 80.8989 40.6669C81.3727 40.4164 81.9771 40.2912 82.7122 40.2912C83.6814 40.2912 84.5553 40.5389 85.334 41.0344C86.118 41.5245 86.7388 42.2514 87.1962 43.2152C87.659 44.1735 87.8904 45.3497 87.8904 46.7436C87.8904 48.1212 87.6644 49.2919 87.2125 50.2557C86.7606 51.2195 86.1453 51.9545 85.3666 52.4609C84.588 52.9673 83.7059 53.2205 82.7203 53.2205C82.0016 53.2205 81.4053 53.1007 80.9316 52.8612C80.4579 52.6216 80.0767 52.333 79.7881 51.9954C79.505 51.6523 79.2845 51.3284 79.1266 51.0234H79.0041V57.7045H76.0474ZM78.9469 46.7273C78.9469 47.5386 79.0612 48.2492 79.2899 48.859C79.5241 49.4689 79.8589 49.9453 80.2945 50.2884C80.7356 50.6259 81.2692 50.7947 81.8954 50.7947C82.5488 50.7947 83.096 50.6205 83.5371 50.272C83.9781 49.9181 84.3103 49.4362 84.5335 48.8263C84.7622 48.2111 84.8766 47.5114 84.8766 46.7273C84.8766 45.9486 84.7649 45.2571 84.5417 44.6527C84.3185 44.0483 83.9863 43.5746 83.5452 43.2315C83.1042 42.8885 82.5542 42.717 81.8954 42.717C81.2638 42.717 80.7274 42.883 80.2864 43.2152C79.8453 43.5473 79.5104 44.0129 79.2818 44.6119C79.0585 45.2108 78.9469 45.916 78.9469 46.7273ZM92.6891 36.2727V53H89.7324V36.2727H92.6891ZM100.512 53.245C99.2866 53.245 98.2248 52.9755 97.3264 52.4364C96.4279 51.8974 95.731 51.1432 95.2355 50.174C94.7454 49.2048 94.5004 48.0722 94.5004 46.7763C94.5004 45.4804 94.7454 44.3451 95.2355 43.3704C95.731 42.3957 96.4279 41.6388 97.3264 41.0998C98.2248 40.5607 99.2866 40.2912 100.512 40.2912C101.737 40.2912 102.799 40.5607 103.697 41.0998C104.596 41.6388 105.29 42.3957 105.78 43.3704C106.275 44.3451 106.523 45.4804 106.523 46.7763C106.523 48.0722 106.275 49.2048 105.78 50.174C105.29 51.1432 104.596 51.8974 103.697 52.4364C102.799 52.9755 101.737 53.245 100.512 53.245ZM100.528 50.8764C101.192 50.8764 101.748 50.694 102.194 50.3292C102.641 49.9589 102.973 49.4634 103.191 48.8427C103.414 48.2219 103.526 47.5304 103.526 46.7681C103.526 46.0004 103.414 45.3061 103.191 44.6854C102.973 44.0592 102.641 43.561 102.194 43.1907C101.748 42.8204 101.192 42.6353 100.528 42.6353C99.8475 42.6353 99.2812 42.8204 98.8292 43.1907C98.3827 43.561 98.0479 44.0592 97.8246 44.6854C97.6068 45.3061 97.4979 46.0004 97.4979 46.7681C97.4979 47.5304 97.6068 48.2219 97.8246 48.8427C98.0479 49.4634 98.3827 49.9589 98.8292 50.3292C99.2812 50.694 99.8475 50.8764 100.528 50.8764ZM108.343 53V40.4545H111.209V42.5455H111.34C111.569 41.8213 111.961 41.2631 112.516 40.8711C113.077 40.4736 113.717 40.2749 114.436 40.2749C114.599 40.2749 114.781 40.283 114.983 40.2994C115.19 40.3103 115.361 40.3293 115.497 40.3565V43.0763C115.372 43.0328 115.173 42.9947 114.901 42.962C114.634 42.9239 114.376 42.9048 114.125 42.9048C113.586 42.9048 113.102 43.0219 112.671 43.256C112.247 43.4847 111.912 43.8033 111.667 44.2116C111.422 44.62 111.299 45.091 111.299 45.6246V53H108.343ZM121.809 53.245C120.551 53.245 119.465 52.9837 118.55 52.4609C117.641 51.9328 116.941 51.1868 116.451 50.223C115.961 49.2538 115.716 48.113 115.716 46.8008C115.716 45.5103 115.961 44.3777 116.451 43.4031C116.947 42.4229 117.638 41.6606 118.526 41.1161C119.413 40.5662 120.456 40.2912 121.654 40.2912C122.427 40.2912 123.157 40.4164 123.843 40.6669C124.534 40.9119 125.144 41.2931 125.672 41.8104C126.206 42.3277 126.625 42.9865 126.93 43.7869C127.235 44.5819 127.388 45.5294 127.388 46.6293V47.5359H117.105V45.543H124.553C124.548 44.9767 124.425 44.473 124.186 44.032C123.946 43.5855 123.611 43.2343 123.181 42.9783C122.757 42.7224 122.261 42.5945 121.695 42.5945C121.09 42.5945 120.559 42.7415 120.102 43.0355C119.645 43.3241 119.288 43.7053 119.032 44.179C118.782 44.6473 118.654 45.1618 118.648 45.7227V47.4624C118.648 48.192 118.782 48.8182 119.048 49.3409C119.315 49.8582 119.688 50.2557 120.167 50.5334C120.647 50.8056 121.207 50.9418 121.85 50.9418C122.28 50.9418 122.669 50.8819 123.018 50.7621C123.366 50.6368 123.669 50.4544 123.925 50.2148C124.18 49.9753 124.374 49.6785 124.504 49.3246L127.265 49.6349C127.091 50.3646 126.759 51.0017 126.269 51.5462C125.784 52.0852 125.163 52.5045 124.406 52.804C123.65 53.098 122.784 53.245 121.809 53.245ZM136.493 53H133.258L139.147 36.2727H142.888L148.785 53H145.551L141.083 39.7031H140.952L136.493 53ZM136.599 46.4414H145.42V48.8754H136.599V46.4414ZM153.328 36.2727V53H150.298V36.2727H153.328ZM170.025 40.8711C169.949 40.1578 169.628 39.6024 169.062 39.2049C168.501 38.8074 167.771 38.6087 166.873 38.6087C166.241 38.6087 165.699 38.704 165.247 38.8945C164.795 39.0851 164.45 39.3437 164.21 39.6705C163.97 39.9972 163.848 40.3701 163.843 40.7894C163.843 41.1379 163.921 41.4401 164.079 41.696C164.243 41.9519 164.463 42.1697 164.741 42.3494C165.019 42.5237 165.326 42.6707 165.664 42.7905C166.002 42.9103 166.342 43.011 166.685 43.0927L168.253 43.4847C168.885 43.6317 169.492 43.8305 170.074 44.081C170.662 44.3314 171.188 44.6473 171.651 45.0284C172.119 45.4096 172.489 45.8697 172.762 46.4087C173.034 46.9478 173.17 47.5794 173.17 48.3036C173.17 49.2837 172.919 50.1468 172.419 50.8928C171.918 51.6333 171.193 52.2132 170.246 52.6325C169.304 53.0463 168.163 53.2532 166.824 53.2532C165.522 53.2532 164.392 53.0517 163.434 52.6488C162.481 52.2459 161.735 51.6578 161.196 50.8846C160.663 50.1114 160.374 49.1694 160.33 48.0586H163.312C163.355 48.6412 163.535 49.1258 163.851 49.5124C164.167 49.899 164.578 50.1876 165.084 50.3782C165.596 50.5688 166.168 50.6641 166.799 50.6641C167.458 50.6641 168.035 50.5661 168.531 50.37C169.032 50.1686 169.424 49.8909 169.707 49.5369C169.99 49.1776 170.134 48.7583 170.14 48.2791C170.134 47.8435 170.006 47.4841 169.756 47.201C169.505 46.9124 169.154 46.6728 168.702 46.4822C168.256 46.2862 167.733 46.112 167.134 45.9595L165.231 45.4695C163.853 45.1155 162.764 44.5792 161.964 43.8604C161.169 43.1362 160.772 42.1752 160.772 40.9773C160.772 39.9917 161.038 39.1287 161.572 38.3881C162.111 37.6476 162.843 37.0732 163.769 36.6648C164.695 36.2509 165.743 36.044 166.914 36.044C168.101 36.044 169.141 36.2509 170.034 36.6648C170.932 37.0732 171.637 37.6422 172.149 38.3718C172.661 39.096 172.925 39.9291 172.941 40.8711H170.025ZM181.315 40.4545V42.7415H174.103V40.4545H181.315ZM175.884 37.4489H178.84V49.2266C178.84 49.6241 178.9 49.929 179.02 50.1413C179.145 50.3482 179.309 50.4898 179.51 50.5661C179.712 50.6423 179.935 50.6804 180.18 50.6804C180.365 50.6804 180.534 50.6668 180.686 50.6396C180.844 50.6123 180.964 50.5878 181.046 50.5661L181.544 52.8775C181.386 52.9319 181.16 52.9918 180.866 53.0572C180.577 53.1225 180.224 53.1606 179.804 53.1715C179.064 53.1933 178.397 53.0817 177.803 52.8366C177.21 52.5862 176.739 52.1996 176.39 51.6768C176.047 51.1541 175.878 50.5007 175.884 49.7166V37.4489ZM183.098 53V40.4545H185.965V42.5455H186.096C186.324 41.8213 186.716 41.2631 187.272 40.8711C187.832 40.4736 188.472 40.2749 189.191 40.2749C189.354 40.2749 189.537 40.283 189.738 40.2994C189.945 40.3103 190.117 40.3293 190.253 40.3565V43.0763C190.128 43.0328 189.929 42.9947 189.657 42.962C189.39 42.9239 189.131 42.9048 188.881 42.9048C188.342 42.9048 187.857 43.0219 187.427 43.256C187.002 43.4847 186.667 43.8033 186.422 44.2116C186.177 44.62 186.055 45.091 186.055 45.6246V53H183.098ZM194.913 53.2532C194.118 53.2532 193.402 53.1116 192.765 52.8285C192.133 52.5399 191.632 52.1152 191.262 51.5543C190.897 50.9935 190.714 50.302 190.714 49.4798C190.714 48.7719 190.845 48.1866 191.107 47.7237C191.368 47.2609 191.725 46.8906 192.176 46.6129C192.628 46.3352 193.138 46.1256 193.704 45.984C194.276 45.837 194.866 45.7308 195.476 45.6655C196.211 45.5893 196.808 45.5212 197.265 45.4613C197.722 45.396 198.054 45.2979 198.261 45.1673C198.474 45.0311 198.58 44.8215 198.58 44.5384V44.4893C198.58 43.8741 198.397 43.3976 198.033 43.06C197.668 42.7224 197.142 42.5536 196.456 42.5536C195.732 42.5536 195.158 42.7115 194.733 43.0273C194.314 43.3432 194.031 43.7161 193.883 44.1463L191.123 43.7543C191.341 42.992 191.7 42.3549 192.201 41.843C192.702 41.3258 193.314 40.9392 194.039 40.6832C194.763 40.4219 195.563 40.2912 196.44 40.2912C197.044 40.2912 197.646 40.362 198.245 40.5036C198.844 40.6451 199.391 40.8793 199.887 41.206C200.382 41.5272 200.78 41.9656 201.079 42.521C201.384 43.0763 201.537 43.7706 201.537 44.6037V53H198.694V51.2766H198.596C198.417 51.6251 198.163 51.9518 197.837 52.2567C197.515 52.5562 197.11 52.7985 196.62 52.9837C196.135 53.1634 195.566 53.2532 194.913 53.2532ZM195.68 51.0806C196.274 51.0806 196.788 50.9635 197.224 50.7294C197.66 50.4898 197.995 50.174 198.229 49.782C198.468 49.3899 198.588 48.9625 198.588 48.4996V47.0213C198.495 47.0975 198.338 47.1683 198.114 47.2337C197.897 47.299 197.651 47.3562 197.379 47.4052C197.107 47.4542 196.837 47.4978 196.571 47.5359C196.304 47.574 196.072 47.6067 195.876 47.6339C195.435 47.6938 195.041 47.7918 194.692 47.9279C194.344 48.064 194.069 48.2546 193.867 48.4996C193.666 48.7392 193.565 49.0496 193.565 49.4308C193.565 49.9753 193.764 50.3864 194.161 50.6641C194.559 50.9418 195.065 51.0806 195.68 51.0806ZM210.084 40.4545V42.7415H202.872V40.4545H210.084ZM204.653 37.4489H207.609V49.2266C207.609 49.6241 207.669 49.929 207.789 50.1413C207.914 50.3482 208.078 50.4898 208.279 50.5661C208.481 50.6423 208.704 50.6804 208.949 50.6804C209.134 50.6804 209.303 50.6668 209.455 50.6396C209.613 50.6123 209.733 50.5878 209.815 50.5661L210.313 52.8775C210.155 52.9319 209.929 52.9918 209.635 53.0572C209.346 53.1225 208.992 53.1606 208.573 53.1715C207.833 53.1933 207.166 53.0817 206.572 52.8366C205.979 52.5862 205.508 52.1996 205.159 51.6768C204.816 51.1541 204.647 50.5007 204.653 49.7166V37.4489ZM217.286 53.245C216.028 53.245 214.942 52.9837 214.027 52.4609C213.118 51.9328 212.418 51.1868 211.928 50.223C211.438 49.2538 211.193 48.113 211.193 46.8008C211.193 45.5103 211.438 44.3777 211.928 43.4031C212.424 42.4229 213.115 41.6606 214.003 41.1161C214.89 40.5662 215.933 40.2912 217.131 40.2912C217.904 40.2912 218.634 40.4164 219.32 40.6669C220.011 40.9119 220.621 41.2931 221.149 41.8104C221.683 42.3277 222.102 42.9865 222.407 43.7869C222.712 44.5819 222.865 45.5294 222.865 46.6293V47.5359H212.582V45.543H220.03C220.025 44.9767 219.902 44.473 219.663 44.032C219.423 43.5855 219.088 43.2343 218.658 42.9783C218.234 42.7224 217.738 42.5945 217.172 42.5945C216.567 42.5945 216.036 42.7415 215.579 43.0355C215.122 43.3241 214.765 43.7053 214.509 44.179C214.259 44.6473 214.131 45.1618 214.125 45.7227V47.4624C214.125 48.192 214.259 48.8182 214.525 49.3409C214.792 49.8582 215.165 50.2557 215.644 50.5334C216.124 50.8056 216.684 50.9418 217.327 50.9418C217.757 50.9418 218.146 50.8819 218.495 50.7621C218.843 50.6368 219.146 50.4544 219.402 50.2148C219.657 49.9753 219.851 49.6785 219.981 49.3246L222.742 49.6349C222.568 50.3646 222.236 51.0017 221.746 51.5462C221.261 52.0852 220.64 52.5045 219.883 52.804C219.127 53.098 218.261 53.245 217.286 53.245ZM230.132 57.9659C229.07 57.9659 228.158 57.8216 227.396 57.533C226.633 57.2499 226.021 56.8687 225.558 56.3896C225.095 55.9104 224.774 55.3795 224.594 54.7969L227.257 54.1516C227.377 54.3967 227.551 54.639 227.78 54.8786C228.008 55.1236 228.316 55.325 228.703 55.483C229.095 55.6463 229.587 55.728 230.181 55.728C231.019 55.728 231.714 55.5238 232.264 55.1154C232.814 54.7125 233.089 54.0482 233.089 53.1225V50.7457H232.942C232.789 51.0507 232.566 51.3638 232.272 51.685C231.983 52.0063 231.599 52.2758 231.12 52.4936C230.646 52.7114 230.05 52.8203 229.331 52.8203C228.368 52.8203 227.494 52.5943 226.71 52.1424C225.931 51.685 225.31 51.0044 224.847 50.1005C224.39 49.1912 224.161 48.0531 224.161 46.6864C224.161 45.3088 224.39 44.1463 224.847 43.1989C225.31 42.246 225.934 41.5245 226.718 41.0344C227.502 40.5389 228.376 40.2912 229.34 40.2912C230.075 40.2912 230.679 40.4164 231.153 40.6669C231.632 40.9119 232.013 41.2087 232.296 41.5572C232.579 41.9002 232.795 42.2242 232.942 42.5291H233.105V40.4545H236.021V53.2042C236.021 54.2769 235.765 55.1644 235.253 55.8668C234.741 56.5692 234.041 57.0947 233.154 57.4432C232.266 57.7917 231.259 57.9659 230.132 57.9659ZM230.156 50.5007C230.783 50.5007 231.316 50.3482 231.757 50.0433C232.198 49.7384 232.533 49.3001 232.762 48.7283C232.991 48.1566 233.105 47.4705 233.105 46.6701C233.105 45.8806 232.991 45.189 232.762 44.5955C232.539 44.002 232.206 43.5419 231.765 43.2152C231.33 42.883 230.793 42.717 230.156 42.717C229.498 42.717 228.948 42.8885 228.507 43.2315C228.065 43.5746 227.733 44.0456 227.51 44.6445C227.287 45.238 227.175 45.9132 227.175 46.6701C227.175 47.4379 227.287 48.1103 227.51 48.6875C227.739 49.2592 228.074 49.7057 228.515 50.027C228.961 50.3428 229.508 50.5007 230.156 50.5007ZM240.199 57.7045C239.796 57.7045 239.423 57.6719 239.08 57.6065C238.742 57.5466 238.473 57.4759 238.271 57.3942L238.957 55.0909C239.387 55.2161 239.771 55.276 240.109 55.2706C240.446 55.2652 240.743 55.159 240.999 54.9521C241.26 54.7506 241.481 54.413 241.661 53.9393L241.914 53.2614L237.364 40.4545H240.501L243.392 49.929H243.523L246.422 40.4545H249.567L244.544 54.5192C244.31 55.1835 243.999 55.7525 243.613 56.2262C243.226 56.7054 242.752 57.0702 242.192 57.3207C241.636 57.5766 240.972 57.7045 240.199 57.7045Z" fill="white"/>
<circle cx="401.473" cy="44.9468" r="22.4734" stroke="white"/>
<path d="M396.879 40.3521H404.919M404.919 40.3521V48.3928M404.919 40.3521L396.879 48.3928" stroke="white"/>
</svg>
