<svg width="76" height="76" viewBox="0 0 76 76" fill="none" xmlns="http://www.w3.org/2000/svg">
<g clip-path="url(#clip0_88_1147)">
<path d="M37.9417 64.3742C37.4582 64.3742 37.0664 63.9823 37.0664 63.4989V46.9275C37.0664 46.4441 37.4582 46.0522 37.9417 46.0522C38.4251 46.0522 38.8169 46.4441 38.8169 46.9275V63.4989C38.8169 63.9823 38.4251 64.3742 37.9417 64.3742Z" fill="#3C6A73"/>
<path d="M28.9558 61.34H25.4548C24.9714 61.34 24.5796 60.9481 24.5796 60.4647C24.5796 59.9813 24.9714 59.5895 25.4548 59.5895H28.9558C29.3741 59.5895 29.7144 59.2492 29.7144 58.8309V46.9275C29.7144 46.4441 30.1062 46.0522 30.5896 46.0522C31.0731 46.0522 31.4649 46.4441 31.4649 46.9275V58.8309C31.4649 60.2144 30.3393 61.34 28.9558 61.34Z" fill="#3C6A73"/>
<path d="M21.7203 54.8048H18.2192C17.7358 54.8048 17.344 54.4129 17.344 53.9295C17.344 53.4461 17.7358 53.0543 18.2192 53.0543H21.7203C22.1385 53.0543 22.4788 52.714 22.4788 52.2957V46.9275C22.4788 46.4441 22.8706 46.0522 23.3541 46.0522C23.8375 46.0522 24.2293 46.4441 24.2293 46.9275V52.2957C24.2293 53.6792 23.1037 54.8048 21.7203 54.8048Z" fill="#3C6A73"/>
<path d="M51.5955 61.34H46.9275C45.544 61.34 44.4185 60.2144 44.4185 58.8309V46.9275C44.4185 46.4441 44.8102 46.0522 45.2937 46.0522C45.7772 46.0522 46.169 46.4441 46.169 46.9275V58.8309C46.169 59.2492 46.5093 59.5895 46.9275 59.5895H51.5955C52.079 59.5895 52.4708 59.9813 52.4708 60.4647C52.4708 60.9481 52.079 61.34 51.5955 61.34Z" fill="#3C6A73"/>
<path d="M57.6639 54.8048H54.1629C52.7794 54.8048 51.6538 53.6792 51.6538 52.2957V46.9275C51.6538 46.4441 52.0456 46.0522 52.5291 46.0522C53.0125 46.0522 53.4043 46.4441 53.4043 46.9275V52.2957C53.4043 52.714 53.7446 53.0543 54.1629 53.0543H57.6639C58.1474 53.0543 58.5391 53.4461 58.5391 53.9295C58.5391 54.4129 58.1474 54.8048 57.6639 54.8048Z" fill="#3C6A73"/>
<path d="M37.9417 66.9998C39.2307 66.9998 40.2757 65.9548 40.2757 64.6658C40.2757 63.3768 39.2307 62.3318 37.9417 62.3318C36.6526 62.3318 35.6077 63.3768 35.6077 64.6658C35.6077 65.9548 36.6526 66.9998 37.9417 66.9998Z" fill="#EF0E0E"/>
<path d="M24.2876 62.7986C25.5767 62.7986 26.6216 61.7537 26.6216 60.4646C26.6216 59.1756 25.5767 58.1306 24.2876 58.1306C22.9986 58.1306 21.9536 59.1756 21.9536 60.4646C21.9536 61.7537 22.9986 62.7986 24.2876 62.7986Z" fill="#EF0E0E"/>
<path d="M17.0523 56.2635C18.3413 56.2635 19.3863 55.2185 19.3863 53.9295C19.3863 52.6404 18.3413 51.5955 17.0523 51.5955C15.7632 51.5955 14.7183 52.6404 14.7183 53.9295C14.7183 55.2185 15.7632 56.2635 17.0523 56.2635Z" fill="#EF0E0E"/>
<path d="M51.5955 62.7986C52.8845 62.7986 53.9295 61.7537 53.9295 60.4646C53.9295 59.1756 52.8845 58.1306 51.5955 58.1306C50.3064 58.1306 49.2615 59.1756 49.2615 60.4646C49.2615 61.7537 50.3064 62.7986 51.5955 62.7986Z" fill="#EF0E0E"/>
<path d="M58.8308 56.2635C60.1199 56.2635 61.1648 55.2185 61.1648 53.9295C61.1648 52.6404 60.1199 51.5955 58.8308 51.5955C57.5418 51.5955 56.4968 52.6404 56.4968 53.9295C56.4968 55.2185 57.5418 56.2635 58.8308 56.2635Z" fill="#EF0E0E"/>
<path d="M40.2162 65.1898C39.9793 66.2273 39.0503 66.9998 37.9417 66.9998C36.6521 66.9998 35.6077 65.9554 35.6077 64.6658C35.6077 63.5572 36.3802 62.6283 37.4177 62.3914C37.3792 62.5594 37.3582 62.7356 37.3582 62.9153C37.3582 64.2049 38.4026 65.2493 39.6922 65.2493C39.8719 65.2493 40.0481 65.2283 40.2162 65.1898Z" fill="#EF0E0E"/>
<path d="M26.5621 60.9887C26.3252 62.0261 25.3963 62.7987 24.2876 62.7987C22.9981 62.7987 21.9536 61.7542 21.9536 60.4647C21.9536 59.356 22.7262 58.4271 23.7636 58.1902C23.7251 58.3582 23.7041 58.5344 23.7041 58.7142C23.7041 60.0037 24.7486 61.0482 26.0381 61.0482C26.2178 61.0482 26.3941 61.0272 26.5621 60.9887Z" fill="#EF0E0E"/>
<path d="M19.3268 54.4535C19.0899 55.491 18.1609 56.2635 17.0523 56.2635C15.7627 56.2635 14.7183 55.2191 14.7183 53.9295C14.7183 52.8209 15.4908 51.8919 16.5283 51.655C16.4898 51.8231 16.4688 51.9993 16.4688 52.179C16.4688 53.4685 17.5132 54.513 18.8028 54.513C18.9825 54.513 19.1587 54.492 19.3268 54.4535Z" fill="#EF0E0E"/>
<path d="M53.87 60.9887C53.6331 62.0261 52.7041 62.7987 51.5955 62.7987C50.3059 62.7987 49.2615 61.7542 49.2615 60.4647C49.2615 59.356 50.034 58.4271 51.0715 58.1902C51.033 58.3582 51.012 58.5344 51.012 58.7142C51.012 60.0037 52.0564 61.0482 53.346 61.0482C53.5257 61.0482 53.7019 61.0272 53.87 60.9887Z" fill="#EF0E0E"/>
<path d="M61.1053 54.4535C60.8684 55.491 59.9395 56.2635 58.8308 56.2635C57.5413 56.2635 56.4968 55.2191 56.4968 53.9295C56.4968 52.8209 57.2694 51.8919 58.3068 51.655C58.2683 51.8231 58.2473 51.9993 58.2473 52.179C58.2473 53.4685 59.2918 54.513 60.5813 54.513C60.7611 54.513 60.9373 54.492 61.1053 54.4535Z" fill="#EF0E0E"/>
<path d="M18.4687 46.8857C16.6898 46.8824 14.9311 46.4085 13.4359 45.4435C10.7672 43.721 9 40.7192 9 37.3032C9 32.5133 12.4746 28.5377 17.0371 27.7619C17.1844 27.7368 17.2905 27.6084 17.2946 27.4592C17.5764 17.2167 25.9547 9 36.2508 9C44.4529 9 51.4378 14.2149 54.0826 21.5138C54.1287 21.6411 54.2496 21.7227 54.3849 21.7225H54.3873C61.3531 21.7225 67 27.3774 67 34.353C67 40.9147 62.0024 46.3047 55.6113 46.9214C55.3482 46.9468 18.4687 46.8857 18.4687 46.8857Z" fill="#282828"/>
<path d="M50.7635 15.7686C47.4702 13.0005 43.2223 11.334 38.5847 11.334C28.2882 11.334 19.9103 19.5509 19.6291 29.7936C19.6244 29.943 19.5182 30.0714 19.3711 30.0959C14.8082 30.872 11.334 34.8468 11.334 39.6373C11.334 41.7146 11.9875 43.639 13.102 45.2156C10.621 43.4662 9 40.5744 9 37.3033C9 32.5128 12.4742 28.5379 17.0371 27.7619C17.1842 27.7374 17.2904 27.609 17.2951 27.4596C17.5763 17.2169 25.9542 9 36.2507 9C42.0763 9 47.287 11.6304 50.7635 15.7686Z" fill="#EF0E0E"/>
</g>
<defs>
<clipPath id="clip0_88_1147">
<rect width="58" height="58" fill="white" transform="translate(9 9)"/>
</clipPath>
</defs>
</svg>
