<svg width="76" height="76" viewBox="0 0 76 76" fill="none" xmlns="http://www.w3.org/2000/svg">
<g clip-path="url(#clip0_88_1128)">
<path fill-rule="evenodd" clip-rule="evenodd" d="M23.459 29.981V27.6054H17.603L10.0329 20.0354C10.2451 19.5819 10.3577 19.083 10.3577 18.5677C10.3577 16.6533 8.79883 15.0957 6.88577 15.0957C4.97063 15.0957 3.41382 16.6533 3.41382 18.5677C3.41382 19.4949 3.7763 20.3666 4.43091 21.0219C5.08686 21.6779 5.95789 22.0389 6.88577 22.0389C7.40055 22.0389 7.8993 21.9269 8.35352 21.7154L16.2713 29.6332C16.494 29.8551 16.7965 29.981 17.1116 29.981H23.459ZM52.5422 29.981H58.8894C59.2045 29.981 59.5057 29.8551 59.7283 29.6332L67.6454 21.7154C68.0996 21.9269 68.5985 22.0389 69.1154 22.0389C71.029 22.0389 72.5858 20.4813 72.5858 18.5677C72.5858 16.6533 71.029 15.0957 69.1154 15.0957C67.2002 15.0957 65.6434 16.6533 65.6434 18.5677C65.6434 19.0832 65.7547 19.5819 65.9669 20.0354L58.3969 27.6054H52.5422V29.981ZM68.3391 19.3426C68.1324 19.136 68.0184 18.8605 68.0184 18.5677C68.0184 17.9632 68.5096 17.4707 69.1155 17.4707C69.72 17.4707 70.2111 17.9632 70.2111 18.5677C70.2111 19.1722 69.72 19.664 69.1155 19.664C68.8218 19.664 68.547 19.5499 68.3391 19.3426ZM52.5422 35.0099H65.8514C66.0218 35.4809 66.2945 35.9129 66.6598 36.2773C67.3165 36.9326 68.1873 37.2936 69.1154 37.2936C71.029 37.2936 72.5858 35.7368 72.5858 33.8224C72.5858 31.9088 71.029 30.3512 69.1154 30.3512C67.6176 30.3512 66.3384 31.3043 65.8527 32.6351H52.5422V35.0099ZM68.3391 34.598C68.1324 34.3906 68.0184 34.1153 68.0184 33.8224C68.0184 33.2178 68.5096 32.7261 69.1155 32.7261C69.72 32.7261 70.2111 33.2178 70.2111 33.8224C70.2111 34.427 69.72 34.9188 69.1155 34.9188C68.8218 34.9188 68.547 34.8054 68.3391 34.598ZM52.5422 41.334H58.3969L65.9669 48.904C65.7547 49.3582 65.6434 49.8563 65.6434 50.3725C65.6434 51.2998 66.0044 52.1714 66.6598 52.8267C67.3165 53.4827 68.1873 53.8437 69.1154 53.8437C71.029 53.8437 72.5858 52.2861 72.5858 50.3725C72.5858 48.4581 71.029 46.9013 69.1154 46.9013C68.5985 46.9013 68.0998 47.0126 67.6454 47.2247L59.7283 39.3069C59.5057 39.0842 59.2045 38.9591 58.8894 38.9591H52.5422V41.334ZM68.3391 51.1475C68.1324 50.9408 68.0184 50.6653 68.0184 50.3725C68.0184 50.0796 68.1326 49.8041 68.3391 49.5969C68.547 49.3895 68.8219 49.2763 69.1154 49.2763C69.7198 49.2763 70.211 49.768 70.211 50.3726C70.211 50.9772 69.7198 51.469 69.1154 51.469C68.8218 51.4688 68.547 51.3547 68.3391 51.1475ZM41.8412 45.6815H44.2162V51.617L51.7869 59.187C52.2411 58.9749 52.7399 58.8628 53.2547 58.8628C55.1698 58.8628 56.7266 60.4204 56.7266 62.3348C56.7266 64.2484 55.1698 65.806 53.2547 65.806C52.3287 65.806 51.4558 65.445 50.8012 64.7889C50.1452 64.1335 49.7841 63.2619 49.7841 62.3346C49.7841 61.8191 49.8954 61.3197 50.1075 60.8661L42.1904 52.9483C41.9672 52.7256 41.8412 52.4237 41.8412 52.1086V45.6815ZM52.4797 63.1096C52.6876 63.317 52.9624 63.431 53.2547 63.431C53.8606 63.431 54.3518 62.9392 54.3518 62.3346C54.3518 61.7294 53.8606 61.2382 53.2547 61.2382C52.9626 61.2382 52.6876 61.3516 52.4797 61.559C52.2738 61.7664 52.1591 62.0417 52.1591 62.3346C52.1591 62.6276 52.2738 62.9024 52.4797 63.1096ZM36.8124 45.6815V58.2756C35.4809 58.7619 34.5293 60.0405 34.5293 61.5381C34.5293 62.4654 34.8903 63.337 35.5464 63.9924C36.201 64.6483 37.0734 65.0094 37.9999 65.0094C39.915 65.0094 41.4719 63.4519 41.4719 61.5382C41.4719 60.0405 40.5189 58.762 39.1874 58.2757V45.6815H36.8124ZM36.9043 61.5382C36.9043 60.9331 37.3961 60.4411 37.9999 60.4411C38.6058 60.4411 39.097 60.9329 39.097 61.5382C39.097 62.1428 38.6058 62.6346 37.9999 62.6346C37.7078 62.6346 37.4315 62.5204 37.2249 62.3132C37.017 62.1059 36.9043 61.8311 36.9043 61.5382ZM30.4891 45.6815V51.617L22.9184 59.187C22.4641 58.9749 21.9652 58.8628 21.4506 58.8628C19.5355 58.8628 17.9787 60.4204 17.9787 62.3348C17.9787 63.262 18.3411 64.1337 18.9957 64.789C19.6518 65.445 20.5227 65.8061 21.4508 65.8061C23.3652 65.8061 24.9227 64.2486 24.9227 62.3349C24.9227 61.8194 24.81 61.32 24.5972 60.8664L32.5163 52.9486C32.7396 52.7259 32.8641 52.424 32.8641 52.1089V45.6815H30.4891ZM22.2255 61.559C22.4334 61.7664 22.5476 62.0417 22.5476 62.3346C22.5476 62.9392 22.0543 63.431 21.4505 63.431C21.1583 63.431 20.8813 63.3168 20.6755 63.1096C20.4675 62.9022 20.3534 62.6275 20.3534 62.3346C20.3534 61.7294 20.8459 61.2382 21.4505 61.2382C21.7427 61.2384 22.0188 61.3518 22.2255 61.559ZM23.459 38.959V41.334H17.603L10.0329 48.904C10.2451 49.3582 10.3577 49.8563 10.3577 50.3725C10.3577 52.2863 8.79883 53.8437 6.88577 53.8437C5.95774 53.8437 5.08686 53.4827 4.43091 52.8267C3.7763 52.1714 3.41397 51.2998 3.41397 50.3725C3.41397 48.4581 4.97078 46.9013 6.88592 46.9013C7.4007 46.9013 7.89945 47.0126 8.35367 47.2247L16.2715 39.3069C16.4941 39.0842 16.7966 38.9591 17.1118 38.9591H23.459V38.959ZM7.66076 49.5967C7.45414 49.3894 7.17804 49.2761 6.88577 49.2761C6.28193 49.2761 5.78882 49.7679 5.78882 50.3725C5.78882 50.6653 5.90282 50.9408 6.11093 51.1475C6.31755 51.3547 6.59365 51.4688 6.88592 51.4688C7.48976 51.4688 7.98302 50.9771 7.98302 50.3725C7.98287 50.0796 7.86813 49.8041 7.66076 49.5967ZM23.459 32.6349H10.9442C10.4587 31.3042 9.17928 30.3511 7.68303 30.3511C5.76789 30.3511 4.21108 31.9086 4.21108 33.8223C4.21108 34.7496 4.57148 35.6219 5.22743 36.2771C5.88411 36.9325 6.755 37.2935 7.68303 37.2935C9.17943 37.2935 10.4587 36.3411 10.9442 35.0098H23.459V32.6349ZM8.77865 33.8224C8.77865 34.427 8.28687 34.9188 7.68303 34.9188C7.38883 34.9188 7.11392 34.8054 6.9067 34.598C6.70008 34.3906 6.58608 34.1153 6.58608 33.8224C6.58608 33.2178 7.07726 32.7261 7.68303 32.7261C8.28687 32.7261 8.77865 33.2178 8.77865 33.8224ZM7.66076 19.3426C7.45414 19.5499 7.17804 19.664 6.88577 19.664C6.59365 19.664 6.3174 19.5499 6.11078 19.3426C5.90282 19.136 5.78867 18.8605 5.78867 18.5677C5.78867 17.9632 6.28178 17.4707 6.88562 17.4707C7.48947 17.4707 7.98272 17.9632 7.98272 18.5677C7.98287 18.8605 7.86813 19.1353 7.66076 19.3426Z" fill="#EF0E0E"/>
<path fill-rule="evenodd" clip-rule="evenodd" d="M23.1806 27.6054H17.603L10.0329 20.0354L10.0418 20.0164L9.75462 19.7292C9.96674 19.2757 10.0794 18.7768 10.0794 18.2614C10.0794 17.4385 9.79114 16.6816 9.31065 16.0859C8.68409 15.4736 7.82805 15.0957 6.88577 15.0957C4.97063 15.0957 3.41382 16.6533 3.41382 18.5677C3.41382 19.3692 3.68472 20.1294 4.18109 20.7439C4.83362 21.382 5.69293 21.7326 6.60745 21.7326C7.12223 21.7326 7.62098 21.6207 8.0752 21.4092L15.993 29.327C16.2157 29.5489 16.5182 29.6748 16.8333 29.6748H23.1805L23.1806 27.6054ZM52.5422 29.6749H58.611C58.9262 29.6749 59.2274 29.5491 59.45 29.3271L67.3671 21.4093C67.8213 21.6209 68.3202 21.7328 68.8369 21.7328C70.7506 21.7328 72.3074 20.1752 72.3074 18.2616C72.3074 17.4382 72.0191 16.6809 71.5386 16.085C70.9127 15.4733 70.0572 15.0957 69.1152 15.0957C67.2001 15.0957 65.6433 16.6533 65.6433 18.5677C65.6433 19.0832 65.7546 19.5819 65.9667 20.0354L58.3967 27.6054H52.542V29.6749H52.5422ZM68.0607 19.0364C67.8541 18.8298 67.7401 18.5543 67.7401 18.2614C67.7401 17.657 68.2313 17.1645 68.8372 17.1645C69.2325 17.1645 69.5792 17.3751 69.7719 17.6898C70.0385 17.8902 70.2111 18.2092 70.2111 18.5677C70.2111 19.1722 69.72 19.664 69.1155 19.664C68.8219 19.664 68.5472 19.5499 68.3392 19.3426C68.2768 19.2803 68.223 19.2117 68.1781 19.1383C68.1369 19.1072 68.0977 19.0734 68.0607 19.0364ZM52.5422 34.7037H65.5731C65.6108 34.8078 65.6534 34.9099 65.7009 35.0099H65.8514C65.9799 35.3651 66.1667 35.6982 66.4076 35.9969C67.0611 36.6359 67.9213 36.9874 68.8371 36.9874C70.7507 36.9874 72.3075 35.4306 72.3075 33.5162C72.3075 32.6933 72.0194 31.9362 71.5391 31.3406C70.9131 30.7288 70.0575 30.3511 69.1154 30.3511C67.6176 30.3511 66.3384 31.3042 65.8527 32.6349H52.5422V34.7037ZM68.0607 34.2918C67.8541 34.0844 67.7401 33.8091 67.7401 33.5162C67.7401 32.9116 68.2313 32.4198 68.8372 32.4198C69.2326 32.4198 69.5795 32.6303 69.7722 32.9452C70.0387 33.1453 70.2111 33.464 70.2111 33.8223C70.2111 34.4269 69.72 34.9186 69.1155 34.9186C68.8219 34.9186 68.5472 34.8052 68.3392 34.5979C68.2771 34.5355 68.2234 34.4669 68.1786 34.3938C68.1372 34.3629 68.0978 34.3289 68.0607 34.2918ZM52.5422 41.0277H58.1185L65.6885 48.5977L65.6798 48.6167L65.9669 48.9038C65.7547 49.358 65.6434 49.8562 65.6434 50.3723C65.6434 51.1736 65.913 51.9333 66.4091 52.5478C67.0625 53.1864 67.9219 53.5375 68.8371 53.5375C70.7507 53.5375 72.3075 51.9799 72.3075 50.0662C72.3075 49.243 72.0194 48.486 71.5391 47.8904C70.9131 47.2787 70.0575 46.9013 69.1152 46.9013C68.5984 46.9013 68.0996 47.0126 67.6452 47.2247L59.7282 39.3069C59.5055 39.0842 59.2043 38.9591 58.8892 38.9591H52.542V41.0277H52.5422ZM68.0607 50.8412C67.8541 50.6346 67.7401 50.3591 67.7401 50.0662C67.7401 49.7734 67.8542 49.4979 68.0607 49.2907C68.2687 49.0833 68.5436 48.97 68.8371 48.97C69.2325 48.97 69.5794 49.1805 69.7721 49.4953C70.0385 49.6954 70.211 50.0141 70.211 50.3725C70.211 50.9771 69.7198 51.4688 69.1154 51.4688C68.8218 51.4688 68.547 51.3547 68.3391 51.1475C68.2767 51.0851 68.2228 51.0165 68.178 50.9431C68.1369 50.912 68.0977 50.8782 68.0607 50.8412ZM42.0508 52.7809C41.9154 52.5845 41.8413 52.3505 41.8413 52.1089V45.6815H43.938V51.3107L44.2163 51.5891V51.617L51.7871 59.187C52.2413 58.9749 52.74 58.8628 53.2548 58.8628C54.1977 58.8628 55.0536 59.2406 55.6797 59.8523C56.1602 60.4481 56.4485 61.2053 56.4485 62.0285C56.4485 63.9422 54.8916 65.4997 52.9765 65.4997C52.0632 65.4997 51.2012 65.1484 50.5497 64.5091C50.0536 63.8947 49.7844 63.1354 49.7844 62.3346C49.7844 61.8191 49.8957 61.3197 50.1078 60.8661L49.8207 60.5789L49.8295 60.5599L42.0508 52.7809ZM52.2014 62.8035C52.2386 62.8408 52.2781 62.8748 52.3195 62.9059C52.3643 62.9791 52.4179 63.0474 52.4797 63.1097C52.6876 63.3171 52.9624 63.4311 53.2547 63.4311C53.8606 63.4311 54.3518 62.9393 54.3518 62.3348C54.3518 61.9763 54.1794 61.6579 53.9131 61.4578C53.7205 61.1427 53.373 60.9323 52.9765 60.9323C52.6844 60.9323 52.4095 61.0457 52.2015 61.2529C51.9956 61.4603 51.8809 61.7357 51.8809 62.0285C51.8807 62.3214 51.9955 62.5961 52.2014 62.8035ZM35.2948 63.7127C35.9463 64.3519 36.8075 64.7034 37.7216 64.7034C39.6367 64.7034 41.1935 63.1458 41.1935 61.2322C41.1935 60.4091 40.9056 59.6523 40.4254 59.0568C40.076 58.7152 39.6551 58.4466 39.1874 58.2757V58.0854C39.0967 58.043 39.0039 58.0042 38.9091 57.9696V45.6815H36.8124V58.2756C35.4809 58.7619 34.5293 60.0405 34.5293 61.5381C34.5293 62.3391 34.7987 63.0983 35.2948 63.7127ZM36.626 61.232C36.626 60.6268 37.1177 60.1349 37.7216 60.1349C38.1181 60.1349 38.4653 60.3454 38.6581 60.6605C38.9247 60.8608 39.097 61.1795 39.097 61.5381C39.097 62.1427 38.6058 62.6344 37.9999 62.6344C37.7078 62.6344 37.4315 62.5203 37.2249 62.3131C37.1623 62.2506 37.1082 62.1822 37.0634 62.1088C37.0224 62.078 36.9834 62.044 36.9466 62.007C36.7386 61.7996 36.626 61.5249 36.626 61.232ZM18.7458 64.511C19.3985 65.1491 20.2576 65.4999 21.1721 65.4999C23.0865 65.4999 24.6441 63.9423 24.6441 62.0287C24.6441 61.5131 24.5314 61.0138 24.3186 60.5602L32.2377 52.6424C32.461 52.4197 32.5855 52.1178 32.5855 51.8027V45.6815H30.4888V51.617L22.9181 59.187C22.4638 58.9749 21.9649 58.8628 21.4503 58.8628C19.5352 58.8628 17.9784 60.4204 17.9784 62.3348C17.9785 63.1363 18.2494 63.8963 18.7458 64.511ZM21.9471 61.2529C22.0098 61.3154 22.064 61.3842 22.1091 61.4576C22.1499 61.4885 22.1888 61.5222 22.2255 61.559C22.4334 61.7664 22.5476 62.0417 22.5476 62.3346C22.5476 62.9392 22.0543 63.431 21.4505 63.431C21.1583 63.431 20.8813 63.3168 20.6755 63.1096C20.6128 63.0471 20.5586 62.9785 20.5137 62.9052C20.4728 62.8743 20.4338 62.8403 20.3971 62.8034C20.1892 62.596 20.075 62.3212 20.075 62.0284C20.075 61.4232 20.5676 60.932 21.172 60.932C21.4644 60.9322 21.7405 61.0456 21.9471 61.2529ZM4.18109 52.5487C3.68487 51.934 3.41397 51.174 3.41397 50.3725C3.41397 48.4581 4.97078 46.9013 6.88592 46.9013C7.4007 46.9013 7.89945 47.0126 8.35367 47.2247L16.2715 39.3069C16.4941 39.0842 16.7966 38.9591 17.1118 38.9591H23.1806V41.0279H17.3246L9.75462 48.5979C9.96674 49.0521 10.0794 49.5503 10.0794 50.0664C10.0794 51.9802 8.52051 53.5376 6.60745 53.5376C5.69293 53.5375 4.83377 53.1868 4.18109 52.5487ZM7.38244 49.2907C7.17582 49.0833 6.89972 48.97 6.60745 48.97C6.00361 48.97 5.5105 49.4618 5.5105 50.0664C5.5105 50.3593 5.62465 50.6348 5.83261 50.8414C5.86912 50.878 5.90787 50.9117 5.94854 50.9425C5.99366 51.0162 6.04799 51.085 6.11093 51.1475C6.31755 51.3547 6.59365 51.4688 6.88592 51.4688C7.48976 51.4688 7.98302 50.9771 7.98302 50.3725C7.98302 50.0796 7.86828 49.8041 7.66091 49.5969C7.6241 49.5599 7.58491 49.5259 7.54394 49.4951C7.49882 49.4216 7.44494 49.353 7.38244 49.2907ZM10.8155 32.3287H10.666C10.5342 31.9676 10.3439 31.6345 10.1069 31.3404C9.48076 30.7287 8.62501 30.3511 7.68318 30.3511C5.76804 30.3511 4.21122 31.9086 4.21122 33.8223C4.21122 34.6231 4.48004 35.3828 4.97583 35.9973C5.6294 36.6359 6.4893 36.9874 7.40486 36.9874C8.90111 36.9874 10.1805 36.035 10.666 34.7037H23.1808V32.6349H10.9442C10.9062 32.5304 10.8632 32.4283 10.8155 32.3287ZM6.74624 34.3942C6.70497 34.3632 6.66549 34.329 6.62838 34.2918C6.42176 34.0844 6.30776 33.8091 6.30776 33.5162C6.30776 32.9116 6.79894 32.4198 7.40471 32.4198C7.79985 32.4198 8.1469 32.6305 8.33972 32.9453C8.60601 33.1456 8.77879 33.4641 8.77879 33.8223C8.77879 34.4269 8.28702 34.9186 7.68318 34.9186C7.38897 34.9186 7.11407 34.8052 6.90685 34.5979C6.84465 34.5358 6.79107 34.4674 6.74624 34.3942ZM5.94854 19.1375C5.90787 19.1068 5.86912 19.0731 5.83261 19.0364C5.62465 18.8298 5.5105 18.5543 5.5105 18.2614C5.5105 17.657 6.00361 17.1645 6.60745 17.1645C7.00259 17.1645 7.35038 17.3754 7.54365 17.6908C7.80994 17.8912 7.98287 18.2098 7.98287 18.5677C7.98287 18.8605 7.86813 19.1353 7.66076 19.3426C7.45414 19.5499 7.17804 19.664 6.88577 19.664C6.59365 19.664 6.3174 19.5499 6.11078 19.3426C6.04799 19.28 5.99366 19.2113 5.94854 19.1375Z" fill="#EF0E0E"/>
<path fill-rule="evenodd" clip-rule="evenodd" d="M29.8521 21.107C29.8521 16.6135 33.5069 12.9579 38.0003 12.9579C42.493 12.9579 46.1486 16.6135 46.1486 21.107V23.0325H48.9127V21.107C48.9127 15.0898 44.0168 10.1938 38.0003 10.1938C31.9831 10.1938 27.0872 15.0898 27.0872 21.107V23.0325H29.8521V21.107Z" fill="black"/>
<path fill-rule="evenodd" clip-rule="evenodd" d="M33.6352 14.2286C34.8978 13.4244 36.3955 12.9578 38.0003 12.9578C42.493 12.9578 46.1486 16.6134 46.1486 21.1069V23.0324H48.2325V21.4956C48.2325 15.4784 43.3366 10.5825 37.3201 10.5825C35.4975 10.5825 33.7781 11.0323 32.2663 11.8258C29.1605 13.7518 27.0872 17.1917 27.0872 21.107V23.0326H29.1718V21.4958C29.1718 18.3275 30.9887 15.5761 33.6352 14.2286Z" fill="#282828"/>
<path fill-rule="evenodd" clip-rule="evenodd" d="M48.6317 22.0237C51.2857 22.0237 53.4424 24.1814 53.4424 26.8353V41.8987C53.4424 44.5526 51.2854 46.7094 48.6317 46.7094H27.3687C24.7145 46.7094 22.5571 44.5531 22.5571 41.8987V26.8353C22.5571 24.1809 24.7144 22.0237 27.3687 22.0237H48.6317Z" fill="#080808"/>
<path fill-rule="evenodd" clip-rule="evenodd" d="M50.8376 46.1733C50.1766 46.5156 49.4264 46.7094 48.6317 46.7094H27.3687C24.7145 46.7094 22.5571 44.553 22.5571 41.8986V26.8352C22.5571 25.74 22.9247 24.7296 23.5426 23.9202C24.2037 23.5777 24.9541 23.384 25.749 23.384H47.0119C49.666 23.384 51.8226 25.5419 51.8226 28.1956V43.2591C51.8228 44.3539 51.4554 45.3642 50.8376 46.1733Z" fill="#282828"/>
<path fill-rule="evenodd" clip-rule="evenodd" d="M39.2164 36.3655V32.3682C39.2164 31.6972 38.6713 31.1521 38.0001 31.1521C37.3286 31.1521 36.7839 31.6967 36.7839 32.3682V36.3655C36.7839 37.0375 37.3283 37.5817 38.0001 37.5817C38.6716 37.5817 39.2164 37.0371 39.2164 36.3655Z" fill="#080808"/>
<rect x="36.8125" y="32.0625" width="2.375" height="5.9375" fill="white"/>
</g>
<defs>
<clipPath id="clip0_88_1128">
<rect width="76" height="76" fill="white"/>
</clipPath>
</defs>
</svg>
