<svg width="76" height="76" viewBox="0 0 76 76" fill="none" xmlns="http://www.w3.org/2000/svg">
<path d="M51.1234 63.3424C43.6318 63.3424 34.0218 58.6924 25.6776 50.4258C20.2776 45.262 16.2015 38.8731 13.7943 31.7999C11.7276 25.1091 12.5026 19.5291 15.9643 16.0674C22.8876 9.04077 38.0001 13.3033 50.3226 25.6774C55.7226 30.8412 59.7987 37.2301 62.2059 44.3033C64.2726 50.9941 63.4976 56.5741 60.0359 60.0358C58.8483 61.1569 57.4472 62.0274 55.916 62.5955C54.3848 63.1636 52.7549 63.4176 51.1234 63.3424ZM24.8509 16.5324C23.7334 16.4688 22.6145 16.6278 21.559 17.0004C20.5035 17.3729 19.5326 17.9514 18.7026 18.7024C16.3001 21.1049 15.8868 25.3158 17.4884 30.5599C19.7239 37.0236 23.4702 42.8601 28.4159 47.5841C38.7493 58.0466 52.1051 62.4899 57.2976 57.2974C59.7001 54.8949 60.1134 50.6841 58.5118 45.4399C56.2763 38.9763 52.5299 33.1398 47.5843 28.4158C40.1184 20.9241 31.2059 16.5324 24.8509 16.5324Z" fill="#EF0E0E"/>
<path d="M24.8768 63.3425C23.2453 63.4177 21.6154 63.1636 20.0842 62.5955C18.553 62.0274 17.1519 61.1569 15.9643 60.0358C12.5026 56.5741 11.7276 50.9941 13.7943 44.3033C16.2015 37.2302 20.2776 30.8412 25.6776 25.6775C38.0001 13.3033 53.1126 9.04081 60.0359 15.9641C63.4976 19.4258 64.2726 25.0058 62.2059 31.6966C59.7987 38.7698 55.7226 45.1587 50.3226 50.3225C41.9784 58.6666 32.3684 63.3425 24.8768 63.3425ZM51.1493 16.5325C44.7943 16.5325 35.8818 20.9241 28.4159 28.4158C23.4702 33.1398 19.7239 38.9763 17.4884 45.44C15.8868 50.6066 16.3001 54.895 18.7026 57.2975C23.8693 62.4641 37.1218 58.0466 47.5843 47.5841C52.5299 42.8601 56.2763 37.0236 58.5118 30.56C60.1134 25.3933 59.7001 21.105 57.2976 18.7025C56.4676 17.9515 55.4967 17.3729 54.4412 17.0004C53.3857 16.6279 52.2668 16.4688 51.1493 16.5325Z" fill="#282828"/>
<path d="M43.1667 36.0625H32.8333C30.3365 36.0625 28.3125 38.0865 28.3125 40.5833V43.1667C28.3125 45.6635 30.3365 47.6875 32.8333 47.6875H43.1667C45.6635 47.6875 47.6875 45.6635 47.6875 43.1667V40.5833C47.6875 38.0865 45.6635 36.0625 43.1667 36.0625Z" fill="#282828"/>
<path d="M43.1667 28.3125H32.8333C30.3365 28.3125 28.3125 30.3365 28.3125 32.8333V35.4167C28.3125 37.9135 30.3365 39.9375 32.8333 39.9375H43.1667C45.6635 39.9375 47.6875 37.9135 47.6875 35.4167V32.8333C47.6875 30.3365 45.6635 28.3125 43.1667 28.3125Z" fill="#EF0E0E"/>
</svg>
