<svg width="435" height="228" viewBox="0 0 435 228" fill="none" xmlns="http://www.w3.org/2000/svg">
<g filter="url(#filter0_d_88_1244)">
<rect width="275" height="68" transform="translate(80 72)" fill="white"/>
<path fill-rule="evenodd" clip-rule="evenodd" d="M135.993 98.75H127.523C123.583 98.757 120.389 101.87 120.383 105.713C120.377 109.565 123.573 112.692 127.523 112.697H136V113.309C136 120.027 131.927 123.999 125.035 123.999H106.967C100.073 124 96 120.028 96 113.31V98.676C96 91.957 100.073 88 106.967 88H125.027C131.92 88 135.993 91.957 135.993 98.676V98.75ZM105.479 98.735H116.78C117.625 98.731 118.307 98.06 118.304 97.235C118.3 96.412 117.611 95.746 116.766 95.75H105.48C104.641 95.753 103.96 96.417 103.957 97.237C103.953 98.06 104.635 98.731 105.479 98.735Z" fill="#282828"/>
<path d="M124.075 106.593C124.493 108.495 126.161 109.833 128.065 109.799H134.565C135.357 109.799 136 109.143 136 108.332V103.269C135.998 102.459 135.357 101.802 134.565 101.799H127.912C125.746 101.807 123.997 103.605 124 105.82C124 106.08 124.026 106.339 124.075 106.593Z" fill="#EF0E0E"/>
<path d="M157.928 112.24C156.776 112.24 155.795 111.989 154.984 111.488C154.173 110.981 153.552 110.277 153.12 109.376C152.693 108.475 152.48 107.429 152.48 106.24C152.48 105.051 152.693 104.005 153.12 103.104C153.552 102.203 154.173 101.501 154.984 101C155.795 100.493 156.776 100.24 157.928 100.24C159.075 100.24 160.053 100.493 160.864 101C161.68 101.501 162.301 102.203 162.728 103.104C163.155 104.005 163.368 105.051 163.368 106.24C163.368 107.429 163.155 108.475 162.728 109.376C162.301 110.277 161.68 110.981 160.864 111.488C160.053 111.989 159.075 112.24 157.928 112.24ZM157.928 110.648C158.744 110.659 159.421 110.48 159.96 110.112C160.504 109.739 160.912 109.221 161.184 108.56C161.456 107.893 161.592 107.12 161.592 106.24C161.592 105.36 161.456 104.592 161.184 103.936C160.912 103.275 160.504 102.76 159.96 102.392C159.421 102.024 158.744 101.837 157.928 101.832C157.112 101.821 156.432 102 155.888 102.368C155.349 102.736 154.944 103.253 154.672 103.92C154.4 104.587 154.261 105.36 154.256 106.24C154.251 107.12 154.384 107.891 154.656 108.552C154.928 109.208 155.336 109.72 155.88 110.088C156.429 110.456 157.112 110.643 157.928 110.648ZM168.22 112.232C167.622 112.232 167.121 112.136 166.716 111.944C166.31 111.752 165.98 111.501 165.724 111.192C165.473 110.877 165.281 110.536 165.148 110.168C165.014 109.8 164.924 109.44 164.876 109.088C164.828 108.736 164.804 108.427 164.804 108.16L164.804 103.36L166.5 103.36L166.5 107.608C166.5 107.944 166.526 108.291 166.58 108.648C166.638 109 166.745 109.328 166.9 109.632C167.06 109.936 167.281 110.181 167.564 110.368C167.852 110.555 168.225 110.648 168.684 110.648C168.982 110.648 169.265 110.6 169.532 110.504C169.798 110.403 170.03 110.243 170.228 110.024C170.43 109.805 170.588 109.517 170.7 109.16C170.817 108.803 170.876 108.368 170.876 107.856L171.916 108.248C171.916 109.032 171.769 109.725 171.476 110.328C171.182 110.925 170.761 111.392 170.212 111.728C169.662 112.064 168.998 112.232 168.22 112.232ZM171.076 112L171.076 109.504L170.876 109.504L170.876 103.36L172.564 103.36L172.564 112L171.076 112ZM179.752 112C179.208 112.107 178.674 112.152 178.152 112.136C177.629 112.12 177.162 112.019 176.752 111.832C176.341 111.645 176.032 111.352 175.824 110.952C175.637 110.595 175.536 110.232 175.52 109.864C175.509 109.491 175.504 109.069 175.504 108.6L175.504 100.96L177.184 100.96L177.184 108.52C177.184 108.867 177.186 109.168 177.192 109.424C177.202 109.68 177.258 109.896 177.36 110.072C177.552 110.403 177.856 110.592 178.272 110.64C178.693 110.683 179.186 110.664 179.752 110.584L179.752 112ZM173.848 104.704L173.848 103.36L179.752 103.36L179.752 104.704L173.848 104.704ZM184.879 112.24C183.993 112.24 183.241 112.043 182.623 111.648C182.004 111.253 181.529 110.712 181.199 110.024C180.873 109.336 180.708 108.555 180.703 107.68C180.708 106.789 180.879 106.003 181.215 105.32C181.551 104.632 182.031 104.093 182.655 103.704C183.279 103.315 184.028 103.12 184.903 103.12C185.847 103.12 186.652 103.355 187.319 103.824C187.991 104.293 188.433 104.936 188.647 105.752L186.983 106.232C186.817 105.747 186.545 105.371 186.167 105.104C185.793 104.832 185.364 104.696 184.879 104.696C184.329 104.696 183.879 104.827 183.527 105.088C183.175 105.344 182.913 105.696 182.743 106.144C182.572 106.592 182.484 107.104 182.479 107.68C182.484 108.571 182.687 109.291 183.087 109.84C183.492 110.389 184.089 110.664 184.879 110.664C185.417 110.664 185.852 110.541 186.183 110.296C186.519 110.045 186.775 109.688 186.951 109.224L188.647 109.624C188.364 110.467 187.897 111.115 187.247 111.568C186.596 112.016 185.807 112.24 184.879 112.24ZM193.794 112.24C192.93 112.24 192.181 112.045 191.546 111.656C190.911 111.267 190.421 110.731 190.074 110.048C189.733 109.36 189.562 108.568 189.562 107.672C189.562 106.771 189.738 105.979 190.09 105.296C190.442 104.608 190.935 104.075 191.57 103.696C192.205 103.312 192.946 103.12 193.794 103.12C194.658 103.12 195.407 103.315 196.042 103.704C196.677 104.093 197.167 104.629 197.514 105.312C197.861 105.995 198.034 106.781 198.034 107.672C198.034 108.573 197.858 109.368 197.506 110.056C197.159 110.739 196.669 111.275 196.034 111.664C195.399 112.048 194.653 112.24 193.794 112.24ZM193.794 110.664C194.621 110.664 195.237 110.387 195.642 109.832C196.053 109.272 196.258 108.552 196.258 107.672C196.258 106.771 196.05 106.051 195.634 105.512C195.223 104.968 194.61 104.696 193.794 104.696C193.234 104.696 192.773 104.824 192.41 105.08C192.047 105.331 191.778 105.68 191.602 106.128C191.426 106.571 191.338 107.085 191.338 107.672C191.338 108.579 191.546 109.304 191.962 109.848C192.378 110.392 192.989 110.664 193.794 110.664ZM210.144 112L210.152 106.616C210.152 105.992 209.992 105.507 209.672 105.16C209.352 104.808 208.931 104.632 208.408 104.632C208.088 104.632 207.795 104.707 207.528 104.856C207.267 105 207.053 105.219 206.888 105.512C206.728 105.8 206.648 106.163 206.648 106.6L205.84 106.192C205.829 105.584 205.957 105.051 206.224 104.592C206.496 104.133 206.864 103.779 207.328 103.528C207.792 103.272 208.312 103.144 208.888 103.144C209.821 103.144 210.544 103.424 211.056 103.984C211.568 104.544 211.824 105.288 211.824 106.216L211.816 112L210.144 112ZM199.784 112L199.784 103.36L201.272 103.36L201.272 105.856L201.464 105.856L201.464 112L199.784 112ZM204.968 112L204.976 106.648C204.976 106.019 204.816 105.525 204.496 105.168C204.181 104.811 203.757 104.632 203.224 104.632C202.696 104.632 202.269 104.813 201.944 105.176C201.624 105.539 201.464 106.013 201.464 106.6L200.664 106.088C200.664 105.523 200.8 105.019 201.072 104.576C201.344 104.133 201.712 103.784 202.176 103.528C202.64 103.272 203.165 103.144 203.752 103.144C204.365 103.144 204.888 103.275 205.32 103.536C205.752 103.792 206.08 104.152 206.304 104.616C206.533 105.08 206.648 105.619 206.648 106.232L206.64 112L204.968 112ZM217.624 112.24C216.765 112.24 216.011 112.053 215.36 111.68C214.715 111.301 214.211 110.776 213.848 110.104C213.491 109.427 213.312 108.643 213.312 107.752C213.312 106.808 213.488 105.989 213.84 105.296C214.197 104.603 214.693 104.067 215.328 103.688C215.963 103.309 216.701 103.12 217.544 103.12C218.424 103.12 219.173 103.325 219.792 103.736C220.411 104.141 220.872 104.72 221.176 105.472C221.485 106.224 221.608 107.117 221.544 108.152L219.872 108.152L219.872 107.544C219.861 106.541 219.669 105.8 219.296 105.32C218.928 104.84 218.365 104.6 217.608 104.6C216.771 104.6 216.141 104.864 215.72 105.392C215.299 105.92 215.088 106.683 215.088 107.68C215.088 108.629 215.299 109.365 215.72 109.888C216.141 110.405 216.749 110.664 217.544 110.664C218.067 110.664 218.517 110.547 218.896 110.312C219.28 110.072 219.579 109.731 219.792 109.288L221.432 109.808C221.096 110.581 220.587 111.181 219.904 111.608C219.221 112.029 218.461 112.24 217.624 112.24ZM214.544 108.152L214.544 106.848L220.712 106.848L220.712 108.152L214.544 108.152ZM223.179 107.624L223.179 106.28L227.979 106.28L227.979 107.624L223.179 107.624ZM230.058 112L230.058 100.48L236.882 100.48L236.882 102.152L231.73 102.152L231.73 105.4L235.922 105.4L235.922 107.08L231.73 107.08L231.73 112L230.058 112ZM238.483 101.944L238.483 100.32L240.155 100.32L240.155 101.944L238.483 101.944ZM238.483 112L238.483 103.36L240.155 103.36L240.155 112L238.483 112ZM242.558 112L242.558 103.36L244.046 103.36L244.046 105.456L243.838 105.184C243.944 104.907 244.083 104.653 244.254 104.424C244.424 104.189 244.622 103.997 244.846 103.848C245.064 103.688 245.307 103.565 245.574 103.48C245.846 103.389 246.123 103.336 246.406 103.32C246.688 103.299 246.96 103.312 247.222 103.36L247.222 104.928C246.939 104.853 246.624 104.832 246.278 104.864C245.936 104.896 245.622 105.005 245.334 105.192C245.062 105.368 244.846 105.581 244.686 105.832C244.531 106.083 244.419 106.363 244.35 106.672C244.28 106.976 244.246 107.299 244.246 107.64L244.246 112L242.558 112ZM251.737 112.232C250.686 112.232 249.83 112 249.169 111.536C248.507 111.072 248.102 110.419 247.953 109.576L249.665 109.312C249.771 109.76 250.017 110.115 250.401 110.376C250.79 110.632 251.273 110.76 251.849 110.76C252.371 110.76 252.779 110.653 253.073 110.44C253.371 110.227 253.521 109.933 253.521 109.56C253.521 109.341 253.467 109.165 253.361 109.032C253.259 108.893 253.043 108.763 252.713 108.64C252.382 108.517 251.878 108.365 251.201 108.184C250.459 107.992 249.87 107.787 249.433 107.568C249.001 107.344 248.691 107.085 248.505 106.792C248.323 106.493 248.233 106.133 248.233 105.712C248.233 105.189 248.371 104.733 248.649 104.344C248.926 103.955 249.315 103.653 249.817 103.44C250.323 103.227 250.915 103.12 251.593 103.12C252.254 103.12 252.843 103.224 253.361 103.432C253.878 103.64 254.297 103.936 254.617 104.32C254.937 104.699 255.129 105.144 255.193 105.656L253.481 105.968C253.422 105.552 253.227 105.224 252.897 104.984C252.566 104.744 252.137 104.613 251.609 104.592C251.102 104.571 250.691 104.656 250.377 104.848C250.062 105.035 249.905 105.293 249.905 105.624C249.905 105.816 249.963 105.979 250.081 106.112C250.203 106.245 250.438 106.373 250.785 106.496C251.131 106.619 251.643 106.765 252.321 106.936C253.046 107.123 253.622 107.331 254.049 107.56C254.475 107.784 254.779 108.053 254.961 108.368C255.147 108.677 255.241 109.053 255.241 109.496C255.241 110.349 254.929 111.019 254.305 111.504C253.686 111.989 252.83 112.232 251.737 112.232ZM261.955 112C261.411 112.107 260.877 112.152 260.355 112.136C259.832 112.12 259.365 112.019 258.955 111.832C258.544 111.645 258.235 111.352 258.027 110.952C257.84 110.595 257.739 110.232 257.723 109.864C257.712 109.491 257.707 109.069 257.707 108.6L257.707 100.96L259.387 100.96L259.387 108.52C259.387 108.867 259.389 109.168 259.395 109.424C259.405 109.68 259.461 109.896 259.563 110.072C259.755 110.403 260.059 110.592 260.475 110.64C260.896 110.683 261.389 110.664 261.955 110.584L261.955 112ZM256.051 104.704L256.051 103.36L261.955 103.36L261.955 104.704L256.051 104.704ZM266.979 112L266.979 100.48L270.587 100.48C270.694 100.48 270.891 100.483 271.179 100.488C271.473 100.493 271.753 100.515 272.019 100.552C272.921 100.664 273.678 100.987 274.291 101.52C274.91 102.053 275.377 102.731 275.691 103.552C276.006 104.368 276.163 105.264 276.163 106.24C276.163 107.221 276.006 108.123 275.691 108.944C275.377 109.76 274.91 110.435 274.291 110.968C273.678 111.496 272.921 111.816 272.019 111.928C271.753 111.965 271.473 111.987 271.179 111.992C270.891 111.997 270.694 112 270.587 112L266.979 112ZM268.691 110.408L270.587 110.408C270.769 110.408 270.985 110.403 271.235 110.392C271.486 110.381 271.707 110.36 271.899 110.328C272.486 110.216 272.961 109.963 273.323 109.568C273.691 109.168 273.961 108.677 274.131 108.096C274.302 107.515 274.387 106.896 274.387 106.24C274.387 105.563 274.299 104.936 274.123 104.36C273.947 103.779 273.675 103.293 273.307 102.904C272.945 102.509 272.475 102.259 271.899 102.152C271.707 102.115 271.483 102.093 271.227 102.088C270.977 102.077 270.763 102.072 270.587 102.072L268.691 102.072L268.691 110.408ZM281.858 112.24C281 112.24 280.245 112.053 279.594 111.68C278.949 111.301 278.445 110.776 278.082 110.104C277.725 109.427 277.546 108.643 277.546 107.752C277.546 106.808 277.722 105.989 278.074 105.296C278.432 104.603 278.928 104.067 279.562 103.688C280.197 103.309 280.936 103.12 281.778 103.12C282.658 103.12 283.408 103.325 284.026 103.736C284.645 104.141 285.106 104.72 285.41 105.472C285.72 106.224 285.842 107.117 285.778 108.152L284.106 108.152L284.106 107.544C284.096 106.541 283.904 105.8 283.53 105.32C283.162 104.84 282.6 104.6 281.842 104.6C281.005 104.6 280.376 104.864 279.954 105.392C279.533 105.92 279.322 106.683 279.322 107.68C279.322 108.629 279.533 109.365 279.954 109.888C280.376 110.405 280.984 110.664 281.778 110.664C282.301 110.664 282.752 110.547 283.13 110.312C283.514 110.072 283.813 109.731 284.026 109.288L285.666 109.808C285.33 110.581 284.821 111.181 284.138 111.608C283.456 112.029 282.696 112.24 281.858 112.24ZM278.778 108.152L278.778 106.848L284.946 106.848L284.946 108.152L278.778 108.152ZM287.733 112L287.733 100.24L289.405 100.24L289.405 112L287.733 112ZM291.968 101.944L291.968 100.32L293.64 100.32L293.64 101.944L291.968 101.944ZM291.968 112L291.968 103.36L293.64 103.36L293.64 112L291.968 112ZM298.378 112L295.242 103.36L296.93 103.36L299.226 109.904L301.522 103.36L303.21 103.36L300.074 112L298.378 112ZM308.171 112.24C307.312 112.24 306.557 112.053 305.907 111.68C305.261 111.301 304.757 110.776 304.395 110.104C304.037 109.427 303.859 108.643 303.859 107.752C303.859 106.808 304.035 105.989 304.387 105.296C304.744 104.603 305.24 104.067 305.875 103.688C306.509 103.309 307.248 103.12 308.091 103.12C308.971 103.12 309.72 103.325 310.339 103.736C310.957 104.141 311.419 104.72 311.723 105.472C312.032 106.224 312.155 107.117 312.091 108.152L310.419 108.152L310.419 107.544C310.408 106.541 310.216 105.8 309.843 105.32C309.475 104.84 308.912 104.6 308.155 104.6C307.317 104.6 306.688 104.864 306.267 105.392C305.845 105.92 305.635 106.683 305.635 107.68C305.635 108.629 305.845 109.365 306.267 109.888C306.688 110.405 307.296 110.664 308.091 110.664C308.613 110.664 309.064 110.547 309.443 110.312C309.827 110.072 310.125 109.731 310.339 109.288L311.979 109.808C311.643 110.581 311.133 111.181 310.451 111.608C309.768 112.029 309.008 112.24 308.171 112.24ZM305.091 108.152L305.091 106.848L311.259 106.848L311.259 108.152L305.091 108.152ZM313.886 112L313.886 103.36L315.374 103.36L315.374 105.456L315.166 105.184C315.272 104.907 315.411 104.653 315.582 104.424C315.752 104.189 315.95 103.997 316.174 103.848C316.392 103.688 316.635 103.565 316.902 103.48C317.174 103.389 317.451 103.336 317.734 103.32C318.016 103.299 318.288 103.312 318.55 103.36L318.55 104.928C318.267 104.853 317.952 104.832 317.606 104.864C317.264 104.896 316.95 105.005 316.662 105.192C316.39 105.368 316.174 105.581 316.014 105.832C315.859 106.083 315.747 106.363 315.678 106.672C315.608 106.976 315.574 107.299 315.574 107.64L315.574 112L313.886 112ZM321.022 115.84L322.694 111.288L322.718 112.632L318.95 103.36L320.694 103.36L323.51 110.52L322.998 110.52L325.686 103.36L327.382 103.36L322.614 115.84L321.022 115.84Z" fill="black"/>
</g>
<defs>
<filter id="filter0_d_88_1244" x="0" y="0" width="435" height="228" filterUnits="userSpaceOnUse" color-interpolation-filters="sRGB">
<feFlood flood-opacity="0" result="BackgroundImageFix"/>
<feColorMatrix in="SourceAlpha" type="matrix" values="0 0 0 0 0 0 0 0 0 0 0 0 0 0 0 0 0 0 127 0" result="hardAlpha"/>
<feOffset dy="8"/>
<feGaussianBlur stdDeviation="40"/>
<feComposite in2="hardAlpha" operator="out"/>
<feColorMatrix type="matrix" values="0 0 0 0 0.570833 0 0 0 0 0.570833 0 0 0 0 0.570833 0 0 0 0.32 0"/>
<feBlend mode="normal" in2="BackgroundImageFix" result="effect1_dropShadow_88_1244"/>
<feBlend mode="normal" in="SourceGraphic" in2="effect1_dropShadow_88_1244" result="shape"/>
</filter>
</defs>
</svg>
