<svg width="435" height="228" viewBox="0 0 435 228" fill="none" xmlns="http://www.w3.org/2000/svg">
<g filter="url(#filter0_d_88_1260)">
<rect width="275" height="68" transform="translate(80 72)" fill="white"/>
<path fill-rule="evenodd" clip-rule="evenodd" d="M135.993 98.75H127.523C123.583 98.757 120.389 101.87 120.383 105.713C120.377 109.565 123.573 112.692 127.523 112.697H136V113.309C136 120.027 131.927 123.999 125.035 123.999H106.967C100.073 124 96 120.028 96 113.31V98.676C96 91.957 100.073 88 106.967 88H125.027C131.92 88 135.993 91.957 135.993 98.676V98.75ZM105.479 98.735H116.78C117.625 98.731 118.307 98.06 118.304 97.235C118.3 96.412 117.611 95.746 116.766 95.75H105.48C104.641 95.753 103.96 96.417 103.957 97.237C103.953 98.06 104.635 98.731 105.479 98.735Z" fill="#282828"/>
<path d="M124.075 106.593C124.493 108.495 126.161 109.833 128.065 109.799H134.565C135.357 109.799 136 109.143 136 108.332V103.269C135.998 102.459 135.357 101.802 134.565 101.799H127.912C125.746 101.807 123.997 103.605 124 105.82C124 106.08 124.026 106.339 124.075 106.593Z" fill="#EF0E0E"/>
<path d="M152.32 112L156.064 100.48L158.472 100.48L162.216 112L160.48 112L157.032 101.488L157.464 101.488L154.056 112L152.32 112ZM154.264 109.4L154.264 107.832L160.28 107.832L160.28 109.4L154.264 109.4ZM163.811 112L163.811 100.48L165.483 100.48L165.483 112L163.811 112ZM173.889 109.864L173.889 106.904L170.929 106.904L170.929 105.56L173.889 105.56L173.889 102.616L175.233 102.616L175.233 105.56L178.185 105.56L178.185 106.904L175.233 106.904L175.233 109.864L173.889 109.864ZM183.464 112L183.464 100.48L185.136 100.48L185.136 105.448L190.896 105.448L190.896 100.48L192.576 100.48L192.576 112L190.896 112L190.896 107.024L185.136 107.024L185.136 112L183.464 112ZM198.079 112.232C197.482 112.232 196.98 112.136 196.575 111.944C196.17 111.752 195.839 111.501 195.583 111.192C195.332 110.877 195.14 110.536 195.007 110.168C194.874 109.8 194.783 109.44 194.735 109.088C194.687 108.736 194.663 108.427 194.663 108.16L194.663 103.36L196.359 103.36L196.359 107.608C196.359 107.944 196.386 108.291 196.439 108.648C196.498 109 196.604 109.328 196.759 109.632C196.919 109.936 197.14 110.181 197.423 110.368C197.711 110.555 198.084 110.648 198.543 110.648C198.842 110.648 199.124 110.6 199.391 110.504C199.658 110.403 199.89 110.243 200.087 110.024C200.29 109.805 200.447 109.517 200.559 109.16C200.676 108.803 200.735 108.368 200.735 107.856L201.775 108.248C201.775 109.032 201.628 109.725 201.335 110.328C201.042 110.925 200.62 111.392 200.071 111.728C199.522 112.064 198.858 112.232 198.079 112.232ZM200.935 112L200.935 109.504L200.735 109.504L200.735 103.36L202.423 103.36L202.423 112L200.935 112ZM215.019 112L215.027 106.616C215.027 105.992 214.867 105.507 214.547 105.16C214.227 104.808 213.806 104.632 213.283 104.632C212.963 104.632 212.67 104.707 212.403 104.856C212.142 105 211.928 105.219 211.763 105.512C211.603 105.8 211.523 106.163 211.523 106.6L210.715 106.192C210.704 105.584 210.832 105.051 211.099 104.592C211.371 104.133 211.739 103.779 212.203 103.528C212.667 103.272 213.187 103.144 213.763 103.144C214.696 103.144 215.419 103.424 215.931 103.984C216.443 104.544 216.699 105.288 216.699 106.216L216.691 112L215.019 112ZM204.659 112L204.659 103.36L206.147 103.36L206.147 105.856L206.339 105.856L206.339 112L204.659 112ZM209.843 112L209.851 106.648C209.851 106.019 209.691 105.525 209.371 105.168C209.056 104.811 208.632 104.632 208.099 104.632C207.571 104.632 207.144 104.813 206.819 105.176C206.499 105.539 206.339 106.013 206.339 106.6L205.539 106.088C205.539 105.523 205.675 105.019 205.947 104.576C206.219 104.133 206.587 103.784 207.051 103.528C207.515 103.272 208.04 103.144 208.627 103.144C209.24 103.144 209.763 103.275 210.195 103.536C210.627 103.792 210.955 104.152 211.179 104.616C211.408 105.08 211.523 105.619 211.523 106.232L211.515 112L209.843 112ZM221.216 112.24C220.576 112.24 220.04 112.123 219.608 111.888C219.176 111.648 218.848 111.333 218.624 110.944C218.406 110.549 218.296 110.117 218.296 109.648C218.296 109.211 218.374 108.827 218.528 108.496C218.683 108.165 218.912 107.885 219.216 107.656C219.52 107.421 219.894 107.232 220.336 107.088C220.72 106.976 221.155 106.877 221.64 106.792C222.126 106.707 222.635 106.627 223.168 106.552C223.707 106.477 224.24 106.403 224.768 106.328L224.16 106.664C224.171 105.987 224.027 105.485 223.728 105.16C223.435 104.829 222.928 104.664 222.208 104.664C221.755 104.664 221.339 104.771 220.96 104.984C220.582 105.192 220.318 105.539 220.168 106.024L218.608 105.544C218.822 104.803 219.227 104.213 219.824 103.776C220.427 103.339 221.227 103.12 222.224 103.12C222.998 103.12 223.67 103.253 224.24 103.52C224.816 103.781 225.238 104.197 225.504 104.768C225.643 105.051 225.728 105.349 225.76 105.664C225.792 105.979 225.808 106.317 225.808 106.68L225.808 112L224.328 112L224.328 110.024L224.616 110.28C224.259 110.941 223.803 111.435 223.248 111.76C222.699 112.08 222.022 112.24 221.216 112.24ZM221.512 110.872C221.987 110.872 222.395 110.789 222.736 110.624C223.078 110.453 223.352 110.237 223.56 109.976C223.768 109.715 223.904 109.443 223.968 109.16C224.059 108.904 224.11 108.616 224.12 108.296C224.136 107.976 224.144 107.72 224.144 107.528L224.688 107.728C224.16 107.808 223.68 107.88 223.248 107.944C222.816 108.008 222.424 108.072 222.072 108.136C221.726 108.195 221.416 108.267 221.144 108.352C220.915 108.432 220.71 108.528 220.528 108.64C220.352 108.752 220.211 108.888 220.104 109.048C220.003 109.208 219.952 109.403 219.952 109.632C219.952 109.856 220.008 110.064 220.12 110.256C220.232 110.443 220.403 110.592 220.632 110.704C220.862 110.816 221.155 110.872 221.512 110.872ZM233.95 112L233.95 107.752C233.95 107.416 233.92 107.072 233.862 106.72C233.808 106.363 233.702 106.032 233.542 105.728C233.387 105.424 233.166 105.179 232.878 104.992C232.595 104.805 232.224 104.712 231.766 104.712C231.467 104.712 231.184 104.763 230.918 104.864C230.651 104.96 230.416 105.117 230.214 105.336C230.016 105.555 229.859 105.843 229.742 106.2C229.63 106.557 229.574 106.992 229.574 107.504L228.534 107.112C228.534 106.328 228.68 105.637 228.974 105.04C229.267 104.437 229.688 103.968 230.238 103.632C230.787 103.296 231.451 103.128 232.23 103.128C232.827 103.128 233.328 103.224 233.734 103.416C234.139 103.608 234.467 103.861 234.718 104.176C234.974 104.485 235.168 104.824 235.302 105.192C235.435 105.56 235.526 105.92 235.574 106.272C235.622 106.624 235.646 106.933 235.646 107.2L235.646 112L233.95 112ZM227.878 112L227.878 103.36L229.374 103.36L229.374 105.856L229.574 105.856L229.574 112L227.878 112ZM241.093 112L241.093 100.48L242.765 100.48L242.765 112L241.093 112ZM251.231 112L251.231 107.752C251.231 107.416 251.202 107.072 251.143 106.72C251.09 106.363 250.983 106.032 250.823 105.728C250.668 105.424 250.447 105.179 250.159 104.992C249.876 104.805 249.506 104.712 249.047 104.712C248.748 104.712 248.466 104.763 248.199 104.864C247.932 104.96 247.698 105.117 247.495 105.336C247.298 105.555 247.14 105.843 247.023 106.2C246.911 106.557 246.855 106.992 246.855 107.504L245.815 107.112C245.815 106.328 245.962 105.637 246.255 105.04C246.548 104.437 246.97 103.968 247.519 103.632C248.068 103.296 248.732 103.128 249.511 103.128C250.108 103.128 250.61 103.224 251.015 103.416C251.42 103.608 251.748 103.861 251.999 104.176C252.255 104.485 252.45 104.824 252.583 105.192C252.716 105.56 252.807 105.92 252.855 106.272C252.903 106.624 252.927 106.933 252.927 107.2L252.927 112L251.231 112ZM245.159 112L245.159 103.36L246.655 103.36L246.655 105.856L246.855 105.856L246.855 112L245.159 112ZM259.955 112C259.411 112.107 258.877 112.152 258.355 112.136C257.832 112.12 257.365 112.019 256.955 111.832C256.544 111.645 256.235 111.352 256.027 110.952C255.84 110.595 255.739 110.232 255.723 109.864C255.712 109.491 255.707 109.069 255.707 108.6L255.707 100.96L257.387 100.96L257.387 108.52C257.387 108.867 257.389 109.168 257.395 109.424C257.405 109.68 257.461 109.896 257.563 110.072C257.755 110.403 258.059 110.592 258.475 110.64C258.896 110.683 259.389 110.664 259.955 110.584L259.955 112ZM254.051 104.704L254.051 103.36L259.955 103.36L259.955 104.704L254.051 104.704ZM265.218 112.24C264.359 112.24 263.604 112.053 262.954 111.68C262.308 111.301 261.804 110.776 261.442 110.104C261.084 109.427 260.906 108.643 260.906 107.752C260.906 106.808 261.082 105.989 261.434 105.296C261.791 104.603 262.287 104.067 262.922 103.688C263.556 103.309 264.295 103.12 265.138 103.12C266.018 103.12 266.767 103.325 267.386 103.736C268.004 104.141 268.466 104.72 268.77 105.472C269.079 106.224 269.202 107.117 269.138 108.152L267.466 108.152L267.466 107.544C267.455 106.541 267.263 105.8 266.89 105.32C266.522 104.84 265.959 104.6 265.202 104.6C264.364 104.6 263.735 104.864 263.314 105.392C262.892 105.92 262.682 106.683 262.682 107.68C262.682 108.629 262.892 109.365 263.314 109.888C263.735 110.405 264.343 110.664 265.138 110.664C265.66 110.664 266.111 110.547 266.49 110.312C266.874 110.072 267.172 109.731 267.386 109.288L269.026 109.808C268.69 110.581 268.18 111.181 267.498 111.608C266.815 112.029 266.055 112.24 265.218 112.24ZM262.138 108.152L262.138 106.848L268.306 106.848L268.306 108.152L262.138 108.152ZM271.093 112L271.093 100.24L272.765 100.24L272.765 112L271.093 112ZM275.327 112L275.327 100.24L276.999 100.24L276.999 112L275.327 112ZM279.561 101.944L279.561 100.32L281.233 100.32L281.233 101.944L279.561 101.944ZM279.561 112L279.561 103.36L281.233 103.36L281.233 112L279.561 112ZM287.196 116.08C286.732 116.08 286.281 116.008 285.844 115.864C285.412 115.72 285.017 115.507 284.66 115.224C284.302 114.947 284.006 114.603 283.772 114.192L285.316 113.408C285.502 113.776 285.769 114.045 286.116 114.216C286.462 114.387 286.828 114.472 287.212 114.472C287.686 114.472 288.092 114.387 288.428 114.216C288.764 114.051 289.017 113.8 289.188 113.464C289.364 113.128 289.449 112.712 289.444 112.216L289.444 109.8L289.644 109.8L289.644 103.36L291.124 103.36L291.124 112.232C291.124 112.461 291.116 112.68 291.1 112.888C291.084 113.096 291.054 113.304 291.012 113.512C290.889 114.093 290.654 114.573 290.308 114.952C289.966 115.331 289.529 115.613 288.996 115.8C288.468 115.987 287.868 116.08 287.196 116.08ZM287.068 112.24C286.262 112.24 285.566 112.04 284.98 111.64C284.398 111.24 283.948 110.696 283.628 110.008C283.313 109.315 283.156 108.536 283.156 107.672C283.156 106.803 283.316 106.027 283.636 105.344C283.956 104.656 284.409 104.115 284.996 103.72C285.588 103.32 286.289 103.12 287.1 103.12C287.916 103.12 288.601 103.32 289.156 103.72C289.716 104.115 290.137 104.656 290.42 105.344C290.708 106.032 290.852 106.808 290.852 107.672C290.852 108.536 290.708 109.312 290.42 110C290.132 110.688 289.708 111.235 289.148 111.64C288.588 112.04 287.894 112.24 287.068 112.24ZM287.3 110.728C287.849 110.728 288.297 110.597 288.644 110.336C288.99 110.075 289.244 109.715 289.404 109.256C289.564 108.797 289.644 108.269 289.644 107.672C289.644 107.075 289.561 106.547 289.396 106.088C289.236 105.629 288.985 105.272 288.644 105.016C288.308 104.76 287.878 104.632 287.356 104.632C286.801 104.632 286.345 104.768 285.988 105.04C285.63 105.312 285.364 105.677 285.188 106.136C285.017 106.595 284.932 107.107 284.932 107.672C284.932 108.243 285.017 108.76 285.188 109.224C285.364 109.683 285.625 110.048 285.972 110.32C286.324 110.592 286.766 110.728 287.3 110.728ZM297.202 112.24C296.343 112.24 295.589 112.053 294.938 111.68C294.293 111.301 293.789 110.776 293.426 110.104C293.069 109.427 292.89 108.643 292.89 107.752C292.89 106.808 293.066 105.989 293.418 105.296C293.775 104.603 294.271 104.067 294.906 103.688C295.541 103.309 296.279 103.12 297.122 103.12C298.002 103.12 298.751 103.325 299.37 103.736C299.989 104.141 300.45 104.72 300.754 105.472C301.063 106.224 301.186 107.117 301.122 108.152L299.45 108.152L299.45 107.544C299.439 106.541 299.247 105.8 298.874 105.32C298.506 104.84 297.943 104.6 297.186 104.6C296.349 104.6 295.719 104.864 295.298 105.392C294.877 105.92 294.666 106.683 294.666 107.68C294.666 108.629 294.877 109.365 295.298 109.888C295.719 110.405 296.327 110.664 297.122 110.664C297.645 110.664 298.095 110.547 298.474 110.312C298.858 110.072 299.157 109.731 299.37 109.288L301.01 109.808C300.674 110.581 300.165 111.181 299.482 111.608C298.799 112.029 298.039 112.24 297.202 112.24ZM294.122 108.152L294.122 106.848L300.29 106.848L300.29 108.152L294.122 108.152ZM308.747 112L308.747 107.752C308.747 107.416 308.717 107.072 308.659 106.72C308.605 106.363 308.499 106.032 308.339 105.728C308.184 105.424 307.963 105.179 307.675 104.992C307.392 104.805 307.021 104.712 306.563 104.712C306.264 104.712 305.981 104.763 305.715 104.864C305.448 104.96 305.213 105.117 305.011 105.336C304.813 105.555 304.656 105.843 304.539 106.2C304.427 106.557 304.371 106.992 304.371 107.504L303.331 107.112C303.331 106.328 303.477 105.637 303.771 105.04C304.064 104.437 304.485 103.968 305.035 103.632C305.584 103.296 306.248 103.128 307.027 103.128C307.624 103.128 308.125 103.224 308.531 103.416C308.936 103.608 309.264 103.861 309.515 104.176C309.771 104.485 309.965 104.824 310.099 105.192C310.232 105.56 310.323 105.92 310.371 106.272C310.419 106.624 310.443 106.933 310.443 107.2L310.443 112L308.747 112ZM302.675 112L302.675 103.36L304.171 103.36L304.171 105.856L304.371 105.856L304.371 112L302.675 112ZM316.113 112.24C315.228 112.24 314.476 112.043 313.857 111.648C313.238 111.253 312.764 110.712 312.433 110.024C312.108 109.336 311.942 108.555 311.937 107.68C311.942 106.789 312.113 106.003 312.449 105.32C312.785 104.632 313.265 104.093 313.889 103.704C314.513 103.315 315.262 103.12 316.137 103.12C317.081 103.12 317.886 103.355 318.553 103.824C319.225 104.293 319.668 104.936 319.881 105.752L318.217 106.232C318.052 105.747 317.78 105.371 317.401 105.104C317.028 104.832 316.598 104.696 316.113 104.696C315.564 104.696 315.113 104.827 314.761 105.088C314.409 105.344 314.148 105.696 313.977 106.144C313.806 106.592 313.718 107.104 313.713 107.68C313.718 108.571 313.921 109.291 314.321 109.84C314.726 110.389 315.324 110.664 316.113 110.664C316.652 110.664 317.086 110.541 317.417 110.296C317.753 110.045 318.009 109.688 318.185 109.224L319.881 109.624C319.598 110.467 319.132 111.115 318.481 111.568C317.83 112.016 317.041 112.24 316.113 112.24ZM325.108 112.24C324.25 112.24 323.495 112.053 322.844 111.68C322.199 111.301 321.695 110.776 321.332 110.104C320.975 109.427 320.796 108.643 320.796 107.752C320.796 106.808 320.972 105.989 321.324 105.296C321.682 104.603 322.178 104.067 322.812 103.688C323.447 103.309 324.186 103.12 325.028 103.12C325.908 103.12 326.658 103.325 327.276 103.736C327.895 104.141 328.356 104.72 328.66 105.472C328.97 106.224 329.092 107.117 329.028 108.152L327.356 108.152L327.356 107.544C327.346 106.541 327.154 105.8 326.78 105.32C326.412 104.84 325.85 104.6 325.092 104.6C324.255 104.6 323.626 104.864 323.204 105.392C322.783 105.92 322.572 106.683 322.572 107.68C322.572 108.629 322.783 109.365 323.204 109.888C323.626 110.405 324.234 110.664 325.028 110.664C325.551 110.664 326.002 110.547 326.38 110.312C326.764 110.072 327.063 109.731 327.276 109.288L328.916 109.808C328.58 110.581 328.071 111.181 327.388 111.608C326.706 112.029 325.946 112.24 325.108 112.24ZM322.028 108.152L322.028 106.848L328.196 106.848L328.196 108.152L322.028 108.152Z" fill="black"/>
</g>
<defs>
<filter id="filter0_d_88_1260" x="0" y="0" width="435" height="228" filterUnits="userSpaceOnUse" color-interpolation-filters="sRGB">
<feFlood flood-opacity="0" result="BackgroundImageFix"/>
<feColorMatrix in="SourceAlpha" type="matrix" values="0 0 0 0 0 0 0 0 0 0 0 0 0 0 0 0 0 0 127 0" result="hardAlpha"/>
<feOffset dy="8"/>
<feGaussianBlur stdDeviation="40"/>
<feComposite in2="hardAlpha" operator="out"/>
<feColorMatrix type="matrix" values="0 0 0 0 0.570833 0 0 0 0 0.570833 0 0 0 0 0.570833 0 0 0 0.32 0"/>
<feBlend mode="normal" in2="BackgroundImageFix" result="effect1_dropShadow_88_1260"/>
<feBlend mode="normal" in="SourceGraphic" in2="effect1_dropShadow_88_1260" result="shape"/>
</filter>
</defs>
</svg>
