<svg width="485" height="228" viewBox="0 0 485 228" fill="none" xmlns="http://www.w3.org/2000/svg">
<g filter="url(#filter0_d_88_1252)">
<rect width="325" height="68" transform="translate(80 72)" fill="white"/>
<path fill-rule="evenodd" clip-rule="evenodd" d="M135.993 98.75H127.523C123.583 98.757 120.389 101.87 120.383 105.713C120.377 109.565 123.573 112.692 127.523 112.697H136V113.309C136 120.027 131.927 123.999 125.035 123.999H106.967C100.073 124 96 120.028 96 113.31V98.676C96 91.957 100.073 88 106.967 88H125.027C131.92 88 135.993 91.957 135.993 98.676V98.75ZM105.479 98.735H116.78C117.625 98.731 118.307 98.06 118.304 97.235C118.3 96.412 117.611 95.746 116.766 95.75H105.48C104.641 95.753 103.96 96.417 103.957 97.237C103.953 98.06 104.635 98.731 105.479 98.735Z" fill="#282828"/>
<path d="M124.075 106.593C124.493 108.495 126.161 109.833 128.065 109.799H134.565C135.357 109.799 136 109.143 136 108.332V103.269C135.998 102.459 135.357 101.802 134.565 101.799H127.912C125.746 101.807 123.997 103.605 124 105.82C124 106.08 124.026 106.339 124.075 106.593Z" fill="#EF0E0E"/>
<path d="M157.296 112.24C156.469 112.24 155.723 112.099 155.056 111.816C154.395 111.528 153.848 111.12 153.416 110.592C152.989 110.059 152.712 109.427 152.584 108.696L154.328 108.432C154.504 109.136 154.872 109.685 155.432 110.08C155.992 110.469 156.645 110.664 157.392 110.664C157.856 110.664 158.283 110.592 158.672 110.448C159.061 110.299 159.373 110.088 159.608 109.816C159.848 109.539 159.968 109.208 159.968 108.824C159.968 108.616 159.931 108.432 159.856 108.272C159.787 108.112 159.688 107.973 159.56 107.856C159.437 107.733 159.285 107.629 159.104 107.544C158.928 107.453 158.733 107.376 158.52 107.312L155.568 106.44C155.28 106.355 154.987 106.245 154.688 106.112C154.389 105.973 154.115 105.795 153.864 105.576C153.619 105.352 153.419 105.077 153.264 104.752C153.109 104.421 153.032 104.021 153.032 103.552C153.032 102.843 153.213 102.243 153.576 101.752C153.944 101.256 154.44 100.883 155.064 100.632C155.688 100.376 156.387 100.248 157.16 100.248C157.939 100.259 158.635 100.397 159.248 100.664C159.867 100.931 160.379 101.315 160.784 101.816C161.195 102.312 161.477 102.915 161.632 103.624L159.84 103.928C159.76 103.496 159.589 103.125 159.328 102.816C159.067 102.501 158.747 102.261 158.368 102.096C157.989 101.925 157.579 101.837 157.136 101.832C156.709 101.821 156.317 101.885 155.96 102.024C155.608 102.163 155.325 102.357 155.112 102.608C154.904 102.859 154.8 103.147 154.8 103.472C154.8 103.792 154.893 104.051 155.08 104.248C155.267 104.445 155.496 104.603 155.768 104.72C156.045 104.832 156.32 104.925 156.592 105L158.72 105.6C158.987 105.675 159.288 105.776 159.624 105.904C159.965 106.027 160.293 106.2 160.608 106.424C160.928 106.648 161.192 106.947 161.4 107.32C161.608 107.688 161.712 108.152 161.712 108.712C161.712 109.293 161.595 109.805 161.36 110.248C161.125 110.685 160.803 111.053 160.392 111.352C159.987 111.645 159.517 111.867 158.984 112.016C158.451 112.165 157.888 112.24 157.296 112.24ZM167.249 112.24C166.39 112.24 165.636 112.053 164.985 111.68C164.34 111.301 163.836 110.776 163.473 110.104C163.116 109.427 162.937 108.643 162.937 107.752C162.937 106.808 163.113 105.989 163.465 105.296C163.822 104.603 164.318 104.067 164.953 103.688C165.588 103.309 166.326 103.12 167.169 103.12C168.049 103.12 168.798 103.325 169.417 103.736C170.036 104.141 170.497 104.72 170.801 105.472C171.11 106.224 171.233 107.117 171.169 108.152L169.497 108.152L169.497 107.544C169.486 106.541 169.294 105.8 168.921 105.32C168.553 104.84 167.99 104.6 167.233 104.6C166.396 104.6 165.766 104.864 165.345 105.392C164.924 105.92 164.713 106.683 164.713 107.68C164.713 108.629 164.924 109.365 165.345 109.888C165.766 110.405 166.374 110.664 167.169 110.664C167.692 110.664 168.142 110.547 168.521 110.312C168.905 110.072 169.204 109.731 169.417 109.288L171.057 109.808C170.721 110.581 170.212 111.181 169.529 111.608C168.846 112.029 168.086 112.24 167.249 112.24ZM164.169 108.152L164.169 106.848L170.337 106.848L170.337 108.152L164.169 108.152ZM176.66 112.24C175.774 112.24 175.022 112.043 174.404 111.648C173.785 111.253 173.31 110.712 172.98 110.024C172.654 109.336 172.489 108.555 172.484 107.68C172.489 106.789 172.66 106.003 172.996 105.32C173.332 104.632 173.812 104.093 174.436 103.704C175.06 103.315 175.809 103.12 176.684 103.12C177.628 103.12 178.433 103.355 179.1 103.824C179.772 104.293 180.214 104.936 180.428 105.752L178.764 106.232C178.598 105.747 178.326 105.371 177.948 105.104C177.574 104.832 177.145 104.696 176.66 104.696C176.11 104.696 175.66 104.827 175.308 105.088C174.956 105.344 174.694 105.696 174.524 106.144C174.353 106.592 174.265 107.104 174.26 107.68C174.265 108.571 174.468 109.291 174.868 109.84C175.273 110.389 175.87 110.664 176.66 110.664C177.198 110.664 177.633 110.541 177.964 110.296C178.3 110.045 178.556 109.688 178.732 109.224L180.428 109.624C180.145 110.467 179.678 111.115 179.028 111.568C178.377 112.016 177.588 112.24 176.66 112.24ZM185.314 112.232C184.716 112.232 184.215 112.136 183.81 111.944C183.404 111.752 183.074 111.501 182.818 111.192C182.567 110.877 182.375 110.536 182.242 110.168C182.108 109.8 182.018 109.44 181.97 109.088C181.922 108.736 181.898 108.427 181.898 108.16L181.898 103.36L183.594 103.36L183.594 107.608C183.594 107.944 183.62 108.291 183.674 108.648C183.732 109 183.839 109.328 183.994 109.632C184.154 109.936 184.375 110.181 184.658 110.368C184.946 110.555 185.319 110.648 185.778 110.648C186.076 110.648 186.359 110.6 186.626 110.504C186.892 110.403 187.124 110.243 187.322 110.024C187.524 109.805 187.682 109.517 187.794 109.16C187.911 108.803 187.97 108.368 187.97 107.856L189.01 108.248C189.01 109.032 188.863 109.725 188.57 110.328C188.276 110.925 187.855 111.392 187.306 111.728C186.756 112.064 186.092 112.232 185.314 112.232ZM188.17 112L188.17 109.504L187.97 109.504L187.97 103.36L189.658 103.36L189.658 112L188.17 112ZM191.901 112L191.901 103.36L193.389 103.36L193.389 105.456L193.181 105.184C193.288 104.907 193.427 104.653 193.597 104.424C193.768 104.189 193.965 103.997 194.189 103.848C194.408 103.688 194.651 103.565 194.917 103.48C195.189 103.389 195.467 103.336 195.749 103.32C196.032 103.299 196.304 103.312 196.565 103.36L196.565 104.928C196.283 104.853 195.968 104.832 195.621 104.864C195.28 104.896 194.965 105.005 194.677 105.192C194.405 105.368 194.189 105.581 194.029 105.832C193.875 106.083 193.763 106.363 193.693 106.672C193.624 106.976 193.589 107.299 193.589 107.64L193.589 112L191.901 112ZM201.765 112.24C200.906 112.24 200.151 112.053 199.501 111.68C198.855 111.301 198.351 110.776 197.989 110.104C197.631 109.427 197.453 108.643 197.453 107.752C197.453 106.808 197.629 105.989 197.981 105.296C198.338 104.603 198.834 104.067 199.469 103.688C200.103 103.309 200.842 103.12 201.685 103.12C202.565 103.12 203.314 103.325 203.933 103.736C204.551 104.141 205.013 104.72 205.317 105.472C205.626 106.224 205.749 107.117 205.685 108.152L204.013 108.152L204.013 107.544C204.002 106.541 203.81 105.8 203.437 105.32C203.069 104.84 202.506 104.6 201.749 104.6C200.911 104.6 200.282 104.864 199.861 105.392C199.439 105.92 199.229 106.683 199.229 107.68C199.229 108.629 199.439 109.365 199.861 109.888C200.282 110.405 200.89 110.664 201.685 110.664C202.207 110.664 202.658 110.547 203.037 110.312C203.421 110.072 203.719 109.731 203.933 109.288L205.573 109.808C205.237 110.581 204.727 111.181 204.045 111.608C203.362 112.029 202.602 112.24 201.765 112.24ZM198.685 108.152L198.685 106.848L204.853 106.848L204.853 108.152L198.685 108.152ZM214.467 112.24C213.821 112.24 213.219 112.147 212.659 111.96C212.099 111.768 211.629 111.469 211.251 111.064C210.957 110.739 210.739 110.381 210.595 109.992C210.456 109.597 210.379 109.179 210.363 108.736C210.363 108.304 210.424 107.885 210.547 107.48C210.675 107.069 210.875 106.704 211.147 106.384C211.269 106.235 211.405 106.107 211.555 106C211.704 105.888 211.853 105.789 212.003 105.704C211.661 105.331 211.403 104.976 211.227 104.64C211.051 104.299 210.963 103.896 210.963 103.432C210.963 102.781 211.133 102.197 211.475 101.68C211.816 101.157 212.283 100.781 212.875 100.552C213.147 100.44 213.424 100.365 213.707 100.328C213.989 100.285 214.264 100.264 214.531 100.264C215.011 100.264 215.475 100.333 215.923 100.472C216.371 100.611 216.755 100.837 217.075 101.152C217.277 101.339 217.448 101.549 217.587 101.784C217.731 102.019 217.84 102.259 217.915 102.504L216.267 102.888C216.176 102.632 216.027 102.416 215.819 102.24C215.643 102.085 215.437 101.981 215.203 101.928C214.973 101.869 214.744 101.84 214.515 101.84C214.136 101.84 213.795 101.912 213.491 102.056C213.213 102.189 213.005 102.373 212.867 102.608C212.728 102.837 212.659 103.115 212.659 103.44C212.659 103.728 212.709 103.96 212.811 104.136C212.912 104.312 213.048 104.496 213.219 104.688C213.32 104.8 213.44 104.92 213.579 105.048C213.723 105.176 213.869 105.309 214.019 105.448L217.155 108.368C217.165 108.251 217.173 108.125 217.179 107.992C217.184 107.859 217.187 107.731 217.187 107.608L217.179 106.112L218.675 106.112L218.675 108.088C218.675 108.424 218.664 108.728 218.643 109C218.627 109.267 218.595 109.485 218.547 109.656L219.987 110.992L218.907 112.152L217.747 111.048C217.501 111.293 217.227 111.501 216.923 111.672C216.619 111.837 216.312 111.96 216.003 112.04C215.741 112.12 215.483 112.173 215.227 112.2C214.976 112.227 214.723 112.24 214.467 112.24ZM214.515 110.64C214.728 110.64 214.925 110.629 215.107 110.608C215.288 110.581 215.461 110.533 215.627 110.464C215.851 110.373 216.032 110.28 216.171 110.184C216.315 110.088 216.435 109.995 216.531 109.904L213.251 106.896C213.085 106.955 212.931 107.032 212.787 107.128C212.648 107.219 212.528 107.325 212.427 107.448C212.304 107.603 212.211 107.784 212.147 107.992C212.088 108.195 212.061 108.413 212.067 108.648C212.067 108.904 212.107 109.139 212.187 109.352C212.272 109.56 212.381 109.747 212.515 109.912C212.728 110.168 213.024 110.355 213.403 110.472C213.787 110.584 214.157 110.64 214.515 110.64ZM223.679 112L227.423 100.48L229.831 100.48L233.575 112L231.839 112L228.391 101.488L228.823 101.488L225.415 112L223.679 112ZM225.623 109.4L225.623 107.832L231.639 107.832L231.639 109.4L225.623 109.4ZM238.707 112.24C237.821 112.24 237.069 112.043 236.451 111.648C235.832 111.253 235.357 110.712 235.027 110.024C234.701 109.336 234.536 108.555 234.531 107.68C234.536 106.789 234.707 106.003 235.043 105.32C235.379 104.632 235.859 104.093 236.483 103.704C237.107 103.315 237.856 103.12 238.731 103.12C239.675 103.12 240.48 103.355 241.147 103.824C241.819 104.293 242.261 104.936 242.475 105.752L240.811 106.232C240.645 105.747 240.373 105.371 239.995 105.104C239.621 104.832 239.192 104.696 238.707 104.696C238.157 104.696 237.707 104.827 237.355 105.088C237.003 105.344 236.741 105.696 236.571 106.144C236.4 106.592 236.312 107.104 236.307 107.68C236.312 108.571 236.515 109.291 236.915 109.84C237.32 110.389 237.917 110.664 238.707 110.664C239.245 110.664 239.68 110.541 240.011 110.296C240.347 110.045 240.603 109.688 240.779 109.224L242.475 109.624C242.192 110.467 241.725 111.115 241.075 111.568C240.424 112.016 239.635 112.24 238.707 112.24ZM247.566 112.24C246.681 112.24 245.929 112.043 245.31 111.648C244.691 111.253 244.217 110.712 243.886 110.024C243.561 109.336 243.395 108.555 243.39 107.68C243.395 106.789 243.566 106.003 243.902 105.32C244.238 104.632 244.718 104.093 245.342 103.704C245.966 103.315 246.715 103.12 247.59 103.12C248.534 103.12 249.339 103.355 250.006 103.824C250.678 104.293 251.121 104.936 251.334 105.752L249.67 106.232C249.505 105.747 249.233 105.371 248.854 105.104C248.481 104.832 248.051 104.696 247.566 104.696C247.017 104.696 246.566 104.827 246.214 105.088C245.862 105.344 245.601 105.696 245.43 106.144C245.259 106.592 245.171 107.104 245.166 107.68C245.171 108.571 245.374 109.291 245.774 109.84C246.179 110.389 246.777 110.664 247.566 110.664C248.105 110.664 248.539 110.541 248.87 110.296C249.206 110.045 249.462 109.688 249.638 109.224L251.334 109.624C251.051 110.467 250.585 111.115 249.934 111.568C249.283 112.016 248.494 112.24 247.566 112.24ZM256.561 112.24C255.703 112.24 254.948 112.053 254.297 111.68C253.652 111.301 253.148 110.776 252.785 110.104C252.428 109.427 252.249 108.643 252.249 107.752C252.249 106.808 252.425 105.989 252.777 105.296C253.135 104.603 253.631 104.067 254.265 103.688C254.9 103.309 255.639 103.12 256.481 103.12C257.361 103.12 258.111 103.325 258.729 103.736C259.348 104.141 259.809 104.72 260.113 105.472C260.423 106.224 260.545 107.117 260.481 108.152L258.809 108.152L258.809 107.544C258.799 106.541 258.607 105.8 258.233 105.32C257.865 104.84 257.303 104.6 256.545 104.6C255.708 104.6 255.079 104.864 254.657 105.392C254.236 105.92 254.025 106.683 254.025 107.68C254.025 108.629 254.236 109.365 254.657 109.888C255.079 110.405 255.687 110.664 256.481 110.664C257.004 110.664 257.455 110.547 257.833 110.312C258.217 110.072 258.516 109.731 258.729 109.288L260.369 109.808C260.033 110.581 259.524 111.181 258.841 111.608C258.159 112.029 257.399 112.24 256.561 112.24ZM253.481 108.152L253.481 106.848L259.649 106.848L259.649 108.152L253.481 108.152ZM265.58 112.232C264.53 112.232 263.674 112 263.012 111.536C262.351 111.072 261.946 110.419 261.796 109.576L263.508 109.312C263.615 109.76 263.86 110.115 264.244 110.376C264.634 110.632 265.116 110.76 265.692 110.76C266.215 110.76 266.623 110.653 266.916 110.44C267.215 110.227 267.364 109.933 267.364 109.56C267.364 109.341 267.311 109.165 267.204 109.032C267.103 108.893 266.887 108.763 266.556 108.64C266.226 108.517 265.722 108.365 265.044 108.184C264.303 107.992 263.714 107.787 263.276 107.568C262.844 107.344 262.535 107.085 262.348 106.792C262.167 106.493 262.076 106.133 262.076 105.712C262.076 105.189 262.215 104.733 262.492 104.344C262.77 103.955 263.159 103.653 263.66 103.44C264.167 103.227 264.759 103.12 265.436 103.12C266.098 103.12 266.687 103.224 267.204 103.432C267.722 103.64 268.14 103.936 268.46 104.32C268.78 104.699 268.972 105.144 269.036 105.656L267.324 105.968C267.266 105.552 267.071 105.224 266.74 104.984C266.41 104.744 265.98 104.613 265.452 104.592C264.946 104.571 264.535 104.656 264.22 104.848C263.906 105.035 263.748 105.293 263.748 105.624C263.748 105.816 263.807 105.979 263.924 106.112C264.047 106.245 264.282 106.373 264.628 106.496C264.975 106.619 265.487 106.765 266.164 106.936C266.89 107.123 267.466 107.331 267.892 107.56C268.319 107.784 268.623 108.053 268.804 108.368C268.991 108.677 269.084 109.053 269.084 109.496C269.084 110.349 268.772 111.019 268.148 111.504C267.53 111.989 266.674 112.232 265.58 112.232ZM274.158 112.232C273.108 112.232 272.252 112 271.59 111.536C270.929 111.072 270.524 110.419 270.374 109.576L272.086 109.312C272.193 109.76 272.438 110.115 272.822 110.376C273.212 110.632 273.694 110.76 274.27 110.76C274.793 110.76 275.201 110.653 275.494 110.44C275.793 110.227 275.942 109.933 275.942 109.56C275.942 109.341 275.889 109.165 275.782 109.032C275.681 108.893 275.465 108.763 275.134 108.64C274.804 108.517 274.3 108.365 273.622 108.184C272.881 107.992 272.292 107.787 271.854 107.568C271.422 107.344 271.113 107.085 270.926 106.792C270.745 106.493 270.654 106.133 270.654 105.712C270.654 105.189 270.793 104.733 271.07 104.344C271.348 103.955 271.737 103.653 272.238 103.44C272.745 103.227 273.337 103.12 274.014 103.12C274.676 103.12 275.265 103.224 275.782 103.432C276.3 103.64 276.718 103.936 277.038 104.32C277.358 104.699 277.55 105.144 277.614 105.656L275.902 105.968C275.844 105.552 275.649 105.224 275.318 104.984C274.988 104.744 274.558 104.613 274.03 104.592C273.524 104.571 273.113 104.656 272.798 104.848C272.484 105.035 272.326 105.293 272.326 105.624C272.326 105.816 272.385 105.979 272.502 106.112C272.625 106.245 272.86 106.373 273.206 106.496C273.553 106.619 274.065 106.765 274.742 106.936C275.468 107.123 276.044 107.331 276.47 107.56C276.897 107.784 277.201 108.053 277.382 108.368C277.569 108.677 277.662 109.053 277.662 109.496C277.662 110.349 277.35 111.019 276.726 111.504C276.108 111.989 275.252 112.232 274.158 112.232ZM279.593 101.944L279.593 100.32L281.265 100.32L281.265 101.944L279.593 101.944ZM279.593 112L279.593 103.36L281.265 103.36L281.265 112L279.593 112ZM287.723 112.24C286.896 112.24 286.203 112.04 285.643 111.64C285.083 111.235 284.659 110.688 284.371 110C284.083 109.312 283.939 108.536 283.939 107.672C283.939 106.808 284.08 106.032 284.363 105.344C284.651 104.656 285.072 104.115 285.627 103.72C286.187 103.32 286.875 103.12 287.691 103.12C288.502 103.12 289.2 103.32 289.787 103.72C290.379 104.115 290.835 104.656 291.155 105.344C291.475 106.027 291.635 106.803 291.635 107.672C291.635 108.536 291.475 109.315 291.155 110.008C290.84 110.696 290.39 111.24 289.803 111.64C289.222 112.04 288.528 112.24 287.723 112.24ZM283.659 112L283.659 100.48L285.339 100.48L285.339 105.784L285.147 105.784L285.147 112L283.659 112ZM287.491 110.728C288.024 110.728 288.464 110.592 288.811 110.32C289.163 110.048 289.424 109.683 289.595 109.224C289.771 108.76 289.859 108.243 289.859 107.672C289.859 107.107 289.771 106.595 289.595 106.136C289.424 105.677 289.16 105.312 288.803 105.04C288.446 104.768 287.99 104.632 287.435 104.632C286.912 104.632 286.48 104.76 286.139 105.016C285.803 105.272 285.552 105.629 285.387 106.088C285.227 106.547 285.147 107.075 285.147 107.672C285.147 108.269 285.227 108.797 285.387 109.256C285.547 109.715 285.8 110.075 286.147 110.336C286.494 110.597 286.942 110.728 287.491 110.728ZM293.561 112L293.561 100.24L295.233 100.24L295.233 112L293.561 112ZM301.468 112.24C300.609 112.24 299.854 112.053 299.204 111.68C298.558 111.301 298.054 110.776 297.692 110.104C297.334 109.427 297.156 108.643 297.156 107.752C297.156 106.808 297.332 105.989 297.684 105.296C298.041 104.603 298.537 104.067 299.172 103.688C299.806 103.309 300.545 103.12 301.388 103.12C302.268 103.12 303.017 103.325 303.636 103.736C304.254 104.141 304.716 104.72 305.02 105.472C305.329 106.224 305.452 107.117 305.388 108.152L303.716 108.152L303.716 107.544C303.705 106.541 303.513 105.8 303.14 105.32C302.772 104.84 302.209 104.6 301.452 104.6C300.614 104.6 299.985 104.864 299.564 105.392C299.142 105.92 298.932 106.683 298.932 107.68C298.932 108.629 299.142 109.365 299.564 109.888C299.985 110.405 300.593 110.664 301.388 110.664C301.91 110.664 302.361 110.547 302.74 110.312C303.124 110.072 303.422 109.731 303.636 109.288L305.276 109.808C304.94 110.581 304.43 111.181 303.748 111.608C303.065 112.029 302.305 112.24 301.468 112.24ZM298.388 108.152L298.388 106.848L304.556 106.848L304.556 108.152L298.388 108.152ZM314.442 112.24C313.615 112.24 312.922 112.04 312.362 111.64C311.802 111.235 311.378 110.688 311.09 110C310.802 109.312 310.658 108.536 310.658 107.672C310.658 106.808 310.799 106.032 311.082 105.344C311.37 104.656 311.791 104.115 312.346 103.72C312.906 103.32 313.594 103.12 314.41 103.12C315.22 103.12 315.919 103.32 316.506 103.72C317.098 104.115 317.554 104.656 317.874 105.344C318.194 106.027 318.354 106.803 318.354 107.672C318.354 108.536 318.194 109.315 317.874 110.008C317.559 110.696 317.108 111.24 316.522 111.64C315.94 112.04 315.247 112.24 314.442 112.24ZM310.378 112L310.378 100.48L312.058 100.48L312.058 105.784L311.866 105.784L311.866 112L310.378 112ZM314.21 110.728C314.743 110.728 315.183 110.592 315.53 110.32C315.882 110.048 316.143 109.683 316.314 109.224C316.49 108.76 316.578 108.243 316.578 107.672C316.578 107.107 316.49 106.595 316.314 106.136C316.143 105.677 315.879 105.312 315.522 105.04C315.164 104.768 314.708 104.632 314.154 104.632C313.631 104.632 313.199 104.76 312.858 105.016C312.522 105.272 312.271 105.629 312.106 106.088C311.946 106.547 311.866 107.075 311.866 107.672C311.866 108.269 311.946 108.797 312.106 109.256C312.266 109.715 312.519 110.075 312.866 110.336C313.212 110.597 313.66 110.728 314.21 110.728ZM320.757 115.84L322.429 111.288L322.453 112.632L318.685 103.36L320.429 103.36L323.245 110.52L322.733 110.52L325.421 103.36L327.117 103.36L322.349 115.84L320.757 115.84ZM331.573 112L331.573 100.48L335.181 100.48C335.288 100.48 335.485 100.483 335.773 100.488C336.066 100.493 336.346 100.515 336.613 100.552C337.514 100.664 338.272 100.987 338.885 101.52C339.504 102.053 339.97 102.731 340.285 103.552C340.6 104.368 340.757 105.264 340.757 106.24C340.757 107.221 340.6 108.123 340.285 108.944C339.97 109.76 339.504 110.435 338.885 110.968C338.272 111.496 337.514 111.816 336.613 111.928C336.346 111.965 336.066 111.987 335.773 111.992C335.485 111.997 335.288 112 335.181 112L331.573 112ZM333.285 110.408L335.181 110.408C335.362 110.408 335.578 110.403 335.829 110.392C336.08 110.381 336.301 110.36 336.493 110.328C337.08 110.216 337.554 109.963 337.917 109.568C338.285 109.168 338.554 108.677 338.725 108.096C338.896 107.515 338.981 106.896 338.981 106.24C338.981 105.563 338.893 104.936 338.717 104.36C338.541 103.779 338.269 103.293 337.901 102.904C337.538 102.509 337.069 102.259 336.493 102.152C336.301 102.115 336.077 102.093 335.821 102.088C335.57 102.077 335.357 102.072 335.181 102.072L333.285 102.072L333.285 110.408ZM346.452 112.24C345.593 112.24 344.839 112.053 344.188 111.68C343.543 111.301 343.039 110.776 342.676 110.104C342.319 109.427 342.14 108.643 342.14 107.752C342.14 106.808 342.316 105.989 342.668 105.296C343.025 104.603 343.521 104.067 344.156 103.688C344.791 103.309 345.529 103.12 346.372 103.12C347.252 103.12 348.001 103.325 348.62 103.736C349.239 104.141 349.7 104.72 350.004 105.472C350.313 106.224 350.436 107.117 350.372 108.152L348.7 108.152L348.7 107.544C348.689 106.541 348.497 105.8 348.124 105.32C347.756 104.84 347.193 104.6 346.436 104.6C345.599 104.6 344.969 104.864 344.548 105.392C344.127 105.92 343.916 106.683 343.916 107.68C343.916 108.629 344.127 109.365 344.548 109.888C344.969 110.405 345.577 110.664 346.372 110.664C346.895 110.664 347.345 110.547 347.724 110.312C348.108 110.072 348.407 109.731 348.62 109.288L350.26 109.808C349.924 110.581 349.415 111.181 348.732 111.608C348.049 112.029 347.289 112.24 346.452 112.24ZM343.372 108.152L343.372 106.848L349.54 106.848L349.54 108.152L343.372 108.152ZM355.471 112.232C354.42 112.232 353.564 112 352.903 111.536C352.242 111.072 351.836 110.419 351.687 109.576L353.399 109.312C353.506 109.76 353.751 110.115 354.135 110.376C354.524 110.632 355.007 110.76 355.583 110.76C356.106 110.76 356.514 110.653 356.807 110.44C357.106 110.227 357.255 109.933 357.255 109.56C357.255 109.341 357.202 109.165 357.095 109.032C356.994 108.893 356.778 108.763 356.447 108.64C356.116 108.517 355.612 108.365 354.935 108.184C354.194 107.992 353.604 107.787 353.167 107.568C352.735 107.344 352.426 107.085 352.239 106.792C352.058 106.493 351.967 106.133 351.967 105.712C351.967 105.189 352.106 104.733 352.383 104.344C352.66 103.955 353.05 103.653 353.551 103.44C354.058 103.227 354.65 103.12 355.327 103.12C355.988 103.12 356.578 103.224 357.095 103.432C357.612 103.64 358.031 103.936 358.351 104.32C358.671 104.699 358.863 105.144 358.927 105.656L357.215 105.968C357.156 105.552 356.962 105.224 356.631 104.984C356.3 104.744 355.871 104.613 355.343 104.592C354.836 104.571 354.426 104.656 354.111 104.848C353.796 105.035 353.639 105.293 353.639 105.624C353.639 105.816 353.698 105.979 353.815 106.112C353.938 106.245 354.172 106.373 354.519 106.496C354.866 106.619 355.378 106.765 356.055 106.936C356.78 107.123 357.356 107.331 357.783 107.56C358.21 107.784 358.514 108.053 358.695 108.368C358.882 108.677 358.975 109.053 358.975 109.496C358.975 110.349 358.663 111.019 358.039 111.504C357.42 111.989 356.564 112.232 355.471 112.232ZM360.905 101.944L360.905 100.32L362.577 100.32L362.577 101.944L360.905 101.944ZM360.905 112L360.905 103.36L362.577 103.36L362.577 112L360.905 112ZM368.539 116.08C368.075 116.08 367.625 116.008 367.187 115.864C366.755 115.72 366.361 115.507 366.003 115.224C365.646 114.947 365.35 114.603 365.115 114.192L366.659 113.408C366.846 113.776 367.113 114.045 367.459 114.216C367.806 114.387 368.171 114.472 368.555 114.472C369.03 114.472 369.435 114.387 369.771 114.216C370.107 114.051 370.361 113.8 370.531 113.464C370.707 113.128 370.793 112.712 370.787 112.216L370.787 109.8L370.987 109.8L370.987 103.36L372.467 103.36L372.467 112.232C372.467 112.461 372.459 112.68 372.443 112.888C372.427 113.096 372.398 113.304 372.355 113.512C372.233 114.093 371.998 114.573 371.651 114.952C371.31 115.331 370.873 115.613 370.339 115.8C369.811 115.987 369.211 116.08 368.539 116.08ZM368.411 112.24C367.606 112.24 366.91 112.04 366.323 111.64C365.742 111.24 365.291 110.696 364.971 110.008C364.657 109.315 364.499 108.536 364.499 107.672C364.499 106.803 364.659 106.027 364.979 105.344C365.299 104.656 365.753 104.115 366.339 103.72C366.931 103.32 367.633 103.12 368.443 103.12C369.259 103.12 369.945 103.32 370.499 103.72C371.059 104.115 371.481 104.656 371.763 105.344C372.051 106.032 372.195 106.808 372.195 107.672C372.195 108.536 372.051 109.312 371.763 110C371.475 110.688 371.051 111.235 370.491 111.64C369.931 112.04 369.238 112.24 368.411 112.24ZM368.643 110.728C369.193 110.728 369.641 110.597 369.987 110.336C370.334 110.075 370.587 109.715 370.747 109.256C370.907 108.797 370.987 108.269 370.987 107.672C370.987 107.075 370.905 106.547 370.739 106.088C370.579 105.629 370.329 105.272 369.987 105.016C369.651 104.76 369.222 104.632 368.699 104.632C368.145 104.632 367.689 104.768 367.331 105.04C366.974 105.312 366.707 105.677 366.531 106.136C366.361 106.595 366.275 107.107 366.275 107.672C366.275 108.243 366.361 108.76 366.531 109.224C366.707 109.683 366.969 110.048 367.315 110.32C367.667 110.592 368.11 110.728 368.643 110.728ZM380.778 112L380.778 107.752C380.778 107.416 380.748 107.072 380.69 106.72C380.636 106.363 380.53 106.032 380.37 105.728C380.215 105.424 379.994 105.179 379.706 104.992C379.423 104.805 379.052 104.712 378.594 104.712C378.295 104.712 378.012 104.763 377.746 104.864C377.479 104.96 377.244 105.117 377.042 105.336C376.844 105.555 376.687 105.843 376.57 106.2C376.458 106.557 376.402 106.992 376.402 107.504L375.362 107.112C375.362 106.328 375.508 105.637 375.802 105.04C376.095 104.437 376.516 103.968 377.066 103.632C377.615 103.296 378.279 103.128 379.058 103.128C379.655 103.128 380.156 103.224 380.562 103.416C380.967 103.608 381.295 103.861 381.546 104.176C381.802 104.485 381.996 104.824 382.13 105.192C382.263 105.56 382.354 105.92 382.402 106.272C382.45 106.624 382.474 106.933 382.474 107.2L382.474 112L380.778 112ZM374.706 112L374.706 103.36L376.202 103.36L376.202 105.856L376.402 105.856L376.402 112L374.706 112Z" fill="black"/>
</g>
<defs>
<filter id="filter0_d_88_1252" x="0" y="0" width="485" height="228" filterUnits="userSpaceOnUse" color-interpolation-filters="sRGB">
<feFlood flood-opacity="0" result="BackgroundImageFix"/>
<feColorMatrix in="SourceAlpha" type="matrix" values="0 0 0 0 0 0 0 0 0 0 0 0 0 0 0 0 0 0 127 0" result="hardAlpha"/>
<feOffset dy="8"/>
<feGaussianBlur stdDeviation="40"/>
<feComposite in2="hardAlpha" operator="out"/>
<feColorMatrix type="matrix" values="0 0 0 0 0.570833 0 0 0 0 0.570833 0 0 0 0 0.570833 0 0 0 0.32 0"/>
<feBlend mode="normal" in2="BackgroundImageFix" result="effect1_dropShadow_88_1252"/>
<feBlend mode="normal" in="SourceGraphic" in2="effect1_dropShadow_88_1252" result="shape"/>
</filter>
</defs>
</svg>
