<svg width="435" height="228" viewBox="0 0 435 228" fill="none" xmlns="http://www.w3.org/2000/svg">
<g filter="url(#filter0_d_88_1268)">
<rect width="275" height="68" transform="translate(80 72)" fill="white"/>
<path fill-rule="evenodd" clip-rule="evenodd" d="M135.993 98.75H127.523C123.583 98.757 120.389 101.87 120.383 105.713C120.377 109.565 123.573 112.692 127.523 112.697H136V113.309C136 120.027 131.927 123.999 125.035 123.999H106.967C100.073 124 96 120.028 96 113.31V98.676C96 91.957 100.073 88 106.967 88H125.027C131.92 88 135.993 91.957 135.993 98.676V98.75ZM105.479 98.735H116.78C117.625 98.731 118.307 98.06 118.304 97.235C118.3 96.412 117.611 95.746 116.766 95.75H105.48C104.641 95.753 103.96 96.417 103.957 97.237C103.953 98.06 104.635 98.731 105.479 98.735Z" fill="#282828"/>
<path d="M124.075 106.593C124.493 108.495 126.161 109.833 128.065 109.799H134.565C135.357 109.799 136 109.143 136 108.332V103.269C135.998 102.459 135.357 101.802 134.565 101.799H127.912C125.746 101.807 123.997 103.605 124 105.82C124 106.08 124.026 106.339 124.075 106.593Z" fill="#EF0E0E"/>
<path d="M157.832 112.24C157.059 112.24 156.347 112.107 155.696 111.84C155.045 111.568 154.48 111.173 154 110.656C153.52 110.139 153.147 109.509 152.88 108.768C152.613 108.027 152.48 107.184 152.48 106.24C152.48 104.997 152.707 103.931 153.16 103.04C153.613 102.144 154.243 101.456 155.048 100.976C155.853 100.491 156.781 100.248 157.832 100.248C159.187 100.248 160.267 100.563 161.072 101.192C161.883 101.821 162.435 102.691 162.728 103.8L161.032 104.104C160.797 103.416 160.419 102.867 159.896 102.456C159.373 102.045 158.717 101.837 157.928 101.832C157.112 101.827 156.432 102.008 155.888 102.376C155.349 102.744 154.944 103.261 154.672 103.928C154.4 104.589 154.261 105.36 154.256 106.24C154.251 107.12 154.384 107.891 154.656 108.552C154.928 109.208 155.336 109.72 155.88 110.088C156.429 110.456 157.112 110.643 157.928 110.648C158.584 110.659 159.147 110.539 159.616 110.288C160.091 110.032 160.467 109.659 160.744 109.168C161.021 108.677 161.2 108.075 161.28 107.36L159.04 107.36L159.04 106.016L163.056 106.016C163.067 106.112 163.075 106.24 163.08 106.4C163.085 106.555 163.088 106.653 163.088 106.696C163.088 107.763 162.883 108.715 162.472 109.552C162.061 110.389 161.464 111.048 160.68 111.528C159.896 112.003 158.947 112.24 157.832 112.24ZM164.843 112L164.843 100.24L166.515 100.24L166.515 112L164.843 112ZM172.669 112.24C171.805 112.24 171.056 112.045 170.421 111.656C169.786 111.267 169.296 110.731 168.949 110.048C168.608 109.36 168.437 108.568 168.437 107.672C168.437 106.771 168.613 105.979 168.965 105.296C169.317 104.608 169.81 104.075 170.445 103.696C171.08 103.312 171.821 103.12 172.669 103.12C173.533 103.12 174.282 103.315 174.917 103.704C175.552 104.093 176.042 104.629 176.389 105.312C176.736 105.995 176.909 106.781 176.909 107.672C176.909 108.573 176.733 109.368 176.381 110.056C176.034 110.739 175.544 111.275 174.909 111.664C174.274 112.048 173.528 112.24 172.669 112.24ZM172.669 110.664C173.496 110.664 174.112 110.387 174.517 109.832C174.928 109.272 175.133 108.552 175.133 107.672C175.133 106.771 174.925 106.051 174.509 105.512C174.098 104.968 173.485 104.696 172.669 104.696C172.109 104.696 171.648 104.824 171.285 105.08C170.922 105.331 170.653 105.68 170.477 106.128C170.301 106.571 170.213 107.085 170.213 107.672C170.213 108.579 170.421 109.304 170.837 109.848C171.253 110.392 171.864 110.664 172.669 110.664ZM182.723 112.24C181.896 112.24 181.203 112.04 180.643 111.64C180.083 111.235 179.659 110.688 179.371 110C179.083 109.312 178.939 108.536 178.939 107.672C178.939 106.808 179.08 106.032 179.363 105.344C179.651 104.656 180.072 104.115 180.627 103.72C181.187 103.32 181.875 103.12 182.691 103.12C183.502 103.12 184.2 103.32 184.787 103.72C185.379 104.115 185.835 104.656 186.155 105.344C186.475 106.027 186.635 106.803 186.635 107.672C186.635 108.536 186.475 109.315 186.155 110.008C185.84 110.696 185.39 111.24 184.803 111.64C184.222 112.04 183.528 112.24 182.723 112.24ZM178.659 112L178.659 100.48L180.339 100.48L180.339 105.784L180.147 105.784L180.147 112L178.659 112ZM182.491 110.728C183.024 110.728 183.464 110.592 183.811 110.32C184.163 110.048 184.424 109.683 184.595 109.224C184.771 108.76 184.859 108.243 184.859 107.672C184.859 107.107 184.771 106.595 184.595 106.136C184.424 105.677 184.16 105.312 183.803 105.04C183.446 104.768 182.99 104.632 182.435 104.632C181.912 104.632 181.48 104.76 181.139 105.016C180.803 105.272 180.552 105.629 180.387 106.088C180.227 106.547 180.147 107.075 180.147 107.672C180.147 108.269 180.227 108.797 180.387 109.256C180.547 109.715 180.8 110.075 181.147 110.336C181.494 110.597 181.942 110.728 182.491 110.728ZM190.841 112.24C190.201 112.24 189.665 112.123 189.233 111.888C188.801 111.648 188.473 111.333 188.249 110.944C188.031 110.549 187.921 110.117 187.921 109.648C187.921 109.211 187.999 108.827 188.153 108.496C188.308 108.165 188.537 107.885 188.841 107.656C189.145 107.421 189.519 107.232 189.961 107.088C190.345 106.976 190.78 106.877 191.265 106.792C191.751 106.707 192.26 106.627 192.793 106.552C193.332 106.477 193.865 106.403 194.393 106.328L193.785 106.664C193.796 105.987 193.652 105.485 193.353 105.16C193.06 104.829 192.553 104.664 191.833 104.664C191.38 104.664 190.964 104.771 190.585 104.984C190.207 105.192 189.943 105.539 189.793 106.024L188.233 105.544C188.447 104.803 188.852 104.213 189.449 103.776C190.052 103.339 190.852 103.12 191.849 103.12C192.623 103.12 193.295 103.253 193.865 103.52C194.441 103.781 194.863 104.197 195.129 104.768C195.268 105.051 195.353 105.349 195.385 105.664C195.417 105.979 195.433 106.317 195.433 106.68L195.433 112L193.953 112L193.953 110.024L194.241 110.28C193.884 110.941 193.428 111.435 192.873 111.76C192.324 112.08 191.647 112.24 190.841 112.24ZM191.137 110.872C191.612 110.872 192.02 110.789 192.361 110.624C192.703 110.453 192.977 110.237 193.185 109.976C193.393 109.715 193.529 109.443 193.593 109.16C193.684 108.904 193.735 108.616 193.745 108.296C193.761 107.976 193.769 107.72 193.769 107.528L194.313 107.728C193.785 107.808 193.305 107.88 192.873 107.944C192.441 108.008 192.049 108.072 191.697 108.136C191.351 108.195 191.041 108.267 190.769 108.352C190.54 108.432 190.335 108.528 190.153 108.64C189.977 108.752 189.836 108.888 189.729 109.048C189.628 109.208 189.577 109.403 189.577 109.632C189.577 109.856 189.633 110.064 189.745 110.256C189.857 110.443 190.028 110.592 190.257 110.704C190.487 110.816 190.78 110.872 191.137 110.872ZM197.671 112L197.671 100.24L199.343 100.24L199.343 112L197.671 112ZM201.585 113.912L201.689 113.168C201.918 113.184 202.097 113.141 202.225 113.04C202.353 112.939 202.438 112.797 202.481 112.616C202.524 112.435 202.532 112.229 202.505 112L201.585 112L201.585 110.072L203.353 110.072L203.353 112.16C203.353 112.789 203.201 113.264 202.897 113.584C202.598 113.904 202.161 114.013 201.585 113.912ZM208.789 112L212.533 100.48L214.941 100.48L218.685 112L216.949 112L213.501 101.488L213.933 101.488L210.525 112L208.789 112ZM210.733 109.4L210.733 107.832L216.749 107.832L216.749 109.4L210.733 109.4ZM223.68 116.08C223.216 116.08 222.765 116.008 222.328 115.864C221.896 115.72 221.501 115.507 221.144 115.224C220.787 114.947 220.491 114.603 220.256 114.192L221.8 113.408C221.987 113.776 222.253 114.045 222.6 114.216C222.947 114.387 223.312 114.472 223.696 114.472C224.171 114.472 224.576 114.387 224.912 114.216C225.248 114.051 225.501 113.8 225.672 113.464C225.848 113.128 225.933 112.712 225.928 112.216L225.928 109.8L226.128 109.8L226.128 103.36L227.608 103.36L227.608 112.232C227.608 112.461 227.6 112.68 227.584 112.888C227.568 113.096 227.539 113.304 227.496 113.512C227.373 114.093 227.139 114.573 226.792 114.952C226.451 115.331 226.013 115.613 225.48 115.8C224.952 115.987 224.352 116.08 223.68 116.08ZM223.552 112.24C222.747 112.24 222.051 112.04 221.464 111.64C220.883 111.24 220.432 110.696 220.112 110.008C219.797 109.315 219.64 108.536 219.64 107.672C219.64 106.803 219.8 106.027 220.12 105.344C220.44 104.656 220.893 104.115 221.48 103.72C222.072 103.32 222.773 103.12 223.584 103.12C224.4 103.12 225.085 103.32 225.64 103.72C226.2 104.115 226.621 104.656 226.904 105.344C227.192 106.032 227.336 106.808 227.336 107.672C227.336 108.536 227.192 109.312 226.904 110C226.616 110.688 226.192 111.235 225.632 111.64C225.072 112.04 224.379 112.24 223.552 112.24ZM223.784 110.728C224.333 110.728 224.781 110.597 225.128 110.336C225.475 110.075 225.728 109.715 225.888 109.256C226.048 108.797 226.128 108.269 226.128 107.672C226.128 107.075 226.045 106.547 225.88 106.088C225.72 105.629 225.469 105.272 225.128 105.016C224.792 104.76 224.363 104.632 223.84 104.632C223.285 104.632 222.829 104.768 222.472 105.04C222.115 105.312 221.848 105.677 221.672 106.136C221.501 106.595 221.416 107.107 221.416 107.672C221.416 108.243 221.501 108.76 221.672 109.224C221.848 109.683 222.109 110.048 222.456 110.32C222.808 110.592 223.251 110.728 223.784 110.728ZM230.014 101.944L230.014 100.32L231.686 100.32L231.686 101.944L230.014 101.944ZM230.014 112L230.014 103.36L231.686 103.36L231.686 112L230.014 112ZM234.249 112L234.249 100.24L235.921 100.24L235.921 112L234.249 112ZM242.155 112.24C241.296 112.24 240.542 112.053 239.891 111.68C239.246 111.301 238.742 110.776 238.379 110.104C238.022 109.427 237.843 108.643 237.843 107.752C237.843 106.808 238.019 105.989 238.371 105.296C238.728 104.603 239.224 104.067 239.859 103.688C240.494 103.309 241.232 103.12 242.075 103.12C242.955 103.12 243.704 103.325 244.323 103.736C244.942 104.141 245.403 104.72 245.707 105.472C246.016 106.224 246.139 107.117 246.075 108.152L244.403 108.152L244.403 107.544C244.392 106.541 244.2 105.8 243.827 105.32C243.459 104.84 242.896 104.6 242.139 104.6C241.302 104.6 240.672 104.864 240.251 105.392C239.83 105.92 239.619 106.683 239.619 107.68C239.619 108.629 239.83 109.365 240.251 109.888C240.672 110.405 241.28 110.664 242.075 110.664C242.598 110.664 243.048 110.547 243.427 110.312C243.811 110.072 244.11 109.731 244.323 109.288L245.963 109.808C245.627 110.581 245.118 111.181 244.435 111.608C243.752 112.029 242.992 112.24 242.155 112.24ZM239.075 108.152L239.075 106.848L245.243 106.848L245.243 108.152L239.075 108.152ZM247.398 113.912L247.502 113.168C247.731 113.184 247.91 113.141 248.038 113.04C248.166 112.939 248.251 112.797 248.294 112.616C248.336 112.435 248.344 112.229 248.318 112L247.398 112L247.398 110.072L249.166 110.072L249.166 112.16C249.166 112.789 249.014 113.264 248.71 113.584C248.411 113.904 247.974 114.013 247.398 113.912ZM259.577 112.24C258.751 112.24 258.004 112.099 257.337 111.816C256.676 111.528 256.129 111.12 255.697 110.592C255.271 110.059 254.993 109.427 254.865 108.696L256.609 108.432C256.785 109.136 257.153 109.685 257.713 110.08C258.273 110.469 258.927 110.664 259.673 110.664C260.137 110.664 260.564 110.592 260.953 110.448C261.343 110.299 261.655 110.088 261.889 109.816C262.129 109.539 262.249 109.208 262.249 108.824C262.249 108.616 262.212 108.432 262.137 108.272C262.068 108.112 261.969 107.973 261.841 107.856C261.719 107.733 261.567 107.629 261.385 107.544C261.209 107.453 261.015 107.376 260.801 107.312L257.849 106.44C257.561 106.355 257.268 106.245 256.969 106.112C256.671 105.973 256.396 105.795 256.145 105.576C255.9 105.352 255.7 105.077 255.545 104.752C255.391 104.421 255.313 104.021 255.313 103.552C255.313 102.843 255.495 102.243 255.857 101.752C256.225 101.256 256.721 100.883 257.345 100.632C257.969 100.376 258.668 100.248 259.441 100.248C260.22 100.259 260.916 100.397 261.529 100.664C262.148 100.931 262.66 101.315 263.065 101.816C263.476 102.312 263.759 102.915 263.913 103.624L262.121 103.928C262.041 103.496 261.871 103.125 261.609 102.816C261.348 102.501 261.028 102.261 260.649 102.096C260.271 101.925 259.86 101.837 259.417 101.832C258.991 101.821 258.599 101.885 258.241 102.024C257.889 102.163 257.607 102.357 257.393 102.608C257.185 102.859 257.081 103.147 257.081 103.472C257.081 103.792 257.175 104.051 257.361 104.248C257.548 104.445 257.777 104.603 258.049 104.72C258.327 104.832 258.601 104.925 258.873 105L261.001 105.6C261.268 105.675 261.569 105.776 261.905 105.904C262.247 106.027 262.575 106.2 262.889 106.424C263.209 106.648 263.473 106.947 263.681 107.32C263.889 107.688 263.993 108.152 263.993 108.712C263.993 109.293 263.876 109.805 263.641 110.248C263.407 110.685 263.084 111.053 262.673 111.352C262.268 111.645 261.799 111.867 261.265 112.016C260.732 112.165 260.169 112.24 259.577 112.24ZM269.394 112.24C268.509 112.24 267.757 112.043 267.138 111.648C266.519 111.253 266.045 110.712 265.714 110.024C265.389 109.336 265.223 108.555 265.218 107.68C265.223 106.789 265.394 106.003 265.73 105.32C266.066 104.632 266.546 104.093 267.17 103.704C267.794 103.315 268.543 103.12 269.418 103.12C270.362 103.12 271.167 103.355 271.834 103.824C272.506 104.293 272.949 104.936 273.162 105.752L271.498 106.232C271.333 105.747 271.061 105.371 270.682 105.104C270.309 104.832 269.879 104.696 269.394 104.696C268.845 104.696 268.394 104.827 268.042 105.088C267.69 105.344 267.429 105.696 267.258 106.144C267.087 106.592 266.999 107.104 266.994 107.68C266.999 108.571 267.202 109.291 267.602 109.84C268.007 110.389 268.605 110.664 269.394 110.664C269.933 110.664 270.367 110.541 270.698 110.296C271.034 110.045 271.29 109.688 271.466 109.224L273.162 109.624C272.879 110.467 272.413 111.115 271.762 111.568C271.111 112.016 270.322 112.24 269.394 112.24ZM277.123 112.24C276.483 112.24 275.947 112.123 275.515 111.888C275.083 111.648 274.755 111.333 274.531 110.944C274.312 110.549 274.203 110.117 274.203 109.648C274.203 109.211 274.28 108.827 274.435 108.496C274.589 108.165 274.819 107.885 275.123 107.656C275.427 107.421 275.8 107.232 276.243 107.088C276.627 106.976 277.061 106.877 277.547 106.792C278.032 106.707 278.541 106.627 279.075 106.552C279.613 106.477 280.147 106.403 280.675 106.328L280.067 106.664C280.077 105.987 279.933 105.485 279.635 105.16C279.341 104.829 278.835 104.664 278.115 104.664C277.661 104.664 277.245 104.771 276.867 104.984C276.488 105.192 276.224 105.539 276.075 106.024L274.515 105.544C274.728 104.803 275.133 104.213 275.731 103.776C276.333 103.339 277.133 103.12 278.131 103.12C278.904 103.12 279.576 103.253 280.147 103.52C280.723 103.781 281.144 104.197 281.411 104.768C281.549 105.051 281.635 105.349 281.667 105.664C281.699 105.979 281.715 106.317 281.715 106.68L281.715 112L280.235 112L280.235 110.024L280.523 110.28C280.165 110.941 279.709 111.435 279.155 111.76C278.605 112.08 277.928 112.24 277.123 112.24ZM277.419 110.872C277.893 110.872 278.301 110.789 278.643 110.624C278.984 110.453 279.259 110.237 279.467 109.976C279.675 109.715 279.811 109.443 279.875 109.16C279.965 108.904 280.016 108.616 280.027 108.296C280.043 107.976 280.051 107.72 280.051 107.528L280.595 107.728C280.067 107.808 279.587 107.88 279.155 107.944C278.723 108.008 278.331 108.072 277.979 108.136C277.632 108.195 277.323 108.267 277.051 108.352C276.821 108.432 276.616 108.528 276.435 108.64C276.259 108.752 276.117 108.888 276.011 109.048C275.909 109.208 275.859 109.403 275.859 109.632C275.859 109.856 275.915 110.064 276.027 110.256C276.139 110.443 276.309 110.592 276.539 110.704C276.768 110.816 277.061 110.872 277.419 110.872ZM283.952 112L283.952 100.24L285.624 100.24L285.624 112L283.952 112ZM290.466 112.24C289.826 112.24 289.29 112.123 288.858 111.888C288.426 111.648 288.098 111.333 287.874 110.944C287.656 110.549 287.546 110.117 287.546 109.648C287.546 109.211 287.624 108.827 287.778 108.496C287.933 108.165 288.162 107.885 288.466 107.656C288.77 107.421 289.144 107.232 289.586 107.088C289.97 106.976 290.405 106.877 290.89 106.792C291.376 106.707 291.885 106.627 292.418 106.552C292.957 106.477 293.49 106.403 294.018 106.328L293.41 106.664C293.421 105.987 293.277 105.485 292.978 105.16C292.685 104.829 292.178 104.664 291.458 104.664C291.005 104.664 290.589 104.771 290.21 104.984C289.832 105.192 289.568 105.539 289.418 106.024L287.858 105.544C288.072 104.803 288.477 104.213 289.074 103.776C289.677 103.339 290.477 103.12 291.474 103.12C292.248 103.12 292.92 103.253 293.49 103.52C294.066 103.781 294.488 104.197 294.754 104.768C294.893 105.051 294.978 105.349 295.01 105.664C295.042 105.979 295.058 106.317 295.058 106.68L295.058 112L293.578 112L293.578 110.024L293.866 110.28C293.509 110.941 293.053 111.435 292.498 111.76C291.949 112.08 291.272 112.24 290.466 112.24ZM290.762 110.872C291.237 110.872 291.645 110.789 291.986 110.624C292.328 110.453 292.602 110.237 292.81 109.976C293.018 109.715 293.154 109.443 293.218 109.16C293.309 108.904 293.36 108.616 293.37 108.296C293.386 107.976 293.394 107.72 293.394 107.528L293.938 107.728C293.41 107.808 292.93 107.88 292.498 107.944C292.066 108.008 291.674 108.072 291.322 108.136C290.976 108.195 290.666 108.267 290.394 108.352C290.165 108.432 289.96 108.528 289.778 108.64C289.602 108.752 289.461 108.888 289.354 109.048C289.253 109.208 289.202 109.403 289.202 109.632C289.202 109.856 289.258 110.064 289.37 110.256C289.482 110.443 289.653 110.592 289.882 110.704C290.112 110.816 290.405 110.872 290.762 110.872ZM301.192 112.24C300.365 112.24 299.672 112.04 299.112 111.64C298.552 111.235 298.128 110.688 297.84 110C297.552 109.312 297.408 108.536 297.408 107.672C297.408 106.808 297.549 106.032 297.832 105.344C298.12 104.656 298.541 104.115 299.096 103.72C299.656 103.32 300.344 103.12 301.16 103.12C301.97 103.12 302.669 103.32 303.256 103.72C303.848 104.115 304.304 104.656 304.624 105.344C304.944 106.027 305.104 106.803 305.104 107.672C305.104 108.536 304.944 109.315 304.624 110.008C304.309 110.696 303.858 111.24 303.272 111.64C302.69 112.04 301.997 112.24 301.192 112.24ZM297.128 112L297.128 100.48L298.808 100.48L298.808 105.784L298.616 105.784L298.616 112L297.128 112ZM300.96 110.728C301.493 110.728 301.933 110.592 302.28 110.32C302.632 110.048 302.893 109.683 303.064 109.224C303.24 108.76 303.328 108.243 303.328 107.672C303.328 107.107 303.24 106.595 303.064 106.136C302.893 105.677 302.629 105.312 302.272 105.04C301.914 104.768 301.458 104.632 300.904 104.632C300.381 104.632 299.949 104.76 299.608 105.016C299.272 105.272 299.021 105.629 298.856 106.088C298.696 106.547 298.616 107.075 298.616 107.672C298.616 108.269 298.696 108.797 298.856 109.256C299.016 109.715 299.269 110.075 299.616 110.336C299.962 110.597 300.41 110.728 300.96 110.728ZM307.03 112L307.03 100.24L308.702 100.24L308.702 112L307.03 112ZM314.936 112.24C314.078 112.24 313.323 112.053 312.672 111.68C312.027 111.301 311.523 110.776 311.16 110.104C310.803 109.427 310.624 108.643 310.624 107.752C310.624 106.808 310.8 105.989 311.152 105.296C311.51 104.603 312.006 104.067 312.64 103.688C313.275 103.309 314.014 103.12 314.856 103.12C315.736 103.12 316.486 103.325 317.104 103.736C317.723 104.141 318.184 104.72 318.488 105.472C318.798 106.224 318.92 107.117 318.856 108.152L317.184 108.152L317.184 107.544C317.174 106.541 316.982 105.8 316.608 105.32C316.24 104.84 315.678 104.6 314.92 104.6C314.083 104.6 313.454 104.864 313.032 105.392C312.611 105.92 312.4 106.683 312.4 107.68C312.4 108.629 312.611 109.365 313.032 109.888C313.454 110.405 314.062 110.664 314.856 110.664C315.379 110.664 315.83 110.547 316.208 110.312C316.592 110.072 316.891 109.731 317.104 109.288L318.744 109.808C318.408 110.581 317.899 111.181 317.216 111.608C316.534 112.029 315.774 112.24 314.936 112.24ZM311.856 108.152L311.856 106.848L318.024 106.848L318.024 108.152L311.856 108.152Z" fill="black"/>
</g>
<defs>
<filter id="filter0_d_88_1268" x="0" y="0" width="435" height="228" filterUnits="userSpaceOnUse" color-interpolation-filters="sRGB">
<feFlood flood-opacity="0" result="BackgroundImageFix"/>
<feColorMatrix in="SourceAlpha" type="matrix" values="0 0 0 0 0 0 0 0 0 0 0 0 0 0 0 0 0 0 127 0" result="hardAlpha"/>
<feOffset dy="8"/>
<feGaussianBlur stdDeviation="40"/>
<feComposite in2="hardAlpha" operator="out"/>
<feColorMatrix type="matrix" values="0 0 0 0 0.570833 0 0 0 0 0.570833 0 0 0 0 0.570833 0 0 0 0.32 0"/>
<feBlend mode="normal" in2="BackgroundImageFix" result="effect1_dropShadow_88_1268"/>
<feBlend mode="normal" in="SourceGraphic" in2="effect1_dropShadow_88_1268" result="shape"/>
</filter>
</defs>
</svg>
