<svg width="76" height="76" viewBox="0 0 76 76" fill="none" xmlns="http://www.w3.org/2000/svg">
<path fill-rule="evenodd" clip-rule="evenodd" d="M9.5 50.6667V18.6042C9.5 17.8695 9.81667 17.165 10.3787 16.6456C10.9408 16.1247 11.704 15.8334 12.5004 15.8334H63.4996C64.296 15.8334 65.0592 16.1247 65.6213 16.6456C66.1833 17.165 66.5 17.8695 66.5 18.6042V50.6667H45.9167L44.3333 53.8334H31.6667L30.0833 50.6667H9.5Z" fill="#282828"/>
<path fill-rule="evenodd" clip-rule="evenodd" d="M22.1667 23.75C23.0407 23.75 23.75 24.4593 23.75 25.3333C23.75 26.2073 23.0407 26.9167 22.1667 26.9167C21.2927 26.9167 20.5833 27.626 20.5833 28.5V30.0833C20.5833 31.2993 20.1258 32.4093 19.3737 33.25C20.1258 34.0908 20.5833 35.2007 20.5833 36.4167V38C20.5833 38.874 21.2927 39.5833 22.1667 39.5833C23.0407 39.5833 23.75 40.2927 23.75 41.1667C23.75 42.0407 23.0407 42.75 22.1667 42.75C19.5431 42.75 17.4167 40.6236 17.4167 38V36.4167C17.4167 35.5427 16.7073 34.8333 15.8333 34.8333C14.9593 34.8333 14.25 34.124 14.25 33.25C14.25 32.376 14.9593 31.6667 15.8333 31.6667C16.7073 31.6667 17.4167 30.9573 17.4167 30.0833V28.5C17.4167 25.8764 19.5431 23.75 22.1667 23.75Z" fill="white"/>
<path fill-rule="evenodd" clip-rule="evenodd" d="M53.8333 26.9167C52.9593 26.9167 52.25 26.2073 52.25 25.3333C52.25 24.4593 52.9593 23.75 53.8333 23.75C56.4569 23.75 58.5833 25.8764 58.5833 28.5V30.0833C58.5833 30.9573 59.2927 31.6667 60.1667 31.6667C61.0407 31.6667 61.75 32.376 61.75 33.25C61.75 34.124 61.0407 34.8333 60.1667 34.8333C59.2927 34.8333 58.5833 35.5427 58.5833 36.4167V38C58.5833 40.6236 56.4569 42.75 53.8333 42.75C52.9593 42.75 52.25 42.0407 52.25 41.1667C52.25 40.2927 52.9593 39.5833 53.8333 39.5833C54.7073 39.5833 55.4167 38.874 55.4167 38V36.4167C55.4167 35.2007 55.8742 34.0908 56.6263 33.25C55.8742 32.4093 55.4167 31.2993 55.4167 30.0833V28.5C55.4167 27.626 54.7073 26.9167 53.8333 26.9167Z" fill="white"/>
<path fill-rule="evenodd" clip-rule="evenodd" d="M45.9166 50.6666H69.6666V53.8333C69.6666 57.3309 66.8308 60.1666 63.3332 60.1666C51.1986 60.1666 24.8013 60.1666 12.6666 60.1666C9.169 60.1666 6.33325 57.3309 6.33325 53.8333C6.33325 52.9023 6.33325 50.6666 6.33325 50.6666H30.0833L31.6666 53.8333H44.3333L45.9166 50.6666Z" fill="#EF0E0E"/>
<path d="M42.7498 34.8333C43.6243 34.8333 44.3332 34.1244 44.3332 33.25C44.3332 32.3755 43.6243 31.6666 42.7498 31.6666C41.8754 31.6666 41.1665 32.3755 41.1665 33.25C41.1665 34.1244 41.8754 34.8333 42.7498 34.8333Z" fill="white"/>
<path d="M47.4998 34.8333C48.3743 34.8333 49.0832 34.1244 49.0832 33.25C49.0832 32.3755 48.3743 31.6666 47.4998 31.6666C46.6254 31.6666 45.9165 32.3755 45.9165 33.25C45.9165 34.1244 46.6254 34.8333 47.4998 34.8333Z" fill="white"/>
<path d="M37.9998 34.8333C38.8743 34.8333 39.5832 34.1244 39.5832 33.25C39.5832 32.3755 38.8743 31.6666 37.9998 31.6666C37.1254 31.6666 36.4165 32.3755 36.4165 33.25C36.4165 34.1244 37.1254 34.8333 37.9998 34.8333Z" fill="white"/>
<path d="M33.2498 34.8333C34.1243 34.8333 34.8332 34.1244 34.8332 33.25C34.8332 32.3755 34.1243 31.6666 33.2498 31.6666C32.3754 31.6666 31.6665 32.3755 31.6665 33.25C31.6665 34.1244 32.3754 34.8333 33.2498 34.8333Z" fill="white"/>
<path d="M28.4998 34.8333C29.3743 34.8333 30.0832 34.1244 30.0832 33.25C30.0832 32.3755 29.3743 31.6666 28.4998 31.6666C27.6254 31.6666 26.9165 32.3755 26.9165 33.25C26.9165 34.1244 27.6254 34.8333 28.4998 34.8333Z" fill="white"/>
</svg>
