<svg width="408" height="453" viewBox="0 0 408 453" fill="none" xmlns="http://www.w3.org/2000/svg">
<mask id="mask0_88_1030" style="mask-type:alpha" maskUnits="userSpaceOnUse" x="-1" y="0" width="409" height="453">
<rect x="-0.00170898" width="408" height="453" fill="white"/>
</mask>
<g mask="url(#mask0_88_1030)">
<path opacity="0.1" d="M-382.001 709.79C-362.846 599.916 -53.5197 596.696 -37.7927 389.614C-4.70693 -46.0354 820.272 879.251 893.833 632.633C1040.69 140.296 2587.79 218.679 2623 140.297M-314.668 335.048C-272.489 434.775 -136.121 599.378 71.9128 459.97C331.955 285.71 472.425 -58.6109 777.742 53.7133C1083.06 166.037 1420.88 591.189 1583.41 322.451M-378.795 678.098C-358.543 578.204 -57.4533 582.976 -32.5688 379.116C11.3244 -44.086 803.707 820.743 888.304 591.218C1042.7 127.674 2532.22 222.569 2573.49 135.123M-375.588 646.405C-354.24 556.492 -61.3864 569.256 -27.3444 368.619C27.3563 -42.1366 787.144 762.235 882.777 549.802C1044.72 115.052 2476.65 226.46 2523.99 129.949M-372.382 614.712C-349.938 534.78 -65.32 555.535 -22.1205 358.121C43.3876 -40.1872 770.579 703.726 877.248 508.386C1046.74 102.43 2421.08 230.35 2474.49 124.775M-369.175 583.02C-345.635 513.07 -69.253 541.816 -16.8961 347.624C59.4195 -38.2368 754.015 645.219 871.721 466.972C1048.76 89.8085 2365.52 234.242 2424.98 119.602M-365.969 551.327C-341.332 491.358 -73.1867 528.096 -11.6723 337.127C75.4508 -36.2873 737.451 586.711 866.192 425.556C1050.78 77.1864 2309.95 238.133 2375.48 114.428M-362.763 519.634C-337.03 469.646 -77.1203 514.375 -6.44846 326.629C91.4821 -34.3379 720.887 528.203 860.664 384.141C1052.79 64.5641 2254.38 242.023 2325.97 109.254M-359.556 487.942C-332.727 447.934 -81.0534 500.655 -1.22403 316.131C107.514 -32.3885 704.323 469.695 855.136 342.725C1054.81 51.9419 2198.82 245.914 2276.47 104.08M-356.35 456.249C-328.424 426.222 -84.987 486.935 3.99982 305.633C123.545 -30.4391 687.759 411.187 849.608 301.309C1056.83 39.3197 2143.25 249.805 2226.97 98.9061M-353.144 424.556C-324.122 404.511 -88.9206 473.215 9.22369 295.136C139.577 -28.4897 671.194 352.679 844.08 259.894C1058.85 26.6975 2087.68 253.695 2177.46 93.7321M-349.938 392.863C-319.819 382.799 -92.8537 459.494 14.4481 284.638C155.609 -26.5403 654.63 294.171 838.552 218.478C1060.87 14.0752 2032.12 257.586 2127.96 88.5582M-346.731 361.171C-315.516 361.088 -96.7873 445.775 19.672 274.141C171.64 -24.5898 638.066 235.664 833.023 177.064C1062.88 1.45404 1976.55 261.477 2078.45 83.3852M-343.525 329.478C-311.213 339.376 -100.72 432.055 24.8964 263.644C187.672 -22.6404 621.502 177.156 827.496 135.648C1064.9 -11.1682 1920.98 265.368 2028.95 78.2113M-340.319 305.619C-306.91 325.498 -104.654 426.168 30.1202 260.98C203.703 -12.8573 604.938 126.482 821.967 102.066C1066.92 -15.9567 1865.42 277.092 1979.44 80.871M-337.113 297.73C-302.608 327.59 -108.588 436.251 35.3441 274.285C219.734 12.8955 588.374 91.7771 816.439 84.454C1068.94 -4.77552 1809.85 304.786 1929.94 99.5005M-333.906 293.296C-298.305 333.137 -112.521 449.79 40.5685 291.046C235.766 42.1037 571.81 60.5278 810.911 70.2972C1070.95 9.86108 1754.28 335.936 1880.44 121.585M-330.7 297.347C-294.002 347.168 -116.454 471.813 45.7923 316.292C251.798 79.7967 555.245 37.7633 805.383 64.6252C1072.97 32.9824 1698.72 375.57 1830.93 152.155M-327.494 304.766C-289.7 364.569 -120.388 497.205 51.0162 344.907C267.829 120.858 538.681 18.3674 799.855 62.3217C1074.99 59.4723 1643.15 418.573 1781.43 186.093M-324.287 312.297C-285.397 382.081 -124.321 522.709 56.2406 373.633C283.861 162.032 522.117 -0.916595 794.327 60.1302C1077.01 86.0742 1587.58 461.687 1731.92 220.143M-321.081 319.866C-281.094 399.631 -128.255 548.25 61.4645 402.397C299.892 203.243 505.553 -20.163 788.798 57.9763C1079.02 112.714 1532.02 504.84 1682.42 254.231M-317.874 327.452C-276.791 417.198 -132.188 573.809 66.6889 431.179C315.924 244.472 488.989 -39.3917 783.271 55.84C1081.04 139.371 1476.45 548.01 1632.91 288.336" stroke="black"/>
</g>
</svg>
