<svg width="80" height="80" viewBox="0 0 80 80" fill="none" xmlns="http://www.w3.org/2000/svg">
<path d="M12.2047 40.4939H2.34375C1.05 40.4939 0 41.5423 0 42.8376C0 44.1314 1.05 45.1814 2.34375 45.1814H11.2734C10.15 52.2626 10.6719 57.0517 10.7016 57.3095C10.8078 58.236 11.4531 59.011 12.3438 59.2829C15.9047 60.3735 19.0078 61.4798 21.7078 62.5642V68.3579H13.6594C12.6922 65.6298 10.0859 63.6704 7.03125 63.6704C3.15469 63.6704 0 66.8251 0 70.7017C0 74.5798 3.15469 77.7329 7.03125 77.7329C10.0859 77.7329 12.6922 75.7735 13.6594 73.0454H24.0516C25.3469 73.0454 26.3953 71.997 26.3953 70.7017V64.6032C35.0828 68.7048 37.9625 72.0688 38.1359 72.2782C39.0723 73.5665 40.9269 73.5676 41.8641 72.2782C42.0375 72.0688 44.9172 68.7048 53.6047 64.6032V70.7017C53.6047 71.997 54.6531 73.0454 55.9484 73.0454H66.3406C67.3078 75.7735 69.9141 77.7329 72.9688 77.7329C76.8453 77.7329 80 74.5798 80 70.7017C80 66.8251 76.8453 63.6704 72.9688 63.6704C69.9141 63.6704 67.3078 65.6298 66.3406 68.3579H58.2922V62.5642C60.9922 61.4798 64.0953 60.3735 67.6562 59.2829C68.5469 59.011 69.1922 58.236 69.2984 57.3095C69.3281 57.0517 69.85 52.2626 68.7266 45.1814H77.6562C78.95 45.1814 80 44.1314 80 42.8376C80 41.5423 78.95 40.4939 77.6562 40.4939H67.7953C67.2833 38.3615 66.6848 36.312 65.8875 34.0798H72.3266C73.6203 34.0798 74.6703 33.0314 74.6703 31.736C74.6703 30.4423 73.6203 29.3923 72.3266 29.3923H63.9969C61.963 24.8951 59.4878 20.8303 56.5578 17.0376H66.3406C67.3078 19.7657 69.9141 21.7251 72.9688 21.7251C76.8453 21.7251 80 18.5704 80 14.6939C80 10.8173 76.8453 7.66261 72.9688 7.66261C69.9141 7.66261 67.3078 9.62198 66.3406 12.3501H52.5609C49.2594 8.8298 45.5109 5.59698 41.3406 2.68917C40.5342 2.12667 39.4656 2.12667 38.6594 2.68917C34.4891 5.59698 30.7406 8.8298 27.4391 12.3501H13.6594C12.6922 9.62198 10.0859 7.66261 7.03125 7.66261C3.15469 7.66261 0 10.8173 0 14.6939C0 18.5704 3.15469 21.7251 7.03125 21.7251C10.0859 21.7251 12.6922 19.7657 13.6594 17.0376H23.4422C20.5192 20.8212 18.0417 24.8848 16.0031 29.3923H7.67343C6.37968 29.3923 5.32968 30.4423 5.32968 31.736C5.32968 33.0314 6.37968 34.0798 7.67343 34.0798H14.1125C13.3161 36.3093 12.7175 38.3589 12.2047 40.4939ZM27.1031 28.4876C27.1031 26.1314 29.0187 24.2157 31.375 24.2157H48.625C50.9812 24.2157 52.8969 26.1314 52.8969 28.4876V41.9095C52.8969 43.772 51.7 45.3579 50.0344 45.9423V47.4673C50.0344 53.0001 45.5328 57.5017 40 57.5017C34.4672 57.5017 29.9656 53.0001 29.9656 47.4673V45.9423C28.3 45.3579 27.1031 43.772 27.1031 41.9095V28.4876Z" fill="white"/>
<path d="M48.2095 41.4937V28.903H31.7907V41.4937H48.2095ZM37.6563 34.3718C37.6563 33.0765 38.7063 32.028 40.0001 32.028C41.2938 32.028 42.3438 33.0765 42.3438 34.3718V36.0249C42.3438 37.3202 41.2938 38.3687 40.0001 38.3687C38.7063 38.3687 37.6563 37.3202 37.6563 36.0249V34.3718Z" fill="white"/>
<path d="M34.6532 47.4671V46.1812H45.3469V47.4671C45.3469 50.4155 42.9485 52.814 40 52.814C37.0516 52.814 34.6532 50.4155 34.6532 47.4671Z" fill="white"/>
</svg>
